G04 #@! TF.GenerationSoftware,KiCad,Pcbnew,(5.0.0)*
G04 #@! TF.CreationDate,2018-08-10T19:45:38+02:00*
G04 #@! TF.ProjectId,main,6D61696E2E6B696361645F7063620000,rev?*
G04 #@! TF.SameCoordinates,PX7b89fa0PY82ce540*
G04 #@! TF.FileFunction,Legend,Top*
G04 #@! TF.FilePolarity,Positive*
%FSLAX46Y46*%
G04 Gerber Fmt 4.6, Leading zero omitted, Abs format (unit mm)*
G04 Created by KiCad (PCBNEW (5.0.0)) date 08/10/18 19:45:38*
%MOMM*%
%LPD*%
G01*
G04 APERTURE LIST*
%ADD10C,0.120000*%
%ADD11C,0.150000*%
%ADD12C,0.100000*%
G04 APERTURE END LIST*
D10*
G04 #@! TO.C,U4*
X15916000Y79005000D02*
X15916000Y77205000D01*
X19136000Y77205000D02*
X19136000Y79655000D01*
G04 #@! TO.C,C1*
X15442000Y64269252D02*
X15442000Y63746748D01*
X14022000Y64269252D02*
X14022000Y63746748D01*
G04 #@! TO.C,C2*
X10731313Y59638221D02*
X11100779Y60007687D01*
X9727221Y60642313D02*
X10096687Y61011779D01*
G04 #@! TO.C,C3*
X20383313Y47168779D02*
X20752779Y46799313D01*
X19379221Y46164687D02*
X19748687Y45795221D01*
G04 #@! TO.C,C4*
X17601221Y44513687D02*
X17970687Y44144221D01*
X18605313Y45517779D02*
X18974779Y45148313D01*
G04 #@! TO.C,C5*
X4520221Y65595313D02*
X4889687Y65964779D01*
X5524313Y64591221D02*
X5893779Y64960687D01*
G04 #@! TO.C,C6*
X1968687Y63043779D02*
X1599221Y62674313D01*
X2972779Y62039687D02*
X2603313Y61670221D01*
G04 #@! TO.C,C8*
X15315000Y74048252D02*
X15315000Y73525748D01*
X13895000Y74048252D02*
X13895000Y73525748D01*
G04 #@! TO.C,C9*
X11183252Y17601000D02*
X10660748Y17601000D01*
X11183252Y16181000D02*
X10660748Y16181000D01*
G04 #@! TO.C,C10*
X11549748Y7822000D02*
X12072252Y7822000D01*
X11549748Y6402000D02*
X12072252Y6402000D01*
G04 #@! TO.C,C11*
X12199252Y80339000D02*
X11676748Y80339000D01*
X12199252Y78919000D02*
X11676748Y78919000D01*
G04 #@! TO.C,C12*
X21328748Y77545000D02*
X21851252Y77545000D01*
X21328748Y76125000D02*
X21851252Y76125000D01*
G04 #@! TO.C,J2*
X8469000Y9656000D02*
X7969000Y9906000D01*
X8469000Y10156000D02*
X8469000Y9656000D01*
X7969000Y9906000D02*
X8469000Y10156000D01*
G04 #@! TO.C,J3*
X3997000Y41275000D02*
X1337000Y41275000D01*
X3997000Y41275000D02*
X3997000Y54035000D01*
X3997000Y54035000D02*
X1337000Y54035000D01*
X1337000Y41275000D02*
X1337000Y54035000D01*
X1337000Y38675000D02*
X1337000Y40005000D01*
X2667000Y38675000D02*
X1337000Y38675000D01*
G04 #@! TO.C,J4*
X16443000Y43494000D02*
X16443000Y40894000D01*
X16443000Y43494000D02*
X8703000Y43494000D01*
X8703000Y43494000D02*
X8703000Y38294000D01*
X13843000Y38294000D02*
X8703000Y38294000D01*
X13843000Y40894000D02*
X13843000Y38294000D01*
X16443000Y40894000D02*
X13843000Y40894000D01*
X16443000Y38294000D02*
X15113000Y38294000D01*
X16443000Y39624000D02*
X16443000Y38294000D01*
G04 #@! TO.C,Y1*
X1789720Y59722563D02*
X7333437Y65266280D01*
X1789720Y59722563D02*
X2687745Y58824538D01*
X7333437Y65266280D02*
X8231462Y64368255D01*
X4858563Y56653720D02*
X10402280Y62197437D01*
X4858563Y56653720D02*
X3960538Y57551745D01*
X10402280Y62197437D02*
X9504255Y63095462D01*
G04 #@! TO.C,C7*
X19694000Y20825000D02*
X23994000Y20825000D01*
X23994000Y20825000D02*
X23994000Y26525000D01*
X19694000Y20825000D02*
X19694000Y26525000D01*
G04 #@! TO.C,JP1*
X23552000Y35787000D02*
X23852000Y36087000D01*
X23852000Y35487000D02*
X23852000Y36087000D01*
X23552000Y35787000D02*
X23852000Y35487000D01*
X22652000Y34937000D02*
X22052000Y34937000D01*
X23352000Y38387000D02*
X23352000Y35587000D01*
X22052000Y39037000D02*
X22652000Y39037000D01*
X21352000Y35587000D02*
X21352000Y38387000D01*
X21352000Y38337000D02*
G75*
G02X22052000Y39037000I700000J0D01*
G01*
X22652000Y39037000D02*
G75*
G02X23352000Y38337000I0J-700000D01*
G01*
X23352000Y35637000D02*
G75*
G02X22652000Y34937000I-700000J0D01*
G01*
X22052000Y34937000D02*
G75*
G02X21352000Y35637000I0J700000D01*
G01*
G04 #@! TO.C,D1*
X5263000Y47745000D02*
X5263000Y44885000D01*
X5263000Y44885000D02*
X7183000Y44885000D01*
X7183000Y44885000D02*
X7183000Y47745000D01*
D11*
G04 #@! TO.C,SW1*
X21869139Y67738000D02*
G75*
G03X21869139Y67738000I-1581139J0D01*
G01*
X20288000Y70738000D02*
X17288000Y70738000D01*
X17288000Y70738000D02*
X20288000Y70738000D01*
X20288000Y70738000D02*
X23288000Y70738000D01*
X23288000Y70738000D02*
X23288000Y65238000D01*
X23288000Y65238000D02*
X23288000Y67738000D01*
X23288000Y67738000D02*
X23288000Y64738000D01*
X23288000Y64738000D02*
X17288000Y64738000D01*
X17288000Y64738000D02*
X17288000Y70738000D01*
G04 #@! TO.C,U1*
X13025639Y57436571D02*
X12866540Y57277472D01*
X18152163Y52310047D02*
X17922353Y52080237D01*
X13025639Y47183523D02*
X13255449Y47413333D01*
X7899115Y52310047D02*
X8128925Y52539857D01*
X13025639Y57436571D02*
X13255449Y57206761D01*
X7899115Y52310047D02*
X8128925Y52080237D01*
X13025639Y47183523D02*
X12795829Y47413333D01*
X18152163Y52310047D02*
X17922353Y52539857D01*
X12866540Y57277472D02*
X11858913Y58285099D01*
G04 #@! TO.C,Q1*
X17102000Y16037000D02*
X17102000Y15987000D01*
X21252000Y16037000D02*
X21252000Y15892000D01*
X21252000Y10887000D02*
X21252000Y11032000D01*
X17102000Y10887000D02*
X17102000Y11032000D01*
X17102000Y16037000D02*
X21252000Y16037000D01*
X17102000Y10887000D02*
X21252000Y10887000D01*
X17102000Y15987000D02*
X15702000Y15987000D01*
D10*
G04 #@! TO.C,U3*
X19422000Y9434000D02*
X17662000Y9434000D01*
X17662000Y6364000D02*
X20092000Y6364000D01*
D12*
G04 #@! TO.C,U2*
X18788000Y35806000D02*
X18788000Y27686000D01*
X2548000Y21686000D02*
X2548000Y19566000D01*
X2548000Y19566000D02*
X2718000Y19566000D01*
X2548000Y35806000D02*
X2548000Y33686000D01*
X2548000Y35806000D02*
X2718000Y35806000D01*
X18788000Y21686000D02*
X18788000Y19566000D01*
X18788000Y19566000D02*
X18618000Y19566000D01*
D10*
G04 #@! TO.C,R7*
X23062000Y41917252D02*
X23062000Y41394748D01*
X21642000Y41917252D02*
X21642000Y41394748D01*
G04 #@! TO.C,R5*
X21642000Y32528252D02*
X21642000Y32005748D01*
X23062000Y32528252D02*
X23062000Y32005748D01*
G04 #@! TO.C,R4*
X16898252Y3735000D02*
X16375748Y3735000D01*
X16898252Y5155000D02*
X16375748Y5155000D01*
G04 #@! TO.C,R3*
X12072252Y10235000D02*
X11549748Y10235000D01*
X12072252Y8815000D02*
X11549748Y8815000D01*
G04 #@! TO.C,R2*
X11437252Y71426000D02*
X10914748Y71426000D01*
X11437252Y72846000D02*
X10914748Y72846000D01*
G04 #@! TO.C,R1*
X14022000Y69349252D02*
X14022000Y68826748D01*
X15442000Y69349252D02*
X15442000Y68826748D01*
G04 #@! TO.C,R6*
X5513000Y41648748D02*
X5513000Y42171252D01*
X6933000Y41648748D02*
X6933000Y42171252D01*
G04 #@! TO.C,J1*
X4163279Y76777736D02*
G75*
G02X3908000Y77668000I1424721J890264D01*
G01*
X6478193Y76242495D02*
G75*
G02X4697000Y76243000I-890193J1425505D01*
G01*
X7013358Y78557894D02*
G75*
G02X7028000Y76802000I-1425358J-889894D01*
G01*
X4698106Y79093358D02*
G75*
G02X6454000Y79108000I889894J-1425358D01*
G01*
X3907901Y77639326D02*
G75*
G02X4148000Y78534000I1680099J28674D01*
G01*
X7268000Y74168000D02*
G75*
G03X7268000Y74168000I-1680000J0D01*
G01*
X7268000Y70668000D02*
G75*
G03X7268000Y70668000I-1680000J0D01*
G01*
X1488000Y79478000D02*
X1488000Y68858000D01*
X2588000Y79478000D02*
X2588000Y68858000D01*
X8748000Y79478000D02*
X8748000Y68858000D01*
X1028000Y79478000D02*
X1028000Y68858000D01*
X8748000Y79478000D02*
X1028000Y79478000D01*
X8748000Y68858000D02*
X1028000Y68858000D01*
X6657000Y72893000D02*
X6529000Y73022000D01*
X4407000Y75143000D02*
X4314000Y75237000D01*
X6863000Y73098000D02*
X6769000Y73192000D01*
X4647000Y75313000D02*
X4519000Y75442000D01*
X6657000Y69393000D02*
X6529000Y69522000D01*
X4407000Y71643000D02*
X4314000Y71737000D01*
X6863000Y69598000D02*
X6769000Y69692000D01*
X4647000Y71813000D02*
X4519000Y71942000D01*
X1428000Y79718000D02*
X788000Y79718000D01*
X788000Y79718000D02*
X788000Y79318000D01*
G04 #@! TO.C,TP1*
X15305000Y10287000D02*
G75*
G03X15305000Y10287000I-700000J0D01*
G01*
G04 #@! TO.C,U4*
D11*
X16891095Y81446620D02*
X16891095Y80637096D01*
X16938714Y80541858D01*
X16986333Y80494239D01*
X17081571Y80446620D01*
X17272047Y80446620D01*
X17367285Y80494239D01*
X17414904Y80541858D01*
X17462523Y80637096D01*
X17462523Y81446620D01*
X18367285Y81113286D02*
X18367285Y80446620D01*
X18129190Y81494239D02*
X17891095Y80779953D01*
X18510142Y80779953D01*
G04 #@! TO.C,C1*
X16740142Y63841334D02*
X16787761Y63793715D01*
X16835380Y63650858D01*
X16835380Y63555620D01*
X16787761Y63412762D01*
X16692523Y63317524D01*
X16597285Y63269905D01*
X16406809Y63222286D01*
X16263952Y63222286D01*
X16073476Y63269905D01*
X15978238Y63317524D01*
X15883000Y63412762D01*
X15835380Y63555620D01*
X15835380Y63650858D01*
X15883000Y63793715D01*
X15930619Y63841334D01*
X16835380Y64793715D02*
X16835380Y64222286D01*
X16835380Y64508000D02*
X15835380Y64508000D01*
X15978238Y64412762D01*
X16073476Y64317524D01*
X16121095Y64222286D01*
G04 #@! TO.C,C2*
X12834687Y59827611D02*
X12834687Y59760268D01*
X12767343Y59625581D01*
X12700000Y59558237D01*
X12565312Y59490894D01*
X12430625Y59490894D01*
X12329610Y59524565D01*
X12161251Y59625581D01*
X12060236Y59726596D01*
X11959221Y59894955D01*
X11925549Y59995970D01*
X11925549Y60130657D01*
X11992893Y60265344D01*
X12060236Y60332688D01*
X12194923Y60400031D01*
X12262267Y60400031D01*
X12531641Y60669405D02*
X12531641Y60736749D01*
X12565312Y60837764D01*
X12733671Y61006123D01*
X12834687Y61039794D01*
X12902030Y61039794D01*
X13003045Y61006123D01*
X13070389Y60938779D01*
X13137732Y60804092D01*
X13137732Y59995970D01*
X13575465Y60433703D01*
G04 #@! TO.C,C3*
X22359687Y44333611D02*
X22359687Y44266268D01*
X22292343Y44131581D01*
X22225000Y44064237D01*
X22090312Y43996894D01*
X21955625Y43996894D01*
X21854610Y44030565D01*
X21686251Y44131581D01*
X21585236Y44232596D01*
X21484221Y44400955D01*
X21450549Y44501970D01*
X21450549Y44636657D01*
X21517893Y44771344D01*
X21585236Y44838688D01*
X21719923Y44906031D01*
X21787267Y44906031D01*
X21955625Y45209077D02*
X22393358Y45646810D01*
X22427030Y45141733D01*
X22528045Y45242749D01*
X22629061Y45276420D01*
X22696404Y45276420D01*
X22797419Y45242749D01*
X22965778Y45074390D01*
X22999450Y44973375D01*
X22999450Y44906031D01*
X22965778Y44805016D01*
X22763748Y44602985D01*
X22662732Y44569313D01*
X22595389Y44569313D01*
G04 #@! TO.C,C4*
X20327687Y42682611D02*
X20327687Y42615268D01*
X20260343Y42480581D01*
X20193000Y42413237D01*
X20058312Y42345894D01*
X19923625Y42345894D01*
X19822610Y42379565D01*
X19654251Y42480581D01*
X19553236Y42581596D01*
X19452221Y42749955D01*
X19418549Y42850970D01*
X19418549Y42985657D01*
X19485893Y43120344D01*
X19553236Y43187688D01*
X19687923Y43255031D01*
X19755267Y43255031D01*
X20529717Y43692764D02*
X21001122Y43221359D01*
X20091984Y43793779D02*
X20428702Y43120344D01*
X20866435Y43558077D01*
G04 #@! TO.C,C5*
X4198687Y66431611D02*
X4198687Y66364268D01*
X4131343Y66229581D01*
X4064000Y66162237D01*
X3929312Y66094894D01*
X3794625Y66094894D01*
X3693610Y66128565D01*
X3525251Y66229581D01*
X3424236Y66330596D01*
X3323221Y66498955D01*
X3289549Y66599970D01*
X3289549Y66734657D01*
X3356893Y66869344D01*
X3424236Y66936688D01*
X3558923Y67004031D01*
X3626267Y67004031D01*
X4198687Y67711138D02*
X3861969Y67374420D01*
X4165015Y67004031D01*
X4165015Y67071375D01*
X4198687Y67172390D01*
X4367045Y67340749D01*
X4468061Y67374420D01*
X4535404Y67374420D01*
X4636419Y67340749D01*
X4804778Y67172390D01*
X4838450Y67071375D01*
X4838450Y67004031D01*
X4804778Y66903016D01*
X4636419Y66734657D01*
X4535404Y66700985D01*
X4468061Y66700985D01*
G04 #@! TO.C,C6*
X2166687Y64526611D02*
X2166687Y64459268D01*
X2099343Y64324581D01*
X2032000Y64257237D01*
X1897312Y64189894D01*
X1762625Y64189894D01*
X1661610Y64223565D01*
X1493251Y64324581D01*
X1392236Y64425596D01*
X1291221Y64593955D01*
X1257549Y64694970D01*
X1257549Y64829657D01*
X1324893Y64964344D01*
X1392236Y65031688D01*
X1526923Y65099031D01*
X1594267Y65099031D01*
X2133015Y65772466D02*
X1998328Y65637779D01*
X1964656Y65536764D01*
X1964656Y65469420D01*
X1998328Y65301062D01*
X2099343Y65132703D01*
X2368717Y64863329D01*
X2469732Y64829657D01*
X2537076Y64829657D01*
X2638091Y64863329D01*
X2772778Y64998016D01*
X2806450Y65099031D01*
X2806450Y65166375D01*
X2772778Y65267390D01*
X2604419Y65435749D01*
X2503404Y65469420D01*
X2436061Y65469420D01*
X2335045Y65435749D01*
X2200358Y65301062D01*
X2166687Y65200046D01*
X2166687Y65132703D01*
X2200358Y65031688D01*
G04 #@! TO.C,C8*
X16612142Y73620334D02*
X16659761Y73572715D01*
X16707380Y73429858D01*
X16707380Y73334620D01*
X16659761Y73191762D01*
X16564523Y73096524D01*
X16469285Y73048905D01*
X16278809Y73001286D01*
X16135952Y73001286D01*
X15945476Y73048905D01*
X15850238Y73096524D01*
X15755000Y73191762D01*
X15707380Y73334620D01*
X15707380Y73429858D01*
X15755000Y73572715D01*
X15802619Y73620334D01*
X16135952Y74191762D02*
X16088333Y74096524D01*
X16040714Y74048905D01*
X15945476Y74001286D01*
X15897857Y74001286D01*
X15802619Y74048905D01*
X15755000Y74096524D01*
X15707380Y74191762D01*
X15707380Y74382239D01*
X15755000Y74477477D01*
X15802619Y74525096D01*
X15897857Y74572715D01*
X15945476Y74572715D01*
X16040714Y74525096D01*
X16088333Y74477477D01*
X16135952Y74382239D01*
X16135952Y74191762D01*
X16183571Y74096524D01*
X16231190Y74048905D01*
X16326428Y74001286D01*
X16516904Y74001286D01*
X16612142Y74048905D01*
X16659761Y74096524D01*
X16707380Y74191762D01*
X16707380Y74382239D01*
X16659761Y74477477D01*
X16612142Y74525096D01*
X16516904Y74572715D01*
X16326428Y74572715D01*
X16231190Y74525096D01*
X16183571Y74477477D01*
X16135952Y74382239D01*
G04 #@! TO.C,C9*
X7453333Y16660858D02*
X7405714Y16613239D01*
X7262857Y16565620D01*
X7167619Y16565620D01*
X7024761Y16613239D01*
X6929523Y16708477D01*
X6881904Y16803715D01*
X6834285Y16994191D01*
X6834285Y17137048D01*
X6881904Y17327524D01*
X6929523Y17422762D01*
X7024761Y17518000D01*
X7167619Y17565620D01*
X7262857Y17565620D01*
X7405714Y17518000D01*
X7453333Y17470381D01*
X7929523Y16565620D02*
X8120000Y16565620D01*
X8215238Y16613239D01*
X8262857Y16660858D01*
X8358095Y16803715D01*
X8405714Y16994191D01*
X8405714Y17375143D01*
X8358095Y17470381D01*
X8310476Y17518000D01*
X8215238Y17565620D01*
X8024761Y17565620D01*
X7929523Y17518000D01*
X7881904Y17470381D01*
X7834285Y17375143D01*
X7834285Y17137048D01*
X7881904Y17041810D01*
X7929523Y16994191D01*
X8024761Y16946572D01*
X8215238Y16946572D01*
X8310476Y16994191D01*
X8358095Y17041810D01*
X8405714Y17137048D01*
G04 #@! TO.C,C10*
X9755142Y6342143D02*
X9802761Y6294524D01*
X9850380Y6151667D01*
X9850380Y6056429D01*
X9802761Y5913572D01*
X9707523Y5818334D01*
X9612285Y5770715D01*
X9421809Y5723096D01*
X9278952Y5723096D01*
X9088476Y5770715D01*
X8993238Y5818334D01*
X8898000Y5913572D01*
X8850380Y6056429D01*
X8850380Y6151667D01*
X8898000Y6294524D01*
X8945619Y6342143D01*
X9850380Y7294524D02*
X9850380Y6723096D01*
X9850380Y7008810D02*
X8850380Y7008810D01*
X8993238Y6913572D01*
X9088476Y6818334D01*
X9136095Y6723096D01*
X8850380Y7913572D02*
X8850380Y8008810D01*
X8898000Y8104048D01*
X8945619Y8151667D01*
X9040857Y8199286D01*
X9231333Y8246905D01*
X9469428Y8246905D01*
X9659904Y8199286D01*
X9755142Y8151667D01*
X9802761Y8104048D01*
X9850380Y8008810D01*
X9850380Y7913572D01*
X9802761Y7818334D01*
X9755142Y7770715D01*
X9659904Y7723096D01*
X9469428Y7675477D01*
X9231333Y7675477D01*
X9040857Y7723096D01*
X8945619Y7770715D01*
X8898000Y7818334D01*
X8850380Y7913572D01*
G04 #@! TO.C,C11*
X7993142Y80414858D02*
X7945523Y80367239D01*
X7802666Y80319620D01*
X7707428Y80319620D01*
X7564571Y80367239D01*
X7469333Y80462477D01*
X7421714Y80557715D01*
X7374095Y80748191D01*
X7374095Y80891048D01*
X7421714Y81081524D01*
X7469333Y81176762D01*
X7564571Y81272000D01*
X7707428Y81319620D01*
X7802666Y81319620D01*
X7945523Y81272000D01*
X7993142Y81224381D01*
X8945523Y80319620D02*
X8374095Y80319620D01*
X8659809Y80319620D02*
X8659809Y81319620D01*
X8564571Y81176762D01*
X8469333Y81081524D01*
X8374095Y81033905D01*
X9897904Y80319620D02*
X9326476Y80319620D01*
X9612190Y80319620D02*
X9612190Y81319620D01*
X9516952Y81176762D01*
X9421714Y81081524D01*
X9326476Y81033905D01*
G04 #@! TO.C,C12*
X21074142Y78128858D02*
X21026523Y78081239D01*
X20883666Y78033620D01*
X20788428Y78033620D01*
X20645571Y78081239D01*
X20550333Y78176477D01*
X20502714Y78271715D01*
X20455095Y78462191D01*
X20455095Y78605048D01*
X20502714Y78795524D01*
X20550333Y78890762D01*
X20645571Y78986000D01*
X20788428Y79033620D01*
X20883666Y79033620D01*
X21026523Y78986000D01*
X21074142Y78938381D01*
X22026523Y78033620D02*
X21455095Y78033620D01*
X21740809Y78033620D02*
X21740809Y79033620D01*
X21645571Y78890762D01*
X21550333Y78795524D01*
X21455095Y78747905D01*
X22407476Y78938381D02*
X22455095Y78986000D01*
X22550333Y79033620D01*
X22788428Y79033620D01*
X22883666Y78986000D01*
X22931285Y78938381D01*
X22978904Y78843143D01*
X22978904Y78747905D01*
X22931285Y78605048D01*
X22359857Y78033620D01*
X22978904Y78033620D01*
G04 #@! TO.C,J2*
X4135666Y3453620D02*
X4135666Y2739334D01*
X4088047Y2596477D01*
X3992809Y2501239D01*
X3849952Y2453620D01*
X3754714Y2453620D01*
X4564238Y3358381D02*
X4611857Y3406000D01*
X4707095Y3453620D01*
X4945190Y3453620D01*
X5040428Y3406000D01*
X5088047Y3358381D01*
X5135666Y3263143D01*
X5135666Y3167905D01*
X5088047Y3025048D01*
X4516619Y2453620D01*
X5135666Y2453620D01*
G04 #@! TO.C,J3*
X2333666Y37782620D02*
X2333666Y37068334D01*
X2286047Y36925477D01*
X2190809Y36830239D01*
X2047952Y36782620D01*
X1952714Y36782620D01*
X2714619Y37782620D02*
X3333666Y37782620D01*
X3000333Y37401667D01*
X3143190Y37401667D01*
X3238428Y37354048D01*
X3286047Y37306429D01*
X3333666Y37211191D01*
X3333666Y36973096D01*
X3286047Y36877858D01*
X3238428Y36830239D01*
X3143190Y36782620D01*
X2857476Y36782620D01*
X2762238Y36830239D01*
X2714619Y36877858D01*
G04 #@! TO.C,J4*
X17335380Y40560667D02*
X18049666Y40560667D01*
X18192523Y40513048D01*
X18287761Y40417810D01*
X18335380Y40274953D01*
X18335380Y40179715D01*
X17668714Y41465429D02*
X18335380Y41465429D01*
X17287761Y41227334D02*
X18002047Y40989239D01*
X18002047Y41608286D01*
G04 #@! TO.C,Y1*
X6758446Y57338119D02*
X7095164Y57001401D01*
X6152355Y57472806D02*
X6758446Y57338119D01*
X6623759Y57944210D01*
X7936957Y57843195D02*
X7532896Y57439134D01*
X7734927Y57641165D02*
X7027820Y58348271D01*
X7061492Y58179913D01*
X7061492Y58045226D01*
X7027820Y57944210D01*
G04 #@! TO.C,C7*
X22201142Y18883334D02*
X22248761Y18835715D01*
X22296380Y18692858D01*
X22296380Y18597620D01*
X22248761Y18454762D01*
X22153523Y18359524D01*
X22058285Y18311905D01*
X21867809Y18264286D01*
X21724952Y18264286D01*
X21534476Y18311905D01*
X21439238Y18359524D01*
X21344000Y18454762D01*
X21296380Y18597620D01*
X21296380Y18692858D01*
X21344000Y18835715D01*
X21391619Y18883334D01*
X21296380Y19216667D02*
X21296380Y19883334D01*
X22296380Y19454762D01*
G04 #@! TO.C,JP1*
X20004380Y36153667D02*
X20718666Y36153667D01*
X20861523Y36106048D01*
X20956761Y36010810D01*
X21004380Y35867953D01*
X21004380Y35772715D01*
X21004380Y36629858D02*
X20004380Y36629858D01*
X20004380Y37010810D01*
X20052000Y37106048D01*
X20099619Y37153667D01*
X20194857Y37201286D01*
X20337714Y37201286D01*
X20432952Y37153667D01*
X20480571Y37106048D01*
X20528190Y37010810D01*
X20528190Y36629858D01*
X21004380Y38153667D02*
X21004380Y37582239D01*
X21004380Y37867953D02*
X20004380Y37867953D01*
X20147238Y37772715D01*
X20242476Y37677477D01*
X20290095Y37582239D01*
G04 #@! TO.C,D1*
X6548380Y48918905D02*
X5548380Y48918905D01*
X5548380Y49157000D01*
X5596000Y49299858D01*
X5691238Y49395096D01*
X5786476Y49442715D01*
X5976952Y49490334D01*
X6119809Y49490334D01*
X6310285Y49442715D01*
X6405523Y49395096D01*
X6500761Y49299858D01*
X6548380Y49157000D01*
X6548380Y48918905D01*
X6548380Y50442715D02*
X6548380Y49871286D01*
X6548380Y50157000D02*
X5548380Y50157000D01*
X5691238Y50061762D01*
X5786476Y49966524D01*
X5834095Y49871286D01*
G04 #@! TO.C,SW1*
X20724761Y66484667D02*
X20772380Y66627524D01*
X20772380Y66865620D01*
X20724761Y66960858D01*
X20677142Y67008477D01*
X20581904Y67056096D01*
X20486666Y67056096D01*
X20391428Y67008477D01*
X20343809Y66960858D01*
X20296190Y66865620D01*
X20248571Y66675143D01*
X20200952Y66579905D01*
X20153333Y66532286D01*
X20058095Y66484667D01*
X19962857Y66484667D01*
X19867619Y66532286D01*
X19820000Y66579905D01*
X19772380Y66675143D01*
X19772380Y66913239D01*
X19820000Y67056096D01*
X19772380Y67389429D02*
X20772380Y67627524D01*
X20058095Y67818000D01*
X20772380Y68008477D01*
X19772380Y68246572D01*
X20772380Y69151334D02*
X20772380Y68579905D01*
X20772380Y68865620D02*
X19772380Y68865620D01*
X19915238Y68770381D01*
X20010476Y68675143D01*
X20058095Y68579905D01*
G04 #@! TO.C,U1*
X13183477Y53122974D02*
X12611057Y52550554D01*
X12577385Y52449539D01*
X12577385Y52382195D01*
X12611057Y52281180D01*
X12745744Y52146493D01*
X12846759Y52112821D01*
X12914103Y52112821D01*
X13015118Y52146493D01*
X13587538Y52718913D01*
X13587538Y51304699D02*
X13183477Y51708760D01*
X13385507Y51506730D02*
X14092614Y52213836D01*
X13924255Y52180165D01*
X13789568Y52180165D01*
X13688553Y52213836D01*
G04 #@! TO.C,Q1*
X19081761Y16414381D02*
X18986523Y16462000D01*
X18891285Y16557239D01*
X18748428Y16700096D01*
X18653190Y16747715D01*
X18557952Y16747715D01*
X18605571Y16509620D02*
X18510333Y16557239D01*
X18415095Y16652477D01*
X18367476Y16842953D01*
X18367476Y17176286D01*
X18415095Y17366762D01*
X18510333Y17462000D01*
X18605571Y17509620D01*
X18796047Y17509620D01*
X18891285Y17462000D01*
X18986523Y17366762D01*
X19034142Y17176286D01*
X19034142Y16842953D01*
X18986523Y16652477D01*
X18891285Y16557239D01*
X18796047Y16509620D01*
X18605571Y16509620D01*
X19986523Y16509620D02*
X19415095Y16509620D01*
X19700809Y16509620D02*
X19700809Y17509620D01*
X19605571Y17366762D01*
X19510333Y17271524D01*
X19415095Y17223905D01*
G04 #@! TO.C,U3*
X21844095Y8294620D02*
X21844095Y7485096D01*
X21891714Y7389858D01*
X21939333Y7342239D01*
X22034571Y7294620D01*
X22225047Y7294620D01*
X22320285Y7342239D01*
X22367904Y7389858D01*
X22415523Y7485096D01*
X22415523Y8294620D01*
X22796476Y8294620D02*
X23415523Y8294620D01*
X23082190Y7913667D01*
X23225047Y7913667D01*
X23320285Y7866048D01*
X23367904Y7818429D01*
X23415523Y7723191D01*
X23415523Y7485096D01*
X23367904Y7389858D01*
X23320285Y7342239D01*
X23225047Y7294620D01*
X22939333Y7294620D01*
X22844095Y7342239D01*
X22796476Y7389858D01*
G04 #@! TO.C,U2*
X10755380Y26797096D02*
X11564904Y26797096D01*
X11660142Y26844715D01*
X11707761Y26892334D01*
X11755380Y26987572D01*
X11755380Y27178048D01*
X11707761Y27273286D01*
X11660142Y27320905D01*
X11564904Y27368524D01*
X10755380Y27368524D01*
X10850619Y27797096D02*
X10803000Y27844715D01*
X10755380Y27939953D01*
X10755380Y28178048D01*
X10803000Y28273286D01*
X10850619Y28320905D01*
X10945857Y28368524D01*
X11041095Y28368524D01*
X11183952Y28320905D01*
X11755380Y27749477D01*
X11755380Y28368524D01*
G04 #@! TO.C,R7*
X24454380Y41489334D02*
X23978190Y41156000D01*
X24454380Y40917905D02*
X23454380Y40917905D01*
X23454380Y41298858D01*
X23502000Y41394096D01*
X23549619Y41441715D01*
X23644857Y41489334D01*
X23787714Y41489334D01*
X23882952Y41441715D01*
X23930571Y41394096D01*
X23978190Y41298858D01*
X23978190Y40917905D01*
X23454380Y41822667D02*
X23454380Y42489334D01*
X24454380Y42060762D01*
G04 #@! TO.C,R5*
X24454380Y32100334D02*
X23978190Y31767000D01*
X24454380Y31528905D02*
X23454380Y31528905D01*
X23454380Y31909858D01*
X23502000Y32005096D01*
X23549619Y32052715D01*
X23644857Y32100334D01*
X23787714Y32100334D01*
X23882952Y32052715D01*
X23930571Y32005096D01*
X23978190Y31909858D01*
X23978190Y31528905D01*
X23454380Y33005096D02*
X23454380Y32528905D01*
X23930571Y32481286D01*
X23882952Y32528905D01*
X23835333Y32624143D01*
X23835333Y32862239D01*
X23882952Y32957477D01*
X23930571Y33005096D01*
X24025809Y33052715D01*
X24263904Y33052715D01*
X24359142Y33005096D01*
X24406761Y32957477D01*
X24454380Y32862239D01*
X24454380Y32624143D01*
X24406761Y32528905D01*
X24359142Y32481286D01*
G04 #@! TO.C,R4*
X19518333Y3738620D02*
X19185000Y4214810D01*
X18946904Y3738620D02*
X18946904Y4738620D01*
X19327857Y4738620D01*
X19423095Y4691000D01*
X19470714Y4643381D01*
X19518333Y4548143D01*
X19518333Y4405286D01*
X19470714Y4310048D01*
X19423095Y4262429D01*
X19327857Y4214810D01*
X18946904Y4214810D01*
X20375476Y4405286D02*
X20375476Y3738620D01*
X20137380Y4786239D02*
X19899285Y4071953D01*
X20518333Y4071953D01*
G04 #@! TO.C,R3*
X9850380Y9612334D02*
X9374190Y9279000D01*
X9850380Y9040905D02*
X8850380Y9040905D01*
X8850380Y9421858D01*
X8898000Y9517096D01*
X8945619Y9564715D01*
X9040857Y9612334D01*
X9183714Y9612334D01*
X9278952Y9564715D01*
X9326571Y9517096D01*
X9374190Y9421858D01*
X9374190Y9040905D01*
X8850380Y9945667D02*
X8850380Y10564715D01*
X9231333Y10231381D01*
X9231333Y10374239D01*
X9278952Y10469477D01*
X9326571Y10517096D01*
X9421809Y10564715D01*
X9659904Y10564715D01*
X9755142Y10517096D01*
X9802761Y10469477D01*
X9850380Y10374239D01*
X9850380Y10088524D01*
X9802761Y9993286D01*
X9755142Y9945667D01*
G04 #@! TO.C,R2*
X11009333Y70033620D02*
X10676000Y70509810D01*
X10437904Y70033620D02*
X10437904Y71033620D01*
X10818857Y71033620D01*
X10914095Y70986000D01*
X10961714Y70938381D01*
X11009333Y70843143D01*
X11009333Y70700286D01*
X10961714Y70605048D01*
X10914095Y70557429D01*
X10818857Y70509810D01*
X10437904Y70509810D01*
X11390285Y70938381D02*
X11437904Y70986000D01*
X11533142Y71033620D01*
X11771238Y71033620D01*
X11866476Y70986000D01*
X11914095Y70938381D01*
X11961714Y70843143D01*
X11961714Y70747905D01*
X11914095Y70605048D01*
X11342666Y70033620D01*
X11961714Y70033620D01*
G04 #@! TO.C,R1*
X16835380Y68921334D02*
X16359190Y68588000D01*
X16835380Y68349905D02*
X15835380Y68349905D01*
X15835380Y68730858D01*
X15883000Y68826096D01*
X15930619Y68873715D01*
X16025857Y68921334D01*
X16168714Y68921334D01*
X16263952Y68873715D01*
X16311571Y68826096D01*
X16359190Y68730858D01*
X16359190Y68349905D01*
X16835380Y69873715D02*
X16835380Y69302286D01*
X16835380Y69588000D02*
X15835380Y69588000D01*
X15978238Y69492762D01*
X16073476Y69397524D01*
X16121095Y69302286D01*
G04 #@! TO.C,R6*
X6802380Y38695334D02*
X6326190Y38362000D01*
X6802380Y38123905D02*
X5802380Y38123905D01*
X5802380Y38504858D01*
X5850000Y38600096D01*
X5897619Y38647715D01*
X5992857Y38695334D01*
X6135714Y38695334D01*
X6230952Y38647715D01*
X6278571Y38600096D01*
X6326190Y38504858D01*
X6326190Y38123905D01*
X5802380Y39552477D02*
X5802380Y39362000D01*
X5850000Y39266762D01*
X5897619Y39219143D01*
X6040476Y39123905D01*
X6230952Y39076286D01*
X6611904Y39076286D01*
X6707142Y39123905D01*
X6754761Y39171524D01*
X6802380Y39266762D01*
X6802380Y39457239D01*
X6754761Y39552477D01*
X6707142Y39600096D01*
X6611904Y39647715D01*
X6373809Y39647715D01*
X6278571Y39600096D01*
X6230952Y39552477D01*
X6183333Y39457239D01*
X6183333Y39266762D01*
X6230952Y39171524D01*
X6278571Y39123905D01*
X6373809Y39076286D01*
G04 #@! TO.C,J1*
X1992380Y80311667D02*
X2706666Y80311667D01*
X2849523Y80264048D01*
X2944761Y80168810D01*
X2992380Y80025953D01*
X2992380Y79930715D01*
X2992380Y81311667D02*
X2992380Y80740239D01*
X2992380Y81025953D02*
X1992380Y81025953D01*
X2135238Y80930715D01*
X2230476Y80835477D01*
X2278095Y80740239D01*
G04 #@! TO.C,TP1*
X13549380Y12200096D02*
X13549380Y12771524D01*
X14549380Y12485810D02*
X13549380Y12485810D01*
X14549380Y13104858D02*
X13549380Y13104858D01*
X13549380Y13485810D01*
X13597000Y13581048D01*
X13644619Y13628667D01*
X13739857Y13676286D01*
X13882714Y13676286D01*
X13977952Y13628667D01*
X14025571Y13581048D01*
X14073190Y13485810D01*
X14073190Y13104858D01*
X14549380Y14628667D02*
X14549380Y14057239D01*
X14549380Y14342953D02*
X13549380Y14342953D01*
X13692238Y14247715D01*
X13787476Y14152477D01*
X13835095Y14057239D01*
G04 #@! TD*
M02*
