G04 #@! TF.GenerationSoftware,KiCad,Pcbnew,(5.0.0)*
G04 #@! TF.CreationDate,2018-08-10T19:45:38+02:00*
G04 #@! TF.ProjectId,main,6D61696E2E6B696361645F7063620000,rev?*
G04 #@! TF.SameCoordinates,PX7b89fa0PY82ce540*
G04 #@! TF.FileFunction,Copper,L1,Top,Signal*
G04 #@! TF.FilePolarity,Positive*
%FSLAX46Y46*%
G04 Gerber Fmt 4.6, Leading zero omitted, Abs format (unit mm)*
G04 Created by KiCad (PCBNEW (5.0.0)) date 08/10/18 19:45:38*
%MOMM*%
%LPD*%
G01*
G04 APERTURE LIST*
G04 #@! TA.AperFunction,SMDPad,CuDef*
%ADD10R,0.650000X1.560000*%
G04 #@! TD*
G04 #@! TA.AperFunction,Conductor*
%ADD11C,0.100000*%
G04 #@! TD*
G04 #@! TA.AperFunction,SMDPad,CuDef*
%ADD12C,1.150000*%
G04 #@! TD*
G04 #@! TA.AperFunction,SMDPad,CuDef*
%ADD13R,5.080000X2.290000*%
G04 #@! TD*
G04 #@! TA.AperFunction,SMDPad,CuDef*
%ADD14R,5.080000X2.420000*%
G04 #@! TD*
G04 #@! TA.AperFunction,ViaPad*
%ADD15C,0.970000*%
G04 #@! TD*
G04 #@! TA.AperFunction,Conductor*
%ADD16R,0.950000X0.460000*%
G04 #@! TD*
G04 #@! TA.AperFunction,ComponentPad*
%ADD17R,1.700000X1.700000*%
G04 #@! TD*
G04 #@! TA.AperFunction,ComponentPad*
%ADD18O,1.700000X1.700000*%
G04 #@! TD*
G04 #@! TA.AperFunction,SMDPad,CuDef*
%ADD19C,1.200000*%
G04 #@! TD*
G04 #@! TA.AperFunction,SMDPad,CuDef*
%ADD20R,2.300000X2.500000*%
G04 #@! TD*
G04 #@! TA.AperFunction,SMDPad,CuDef*
%ADD21C,0.500000*%
G04 #@! TD*
G04 #@! TA.AperFunction,SMDPad,CuDef*
%ADD22R,1.500000X1.000000*%
G04 #@! TD*
G04 #@! TA.AperFunction,ComponentPad*
%ADD23C,2.540000*%
G04 #@! TD*
G04 #@! TA.AperFunction,SMDPad,CuDef*
%ADD24R,1.400000X5.000000*%
G04 #@! TD*
G04 #@! TA.AperFunction,SMDPad,CuDef*
%ADD25C,0.550000*%
G04 #@! TD*
G04 #@! TA.AperFunction,SMDPad,CuDef*
%ADD26R,1.550000X0.600000*%
G04 #@! TD*
G04 #@! TA.AperFunction,SMDPad,CuDef*
%ADD27R,2.000000X0.650000*%
G04 #@! TD*
G04 #@! TA.AperFunction,SMDPad,CuDef*
%ADD28R,1.000000X2.000000*%
G04 #@! TD*
G04 #@! TA.AperFunction,ComponentPad*
%ADD29R,2.400000X2.400000*%
G04 #@! TD*
G04 #@! TA.AperFunction,ComponentPad*
%ADD30C,2.400000*%
G04 #@! TD*
G04 #@! TA.AperFunction,BGAPad,CuDef*
%ADD31C,1.000000*%
G04 #@! TD*
G04 #@! TA.AperFunction,ViaPad*
%ADD32C,0.800000*%
G04 #@! TD*
G04 #@! TA.AperFunction,Conductor*
%ADD33C,0.250000*%
G04 #@! TD*
G04 #@! TA.AperFunction,Conductor*
%ADD34C,0.300000*%
G04 #@! TD*
G04 #@! TA.AperFunction,Conductor*
%ADD35C,0.200000*%
G04 #@! TD*
G04 #@! TA.AperFunction,Conductor*
%ADD36C,0.400000*%
G04 #@! TD*
G04 #@! TA.AperFunction,Conductor*
%ADD37C,0.254000*%
G04 #@! TD*
G04 APERTURE END LIST*
D10*
G04 #@! TO.P,U4,1*
G04 #@! TO.N,+BATT*
X18476000Y79455000D03*
G04 #@! TO.P,U4,2*
G04 #@! TO.N,GND*
X17526000Y79455000D03*
G04 #@! TO.P,U4,3*
G04 #@! TO.N,+BATT*
X16576000Y79455000D03*
G04 #@! TO.P,U4,4*
G04 #@! TO.N,Net-(C8-Pad1)*
X16576000Y76755000D03*
G04 #@! TO.P,U4,5*
G04 #@! TO.N,+3V3*
X18476000Y76755000D03*
G04 #@! TD*
D11*
G04 #@! TO.N,RST*
G04 #@! TO.C,C1*
G36*
X15206505Y65606796D02*
X15230773Y65603196D01*
X15254572Y65597235D01*
X15277671Y65588970D01*
X15299850Y65578480D01*
X15320893Y65565868D01*
X15340599Y65551253D01*
X15358777Y65534777D01*
X15375253Y65516599D01*
X15389868Y65496893D01*
X15402480Y65475850D01*
X15412970Y65453671D01*
X15421235Y65430572D01*
X15427196Y65406773D01*
X15430796Y65382505D01*
X15432000Y65358001D01*
X15432000Y64707999D01*
X15430796Y64683495D01*
X15427196Y64659227D01*
X15421235Y64635428D01*
X15412970Y64612329D01*
X15402480Y64590150D01*
X15389868Y64569107D01*
X15375253Y64549401D01*
X15358777Y64531223D01*
X15340599Y64514747D01*
X15320893Y64500132D01*
X15299850Y64487520D01*
X15277671Y64477030D01*
X15254572Y64468765D01*
X15230773Y64462804D01*
X15206505Y64459204D01*
X15182001Y64458000D01*
X14281999Y64458000D01*
X14257495Y64459204D01*
X14233227Y64462804D01*
X14209428Y64468765D01*
X14186329Y64477030D01*
X14164150Y64487520D01*
X14143107Y64500132D01*
X14123401Y64514747D01*
X14105223Y64531223D01*
X14088747Y64549401D01*
X14074132Y64569107D01*
X14061520Y64590150D01*
X14051030Y64612329D01*
X14042765Y64635428D01*
X14036804Y64659227D01*
X14033204Y64683495D01*
X14032000Y64707999D01*
X14032000Y65358001D01*
X14033204Y65382505D01*
X14036804Y65406773D01*
X14042765Y65430572D01*
X14051030Y65453671D01*
X14061520Y65475850D01*
X14074132Y65496893D01*
X14088747Y65516599D01*
X14105223Y65534777D01*
X14123401Y65551253D01*
X14143107Y65565868D01*
X14164150Y65578480D01*
X14186329Y65588970D01*
X14209428Y65597235D01*
X14233227Y65603196D01*
X14257495Y65606796D01*
X14281999Y65608000D01*
X15182001Y65608000D01*
X15206505Y65606796D01*
X15206505Y65606796D01*
G37*
D12*
G04 #@! TD*
G04 #@! TO.P,C1,1*
G04 #@! TO.N,RST*
X14732000Y65033000D03*
D11*
G04 #@! TO.N,reset_in*
G04 #@! TO.C,C1*
G36*
X15206505Y63556796D02*
X15230773Y63553196D01*
X15254572Y63547235D01*
X15277671Y63538970D01*
X15299850Y63528480D01*
X15320893Y63515868D01*
X15340599Y63501253D01*
X15358777Y63484777D01*
X15375253Y63466599D01*
X15389868Y63446893D01*
X15402480Y63425850D01*
X15412970Y63403671D01*
X15421235Y63380572D01*
X15427196Y63356773D01*
X15430796Y63332505D01*
X15432000Y63308001D01*
X15432000Y62657999D01*
X15430796Y62633495D01*
X15427196Y62609227D01*
X15421235Y62585428D01*
X15412970Y62562329D01*
X15402480Y62540150D01*
X15389868Y62519107D01*
X15375253Y62499401D01*
X15358777Y62481223D01*
X15340599Y62464747D01*
X15320893Y62450132D01*
X15299850Y62437520D01*
X15277671Y62427030D01*
X15254572Y62418765D01*
X15230773Y62412804D01*
X15206505Y62409204D01*
X15182001Y62408000D01*
X14281999Y62408000D01*
X14257495Y62409204D01*
X14233227Y62412804D01*
X14209428Y62418765D01*
X14186329Y62427030D01*
X14164150Y62437520D01*
X14143107Y62450132D01*
X14123401Y62464747D01*
X14105223Y62481223D01*
X14088747Y62499401D01*
X14074132Y62519107D01*
X14061520Y62540150D01*
X14051030Y62562329D01*
X14042765Y62585428D01*
X14036804Y62609227D01*
X14033204Y62633495D01*
X14032000Y62657999D01*
X14032000Y63308001D01*
X14033204Y63332505D01*
X14036804Y63356773D01*
X14042765Y63380572D01*
X14051030Y63403671D01*
X14061520Y63425850D01*
X14074132Y63446893D01*
X14088747Y63466599D01*
X14105223Y63484777D01*
X14123401Y63501253D01*
X14143107Y63515868D01*
X14164150Y63528480D01*
X14186329Y63538970D01*
X14209428Y63547235D01*
X14233227Y63553196D01*
X14257495Y63556796D01*
X14281999Y63558000D01*
X15182001Y63558000D01*
X15206505Y63556796D01*
X15206505Y63556796D01*
G37*
D12*
G04 #@! TD*
G04 #@! TO.P,C1,2*
G04 #@! TO.N,reset_in*
X14732000Y62983000D03*
D11*
G04 #@! TO.N,GND*
G04 #@! TO.C,C2*
G36*
X11074900Y61846588D02*
X11099168Y61842988D01*
X11122967Y61837027D01*
X11146066Y61828762D01*
X11168245Y61818272D01*
X11189288Y61805660D01*
X11208994Y61791045D01*
X11227172Y61774569D01*
X11863569Y61138172D01*
X11880045Y61119994D01*
X11894660Y61100288D01*
X11907272Y61079245D01*
X11917762Y61057066D01*
X11926027Y61033967D01*
X11931988Y61010168D01*
X11935588Y60985900D01*
X11936792Y60961396D01*
X11935588Y60936892D01*
X11931988Y60912624D01*
X11926027Y60888825D01*
X11917762Y60865726D01*
X11907272Y60843547D01*
X11894660Y60822504D01*
X11880045Y60802798D01*
X11863569Y60784620D01*
X11403948Y60324999D01*
X11385770Y60308523D01*
X11366064Y60293908D01*
X11345021Y60281296D01*
X11322842Y60270806D01*
X11299743Y60262541D01*
X11275944Y60256580D01*
X11251676Y60252980D01*
X11227172Y60251776D01*
X11202668Y60252980D01*
X11178400Y60256580D01*
X11154601Y60262541D01*
X11131502Y60270806D01*
X11109323Y60281296D01*
X11088280Y60293908D01*
X11068574Y60308523D01*
X11050396Y60324999D01*
X10413999Y60961396D01*
X10397523Y60979574D01*
X10382908Y60999280D01*
X10370296Y61020323D01*
X10359806Y61042502D01*
X10351541Y61065601D01*
X10345580Y61089400D01*
X10341980Y61113668D01*
X10340776Y61138172D01*
X10341980Y61162676D01*
X10345580Y61186944D01*
X10351541Y61210743D01*
X10359806Y61233842D01*
X10370296Y61256021D01*
X10382908Y61277064D01*
X10397523Y61296770D01*
X10413999Y61314948D01*
X10873620Y61774569D01*
X10891798Y61791045D01*
X10911504Y61805660D01*
X10932547Y61818272D01*
X10954726Y61828762D01*
X10977825Y61837027D01*
X11001624Y61842988D01*
X11025892Y61846588D01*
X11050396Y61847792D01*
X11074900Y61846588D01*
X11074900Y61846588D01*
G37*
D12*
G04 #@! TD*
G04 #@! TO.P,C2,2*
G04 #@! TO.N,GND*
X11138784Y61049784D03*
D11*
G04 #@! TO.N,+3V3*
G04 #@! TO.C,C2*
G36*
X9625332Y60397020D02*
X9649600Y60393420D01*
X9673399Y60387459D01*
X9696498Y60379194D01*
X9718677Y60368704D01*
X9739720Y60356092D01*
X9759426Y60341477D01*
X9777604Y60325001D01*
X10414001Y59688604D01*
X10430477Y59670426D01*
X10445092Y59650720D01*
X10457704Y59629677D01*
X10468194Y59607498D01*
X10476459Y59584399D01*
X10482420Y59560600D01*
X10486020Y59536332D01*
X10487224Y59511828D01*
X10486020Y59487324D01*
X10482420Y59463056D01*
X10476459Y59439257D01*
X10468194Y59416158D01*
X10457704Y59393979D01*
X10445092Y59372936D01*
X10430477Y59353230D01*
X10414001Y59335052D01*
X9954380Y58875431D01*
X9936202Y58858955D01*
X9916496Y58844340D01*
X9895453Y58831728D01*
X9873274Y58821238D01*
X9850175Y58812973D01*
X9826376Y58807012D01*
X9802108Y58803412D01*
X9777604Y58802208D01*
X9753100Y58803412D01*
X9728832Y58807012D01*
X9705033Y58812973D01*
X9681934Y58821238D01*
X9659755Y58831728D01*
X9638712Y58844340D01*
X9619006Y58858955D01*
X9600828Y58875431D01*
X8964431Y59511828D01*
X8947955Y59530006D01*
X8933340Y59549712D01*
X8920728Y59570755D01*
X8910238Y59592934D01*
X8901973Y59616033D01*
X8896012Y59639832D01*
X8892412Y59664100D01*
X8891208Y59688604D01*
X8892412Y59713108D01*
X8896012Y59737376D01*
X8901973Y59761175D01*
X8910238Y59784274D01*
X8920728Y59806453D01*
X8933340Y59827496D01*
X8947955Y59847202D01*
X8964431Y59865380D01*
X9424052Y60325001D01*
X9442230Y60341477D01*
X9461936Y60356092D01*
X9482979Y60368704D01*
X9505158Y60379194D01*
X9528257Y60387459D01*
X9552056Y60393420D01*
X9576324Y60397020D01*
X9600828Y60398224D01*
X9625332Y60397020D01*
X9625332Y60397020D01*
G37*
D12*
G04 #@! TD*
G04 #@! TO.P,C2,1*
G04 #@! TO.N,+3V3*
X9689216Y59600216D03*
D11*
G04 #@! TO.N,Net-(C3-Pad1)*
G04 #@! TO.C,C3*
G36*
X19454108Y48003588D02*
X19478376Y47999988D01*
X19502175Y47994027D01*
X19525274Y47985762D01*
X19547453Y47975272D01*
X19568496Y47962660D01*
X19588202Y47948045D01*
X19606380Y47931569D01*
X20066001Y47471948D01*
X20082477Y47453770D01*
X20097092Y47434064D01*
X20109704Y47413021D01*
X20120194Y47390842D01*
X20128459Y47367743D01*
X20134420Y47343944D01*
X20138020Y47319676D01*
X20139224Y47295172D01*
X20138020Y47270668D01*
X20134420Y47246400D01*
X20128459Y47222601D01*
X20120194Y47199502D01*
X20109704Y47177323D01*
X20097092Y47156280D01*
X20082477Y47136574D01*
X20066001Y47118396D01*
X19429604Y46481999D01*
X19411426Y46465523D01*
X19391720Y46450908D01*
X19370677Y46438296D01*
X19348498Y46427806D01*
X19325399Y46419541D01*
X19301600Y46413580D01*
X19277332Y46409980D01*
X19252828Y46408776D01*
X19228324Y46409980D01*
X19204056Y46413580D01*
X19180257Y46419541D01*
X19157158Y46427806D01*
X19134979Y46438296D01*
X19113936Y46450908D01*
X19094230Y46465523D01*
X19076052Y46481999D01*
X18616431Y46941620D01*
X18599955Y46959798D01*
X18585340Y46979504D01*
X18572728Y47000547D01*
X18562238Y47022726D01*
X18553973Y47045825D01*
X18548012Y47069624D01*
X18544412Y47093892D01*
X18543208Y47118396D01*
X18544412Y47142900D01*
X18548012Y47167168D01*
X18553973Y47190967D01*
X18562238Y47214066D01*
X18572728Y47236245D01*
X18585340Y47257288D01*
X18599955Y47276994D01*
X18616431Y47295172D01*
X19252828Y47931569D01*
X19271006Y47948045D01*
X19290712Y47962660D01*
X19311755Y47975272D01*
X19333934Y47985762D01*
X19357033Y47994027D01*
X19380832Y47999988D01*
X19405100Y48003588D01*
X19429604Y48004792D01*
X19454108Y48003588D01*
X19454108Y48003588D01*
G37*
D12*
G04 #@! TD*
G04 #@! TO.P,C3,1*
G04 #@! TO.N,Net-(C3-Pad1)*
X19341216Y47206784D03*
D11*
G04 #@! TO.N,GND*
G04 #@! TO.C,C3*
G36*
X20903676Y46554020D02*
X20927944Y46550420D01*
X20951743Y46544459D01*
X20974842Y46536194D01*
X20997021Y46525704D01*
X21018064Y46513092D01*
X21037770Y46498477D01*
X21055948Y46482001D01*
X21515569Y46022380D01*
X21532045Y46004202D01*
X21546660Y45984496D01*
X21559272Y45963453D01*
X21569762Y45941274D01*
X21578027Y45918175D01*
X21583988Y45894376D01*
X21587588Y45870108D01*
X21588792Y45845604D01*
X21587588Y45821100D01*
X21583988Y45796832D01*
X21578027Y45773033D01*
X21569762Y45749934D01*
X21559272Y45727755D01*
X21546660Y45706712D01*
X21532045Y45687006D01*
X21515569Y45668828D01*
X20879172Y45032431D01*
X20860994Y45015955D01*
X20841288Y45001340D01*
X20820245Y44988728D01*
X20798066Y44978238D01*
X20774967Y44969973D01*
X20751168Y44964012D01*
X20726900Y44960412D01*
X20702396Y44959208D01*
X20677892Y44960412D01*
X20653624Y44964012D01*
X20629825Y44969973D01*
X20606726Y44978238D01*
X20584547Y44988728D01*
X20563504Y45001340D01*
X20543798Y45015955D01*
X20525620Y45032431D01*
X20065999Y45492052D01*
X20049523Y45510230D01*
X20034908Y45529936D01*
X20022296Y45550979D01*
X20011806Y45573158D01*
X20003541Y45596257D01*
X19997580Y45620056D01*
X19993980Y45644324D01*
X19992776Y45668828D01*
X19993980Y45693332D01*
X19997580Y45717600D01*
X20003541Y45741399D01*
X20011806Y45764498D01*
X20022296Y45786677D01*
X20034908Y45807720D01*
X20049523Y45827426D01*
X20065999Y45845604D01*
X20702396Y46482001D01*
X20720574Y46498477D01*
X20740280Y46513092D01*
X20761323Y46525704D01*
X20783502Y46536194D01*
X20806601Y46544459D01*
X20830400Y46550420D01*
X20854668Y46554020D01*
X20879172Y46555224D01*
X20903676Y46554020D01*
X20903676Y46554020D01*
G37*
D12*
G04 #@! TD*
G04 #@! TO.P,C3,2*
G04 #@! TO.N,GND*
X20790784Y45757216D03*
D11*
G04 #@! TO.N,GND*
G04 #@! TO.C,C4*
G36*
X19125676Y44903020D02*
X19149944Y44899420D01*
X19173743Y44893459D01*
X19196842Y44885194D01*
X19219021Y44874704D01*
X19240064Y44862092D01*
X19259770Y44847477D01*
X19277948Y44831001D01*
X19737569Y44371380D01*
X19754045Y44353202D01*
X19768660Y44333496D01*
X19781272Y44312453D01*
X19791762Y44290274D01*
X19800027Y44267175D01*
X19805988Y44243376D01*
X19809588Y44219108D01*
X19810792Y44194604D01*
X19809588Y44170100D01*
X19805988Y44145832D01*
X19800027Y44122033D01*
X19791762Y44098934D01*
X19781272Y44076755D01*
X19768660Y44055712D01*
X19754045Y44036006D01*
X19737569Y44017828D01*
X19101172Y43381431D01*
X19082994Y43364955D01*
X19063288Y43350340D01*
X19042245Y43337728D01*
X19020066Y43327238D01*
X18996967Y43318973D01*
X18973168Y43313012D01*
X18948900Y43309412D01*
X18924396Y43308208D01*
X18899892Y43309412D01*
X18875624Y43313012D01*
X18851825Y43318973D01*
X18828726Y43327238D01*
X18806547Y43337728D01*
X18785504Y43350340D01*
X18765798Y43364955D01*
X18747620Y43381431D01*
X18287999Y43841052D01*
X18271523Y43859230D01*
X18256908Y43878936D01*
X18244296Y43899979D01*
X18233806Y43922158D01*
X18225541Y43945257D01*
X18219580Y43969056D01*
X18215980Y43993324D01*
X18214776Y44017828D01*
X18215980Y44042332D01*
X18219580Y44066600D01*
X18225541Y44090399D01*
X18233806Y44113498D01*
X18244296Y44135677D01*
X18256908Y44156720D01*
X18271523Y44176426D01*
X18287999Y44194604D01*
X18924396Y44831001D01*
X18942574Y44847477D01*
X18962280Y44862092D01*
X18983323Y44874704D01*
X19005502Y44885194D01*
X19028601Y44893459D01*
X19052400Y44899420D01*
X19076668Y44903020D01*
X19101172Y44904224D01*
X19125676Y44903020D01*
X19125676Y44903020D01*
G37*
D12*
G04 #@! TD*
G04 #@! TO.P,C4,2*
G04 #@! TO.N,GND*
X19012784Y44106216D03*
D11*
G04 #@! TO.N,+3V3*
G04 #@! TO.C,C4*
G36*
X17676108Y46352588D02*
X17700376Y46348988D01*
X17724175Y46343027D01*
X17747274Y46334762D01*
X17769453Y46324272D01*
X17790496Y46311660D01*
X17810202Y46297045D01*
X17828380Y46280569D01*
X18288001Y45820948D01*
X18304477Y45802770D01*
X18319092Y45783064D01*
X18331704Y45762021D01*
X18342194Y45739842D01*
X18350459Y45716743D01*
X18356420Y45692944D01*
X18360020Y45668676D01*
X18361224Y45644172D01*
X18360020Y45619668D01*
X18356420Y45595400D01*
X18350459Y45571601D01*
X18342194Y45548502D01*
X18331704Y45526323D01*
X18319092Y45505280D01*
X18304477Y45485574D01*
X18288001Y45467396D01*
X17651604Y44830999D01*
X17633426Y44814523D01*
X17613720Y44799908D01*
X17592677Y44787296D01*
X17570498Y44776806D01*
X17547399Y44768541D01*
X17523600Y44762580D01*
X17499332Y44758980D01*
X17474828Y44757776D01*
X17450324Y44758980D01*
X17426056Y44762580D01*
X17402257Y44768541D01*
X17379158Y44776806D01*
X17356979Y44787296D01*
X17335936Y44799908D01*
X17316230Y44814523D01*
X17298052Y44830999D01*
X16838431Y45290620D01*
X16821955Y45308798D01*
X16807340Y45328504D01*
X16794728Y45349547D01*
X16784238Y45371726D01*
X16775973Y45394825D01*
X16770012Y45418624D01*
X16766412Y45442892D01*
X16765208Y45467396D01*
X16766412Y45491900D01*
X16770012Y45516168D01*
X16775973Y45539967D01*
X16784238Y45563066D01*
X16794728Y45585245D01*
X16807340Y45606288D01*
X16821955Y45625994D01*
X16838431Y45644172D01*
X17474828Y46280569D01*
X17493006Y46297045D01*
X17512712Y46311660D01*
X17533755Y46324272D01*
X17555934Y46334762D01*
X17579033Y46343027D01*
X17602832Y46348988D01*
X17627100Y46352588D01*
X17651604Y46353792D01*
X17676108Y46352588D01*
X17676108Y46352588D01*
G37*
D12*
G04 #@! TD*
G04 #@! TO.P,C4,1*
G04 #@! TO.N,+3V3*
X17563216Y45555784D03*
D11*
G04 #@! TO.N,GND*
G04 #@! TO.C,C5*
G36*
X4418332Y65350020D02*
X4442600Y65346420D01*
X4466399Y65340459D01*
X4489498Y65332194D01*
X4511677Y65321704D01*
X4532720Y65309092D01*
X4552426Y65294477D01*
X4570604Y65278001D01*
X5207001Y64641604D01*
X5223477Y64623426D01*
X5238092Y64603720D01*
X5250704Y64582677D01*
X5261194Y64560498D01*
X5269459Y64537399D01*
X5275420Y64513600D01*
X5279020Y64489332D01*
X5280224Y64464828D01*
X5279020Y64440324D01*
X5275420Y64416056D01*
X5269459Y64392257D01*
X5261194Y64369158D01*
X5250704Y64346979D01*
X5238092Y64325936D01*
X5223477Y64306230D01*
X5207001Y64288052D01*
X4747380Y63828431D01*
X4729202Y63811955D01*
X4709496Y63797340D01*
X4688453Y63784728D01*
X4666274Y63774238D01*
X4643175Y63765973D01*
X4619376Y63760012D01*
X4595108Y63756412D01*
X4570604Y63755208D01*
X4546100Y63756412D01*
X4521832Y63760012D01*
X4498033Y63765973D01*
X4474934Y63774238D01*
X4452755Y63784728D01*
X4431712Y63797340D01*
X4412006Y63811955D01*
X4393828Y63828431D01*
X3757431Y64464828D01*
X3740955Y64483006D01*
X3726340Y64502712D01*
X3713728Y64523755D01*
X3703238Y64545934D01*
X3694973Y64569033D01*
X3689012Y64592832D01*
X3685412Y64617100D01*
X3684208Y64641604D01*
X3685412Y64666108D01*
X3689012Y64690376D01*
X3694973Y64714175D01*
X3703238Y64737274D01*
X3713728Y64759453D01*
X3726340Y64780496D01*
X3740955Y64800202D01*
X3757431Y64818380D01*
X4217052Y65278001D01*
X4235230Y65294477D01*
X4254936Y65309092D01*
X4275979Y65321704D01*
X4298158Y65332194D01*
X4321257Y65340459D01*
X4345056Y65346420D01*
X4369324Y65350020D01*
X4393828Y65351224D01*
X4418332Y65350020D01*
X4418332Y65350020D01*
G37*
D12*
G04 #@! TD*
G04 #@! TO.P,C5,1*
G04 #@! TO.N,GND*
X4482216Y64553216D03*
D11*
G04 #@! TO.N,Net-(C5-Pad2)*
G04 #@! TO.C,C5*
G36*
X5867900Y66799588D02*
X5892168Y66795988D01*
X5915967Y66790027D01*
X5939066Y66781762D01*
X5961245Y66771272D01*
X5982288Y66758660D01*
X6001994Y66744045D01*
X6020172Y66727569D01*
X6656569Y66091172D01*
X6673045Y66072994D01*
X6687660Y66053288D01*
X6700272Y66032245D01*
X6710762Y66010066D01*
X6719027Y65986967D01*
X6724988Y65963168D01*
X6728588Y65938900D01*
X6729792Y65914396D01*
X6728588Y65889892D01*
X6724988Y65865624D01*
X6719027Y65841825D01*
X6710762Y65818726D01*
X6700272Y65796547D01*
X6687660Y65775504D01*
X6673045Y65755798D01*
X6656569Y65737620D01*
X6196948Y65277999D01*
X6178770Y65261523D01*
X6159064Y65246908D01*
X6138021Y65234296D01*
X6115842Y65223806D01*
X6092743Y65215541D01*
X6068944Y65209580D01*
X6044676Y65205980D01*
X6020172Y65204776D01*
X5995668Y65205980D01*
X5971400Y65209580D01*
X5947601Y65215541D01*
X5924502Y65223806D01*
X5902323Y65234296D01*
X5881280Y65246908D01*
X5861574Y65261523D01*
X5843396Y65277999D01*
X5206999Y65914396D01*
X5190523Y65932574D01*
X5175908Y65952280D01*
X5163296Y65973323D01*
X5152806Y65995502D01*
X5144541Y66018601D01*
X5138580Y66042400D01*
X5134980Y66066668D01*
X5133776Y66091172D01*
X5134980Y66115676D01*
X5138580Y66139944D01*
X5144541Y66163743D01*
X5152806Y66186842D01*
X5163296Y66209021D01*
X5175908Y66230064D01*
X5190523Y66249770D01*
X5206999Y66267948D01*
X5666620Y66727569D01*
X5684798Y66744045D01*
X5704504Y66758660D01*
X5725547Y66771272D01*
X5747726Y66781762D01*
X5770825Y66790027D01*
X5794624Y66795988D01*
X5818892Y66799588D01*
X5843396Y66800792D01*
X5867900Y66799588D01*
X5867900Y66799588D01*
G37*
D12*
G04 #@! TD*
G04 #@! TO.P,C5,2*
G04 #@! TO.N,Net-(C5-Pad2)*
X5931784Y66002784D03*
D11*
G04 #@! TO.N,Net-(C6-Pad2)*
G04 #@! TO.C,C6*
G36*
X1497332Y62429020D02*
X1521600Y62425420D01*
X1545399Y62419459D01*
X1568498Y62411194D01*
X1590677Y62400704D01*
X1611720Y62388092D01*
X1631426Y62373477D01*
X1649604Y62357001D01*
X2286001Y61720604D01*
X2302477Y61702426D01*
X2317092Y61682720D01*
X2329704Y61661677D01*
X2340194Y61639498D01*
X2348459Y61616399D01*
X2354420Y61592600D01*
X2358020Y61568332D01*
X2359224Y61543828D01*
X2358020Y61519324D01*
X2354420Y61495056D01*
X2348459Y61471257D01*
X2340194Y61448158D01*
X2329704Y61425979D01*
X2317092Y61404936D01*
X2302477Y61385230D01*
X2286001Y61367052D01*
X1826380Y60907431D01*
X1808202Y60890955D01*
X1788496Y60876340D01*
X1767453Y60863728D01*
X1745274Y60853238D01*
X1722175Y60844973D01*
X1698376Y60839012D01*
X1674108Y60835412D01*
X1649604Y60834208D01*
X1625100Y60835412D01*
X1600832Y60839012D01*
X1577033Y60844973D01*
X1553934Y60853238D01*
X1531755Y60863728D01*
X1510712Y60876340D01*
X1491006Y60890955D01*
X1472828Y60907431D01*
X836431Y61543828D01*
X819955Y61562006D01*
X805340Y61581712D01*
X792728Y61602755D01*
X782238Y61624934D01*
X773973Y61648033D01*
X768012Y61671832D01*
X764412Y61696100D01*
X763208Y61720604D01*
X764412Y61745108D01*
X768012Y61769376D01*
X773973Y61793175D01*
X782238Y61816274D01*
X792728Y61838453D01*
X805340Y61859496D01*
X819955Y61879202D01*
X836431Y61897380D01*
X1296052Y62357001D01*
X1314230Y62373477D01*
X1333936Y62388092D01*
X1354979Y62400704D01*
X1377158Y62411194D01*
X1400257Y62419459D01*
X1424056Y62425420D01*
X1448324Y62429020D01*
X1472828Y62430224D01*
X1497332Y62429020D01*
X1497332Y62429020D01*
G37*
D12*
G04 #@! TD*
G04 #@! TO.P,C6,2*
G04 #@! TO.N,Net-(C6-Pad2)*
X1561216Y61632216D03*
D11*
G04 #@! TO.N,GND*
G04 #@! TO.C,C6*
G36*
X2946900Y63878588D02*
X2971168Y63874988D01*
X2994967Y63869027D01*
X3018066Y63860762D01*
X3040245Y63850272D01*
X3061288Y63837660D01*
X3080994Y63823045D01*
X3099172Y63806569D01*
X3735569Y63170172D01*
X3752045Y63151994D01*
X3766660Y63132288D01*
X3779272Y63111245D01*
X3789762Y63089066D01*
X3798027Y63065967D01*
X3803988Y63042168D01*
X3807588Y63017900D01*
X3808792Y62993396D01*
X3807588Y62968892D01*
X3803988Y62944624D01*
X3798027Y62920825D01*
X3789762Y62897726D01*
X3779272Y62875547D01*
X3766660Y62854504D01*
X3752045Y62834798D01*
X3735569Y62816620D01*
X3275948Y62356999D01*
X3257770Y62340523D01*
X3238064Y62325908D01*
X3217021Y62313296D01*
X3194842Y62302806D01*
X3171743Y62294541D01*
X3147944Y62288580D01*
X3123676Y62284980D01*
X3099172Y62283776D01*
X3074668Y62284980D01*
X3050400Y62288580D01*
X3026601Y62294541D01*
X3003502Y62302806D01*
X2981323Y62313296D01*
X2960280Y62325908D01*
X2940574Y62340523D01*
X2922396Y62356999D01*
X2285999Y62993396D01*
X2269523Y63011574D01*
X2254908Y63031280D01*
X2242296Y63052323D01*
X2231806Y63074502D01*
X2223541Y63097601D01*
X2217580Y63121400D01*
X2213980Y63145668D01*
X2212776Y63170172D01*
X2213980Y63194676D01*
X2217580Y63218944D01*
X2223541Y63242743D01*
X2231806Y63265842D01*
X2242296Y63288021D01*
X2254908Y63309064D01*
X2269523Y63328770D01*
X2285999Y63346948D01*
X2745620Y63806569D01*
X2763798Y63823045D01*
X2783504Y63837660D01*
X2804547Y63850272D01*
X2826726Y63860762D01*
X2849825Y63869027D01*
X2873624Y63874988D01*
X2897892Y63878588D01*
X2922396Y63879792D01*
X2946900Y63878588D01*
X2946900Y63878588D01*
G37*
D12*
G04 #@! TD*
G04 #@! TO.P,C6,1*
G04 #@! TO.N,GND*
X3010784Y63081784D03*
D11*
G04 #@! TO.N,Net-(C8-Pad1)*
G04 #@! TO.C,C8*
G36*
X15079505Y75385796D02*
X15103773Y75382196D01*
X15127572Y75376235D01*
X15150671Y75367970D01*
X15172850Y75357480D01*
X15193893Y75344868D01*
X15213599Y75330253D01*
X15231777Y75313777D01*
X15248253Y75295599D01*
X15262868Y75275893D01*
X15275480Y75254850D01*
X15285970Y75232671D01*
X15294235Y75209572D01*
X15300196Y75185773D01*
X15303796Y75161505D01*
X15305000Y75137001D01*
X15305000Y74486999D01*
X15303796Y74462495D01*
X15300196Y74438227D01*
X15294235Y74414428D01*
X15285970Y74391329D01*
X15275480Y74369150D01*
X15262868Y74348107D01*
X15248253Y74328401D01*
X15231777Y74310223D01*
X15213599Y74293747D01*
X15193893Y74279132D01*
X15172850Y74266520D01*
X15150671Y74256030D01*
X15127572Y74247765D01*
X15103773Y74241804D01*
X15079505Y74238204D01*
X15055001Y74237000D01*
X14154999Y74237000D01*
X14130495Y74238204D01*
X14106227Y74241804D01*
X14082428Y74247765D01*
X14059329Y74256030D01*
X14037150Y74266520D01*
X14016107Y74279132D01*
X13996401Y74293747D01*
X13978223Y74310223D01*
X13961747Y74328401D01*
X13947132Y74348107D01*
X13934520Y74369150D01*
X13924030Y74391329D01*
X13915765Y74414428D01*
X13909804Y74438227D01*
X13906204Y74462495D01*
X13905000Y74486999D01*
X13905000Y75137001D01*
X13906204Y75161505D01*
X13909804Y75185773D01*
X13915765Y75209572D01*
X13924030Y75232671D01*
X13934520Y75254850D01*
X13947132Y75275893D01*
X13961747Y75295599D01*
X13978223Y75313777D01*
X13996401Y75330253D01*
X14016107Y75344868D01*
X14037150Y75357480D01*
X14059329Y75367970D01*
X14082428Y75376235D01*
X14106227Y75382196D01*
X14130495Y75385796D01*
X14154999Y75387000D01*
X15055001Y75387000D01*
X15079505Y75385796D01*
X15079505Y75385796D01*
G37*
D12*
G04 #@! TD*
G04 #@! TO.P,C8,1*
G04 #@! TO.N,Net-(C8-Pad1)*
X14605000Y74812000D03*
D11*
G04 #@! TO.N,GND*
G04 #@! TO.C,C8*
G36*
X15079505Y73335796D02*
X15103773Y73332196D01*
X15127572Y73326235D01*
X15150671Y73317970D01*
X15172850Y73307480D01*
X15193893Y73294868D01*
X15213599Y73280253D01*
X15231777Y73263777D01*
X15248253Y73245599D01*
X15262868Y73225893D01*
X15275480Y73204850D01*
X15285970Y73182671D01*
X15294235Y73159572D01*
X15300196Y73135773D01*
X15303796Y73111505D01*
X15305000Y73087001D01*
X15305000Y72436999D01*
X15303796Y72412495D01*
X15300196Y72388227D01*
X15294235Y72364428D01*
X15285970Y72341329D01*
X15275480Y72319150D01*
X15262868Y72298107D01*
X15248253Y72278401D01*
X15231777Y72260223D01*
X15213599Y72243747D01*
X15193893Y72229132D01*
X15172850Y72216520D01*
X15150671Y72206030D01*
X15127572Y72197765D01*
X15103773Y72191804D01*
X15079505Y72188204D01*
X15055001Y72187000D01*
X14154999Y72187000D01*
X14130495Y72188204D01*
X14106227Y72191804D01*
X14082428Y72197765D01*
X14059329Y72206030D01*
X14037150Y72216520D01*
X14016107Y72229132D01*
X13996401Y72243747D01*
X13978223Y72260223D01*
X13961747Y72278401D01*
X13947132Y72298107D01*
X13934520Y72319150D01*
X13924030Y72341329D01*
X13915765Y72364428D01*
X13909804Y72388227D01*
X13906204Y72412495D01*
X13905000Y72436999D01*
X13905000Y73087001D01*
X13906204Y73111505D01*
X13909804Y73135773D01*
X13915765Y73159572D01*
X13924030Y73182671D01*
X13934520Y73204850D01*
X13947132Y73225893D01*
X13961747Y73245599D01*
X13978223Y73263777D01*
X13996401Y73280253D01*
X14016107Y73294868D01*
X14037150Y73307480D01*
X14059329Y73317970D01*
X14082428Y73326235D01*
X14106227Y73332196D01*
X14130495Y73335796D01*
X14154999Y73337000D01*
X15055001Y73337000D01*
X15079505Y73335796D01*
X15079505Y73335796D01*
G37*
D12*
G04 #@! TD*
G04 #@! TO.P,C8,2*
G04 #@! TO.N,GND*
X14605000Y72762000D03*
D11*
G04 #@! TO.N,GND*
G04 #@! TO.C,C9*
G36*
X10246505Y17589796D02*
X10270773Y17586196D01*
X10294572Y17580235D01*
X10317671Y17571970D01*
X10339850Y17561480D01*
X10360893Y17548868D01*
X10380599Y17534253D01*
X10398777Y17517777D01*
X10415253Y17499599D01*
X10429868Y17479893D01*
X10442480Y17458850D01*
X10452970Y17436671D01*
X10461235Y17413572D01*
X10467196Y17389773D01*
X10470796Y17365505D01*
X10472000Y17341001D01*
X10472000Y16440999D01*
X10470796Y16416495D01*
X10467196Y16392227D01*
X10461235Y16368428D01*
X10452970Y16345329D01*
X10442480Y16323150D01*
X10429868Y16302107D01*
X10415253Y16282401D01*
X10398777Y16264223D01*
X10380599Y16247747D01*
X10360893Y16233132D01*
X10339850Y16220520D01*
X10317671Y16210030D01*
X10294572Y16201765D01*
X10270773Y16195804D01*
X10246505Y16192204D01*
X10222001Y16191000D01*
X9571999Y16191000D01*
X9547495Y16192204D01*
X9523227Y16195804D01*
X9499428Y16201765D01*
X9476329Y16210030D01*
X9454150Y16220520D01*
X9433107Y16233132D01*
X9413401Y16247747D01*
X9395223Y16264223D01*
X9378747Y16282401D01*
X9364132Y16302107D01*
X9351520Y16323150D01*
X9341030Y16345329D01*
X9332765Y16368428D01*
X9326804Y16392227D01*
X9323204Y16416495D01*
X9322000Y16440999D01*
X9322000Y17341001D01*
X9323204Y17365505D01*
X9326804Y17389773D01*
X9332765Y17413572D01*
X9341030Y17436671D01*
X9351520Y17458850D01*
X9364132Y17479893D01*
X9378747Y17499599D01*
X9395223Y17517777D01*
X9413401Y17534253D01*
X9433107Y17548868D01*
X9454150Y17561480D01*
X9476329Y17571970D01*
X9499428Y17580235D01*
X9523227Y17586196D01*
X9547495Y17589796D01*
X9571999Y17591000D01*
X10222001Y17591000D01*
X10246505Y17589796D01*
X10246505Y17589796D01*
G37*
D12*
G04 #@! TD*
G04 #@! TO.P,C9,2*
G04 #@! TO.N,GND*
X9897000Y16891000D03*
D11*
G04 #@! TO.N,+3V3*
G04 #@! TO.C,C9*
G36*
X12296505Y17589796D02*
X12320773Y17586196D01*
X12344572Y17580235D01*
X12367671Y17571970D01*
X12389850Y17561480D01*
X12410893Y17548868D01*
X12430599Y17534253D01*
X12448777Y17517777D01*
X12465253Y17499599D01*
X12479868Y17479893D01*
X12492480Y17458850D01*
X12502970Y17436671D01*
X12511235Y17413572D01*
X12517196Y17389773D01*
X12520796Y17365505D01*
X12522000Y17341001D01*
X12522000Y16440999D01*
X12520796Y16416495D01*
X12517196Y16392227D01*
X12511235Y16368428D01*
X12502970Y16345329D01*
X12492480Y16323150D01*
X12479868Y16302107D01*
X12465253Y16282401D01*
X12448777Y16264223D01*
X12430599Y16247747D01*
X12410893Y16233132D01*
X12389850Y16220520D01*
X12367671Y16210030D01*
X12344572Y16201765D01*
X12320773Y16195804D01*
X12296505Y16192204D01*
X12272001Y16191000D01*
X11621999Y16191000D01*
X11597495Y16192204D01*
X11573227Y16195804D01*
X11549428Y16201765D01*
X11526329Y16210030D01*
X11504150Y16220520D01*
X11483107Y16233132D01*
X11463401Y16247747D01*
X11445223Y16264223D01*
X11428747Y16282401D01*
X11414132Y16302107D01*
X11401520Y16323150D01*
X11391030Y16345329D01*
X11382765Y16368428D01*
X11376804Y16392227D01*
X11373204Y16416495D01*
X11372000Y16440999D01*
X11372000Y17341001D01*
X11373204Y17365505D01*
X11376804Y17389773D01*
X11382765Y17413572D01*
X11391030Y17436671D01*
X11401520Y17458850D01*
X11414132Y17479893D01*
X11428747Y17499599D01*
X11445223Y17517777D01*
X11463401Y17534253D01*
X11483107Y17548868D01*
X11504150Y17561480D01*
X11526329Y17571970D01*
X11549428Y17580235D01*
X11573227Y17586196D01*
X11597495Y17589796D01*
X11621999Y17591000D01*
X12272001Y17591000D01*
X12296505Y17589796D01*
X12296505Y17589796D01*
G37*
D12*
G04 #@! TD*
G04 #@! TO.P,C9,1*
G04 #@! TO.N,+3V3*
X11947000Y16891000D03*
D11*
G04 #@! TO.N,+BATT*
G04 #@! TO.C,C10*
G36*
X11135505Y7810796D02*
X11159773Y7807196D01*
X11183572Y7801235D01*
X11206671Y7792970D01*
X11228850Y7782480D01*
X11249893Y7769868D01*
X11269599Y7755253D01*
X11287777Y7738777D01*
X11304253Y7720599D01*
X11318868Y7700893D01*
X11331480Y7679850D01*
X11341970Y7657671D01*
X11350235Y7634572D01*
X11356196Y7610773D01*
X11359796Y7586505D01*
X11361000Y7562001D01*
X11361000Y6661999D01*
X11359796Y6637495D01*
X11356196Y6613227D01*
X11350235Y6589428D01*
X11341970Y6566329D01*
X11331480Y6544150D01*
X11318868Y6523107D01*
X11304253Y6503401D01*
X11287777Y6485223D01*
X11269599Y6468747D01*
X11249893Y6454132D01*
X11228850Y6441520D01*
X11206671Y6431030D01*
X11183572Y6422765D01*
X11159773Y6416804D01*
X11135505Y6413204D01*
X11111001Y6412000D01*
X10460999Y6412000D01*
X10436495Y6413204D01*
X10412227Y6416804D01*
X10388428Y6422765D01*
X10365329Y6431030D01*
X10343150Y6441520D01*
X10322107Y6454132D01*
X10302401Y6468747D01*
X10284223Y6485223D01*
X10267747Y6503401D01*
X10253132Y6523107D01*
X10240520Y6544150D01*
X10230030Y6566329D01*
X10221765Y6589428D01*
X10215804Y6613227D01*
X10212204Y6637495D01*
X10211000Y6661999D01*
X10211000Y7562001D01*
X10212204Y7586505D01*
X10215804Y7610773D01*
X10221765Y7634572D01*
X10230030Y7657671D01*
X10240520Y7679850D01*
X10253132Y7700893D01*
X10267747Y7720599D01*
X10284223Y7738777D01*
X10302401Y7755253D01*
X10322107Y7769868D01*
X10343150Y7782480D01*
X10365329Y7792970D01*
X10388428Y7801235D01*
X10412227Y7807196D01*
X10436495Y7810796D01*
X10460999Y7812000D01*
X11111001Y7812000D01*
X11135505Y7810796D01*
X11135505Y7810796D01*
G37*
D12*
G04 #@! TD*
G04 #@! TO.P,C10,1*
G04 #@! TO.N,+BATT*
X10786000Y7112000D03*
D11*
G04 #@! TO.N,Net-(B1-Pad2)*
G04 #@! TO.C,C10*
G36*
X13185505Y7810796D02*
X13209773Y7807196D01*
X13233572Y7801235D01*
X13256671Y7792970D01*
X13278850Y7782480D01*
X13299893Y7769868D01*
X13319599Y7755253D01*
X13337777Y7738777D01*
X13354253Y7720599D01*
X13368868Y7700893D01*
X13381480Y7679850D01*
X13391970Y7657671D01*
X13400235Y7634572D01*
X13406196Y7610773D01*
X13409796Y7586505D01*
X13411000Y7562001D01*
X13411000Y6661999D01*
X13409796Y6637495D01*
X13406196Y6613227D01*
X13400235Y6589428D01*
X13391970Y6566329D01*
X13381480Y6544150D01*
X13368868Y6523107D01*
X13354253Y6503401D01*
X13337777Y6485223D01*
X13319599Y6468747D01*
X13299893Y6454132D01*
X13278850Y6441520D01*
X13256671Y6431030D01*
X13233572Y6422765D01*
X13209773Y6416804D01*
X13185505Y6413204D01*
X13161001Y6412000D01*
X12510999Y6412000D01*
X12486495Y6413204D01*
X12462227Y6416804D01*
X12438428Y6422765D01*
X12415329Y6431030D01*
X12393150Y6441520D01*
X12372107Y6454132D01*
X12352401Y6468747D01*
X12334223Y6485223D01*
X12317747Y6503401D01*
X12303132Y6523107D01*
X12290520Y6544150D01*
X12280030Y6566329D01*
X12271765Y6589428D01*
X12265804Y6613227D01*
X12262204Y6637495D01*
X12261000Y6661999D01*
X12261000Y7562001D01*
X12262204Y7586505D01*
X12265804Y7610773D01*
X12271765Y7634572D01*
X12280030Y7657671D01*
X12290520Y7679850D01*
X12303132Y7700893D01*
X12317747Y7720599D01*
X12334223Y7738777D01*
X12352401Y7755253D01*
X12372107Y7769868D01*
X12393150Y7782480D01*
X12415329Y7792970D01*
X12438428Y7801235D01*
X12462227Y7807196D01*
X12486495Y7810796D01*
X12510999Y7812000D01*
X13161001Y7812000D01*
X13185505Y7810796D01*
X13185505Y7810796D01*
G37*
D12*
G04 #@! TD*
G04 #@! TO.P,C10,2*
G04 #@! TO.N,Net-(B1-Pad2)*
X12836000Y7112000D03*
D11*
G04 #@! TO.N,GND*
G04 #@! TO.C,C11*
G36*
X11262505Y80327796D02*
X11286773Y80324196D01*
X11310572Y80318235D01*
X11333671Y80309970D01*
X11355850Y80299480D01*
X11376893Y80286868D01*
X11396599Y80272253D01*
X11414777Y80255777D01*
X11431253Y80237599D01*
X11445868Y80217893D01*
X11458480Y80196850D01*
X11468970Y80174671D01*
X11477235Y80151572D01*
X11483196Y80127773D01*
X11486796Y80103505D01*
X11488000Y80079001D01*
X11488000Y79178999D01*
X11486796Y79154495D01*
X11483196Y79130227D01*
X11477235Y79106428D01*
X11468970Y79083329D01*
X11458480Y79061150D01*
X11445868Y79040107D01*
X11431253Y79020401D01*
X11414777Y79002223D01*
X11396599Y78985747D01*
X11376893Y78971132D01*
X11355850Y78958520D01*
X11333671Y78948030D01*
X11310572Y78939765D01*
X11286773Y78933804D01*
X11262505Y78930204D01*
X11238001Y78929000D01*
X10587999Y78929000D01*
X10563495Y78930204D01*
X10539227Y78933804D01*
X10515428Y78939765D01*
X10492329Y78948030D01*
X10470150Y78958520D01*
X10449107Y78971132D01*
X10429401Y78985747D01*
X10411223Y79002223D01*
X10394747Y79020401D01*
X10380132Y79040107D01*
X10367520Y79061150D01*
X10357030Y79083329D01*
X10348765Y79106428D01*
X10342804Y79130227D01*
X10339204Y79154495D01*
X10338000Y79178999D01*
X10338000Y80079001D01*
X10339204Y80103505D01*
X10342804Y80127773D01*
X10348765Y80151572D01*
X10357030Y80174671D01*
X10367520Y80196850D01*
X10380132Y80217893D01*
X10394747Y80237599D01*
X10411223Y80255777D01*
X10429401Y80272253D01*
X10449107Y80286868D01*
X10470150Y80299480D01*
X10492329Y80309970D01*
X10515428Y80318235D01*
X10539227Y80324196D01*
X10563495Y80327796D01*
X10587999Y80329000D01*
X11238001Y80329000D01*
X11262505Y80327796D01*
X11262505Y80327796D01*
G37*
D12*
G04 #@! TD*
G04 #@! TO.P,C11,2*
G04 #@! TO.N,GND*
X10913000Y79629000D03*
D11*
G04 #@! TO.N,+BATT*
G04 #@! TO.C,C11*
G36*
X13312505Y80327796D02*
X13336773Y80324196D01*
X13360572Y80318235D01*
X13383671Y80309970D01*
X13405850Y80299480D01*
X13426893Y80286868D01*
X13446599Y80272253D01*
X13464777Y80255777D01*
X13481253Y80237599D01*
X13495868Y80217893D01*
X13508480Y80196850D01*
X13518970Y80174671D01*
X13527235Y80151572D01*
X13533196Y80127773D01*
X13536796Y80103505D01*
X13538000Y80079001D01*
X13538000Y79178999D01*
X13536796Y79154495D01*
X13533196Y79130227D01*
X13527235Y79106428D01*
X13518970Y79083329D01*
X13508480Y79061150D01*
X13495868Y79040107D01*
X13481253Y79020401D01*
X13464777Y79002223D01*
X13446599Y78985747D01*
X13426893Y78971132D01*
X13405850Y78958520D01*
X13383671Y78948030D01*
X13360572Y78939765D01*
X13336773Y78933804D01*
X13312505Y78930204D01*
X13288001Y78929000D01*
X12637999Y78929000D01*
X12613495Y78930204D01*
X12589227Y78933804D01*
X12565428Y78939765D01*
X12542329Y78948030D01*
X12520150Y78958520D01*
X12499107Y78971132D01*
X12479401Y78985747D01*
X12461223Y79002223D01*
X12444747Y79020401D01*
X12430132Y79040107D01*
X12417520Y79061150D01*
X12407030Y79083329D01*
X12398765Y79106428D01*
X12392804Y79130227D01*
X12389204Y79154495D01*
X12388000Y79178999D01*
X12388000Y80079001D01*
X12389204Y80103505D01*
X12392804Y80127773D01*
X12398765Y80151572D01*
X12407030Y80174671D01*
X12417520Y80196850D01*
X12430132Y80217893D01*
X12444747Y80237599D01*
X12461223Y80255777D01*
X12479401Y80272253D01*
X12499107Y80286868D01*
X12520150Y80299480D01*
X12542329Y80309970D01*
X12565428Y80318235D01*
X12589227Y80324196D01*
X12613495Y80327796D01*
X12637999Y80329000D01*
X13288001Y80329000D01*
X13312505Y80327796D01*
X13312505Y80327796D01*
G37*
D12*
G04 #@! TD*
G04 #@! TO.P,C11,1*
G04 #@! TO.N,+BATT*
X12963000Y79629000D03*
D11*
G04 #@! TO.N,+3V3*
G04 #@! TO.C,C12*
G36*
X20914505Y77533796D02*
X20938773Y77530196D01*
X20962572Y77524235D01*
X20985671Y77515970D01*
X21007850Y77505480D01*
X21028893Y77492868D01*
X21048599Y77478253D01*
X21066777Y77461777D01*
X21083253Y77443599D01*
X21097868Y77423893D01*
X21110480Y77402850D01*
X21120970Y77380671D01*
X21129235Y77357572D01*
X21135196Y77333773D01*
X21138796Y77309505D01*
X21140000Y77285001D01*
X21140000Y76384999D01*
X21138796Y76360495D01*
X21135196Y76336227D01*
X21129235Y76312428D01*
X21120970Y76289329D01*
X21110480Y76267150D01*
X21097868Y76246107D01*
X21083253Y76226401D01*
X21066777Y76208223D01*
X21048599Y76191747D01*
X21028893Y76177132D01*
X21007850Y76164520D01*
X20985671Y76154030D01*
X20962572Y76145765D01*
X20938773Y76139804D01*
X20914505Y76136204D01*
X20890001Y76135000D01*
X20239999Y76135000D01*
X20215495Y76136204D01*
X20191227Y76139804D01*
X20167428Y76145765D01*
X20144329Y76154030D01*
X20122150Y76164520D01*
X20101107Y76177132D01*
X20081401Y76191747D01*
X20063223Y76208223D01*
X20046747Y76226401D01*
X20032132Y76246107D01*
X20019520Y76267150D01*
X20009030Y76289329D01*
X20000765Y76312428D01*
X19994804Y76336227D01*
X19991204Y76360495D01*
X19990000Y76384999D01*
X19990000Y77285001D01*
X19991204Y77309505D01*
X19994804Y77333773D01*
X20000765Y77357572D01*
X20009030Y77380671D01*
X20019520Y77402850D01*
X20032132Y77423893D01*
X20046747Y77443599D01*
X20063223Y77461777D01*
X20081401Y77478253D01*
X20101107Y77492868D01*
X20122150Y77505480D01*
X20144329Y77515970D01*
X20167428Y77524235D01*
X20191227Y77530196D01*
X20215495Y77533796D01*
X20239999Y77535000D01*
X20890001Y77535000D01*
X20914505Y77533796D01*
X20914505Y77533796D01*
G37*
D12*
G04 #@! TD*
G04 #@! TO.P,C12,1*
G04 #@! TO.N,+3V3*
X20565000Y76835000D03*
D11*
G04 #@! TO.N,GND*
G04 #@! TO.C,C12*
G36*
X22964505Y77533796D02*
X22988773Y77530196D01*
X23012572Y77524235D01*
X23035671Y77515970D01*
X23057850Y77505480D01*
X23078893Y77492868D01*
X23098599Y77478253D01*
X23116777Y77461777D01*
X23133253Y77443599D01*
X23147868Y77423893D01*
X23160480Y77402850D01*
X23170970Y77380671D01*
X23179235Y77357572D01*
X23185196Y77333773D01*
X23188796Y77309505D01*
X23190000Y77285001D01*
X23190000Y76384999D01*
X23188796Y76360495D01*
X23185196Y76336227D01*
X23179235Y76312428D01*
X23170970Y76289329D01*
X23160480Y76267150D01*
X23147868Y76246107D01*
X23133253Y76226401D01*
X23116777Y76208223D01*
X23098599Y76191747D01*
X23078893Y76177132D01*
X23057850Y76164520D01*
X23035671Y76154030D01*
X23012572Y76145765D01*
X22988773Y76139804D01*
X22964505Y76136204D01*
X22940001Y76135000D01*
X22289999Y76135000D01*
X22265495Y76136204D01*
X22241227Y76139804D01*
X22217428Y76145765D01*
X22194329Y76154030D01*
X22172150Y76164520D01*
X22151107Y76177132D01*
X22131401Y76191747D01*
X22113223Y76208223D01*
X22096747Y76226401D01*
X22082132Y76246107D01*
X22069520Y76267150D01*
X22059030Y76289329D01*
X22050765Y76312428D01*
X22044804Y76336227D01*
X22041204Y76360495D01*
X22040000Y76384999D01*
X22040000Y77285001D01*
X22041204Y77309505D01*
X22044804Y77333773D01*
X22050765Y77357572D01*
X22059030Y77380671D01*
X22069520Y77402850D01*
X22082132Y77423893D01*
X22096747Y77443599D01*
X22113223Y77461777D01*
X22131401Y77478253D01*
X22151107Y77492868D01*
X22172150Y77505480D01*
X22194329Y77515970D01*
X22217428Y77524235D01*
X22241227Y77530196D01*
X22265495Y77533796D01*
X22289999Y77535000D01*
X22940001Y77535000D01*
X22964505Y77533796D01*
X22964505Y77533796D01*
G37*
D12*
G04 #@! TD*
G04 #@! TO.P,C12,2*
G04 #@! TO.N,GND*
X22615000Y76835000D03*
D13*
G04 #@! TO.P,J2,1*
G04 #@! TO.N,Net-(J2-Pad1)*
X4249000Y9906000D03*
D14*
G04 #@! TO.P,J2,2*
G04 #@! TO.N,GND*
X4249000Y14286000D03*
X4249000Y5526000D03*
D15*
G04 #@! TD*
G04 #@! TO.N,GND*
G04 #@! TO.C,J2*
X7689000Y14286000D03*
G04 #@! TO.N,GND*
G04 #@! TO.C,J2*
X7689000Y5526000D03*
D16*
X7239000Y14286000D03*
X7239000Y5526000D03*
G04 #@! TD*
D17*
G04 #@! TO.P,J3,1*
G04 #@! TO.N,GND*
X2667000Y40005000D03*
D18*
G04 #@! TO.P,J3,2*
X2667000Y42545000D03*
G04 #@! TO.P,J3,3*
G04 #@! TO.N,+3V3*
X2667000Y45085000D03*
G04 #@! TO.P,J3,4*
G04 #@! TO.N,RXI*
X2667000Y47625000D03*
G04 #@! TO.P,J3,5*
G04 #@! TO.N,TX0*
X2667000Y50165000D03*
G04 #@! TO.P,J3,6*
G04 #@! TO.N,RST*
X2667000Y52705000D03*
G04 #@! TD*
D17*
G04 #@! TO.P,J4,1*
G04 #@! TO.N,MISO*
X15113000Y39624000D03*
D18*
G04 #@! TO.P,J4,2*
G04 #@! TO.N,+3V3*
X15113000Y42164000D03*
G04 #@! TO.P,J4,3*
G04 #@! TO.N,SCK*
X12573000Y39624000D03*
G04 #@! TO.P,J4,4*
G04 #@! TO.N,MOSI*
X12573000Y42164000D03*
G04 #@! TO.P,J4,5*
G04 #@! TO.N,reset_in*
X10033000Y39624000D03*
G04 #@! TO.P,J4,6*
G04 #@! TO.N,GND*
X10033000Y42164000D03*
G04 #@! TD*
D19*
G04 #@! TO.P,Y1,1*
G04 #@! TO.N,Net-(C6-Pad2)*
X4151456Y59015456D03*
D11*
G04 #@! TD*
G04 #@! TO.N,Net-(C6-Pad2)*
G04 #@! TO.C,Y1*
G36*
X3338283Y57353755D02*
X2489755Y58202283D01*
X4964629Y60677157D01*
X5813157Y59828629D01*
X3338283Y57353755D01*
X3338283Y57353755D01*
G37*
D19*
G04 #@! TO.P,Y1,2*
G04 #@! TO.N,Net-(C5-Pad2)*
X8040544Y62904544D03*
D11*
G04 #@! TD*
G04 #@! TO.N,Net-(C5-Pad2)*
G04 #@! TO.C,Y1*
G36*
X7227371Y61242843D02*
X6378843Y62091371D01*
X8853717Y64566245D01*
X9702245Y63717717D01*
X7227371Y61242843D01*
X7227371Y61242843D01*
G37*
D20*
G04 #@! TO.P,C7,1*
G04 #@! TO.N,+3V3*
X21844000Y22225000D03*
G04 #@! TO.P,C7,2*
G04 #@! TO.N,GND*
X21844000Y26525000D03*
G04 #@! TD*
D21*
G04 #@! TO.P,JP1,1*
G04 #@! TO.N,Net-(JP1-Pad1)*
X22352000Y35687000D03*
D11*
G04 #@! TD*
G04 #@! TO.N,Net-(JP1-Pad1)*
G04 #@! TO.C,JP1*
G36*
X23102000Y36237000D02*
X23102000Y35687000D01*
X23101398Y35687000D01*
X23101398Y35662466D01*
X23096588Y35613635D01*
X23087016Y35565510D01*
X23072772Y35518555D01*
X23053995Y35473222D01*
X23030864Y35429949D01*
X23003604Y35389150D01*
X22972476Y35351221D01*
X22937779Y35316524D01*
X22899850Y35285396D01*
X22859051Y35258136D01*
X22815778Y35235005D01*
X22770445Y35216228D01*
X22723490Y35201984D01*
X22675365Y35192412D01*
X22626534Y35187602D01*
X22602000Y35187602D01*
X22602000Y35187000D01*
X22102000Y35187000D01*
X22102000Y35187602D01*
X22077466Y35187602D01*
X22028635Y35192412D01*
X21980510Y35201984D01*
X21933555Y35216228D01*
X21888222Y35235005D01*
X21844949Y35258136D01*
X21804150Y35285396D01*
X21766221Y35316524D01*
X21731524Y35351221D01*
X21700396Y35389150D01*
X21673136Y35429949D01*
X21650005Y35473222D01*
X21631228Y35518555D01*
X21616984Y35565510D01*
X21607412Y35613635D01*
X21602602Y35662466D01*
X21602602Y35687000D01*
X21602000Y35687000D01*
X21602000Y36237000D01*
X23102000Y36237000D01*
X23102000Y36237000D01*
G37*
D21*
G04 #@! TO.P,JP1,3*
G04 #@! TO.N,Net-(JP1-Pad3)*
X22352000Y38287000D03*
D11*
G04 #@! TD*
G04 #@! TO.N,Net-(JP1-Pad3)*
G04 #@! TO.C,JP1*
G36*
X21602602Y38287000D02*
X21602602Y38311534D01*
X21607412Y38360365D01*
X21616984Y38408490D01*
X21631228Y38455445D01*
X21650005Y38500778D01*
X21673136Y38544051D01*
X21700396Y38584850D01*
X21731524Y38622779D01*
X21766221Y38657476D01*
X21804150Y38688604D01*
X21844949Y38715864D01*
X21888222Y38738995D01*
X21933555Y38757772D01*
X21980510Y38772016D01*
X22028635Y38781588D01*
X22077466Y38786398D01*
X22102000Y38786398D01*
X22102000Y38787000D01*
X22602000Y38787000D01*
X22602000Y38786398D01*
X22626534Y38786398D01*
X22675365Y38781588D01*
X22723490Y38772016D01*
X22770445Y38757772D01*
X22815778Y38738995D01*
X22859051Y38715864D01*
X22899850Y38688604D01*
X22937779Y38657476D01*
X22972476Y38622779D01*
X23003604Y38584850D01*
X23030864Y38544051D01*
X23053995Y38500778D01*
X23072772Y38455445D01*
X23087016Y38408490D01*
X23096588Y38360365D01*
X23101398Y38311534D01*
X23101398Y38287000D01*
X23102000Y38287000D01*
X23102000Y37737000D01*
X21602000Y37737000D01*
X21602000Y38287000D01*
X21602602Y38287000D01*
X21602602Y38287000D01*
G37*
D22*
G04 #@! TO.P,JP1,2*
G04 #@! TO.N,Jumper_selsction*
X22352000Y36987000D03*
G04 #@! TD*
D11*
G04 #@! TO.N,Net-(D1-Pad1)*
G04 #@! TO.C,D1*
G36*
X6697505Y46293796D02*
X6721773Y46290196D01*
X6745572Y46284235D01*
X6768671Y46275970D01*
X6790850Y46265480D01*
X6811893Y46252868D01*
X6831599Y46238253D01*
X6849777Y46221777D01*
X6866253Y46203599D01*
X6880868Y46183893D01*
X6893480Y46162850D01*
X6903970Y46140671D01*
X6912235Y46117572D01*
X6918196Y46093773D01*
X6921796Y46069505D01*
X6923000Y46045001D01*
X6923000Y45394999D01*
X6921796Y45370495D01*
X6918196Y45346227D01*
X6912235Y45322428D01*
X6903970Y45299329D01*
X6893480Y45277150D01*
X6880868Y45256107D01*
X6866253Y45236401D01*
X6849777Y45218223D01*
X6831599Y45201747D01*
X6811893Y45187132D01*
X6790850Y45174520D01*
X6768671Y45164030D01*
X6745572Y45155765D01*
X6721773Y45149804D01*
X6697505Y45146204D01*
X6673001Y45145000D01*
X5772999Y45145000D01*
X5748495Y45146204D01*
X5724227Y45149804D01*
X5700428Y45155765D01*
X5677329Y45164030D01*
X5655150Y45174520D01*
X5634107Y45187132D01*
X5614401Y45201747D01*
X5596223Y45218223D01*
X5579747Y45236401D01*
X5565132Y45256107D01*
X5552520Y45277150D01*
X5542030Y45299329D01*
X5533765Y45322428D01*
X5527804Y45346227D01*
X5524204Y45370495D01*
X5523000Y45394999D01*
X5523000Y46045001D01*
X5524204Y46069505D01*
X5527804Y46093773D01*
X5533765Y46117572D01*
X5542030Y46140671D01*
X5552520Y46162850D01*
X5565132Y46183893D01*
X5579747Y46203599D01*
X5596223Y46221777D01*
X5614401Y46238253D01*
X5634107Y46252868D01*
X5655150Y46265480D01*
X5677329Y46275970D01*
X5700428Y46284235D01*
X5724227Y46290196D01*
X5748495Y46293796D01*
X5772999Y46295000D01*
X6673001Y46295000D01*
X6697505Y46293796D01*
X6697505Y46293796D01*
G37*
D12*
G04 #@! TD*
G04 #@! TO.P,D1,1*
G04 #@! TO.N,Net-(D1-Pad1)*
X6223000Y45720000D03*
D11*
G04 #@! TO.N,Net-(D1-Pad2)*
G04 #@! TO.C,D1*
G36*
X6697505Y48343796D02*
X6721773Y48340196D01*
X6745572Y48334235D01*
X6768671Y48325970D01*
X6790850Y48315480D01*
X6811893Y48302868D01*
X6831599Y48288253D01*
X6849777Y48271777D01*
X6866253Y48253599D01*
X6880868Y48233893D01*
X6893480Y48212850D01*
X6903970Y48190671D01*
X6912235Y48167572D01*
X6918196Y48143773D01*
X6921796Y48119505D01*
X6923000Y48095001D01*
X6923000Y47444999D01*
X6921796Y47420495D01*
X6918196Y47396227D01*
X6912235Y47372428D01*
X6903970Y47349329D01*
X6893480Y47327150D01*
X6880868Y47306107D01*
X6866253Y47286401D01*
X6849777Y47268223D01*
X6831599Y47251747D01*
X6811893Y47237132D01*
X6790850Y47224520D01*
X6768671Y47214030D01*
X6745572Y47205765D01*
X6721773Y47199804D01*
X6697505Y47196204D01*
X6673001Y47195000D01*
X5772999Y47195000D01*
X5748495Y47196204D01*
X5724227Y47199804D01*
X5700428Y47205765D01*
X5677329Y47214030D01*
X5655150Y47224520D01*
X5634107Y47237132D01*
X5614401Y47251747D01*
X5596223Y47268223D01*
X5579747Y47286401D01*
X5565132Y47306107D01*
X5552520Y47327150D01*
X5542030Y47349329D01*
X5533765Y47372428D01*
X5527804Y47396227D01*
X5524204Y47420495D01*
X5523000Y47444999D01*
X5523000Y48095001D01*
X5524204Y48119505D01*
X5527804Y48143773D01*
X5533765Y48167572D01*
X5542030Y48190671D01*
X5552520Y48212850D01*
X5565132Y48233893D01*
X5579747Y48253599D01*
X5596223Y48271777D01*
X5614401Y48288253D01*
X5634107Y48302868D01*
X5655150Y48315480D01*
X5677329Y48325970D01*
X5700428Y48334235D01*
X5724227Y48340196D01*
X5748495Y48343796D01*
X5772999Y48345000D01*
X6673001Y48345000D01*
X6697505Y48343796D01*
X6697505Y48343796D01*
G37*
D12*
G04 #@! TD*
G04 #@! TO.P,D1,2*
G04 #@! TO.N,Net-(D1-Pad2)*
X6223000Y47770000D03*
D23*
G04 #@! TO.P,B1,1*
G04 #@! TO.N,+BATT*
X11430000Y76200000D03*
G04 #@! TO.P,B1,2*
G04 #@! TO.N,Net-(B1-Pad2)*
X11430000Y4200000D03*
G04 #@! TD*
D24*
G04 #@! TO.P,SW1,1*
G04 #@! TO.N,RST*
X22288000Y62738000D03*
G04 #@! TO.P,SW1,2*
G04 #@! TO.N,GND*
X18288000Y62738000D03*
X18288000Y72738000D03*
G04 #@! TO.P,SW1,1*
G04 #@! TO.N,RST*
X22288000Y72738000D03*
G04 #@! TD*
D25*
G04 #@! TO.P,U1,1*
G04 #@! TO.N,Net-(J1-Pad2)*
X12000334Y57295150D03*
D11*
G04 #@! TD*
G04 #@! TO.N,Net-(J1-Pad2)*
G04 #@! TO.C,U1*
G36*
X11240194Y57666381D02*
X11629103Y58055290D01*
X12760474Y56923919D01*
X12371565Y56535010D01*
X11240194Y57666381D01*
X11240194Y57666381D01*
G37*
D25*
G04 #@! TO.P,U1,2*
G04 #@! TO.N,Net-(U1-Pad2)*
X11434649Y56729464D03*
D11*
G04 #@! TD*
G04 #@! TO.N,Net-(U1-Pad2)*
G04 #@! TO.C,U1*
G36*
X10674509Y57100695D02*
X11063418Y57489604D01*
X12194789Y56358233D01*
X11805880Y55969324D01*
X10674509Y57100695D01*
X10674509Y57100695D01*
G37*
D25*
G04 #@! TO.P,U1,3*
G04 #@! TO.N,GND*
X10868963Y56163779D03*
D11*
G04 #@! TD*
G04 #@! TO.N,GND*
G04 #@! TO.C,U1*
G36*
X10108823Y56535010D02*
X10497732Y56923919D01*
X11629103Y55792548D01*
X11240194Y55403639D01*
X10108823Y56535010D01*
X10108823Y56535010D01*
G37*
D25*
G04 #@! TO.P,U1,4*
G04 #@! TO.N,+3V3*
X10303278Y55598094D03*
D11*
G04 #@! TD*
G04 #@! TO.N,+3V3*
G04 #@! TO.C,U1*
G36*
X9543138Y55969325D02*
X9932047Y56358234D01*
X11063418Y55226863D01*
X10674509Y54837954D01*
X9543138Y55969325D01*
X9543138Y55969325D01*
G37*
D25*
G04 #@! TO.P,U1,5*
G04 #@! TO.N,GND*
X9737592Y55032408D03*
D11*
G04 #@! TD*
G04 #@! TO.N,GND*
G04 #@! TO.C,U1*
G36*
X8977452Y55403639D02*
X9366361Y55792548D01*
X10497732Y54661177D01*
X10108823Y54272268D01*
X8977452Y55403639D01*
X8977452Y55403639D01*
G37*
D25*
G04 #@! TO.P,U1,6*
G04 #@! TO.N,+3V3*
X9171907Y54466723D03*
D11*
G04 #@! TD*
G04 #@! TO.N,+3V3*
G04 #@! TO.C,U1*
G36*
X8411767Y54837954D02*
X8800676Y55226863D01*
X9932047Y54095492D01*
X9543138Y53706583D01*
X8411767Y54837954D01*
X8411767Y54837954D01*
G37*
D25*
G04 #@! TO.P,U1,7*
G04 #@! TO.N,Net-(C5-Pad2)*
X8606222Y53901037D03*
D11*
G04 #@! TD*
G04 #@! TO.N,Net-(C5-Pad2)*
G04 #@! TO.C,U1*
G36*
X7846082Y54272268D02*
X8234991Y54661177D01*
X9366362Y53529806D01*
X8977453Y53140897D01*
X7846082Y54272268D01*
X7846082Y54272268D01*
G37*
D25*
G04 #@! TO.P,U1,8*
G04 #@! TO.N,Net-(C6-Pad2)*
X8040536Y53335352D03*
D11*
G04 #@! TD*
G04 #@! TO.N,Net-(C6-Pad2)*
G04 #@! TO.C,U1*
G36*
X7280396Y53706583D02*
X7669305Y54095492D01*
X8800676Y52964121D01*
X8411767Y52575212D01*
X7280396Y53706583D01*
X7280396Y53706583D01*
G37*
D25*
G04 #@! TO.P,U1,9*
G04 #@! TO.N,Net-(U1-Pad9)*
X8040536Y51284742D03*
D11*
G04 #@! TD*
G04 #@! TO.N,Net-(U1-Pad9)*
G04 #@! TO.C,U1*
G36*
X7669305Y50524602D02*
X7280396Y50913511D01*
X8411767Y52044882D01*
X8800676Y51655973D01*
X7669305Y50524602D01*
X7669305Y50524602D01*
G37*
D25*
G04 #@! TO.P,U1,10*
G04 #@! TO.N,Net-(U1-Pad10)*
X8606222Y50719057D03*
D11*
G04 #@! TD*
G04 #@! TO.N,Net-(U1-Pad10)*
G04 #@! TO.C,U1*
G36*
X8234991Y49958917D02*
X7846082Y50347826D01*
X8977453Y51479197D01*
X9366362Y51090288D01*
X8234991Y49958917D01*
X8234991Y49958917D01*
G37*
D25*
G04 #@! TO.P,U1,11*
G04 #@! TO.N,Jumper_selsction*
X9171907Y50153371D03*
D11*
G04 #@! TD*
G04 #@! TO.N,Jumper_selsction*
G04 #@! TO.C,U1*
G36*
X8800676Y49393231D02*
X8411767Y49782140D01*
X9543138Y50913511D01*
X9932047Y50524602D01*
X8800676Y49393231D01*
X8800676Y49393231D01*
G37*
D25*
G04 #@! TO.P,U1,12*
G04 #@! TO.N,Net-(D1-Pad2)*
X9737592Y49587686D03*
D11*
G04 #@! TD*
G04 #@! TO.N,Net-(D1-Pad2)*
G04 #@! TO.C,U1*
G36*
X9366361Y48827546D02*
X8977452Y49216455D01*
X10108823Y50347826D01*
X10497732Y49958917D01*
X9366361Y48827546D01*
X9366361Y48827546D01*
G37*
D25*
G04 #@! TO.P,U1,13*
G04 #@! TO.N,LoRaSS*
X10303278Y49022000D03*
D11*
G04 #@! TD*
G04 #@! TO.N,LoRaSS*
G04 #@! TO.C,U1*
G36*
X9932047Y48261860D02*
X9543138Y48650769D01*
X10674509Y49782140D01*
X11063418Y49393231D01*
X9932047Y48261860D01*
X9932047Y48261860D01*
G37*
D25*
G04 #@! TO.P,U1,14*
G04 #@! TO.N,Net-(U1-Pad14)*
X10868963Y48456315D03*
D11*
G04 #@! TD*
G04 #@! TO.N,Net-(U1-Pad14)*
G04 #@! TO.C,U1*
G36*
X10497732Y47696175D02*
X10108823Y48085084D01*
X11240194Y49216455D01*
X11629103Y48827546D01*
X10497732Y47696175D01*
X10497732Y47696175D01*
G37*
D25*
G04 #@! TO.P,U1,15*
G04 #@! TO.N,MOSI*
X11434649Y47890630D03*
D11*
G04 #@! TD*
G04 #@! TO.N,MOSI*
G04 #@! TO.C,U1*
G36*
X11063418Y47130490D02*
X10674509Y47519399D01*
X11805880Y48650770D01*
X12194789Y48261861D01*
X11063418Y47130490D01*
X11063418Y47130490D01*
G37*
D25*
G04 #@! TO.P,U1,16*
G04 #@! TO.N,MISO*
X12000334Y47324944D03*
D11*
G04 #@! TD*
G04 #@! TO.N,MISO*
G04 #@! TO.C,U1*
G36*
X11629103Y46564804D02*
X11240194Y46953713D01*
X12371565Y48085084D01*
X12760474Y47696175D01*
X11629103Y46564804D01*
X11629103Y46564804D01*
G37*
D25*
G04 #@! TO.P,U1,17*
G04 #@! TO.N,SCK*
X14050944Y47324944D03*
D11*
G04 #@! TD*
G04 #@! TO.N,SCK*
G04 #@! TO.C,U1*
G36*
X13290804Y47696175D02*
X13679713Y48085084D01*
X14811084Y46953713D01*
X14422175Y46564804D01*
X13290804Y47696175D01*
X13290804Y47696175D01*
G37*
D25*
G04 #@! TO.P,U1,18*
G04 #@! TO.N,+3V3*
X14616629Y47890630D03*
D11*
G04 #@! TD*
G04 #@! TO.N,+3V3*
G04 #@! TO.C,U1*
G36*
X13856489Y48261861D02*
X14245398Y48650770D01*
X15376769Y47519399D01*
X14987860Y47130490D01*
X13856489Y48261861D01*
X13856489Y48261861D01*
G37*
D25*
G04 #@! TO.P,U1,19*
G04 #@! TO.N,Net-(U1-Pad19)*
X15182315Y48456315D03*
D11*
G04 #@! TD*
G04 #@! TO.N,Net-(U1-Pad19)*
G04 #@! TO.C,U1*
G36*
X14422175Y48827546D02*
X14811084Y49216455D01*
X15942455Y48085084D01*
X15553546Y47696175D01*
X14422175Y48827546D01*
X14422175Y48827546D01*
G37*
D25*
G04 #@! TO.P,U1,20*
G04 #@! TO.N,Net-(C3-Pad1)*
X15748000Y49022000D03*
D11*
G04 #@! TD*
G04 #@! TO.N,Net-(C3-Pad1)*
G04 #@! TO.C,U1*
G36*
X14987860Y49393231D02*
X15376769Y49782140D01*
X16508140Y48650769D01*
X16119231Y48261860D01*
X14987860Y49393231D01*
X14987860Y49393231D01*
G37*
D25*
G04 #@! TO.P,U1,21*
G04 #@! TO.N,GND*
X16313686Y49587686D03*
D11*
G04 #@! TD*
G04 #@! TO.N,GND*
G04 #@! TO.C,U1*
G36*
X15553546Y49958917D02*
X15942455Y50347826D01*
X17073826Y49216455D01*
X16684917Y48827546D01*
X15553546Y49958917D01*
X15553546Y49958917D01*
G37*
D25*
G04 #@! TO.P,U1,22*
G04 #@! TO.N,Net-(U1-Pad22)*
X16879371Y50153371D03*
D11*
G04 #@! TD*
G04 #@! TO.N,Net-(U1-Pad22)*
G04 #@! TO.C,U1*
G36*
X16119231Y50524602D02*
X16508140Y50913511D01*
X17639511Y49782140D01*
X17250602Y49393231D01*
X16119231Y50524602D01*
X16119231Y50524602D01*
G37*
D25*
G04 #@! TO.P,U1,23*
G04 #@! TO.N,LoRaReset*
X17445056Y50719057D03*
D11*
G04 #@! TD*
G04 #@! TO.N,LoRaReset*
G04 #@! TO.C,U1*
G36*
X16684916Y51090288D02*
X17073825Y51479197D01*
X18205196Y50347826D01*
X17816287Y49958917D01*
X16684916Y51090288D01*
X16684916Y51090288D01*
G37*
D25*
G04 #@! TO.P,U1,24*
G04 #@! TO.N,Net-(U1-Pad24)*
X18010742Y51284742D03*
D11*
G04 #@! TD*
G04 #@! TO.N,Net-(U1-Pad24)*
G04 #@! TO.C,U1*
G36*
X17250602Y51655973D02*
X17639511Y52044882D01*
X18770882Y50913511D01*
X18381973Y50524602D01*
X17250602Y51655973D01*
X17250602Y51655973D01*
G37*
D25*
G04 #@! TO.P,U1,25*
G04 #@! TO.N,Net-(U1-Pad25)*
X18010742Y53335352D03*
D11*
G04 #@! TD*
G04 #@! TO.N,Net-(U1-Pad25)*
G04 #@! TO.C,U1*
G36*
X17639511Y52575212D02*
X17250602Y52964121D01*
X18381973Y54095492D01*
X18770882Y53706583D01*
X17639511Y52575212D01*
X17639511Y52575212D01*
G37*
D25*
G04 #@! TO.P,U1,26*
G04 #@! TO.N,Net-(U1-Pad26)*
X17445056Y53901037D03*
D11*
G04 #@! TD*
G04 #@! TO.N,Net-(U1-Pad26)*
G04 #@! TO.C,U1*
G36*
X17073825Y53140897D02*
X16684916Y53529806D01*
X17816287Y54661177D01*
X18205196Y54272268D01*
X17073825Y53140897D01*
X17073825Y53140897D01*
G37*
D25*
G04 #@! TO.P,U1,27*
G04 #@! TO.N,sda*
X16879371Y54466723D03*
D11*
G04 #@! TD*
G04 #@! TO.N,sda*
G04 #@! TO.C,U1*
G36*
X16508140Y53706583D02*
X16119231Y54095492D01*
X17250602Y55226863D01*
X17639511Y54837954D01*
X16508140Y53706583D01*
X16508140Y53706583D01*
G37*
D25*
G04 #@! TO.P,U1,28*
G04 #@! TO.N,scl*
X16313686Y55032408D03*
D11*
G04 #@! TD*
G04 #@! TO.N,scl*
G04 #@! TO.C,U1*
G36*
X15942455Y54272268D02*
X15553546Y54661177D01*
X16684917Y55792548D01*
X17073826Y55403639D01*
X15942455Y54272268D01*
X15942455Y54272268D01*
G37*
D25*
G04 #@! TO.P,U1,29*
G04 #@! TO.N,reset_in*
X15748000Y55598094D03*
D11*
G04 #@! TD*
G04 #@! TO.N,reset_in*
G04 #@! TO.C,U1*
G36*
X15376769Y54837954D02*
X14987860Y55226863D01*
X16119231Y56358234D01*
X16508140Y55969325D01*
X15376769Y54837954D01*
X15376769Y54837954D01*
G37*
D25*
G04 #@! TO.P,U1,30*
G04 #@! TO.N,RXI*
X15182315Y56163779D03*
D11*
G04 #@! TD*
G04 #@! TO.N,RXI*
G04 #@! TO.C,U1*
G36*
X14811084Y55403639D02*
X14422175Y55792548D01*
X15553546Y56923919D01*
X15942455Y56535010D01*
X14811084Y55403639D01*
X14811084Y55403639D01*
G37*
D25*
G04 #@! TO.P,U1,31*
G04 #@! TO.N,TX0*
X14616629Y56729464D03*
D11*
G04 #@! TD*
G04 #@! TO.N,TX0*
G04 #@! TO.C,U1*
G36*
X14245398Y55969324D02*
X13856489Y56358233D01*
X14987860Y57489604D01*
X15376769Y57100695D01*
X14245398Y55969324D01*
X14245398Y55969324D01*
G37*
D25*
G04 #@! TO.P,U1,32*
G04 #@! TO.N,LoRa_INT*
X14050944Y57295150D03*
D11*
G04 #@! TD*
G04 #@! TO.N,LoRa_INT*
G04 #@! TO.C,U1*
G36*
X13679713Y56535010D02*
X13290804Y56923919D01*
X14422175Y58055290D01*
X14811084Y57666381D01*
X13679713Y56535010D01*
X13679713Y56535010D01*
G37*
D26*
G04 #@! TO.P,Q1,1*
G04 #@! TO.N,Net-(B1-Pad2)*
X16477000Y15367000D03*
G04 #@! TO.P,Q1,2*
G04 #@! TO.N,Net-(Q1-Pad2)*
X16477000Y14097000D03*
G04 #@! TO.P,Q1,3*
G04 #@! TO.N,GND*
X16477000Y12827000D03*
G04 #@! TO.P,Q1,4*
G04 #@! TO.N,Net-(Q1-Pad4)*
X16477000Y11557000D03*
G04 #@! TO.P,Q1,5*
G04 #@! TO.N,Net-(Q1-Pad5)*
X21877000Y11557000D03*
G04 #@! TO.P,Q1,6*
X21877000Y12827000D03*
G04 #@! TO.P,Q1,7*
X21877000Y14097000D03*
G04 #@! TO.P,Q1,8*
X21877000Y15367000D03*
G04 #@! TD*
D27*
G04 #@! TO.P,U3,1*
G04 #@! TO.N,Net-(Q1-Pad2)*
X20252000Y6924000D03*
G04 #@! TO.P,U3,2*
G04 #@! TO.N,Net-(R4-Pad1)*
X20252000Y7874000D03*
G04 #@! TO.P,U3,3*
G04 #@! TO.N,Net-(Q1-Pad4)*
X20252000Y8824000D03*
G04 #@! TO.P,U3,4*
G04 #@! TO.N,Net-(TP1-Pad1)*
X16832000Y8824000D03*
G04 #@! TO.P,U3,5*
G04 #@! TO.N,Net-(R3-Pad1)*
X16832000Y7874000D03*
G04 #@! TO.P,U3,6*
G04 #@! TO.N,Net-(B1-Pad2)*
X16832000Y6924000D03*
G04 #@! TD*
D28*
G04 #@! TO.P,U2,1*
G04 #@! TO.N,GND*
X17668000Y35686000D03*
G04 #@! TO.P,U2,2*
G04 #@! TO.N,MISO*
X15668000Y35686000D03*
G04 #@! TO.P,U2,3*
G04 #@! TO.N,MOSI*
X13668000Y35686000D03*
G04 #@! TO.P,U2,4*
G04 #@! TO.N,SCK*
X11668000Y35686000D03*
G04 #@! TO.P,U2,5*
G04 #@! TO.N,LoRaSS*
X9668000Y35686000D03*
G04 #@! TO.P,U2,6*
G04 #@! TO.N,LoRaReset*
X7668000Y35686000D03*
G04 #@! TO.P,U2,7*
G04 #@! TO.N,Net-(U2-Pad7)*
X5668000Y35686000D03*
G04 #@! TO.P,U2,8*
G04 #@! TO.N,GND*
X3668000Y35686000D03*
G04 #@! TO.P,U2,9*
G04 #@! TO.N,Net-(J2-Pad1)*
X3668000Y19686000D03*
G04 #@! TO.P,U2,10*
G04 #@! TO.N,GND*
X5668000Y19686000D03*
G04 #@! TO.P,U2,11*
G04 #@! TO.N,Net-(U2-Pad11)*
X7668000Y19686000D03*
G04 #@! TO.P,U2,12*
G04 #@! TO.N,Net-(U2-Pad12)*
X9668000Y19686000D03*
G04 #@! TO.P,U2,13*
G04 #@! TO.N,+3V3*
X11668000Y19686000D03*
G04 #@! TO.P,U2,14*
G04 #@! TO.N,LoRa_INT*
X13668000Y19686000D03*
G04 #@! TO.P,U2,15*
G04 #@! TO.N,Net-(U2-Pad15)*
X15668000Y19686000D03*
G04 #@! TO.P,U2,16*
G04 #@! TO.N,Net-(U2-Pad16)*
X17668000Y19686000D03*
G04 #@! TD*
D11*
G04 #@! TO.N,+3V3*
G04 #@! TO.C,R7*
G36*
X22826505Y43254796D02*
X22850773Y43251196D01*
X22874572Y43245235D01*
X22897671Y43236970D01*
X22919850Y43226480D01*
X22940893Y43213868D01*
X22960599Y43199253D01*
X22978777Y43182777D01*
X22995253Y43164599D01*
X23009868Y43144893D01*
X23022480Y43123850D01*
X23032970Y43101671D01*
X23041235Y43078572D01*
X23047196Y43054773D01*
X23050796Y43030505D01*
X23052000Y43006001D01*
X23052000Y42355999D01*
X23050796Y42331495D01*
X23047196Y42307227D01*
X23041235Y42283428D01*
X23032970Y42260329D01*
X23022480Y42238150D01*
X23009868Y42217107D01*
X22995253Y42197401D01*
X22978777Y42179223D01*
X22960599Y42162747D01*
X22940893Y42148132D01*
X22919850Y42135520D01*
X22897671Y42125030D01*
X22874572Y42116765D01*
X22850773Y42110804D01*
X22826505Y42107204D01*
X22802001Y42106000D01*
X21901999Y42106000D01*
X21877495Y42107204D01*
X21853227Y42110804D01*
X21829428Y42116765D01*
X21806329Y42125030D01*
X21784150Y42135520D01*
X21763107Y42148132D01*
X21743401Y42162747D01*
X21725223Y42179223D01*
X21708747Y42197401D01*
X21694132Y42217107D01*
X21681520Y42238150D01*
X21671030Y42260329D01*
X21662765Y42283428D01*
X21656804Y42307227D01*
X21653204Y42331495D01*
X21652000Y42355999D01*
X21652000Y43006001D01*
X21653204Y43030505D01*
X21656804Y43054773D01*
X21662765Y43078572D01*
X21671030Y43101671D01*
X21681520Y43123850D01*
X21694132Y43144893D01*
X21708747Y43164599D01*
X21725223Y43182777D01*
X21743401Y43199253D01*
X21763107Y43213868D01*
X21784150Y43226480D01*
X21806329Y43236970D01*
X21829428Y43245235D01*
X21853227Y43251196D01*
X21877495Y43254796D01*
X21901999Y43256000D01*
X22802001Y43256000D01*
X22826505Y43254796D01*
X22826505Y43254796D01*
G37*
D12*
G04 #@! TD*
G04 #@! TO.P,R7,1*
G04 #@! TO.N,+3V3*
X22352000Y42681000D03*
D11*
G04 #@! TO.N,Net-(JP1-Pad3)*
G04 #@! TO.C,R7*
G36*
X22826505Y41204796D02*
X22850773Y41201196D01*
X22874572Y41195235D01*
X22897671Y41186970D01*
X22919850Y41176480D01*
X22940893Y41163868D01*
X22960599Y41149253D01*
X22978777Y41132777D01*
X22995253Y41114599D01*
X23009868Y41094893D01*
X23022480Y41073850D01*
X23032970Y41051671D01*
X23041235Y41028572D01*
X23047196Y41004773D01*
X23050796Y40980505D01*
X23052000Y40956001D01*
X23052000Y40305999D01*
X23050796Y40281495D01*
X23047196Y40257227D01*
X23041235Y40233428D01*
X23032970Y40210329D01*
X23022480Y40188150D01*
X23009868Y40167107D01*
X22995253Y40147401D01*
X22978777Y40129223D01*
X22960599Y40112747D01*
X22940893Y40098132D01*
X22919850Y40085520D01*
X22897671Y40075030D01*
X22874572Y40066765D01*
X22850773Y40060804D01*
X22826505Y40057204D01*
X22802001Y40056000D01*
X21901999Y40056000D01*
X21877495Y40057204D01*
X21853227Y40060804D01*
X21829428Y40066765D01*
X21806329Y40075030D01*
X21784150Y40085520D01*
X21763107Y40098132D01*
X21743401Y40112747D01*
X21725223Y40129223D01*
X21708747Y40147401D01*
X21694132Y40167107D01*
X21681520Y40188150D01*
X21671030Y40210329D01*
X21662765Y40233428D01*
X21656804Y40257227D01*
X21653204Y40281495D01*
X21652000Y40305999D01*
X21652000Y40956001D01*
X21653204Y40980505D01*
X21656804Y41004773D01*
X21662765Y41028572D01*
X21671030Y41051671D01*
X21681520Y41073850D01*
X21694132Y41094893D01*
X21708747Y41114599D01*
X21725223Y41132777D01*
X21743401Y41149253D01*
X21763107Y41163868D01*
X21784150Y41176480D01*
X21806329Y41186970D01*
X21829428Y41195235D01*
X21853227Y41201196D01*
X21877495Y41204796D01*
X21901999Y41206000D01*
X22802001Y41206000D01*
X22826505Y41204796D01*
X22826505Y41204796D01*
G37*
D12*
G04 #@! TD*
G04 #@! TO.P,R7,2*
G04 #@! TO.N,Net-(JP1-Pad3)*
X22352000Y40631000D03*
D11*
G04 #@! TO.N,GND*
G04 #@! TO.C,R5*
G36*
X22826505Y31815796D02*
X22850773Y31812196D01*
X22874572Y31806235D01*
X22897671Y31797970D01*
X22919850Y31787480D01*
X22940893Y31774868D01*
X22960599Y31760253D01*
X22978777Y31743777D01*
X22995253Y31725599D01*
X23009868Y31705893D01*
X23022480Y31684850D01*
X23032970Y31662671D01*
X23041235Y31639572D01*
X23047196Y31615773D01*
X23050796Y31591505D01*
X23052000Y31567001D01*
X23052000Y30916999D01*
X23050796Y30892495D01*
X23047196Y30868227D01*
X23041235Y30844428D01*
X23032970Y30821329D01*
X23022480Y30799150D01*
X23009868Y30778107D01*
X22995253Y30758401D01*
X22978777Y30740223D01*
X22960599Y30723747D01*
X22940893Y30709132D01*
X22919850Y30696520D01*
X22897671Y30686030D01*
X22874572Y30677765D01*
X22850773Y30671804D01*
X22826505Y30668204D01*
X22802001Y30667000D01*
X21901999Y30667000D01*
X21877495Y30668204D01*
X21853227Y30671804D01*
X21829428Y30677765D01*
X21806329Y30686030D01*
X21784150Y30696520D01*
X21763107Y30709132D01*
X21743401Y30723747D01*
X21725223Y30740223D01*
X21708747Y30758401D01*
X21694132Y30778107D01*
X21681520Y30799150D01*
X21671030Y30821329D01*
X21662765Y30844428D01*
X21656804Y30868227D01*
X21653204Y30892495D01*
X21652000Y30916999D01*
X21652000Y31567001D01*
X21653204Y31591505D01*
X21656804Y31615773D01*
X21662765Y31639572D01*
X21671030Y31662671D01*
X21681520Y31684850D01*
X21694132Y31705893D01*
X21708747Y31725599D01*
X21725223Y31743777D01*
X21743401Y31760253D01*
X21763107Y31774868D01*
X21784150Y31787480D01*
X21806329Y31797970D01*
X21829428Y31806235D01*
X21853227Y31812196D01*
X21877495Y31815796D01*
X21901999Y31817000D01*
X22802001Y31817000D01*
X22826505Y31815796D01*
X22826505Y31815796D01*
G37*
D12*
G04 #@! TD*
G04 #@! TO.P,R5,2*
G04 #@! TO.N,GND*
X22352000Y31242000D03*
D11*
G04 #@! TO.N,Net-(JP1-Pad1)*
G04 #@! TO.C,R5*
G36*
X22826505Y33865796D02*
X22850773Y33862196D01*
X22874572Y33856235D01*
X22897671Y33847970D01*
X22919850Y33837480D01*
X22940893Y33824868D01*
X22960599Y33810253D01*
X22978777Y33793777D01*
X22995253Y33775599D01*
X23009868Y33755893D01*
X23022480Y33734850D01*
X23032970Y33712671D01*
X23041235Y33689572D01*
X23047196Y33665773D01*
X23050796Y33641505D01*
X23052000Y33617001D01*
X23052000Y32966999D01*
X23050796Y32942495D01*
X23047196Y32918227D01*
X23041235Y32894428D01*
X23032970Y32871329D01*
X23022480Y32849150D01*
X23009868Y32828107D01*
X22995253Y32808401D01*
X22978777Y32790223D01*
X22960599Y32773747D01*
X22940893Y32759132D01*
X22919850Y32746520D01*
X22897671Y32736030D01*
X22874572Y32727765D01*
X22850773Y32721804D01*
X22826505Y32718204D01*
X22802001Y32717000D01*
X21901999Y32717000D01*
X21877495Y32718204D01*
X21853227Y32721804D01*
X21829428Y32727765D01*
X21806329Y32736030D01*
X21784150Y32746520D01*
X21763107Y32759132D01*
X21743401Y32773747D01*
X21725223Y32790223D01*
X21708747Y32808401D01*
X21694132Y32828107D01*
X21681520Y32849150D01*
X21671030Y32871329D01*
X21662765Y32894428D01*
X21656804Y32918227D01*
X21653204Y32942495D01*
X21652000Y32966999D01*
X21652000Y33617001D01*
X21653204Y33641505D01*
X21656804Y33665773D01*
X21662765Y33689572D01*
X21671030Y33712671D01*
X21681520Y33734850D01*
X21694132Y33755893D01*
X21708747Y33775599D01*
X21725223Y33793777D01*
X21743401Y33810253D01*
X21763107Y33824868D01*
X21784150Y33837480D01*
X21806329Y33847970D01*
X21829428Y33856235D01*
X21853227Y33862196D01*
X21877495Y33865796D01*
X21901999Y33867000D01*
X22802001Y33867000D01*
X22826505Y33865796D01*
X22826505Y33865796D01*
G37*
D12*
G04 #@! TD*
G04 #@! TO.P,R5,1*
G04 #@! TO.N,Net-(JP1-Pad1)*
X22352000Y33292000D03*
D11*
G04 #@! TO.N,Net-(R4-Pad1)*
G04 #@! TO.C,R4*
G36*
X18011505Y5143796D02*
X18035773Y5140196D01*
X18059572Y5134235D01*
X18082671Y5125970D01*
X18104850Y5115480D01*
X18125893Y5102868D01*
X18145599Y5088253D01*
X18163777Y5071777D01*
X18180253Y5053599D01*
X18194868Y5033893D01*
X18207480Y5012850D01*
X18217970Y4990671D01*
X18226235Y4967572D01*
X18232196Y4943773D01*
X18235796Y4919505D01*
X18237000Y4895001D01*
X18237000Y3994999D01*
X18235796Y3970495D01*
X18232196Y3946227D01*
X18226235Y3922428D01*
X18217970Y3899329D01*
X18207480Y3877150D01*
X18194868Y3856107D01*
X18180253Y3836401D01*
X18163777Y3818223D01*
X18145599Y3801747D01*
X18125893Y3787132D01*
X18104850Y3774520D01*
X18082671Y3764030D01*
X18059572Y3755765D01*
X18035773Y3749804D01*
X18011505Y3746204D01*
X17987001Y3745000D01*
X17336999Y3745000D01*
X17312495Y3746204D01*
X17288227Y3749804D01*
X17264428Y3755765D01*
X17241329Y3764030D01*
X17219150Y3774520D01*
X17198107Y3787132D01*
X17178401Y3801747D01*
X17160223Y3818223D01*
X17143747Y3836401D01*
X17129132Y3856107D01*
X17116520Y3877150D01*
X17106030Y3899329D01*
X17097765Y3922428D01*
X17091804Y3946227D01*
X17088204Y3970495D01*
X17087000Y3994999D01*
X17087000Y4895001D01*
X17088204Y4919505D01*
X17091804Y4943773D01*
X17097765Y4967572D01*
X17106030Y4990671D01*
X17116520Y5012850D01*
X17129132Y5033893D01*
X17143747Y5053599D01*
X17160223Y5071777D01*
X17178401Y5088253D01*
X17198107Y5102868D01*
X17219150Y5115480D01*
X17241329Y5125970D01*
X17264428Y5134235D01*
X17288227Y5140196D01*
X17312495Y5143796D01*
X17336999Y5145000D01*
X17987001Y5145000D01*
X18011505Y5143796D01*
X18011505Y5143796D01*
G37*
D12*
G04 #@! TD*
G04 #@! TO.P,R4,1*
G04 #@! TO.N,Net-(R4-Pad1)*
X17662000Y4445000D03*
D11*
G04 #@! TO.N,GND*
G04 #@! TO.C,R4*
G36*
X15961505Y5143796D02*
X15985773Y5140196D01*
X16009572Y5134235D01*
X16032671Y5125970D01*
X16054850Y5115480D01*
X16075893Y5102868D01*
X16095599Y5088253D01*
X16113777Y5071777D01*
X16130253Y5053599D01*
X16144868Y5033893D01*
X16157480Y5012850D01*
X16167970Y4990671D01*
X16176235Y4967572D01*
X16182196Y4943773D01*
X16185796Y4919505D01*
X16187000Y4895001D01*
X16187000Y3994999D01*
X16185796Y3970495D01*
X16182196Y3946227D01*
X16176235Y3922428D01*
X16167970Y3899329D01*
X16157480Y3877150D01*
X16144868Y3856107D01*
X16130253Y3836401D01*
X16113777Y3818223D01*
X16095599Y3801747D01*
X16075893Y3787132D01*
X16054850Y3774520D01*
X16032671Y3764030D01*
X16009572Y3755765D01*
X15985773Y3749804D01*
X15961505Y3746204D01*
X15937001Y3745000D01*
X15286999Y3745000D01*
X15262495Y3746204D01*
X15238227Y3749804D01*
X15214428Y3755765D01*
X15191329Y3764030D01*
X15169150Y3774520D01*
X15148107Y3787132D01*
X15128401Y3801747D01*
X15110223Y3818223D01*
X15093747Y3836401D01*
X15079132Y3856107D01*
X15066520Y3877150D01*
X15056030Y3899329D01*
X15047765Y3922428D01*
X15041804Y3946227D01*
X15038204Y3970495D01*
X15037000Y3994999D01*
X15037000Y4895001D01*
X15038204Y4919505D01*
X15041804Y4943773D01*
X15047765Y4967572D01*
X15056030Y4990671D01*
X15066520Y5012850D01*
X15079132Y5033893D01*
X15093747Y5053599D01*
X15110223Y5071777D01*
X15128401Y5088253D01*
X15148107Y5102868D01*
X15169150Y5115480D01*
X15191329Y5125970D01*
X15214428Y5134235D01*
X15238227Y5140196D01*
X15262495Y5143796D01*
X15286999Y5145000D01*
X15937001Y5145000D01*
X15961505Y5143796D01*
X15961505Y5143796D01*
G37*
D12*
G04 #@! TD*
G04 #@! TO.P,R4,2*
G04 #@! TO.N,GND*
X15612000Y4445000D03*
D11*
G04 #@! TO.N,+BATT*
G04 #@! TO.C,R3*
G36*
X11135505Y10223796D02*
X11159773Y10220196D01*
X11183572Y10214235D01*
X11206671Y10205970D01*
X11228850Y10195480D01*
X11249893Y10182868D01*
X11269599Y10168253D01*
X11287777Y10151777D01*
X11304253Y10133599D01*
X11318868Y10113893D01*
X11331480Y10092850D01*
X11341970Y10070671D01*
X11350235Y10047572D01*
X11356196Y10023773D01*
X11359796Y9999505D01*
X11361000Y9975001D01*
X11361000Y9074999D01*
X11359796Y9050495D01*
X11356196Y9026227D01*
X11350235Y9002428D01*
X11341970Y8979329D01*
X11331480Y8957150D01*
X11318868Y8936107D01*
X11304253Y8916401D01*
X11287777Y8898223D01*
X11269599Y8881747D01*
X11249893Y8867132D01*
X11228850Y8854520D01*
X11206671Y8844030D01*
X11183572Y8835765D01*
X11159773Y8829804D01*
X11135505Y8826204D01*
X11111001Y8825000D01*
X10460999Y8825000D01*
X10436495Y8826204D01*
X10412227Y8829804D01*
X10388428Y8835765D01*
X10365329Y8844030D01*
X10343150Y8854520D01*
X10322107Y8867132D01*
X10302401Y8881747D01*
X10284223Y8898223D01*
X10267747Y8916401D01*
X10253132Y8936107D01*
X10240520Y8957150D01*
X10230030Y8979329D01*
X10221765Y9002428D01*
X10215804Y9026227D01*
X10212204Y9050495D01*
X10211000Y9074999D01*
X10211000Y9975001D01*
X10212204Y9999505D01*
X10215804Y10023773D01*
X10221765Y10047572D01*
X10230030Y10070671D01*
X10240520Y10092850D01*
X10253132Y10113893D01*
X10267747Y10133599D01*
X10284223Y10151777D01*
X10302401Y10168253D01*
X10322107Y10182868D01*
X10343150Y10195480D01*
X10365329Y10205970D01*
X10388428Y10214235D01*
X10412227Y10220196D01*
X10436495Y10223796D01*
X10460999Y10225000D01*
X11111001Y10225000D01*
X11135505Y10223796D01*
X11135505Y10223796D01*
G37*
D12*
G04 #@! TD*
G04 #@! TO.P,R3,2*
G04 #@! TO.N,+BATT*
X10786000Y9525000D03*
D11*
G04 #@! TO.N,Net-(R3-Pad1)*
G04 #@! TO.C,R3*
G36*
X13185505Y10223796D02*
X13209773Y10220196D01*
X13233572Y10214235D01*
X13256671Y10205970D01*
X13278850Y10195480D01*
X13299893Y10182868D01*
X13319599Y10168253D01*
X13337777Y10151777D01*
X13354253Y10133599D01*
X13368868Y10113893D01*
X13381480Y10092850D01*
X13391970Y10070671D01*
X13400235Y10047572D01*
X13406196Y10023773D01*
X13409796Y9999505D01*
X13411000Y9975001D01*
X13411000Y9074999D01*
X13409796Y9050495D01*
X13406196Y9026227D01*
X13400235Y9002428D01*
X13391970Y8979329D01*
X13381480Y8957150D01*
X13368868Y8936107D01*
X13354253Y8916401D01*
X13337777Y8898223D01*
X13319599Y8881747D01*
X13299893Y8867132D01*
X13278850Y8854520D01*
X13256671Y8844030D01*
X13233572Y8835765D01*
X13209773Y8829804D01*
X13185505Y8826204D01*
X13161001Y8825000D01*
X12510999Y8825000D01*
X12486495Y8826204D01*
X12462227Y8829804D01*
X12438428Y8835765D01*
X12415329Y8844030D01*
X12393150Y8854520D01*
X12372107Y8867132D01*
X12352401Y8881747D01*
X12334223Y8898223D01*
X12317747Y8916401D01*
X12303132Y8936107D01*
X12290520Y8957150D01*
X12280030Y8979329D01*
X12271765Y9002428D01*
X12265804Y9026227D01*
X12262204Y9050495D01*
X12261000Y9074999D01*
X12261000Y9975001D01*
X12262204Y9999505D01*
X12265804Y10023773D01*
X12271765Y10047572D01*
X12280030Y10070671D01*
X12290520Y10092850D01*
X12303132Y10113893D01*
X12317747Y10133599D01*
X12334223Y10151777D01*
X12352401Y10168253D01*
X12372107Y10182868D01*
X12393150Y10195480D01*
X12415329Y10205970D01*
X12438428Y10214235D01*
X12462227Y10220196D01*
X12486495Y10223796D01*
X12510999Y10225000D01*
X13161001Y10225000D01*
X13185505Y10223796D01*
X13185505Y10223796D01*
G37*
D12*
G04 #@! TD*
G04 #@! TO.P,R3,1*
G04 #@! TO.N,Net-(R3-Pad1)*
X12836000Y9525000D03*
D11*
G04 #@! TO.N,+3V3*
G04 #@! TO.C,R2*
G36*
X12550505Y72834796D02*
X12574773Y72831196D01*
X12598572Y72825235D01*
X12621671Y72816970D01*
X12643850Y72806480D01*
X12664893Y72793868D01*
X12684599Y72779253D01*
X12702777Y72762777D01*
X12719253Y72744599D01*
X12733868Y72724893D01*
X12746480Y72703850D01*
X12756970Y72681671D01*
X12765235Y72658572D01*
X12771196Y72634773D01*
X12774796Y72610505D01*
X12776000Y72586001D01*
X12776000Y71685999D01*
X12774796Y71661495D01*
X12771196Y71637227D01*
X12765235Y71613428D01*
X12756970Y71590329D01*
X12746480Y71568150D01*
X12733868Y71547107D01*
X12719253Y71527401D01*
X12702777Y71509223D01*
X12684599Y71492747D01*
X12664893Y71478132D01*
X12643850Y71465520D01*
X12621671Y71455030D01*
X12598572Y71446765D01*
X12574773Y71440804D01*
X12550505Y71437204D01*
X12526001Y71436000D01*
X11875999Y71436000D01*
X11851495Y71437204D01*
X11827227Y71440804D01*
X11803428Y71446765D01*
X11780329Y71455030D01*
X11758150Y71465520D01*
X11737107Y71478132D01*
X11717401Y71492747D01*
X11699223Y71509223D01*
X11682747Y71527401D01*
X11668132Y71547107D01*
X11655520Y71568150D01*
X11645030Y71590329D01*
X11636765Y71613428D01*
X11630804Y71637227D01*
X11627204Y71661495D01*
X11626000Y71685999D01*
X11626000Y72586001D01*
X11627204Y72610505D01*
X11630804Y72634773D01*
X11636765Y72658572D01*
X11645030Y72681671D01*
X11655520Y72703850D01*
X11668132Y72724893D01*
X11682747Y72744599D01*
X11699223Y72762777D01*
X11717401Y72779253D01*
X11737107Y72793868D01*
X11758150Y72806480D01*
X11780329Y72816970D01*
X11803428Y72825235D01*
X11827227Y72831196D01*
X11851495Y72834796D01*
X11875999Y72836000D01*
X12526001Y72836000D01*
X12550505Y72834796D01*
X12550505Y72834796D01*
G37*
D12*
G04 #@! TD*
G04 #@! TO.P,R2,1*
G04 #@! TO.N,+3V3*
X12201000Y72136000D03*
D11*
G04 #@! TO.N,Net-(J1-Pad2)*
G04 #@! TO.C,R2*
G36*
X10500505Y72834796D02*
X10524773Y72831196D01*
X10548572Y72825235D01*
X10571671Y72816970D01*
X10593850Y72806480D01*
X10614893Y72793868D01*
X10634599Y72779253D01*
X10652777Y72762777D01*
X10669253Y72744599D01*
X10683868Y72724893D01*
X10696480Y72703850D01*
X10706970Y72681671D01*
X10715235Y72658572D01*
X10721196Y72634773D01*
X10724796Y72610505D01*
X10726000Y72586001D01*
X10726000Y71685999D01*
X10724796Y71661495D01*
X10721196Y71637227D01*
X10715235Y71613428D01*
X10706970Y71590329D01*
X10696480Y71568150D01*
X10683868Y71547107D01*
X10669253Y71527401D01*
X10652777Y71509223D01*
X10634599Y71492747D01*
X10614893Y71478132D01*
X10593850Y71465520D01*
X10571671Y71455030D01*
X10548572Y71446765D01*
X10524773Y71440804D01*
X10500505Y71437204D01*
X10476001Y71436000D01*
X9825999Y71436000D01*
X9801495Y71437204D01*
X9777227Y71440804D01*
X9753428Y71446765D01*
X9730329Y71455030D01*
X9708150Y71465520D01*
X9687107Y71478132D01*
X9667401Y71492747D01*
X9649223Y71509223D01*
X9632747Y71527401D01*
X9618132Y71547107D01*
X9605520Y71568150D01*
X9595030Y71590329D01*
X9586765Y71613428D01*
X9580804Y71637227D01*
X9577204Y71661495D01*
X9576000Y71685999D01*
X9576000Y72586001D01*
X9577204Y72610505D01*
X9580804Y72634773D01*
X9586765Y72658572D01*
X9595030Y72681671D01*
X9605520Y72703850D01*
X9618132Y72724893D01*
X9632747Y72744599D01*
X9649223Y72762777D01*
X9667401Y72779253D01*
X9687107Y72793868D01*
X9708150Y72806480D01*
X9730329Y72816970D01*
X9753428Y72825235D01*
X9777227Y72831196D01*
X9801495Y72834796D01*
X9825999Y72836000D01*
X10476001Y72836000D01*
X10500505Y72834796D01*
X10500505Y72834796D01*
G37*
D12*
G04 #@! TD*
G04 #@! TO.P,R2,2*
G04 #@! TO.N,Net-(J1-Pad2)*
X10151000Y72136000D03*
D11*
G04 #@! TO.N,RST*
G04 #@! TO.C,R1*
G36*
X15206505Y68636796D02*
X15230773Y68633196D01*
X15254572Y68627235D01*
X15277671Y68618970D01*
X15299850Y68608480D01*
X15320893Y68595868D01*
X15340599Y68581253D01*
X15358777Y68564777D01*
X15375253Y68546599D01*
X15389868Y68526893D01*
X15402480Y68505850D01*
X15412970Y68483671D01*
X15421235Y68460572D01*
X15427196Y68436773D01*
X15430796Y68412505D01*
X15432000Y68388001D01*
X15432000Y67737999D01*
X15430796Y67713495D01*
X15427196Y67689227D01*
X15421235Y67665428D01*
X15412970Y67642329D01*
X15402480Y67620150D01*
X15389868Y67599107D01*
X15375253Y67579401D01*
X15358777Y67561223D01*
X15340599Y67544747D01*
X15320893Y67530132D01*
X15299850Y67517520D01*
X15277671Y67507030D01*
X15254572Y67498765D01*
X15230773Y67492804D01*
X15206505Y67489204D01*
X15182001Y67488000D01*
X14281999Y67488000D01*
X14257495Y67489204D01*
X14233227Y67492804D01*
X14209428Y67498765D01*
X14186329Y67507030D01*
X14164150Y67517520D01*
X14143107Y67530132D01*
X14123401Y67544747D01*
X14105223Y67561223D01*
X14088747Y67579401D01*
X14074132Y67599107D01*
X14061520Y67620150D01*
X14051030Y67642329D01*
X14042765Y67665428D01*
X14036804Y67689227D01*
X14033204Y67713495D01*
X14032000Y67737999D01*
X14032000Y68388001D01*
X14033204Y68412505D01*
X14036804Y68436773D01*
X14042765Y68460572D01*
X14051030Y68483671D01*
X14061520Y68505850D01*
X14074132Y68526893D01*
X14088747Y68546599D01*
X14105223Y68564777D01*
X14123401Y68581253D01*
X14143107Y68595868D01*
X14164150Y68608480D01*
X14186329Y68618970D01*
X14209428Y68627235D01*
X14233227Y68633196D01*
X14257495Y68636796D01*
X14281999Y68638000D01*
X15182001Y68638000D01*
X15206505Y68636796D01*
X15206505Y68636796D01*
G37*
D12*
G04 #@! TD*
G04 #@! TO.P,R1,2*
G04 #@! TO.N,RST*
X14732000Y68063000D03*
D11*
G04 #@! TO.N,+3V3*
G04 #@! TO.C,R1*
G36*
X15206505Y70686796D02*
X15230773Y70683196D01*
X15254572Y70677235D01*
X15277671Y70668970D01*
X15299850Y70658480D01*
X15320893Y70645868D01*
X15340599Y70631253D01*
X15358777Y70614777D01*
X15375253Y70596599D01*
X15389868Y70576893D01*
X15402480Y70555850D01*
X15412970Y70533671D01*
X15421235Y70510572D01*
X15427196Y70486773D01*
X15430796Y70462505D01*
X15432000Y70438001D01*
X15432000Y69787999D01*
X15430796Y69763495D01*
X15427196Y69739227D01*
X15421235Y69715428D01*
X15412970Y69692329D01*
X15402480Y69670150D01*
X15389868Y69649107D01*
X15375253Y69629401D01*
X15358777Y69611223D01*
X15340599Y69594747D01*
X15320893Y69580132D01*
X15299850Y69567520D01*
X15277671Y69557030D01*
X15254572Y69548765D01*
X15230773Y69542804D01*
X15206505Y69539204D01*
X15182001Y69538000D01*
X14281999Y69538000D01*
X14257495Y69539204D01*
X14233227Y69542804D01*
X14209428Y69548765D01*
X14186329Y69557030D01*
X14164150Y69567520D01*
X14143107Y69580132D01*
X14123401Y69594747D01*
X14105223Y69611223D01*
X14088747Y69629401D01*
X14074132Y69649107D01*
X14061520Y69670150D01*
X14051030Y69692329D01*
X14042765Y69715428D01*
X14036804Y69739227D01*
X14033204Y69763495D01*
X14032000Y69787999D01*
X14032000Y70438001D01*
X14033204Y70462505D01*
X14036804Y70486773D01*
X14042765Y70510572D01*
X14051030Y70533671D01*
X14061520Y70555850D01*
X14074132Y70576893D01*
X14088747Y70596599D01*
X14105223Y70614777D01*
X14123401Y70631253D01*
X14143107Y70645868D01*
X14164150Y70658480D01*
X14186329Y70668970D01*
X14209428Y70677235D01*
X14233227Y70683196D01*
X14257495Y70686796D01*
X14281999Y70688000D01*
X15182001Y70688000D01*
X15206505Y70686796D01*
X15206505Y70686796D01*
G37*
D12*
G04 #@! TD*
G04 #@! TO.P,R1,1*
G04 #@! TO.N,+3V3*
X14732000Y70113000D03*
D11*
G04 #@! TO.N,GND*
G04 #@! TO.C,R6*
G36*
X6697505Y41458796D02*
X6721773Y41455196D01*
X6745572Y41449235D01*
X6768671Y41440970D01*
X6790850Y41430480D01*
X6811893Y41417868D01*
X6831599Y41403253D01*
X6849777Y41386777D01*
X6866253Y41368599D01*
X6880868Y41348893D01*
X6893480Y41327850D01*
X6903970Y41305671D01*
X6912235Y41282572D01*
X6918196Y41258773D01*
X6921796Y41234505D01*
X6923000Y41210001D01*
X6923000Y40559999D01*
X6921796Y40535495D01*
X6918196Y40511227D01*
X6912235Y40487428D01*
X6903970Y40464329D01*
X6893480Y40442150D01*
X6880868Y40421107D01*
X6866253Y40401401D01*
X6849777Y40383223D01*
X6831599Y40366747D01*
X6811893Y40352132D01*
X6790850Y40339520D01*
X6768671Y40329030D01*
X6745572Y40320765D01*
X6721773Y40314804D01*
X6697505Y40311204D01*
X6673001Y40310000D01*
X5772999Y40310000D01*
X5748495Y40311204D01*
X5724227Y40314804D01*
X5700428Y40320765D01*
X5677329Y40329030D01*
X5655150Y40339520D01*
X5634107Y40352132D01*
X5614401Y40366747D01*
X5596223Y40383223D01*
X5579747Y40401401D01*
X5565132Y40421107D01*
X5552520Y40442150D01*
X5542030Y40464329D01*
X5533765Y40487428D01*
X5527804Y40511227D01*
X5524204Y40535495D01*
X5523000Y40559999D01*
X5523000Y41210001D01*
X5524204Y41234505D01*
X5527804Y41258773D01*
X5533765Y41282572D01*
X5542030Y41305671D01*
X5552520Y41327850D01*
X5565132Y41348893D01*
X5579747Y41368599D01*
X5596223Y41386777D01*
X5614401Y41403253D01*
X5634107Y41417868D01*
X5655150Y41430480D01*
X5677329Y41440970D01*
X5700428Y41449235D01*
X5724227Y41455196D01*
X5748495Y41458796D01*
X5772999Y41460000D01*
X6673001Y41460000D01*
X6697505Y41458796D01*
X6697505Y41458796D01*
G37*
D12*
G04 #@! TD*
G04 #@! TO.P,R6,1*
G04 #@! TO.N,GND*
X6223000Y40885000D03*
D11*
G04 #@! TO.N,Net-(D1-Pad1)*
G04 #@! TO.C,R6*
G36*
X6697505Y43508796D02*
X6721773Y43505196D01*
X6745572Y43499235D01*
X6768671Y43490970D01*
X6790850Y43480480D01*
X6811893Y43467868D01*
X6831599Y43453253D01*
X6849777Y43436777D01*
X6866253Y43418599D01*
X6880868Y43398893D01*
X6893480Y43377850D01*
X6903970Y43355671D01*
X6912235Y43332572D01*
X6918196Y43308773D01*
X6921796Y43284505D01*
X6923000Y43260001D01*
X6923000Y42609999D01*
X6921796Y42585495D01*
X6918196Y42561227D01*
X6912235Y42537428D01*
X6903970Y42514329D01*
X6893480Y42492150D01*
X6880868Y42471107D01*
X6866253Y42451401D01*
X6849777Y42433223D01*
X6831599Y42416747D01*
X6811893Y42402132D01*
X6790850Y42389520D01*
X6768671Y42379030D01*
X6745572Y42370765D01*
X6721773Y42364804D01*
X6697505Y42361204D01*
X6673001Y42360000D01*
X5772999Y42360000D01*
X5748495Y42361204D01*
X5724227Y42364804D01*
X5700428Y42370765D01*
X5677329Y42379030D01*
X5655150Y42389520D01*
X5634107Y42402132D01*
X5614401Y42416747D01*
X5596223Y42433223D01*
X5579747Y42451401D01*
X5565132Y42471107D01*
X5552520Y42492150D01*
X5542030Y42514329D01*
X5533765Y42537428D01*
X5527804Y42561227D01*
X5524204Y42585495D01*
X5523000Y42609999D01*
X5523000Y43260001D01*
X5524204Y43284505D01*
X5527804Y43308773D01*
X5533765Y43332572D01*
X5542030Y43355671D01*
X5552520Y43377850D01*
X5565132Y43398893D01*
X5579747Y43418599D01*
X5596223Y43436777D01*
X5614401Y43453253D01*
X5634107Y43467868D01*
X5655150Y43480480D01*
X5677329Y43490970D01*
X5700428Y43499235D01*
X5724227Y43505196D01*
X5748495Y43508796D01*
X5772999Y43510000D01*
X6673001Y43510000D01*
X6697505Y43508796D01*
X6697505Y43508796D01*
G37*
D12*
G04 #@! TD*
G04 #@! TO.P,R6,2*
G04 #@! TO.N,Net-(D1-Pad1)*
X6223000Y42935000D03*
D29*
G04 #@! TO.P,J1,1*
G04 #@! TO.N,+3V3*
X5588000Y77668000D03*
D30*
G04 #@! TO.P,J1,2*
G04 #@! TO.N,Net-(J1-Pad2)*
X5588000Y74168000D03*
G04 #@! TO.P,J1,3*
G04 #@! TO.N,GND*
X5588000Y70668000D03*
G04 #@! TD*
D31*
G04 #@! TO.P,TP1,1*
G04 #@! TO.N,Net-(TP1-Pad1)*
X14605000Y10287000D03*
G04 #@! TD*
D32*
G04 #@! TO.N,Net-(B1-Pad2)*
X14224000Y14732000D03*
G04 #@! TO.N,reset_in*
X17907000Y57658000D03*
G04 #@! TO.N,RST*
X4191000Y55753000D03*
X13290812Y64941808D03*
G04 #@! TO.N,GND*
X18796000Y13335000D03*
X16891000Y32004000D03*
X19939000Y32004000D03*
G04 #@! TO.N,+3V3*
X20574000Y78867000D03*
X18034000Y26543000D03*
X8001000Y57658000D03*
G04 #@! TO.N,MISO*
X12192000Y44958000D03*
G04 #@! TO.N,SCK*
X14179435Y45358011D03*
G04 #@! TO.N,LoRaReset*
X14351000Y32512000D03*
X21336000Y49276000D03*
G04 #@! TO.N,LoRa_INT*
X18900397Y41170487D03*
X13993043Y59793957D03*
G04 #@! TO.N,RXI*
X16129000Y58293000D03*
X6350000Y50419000D03*
G04 #@! TO.N,TX0*
X11430000Y52451000D03*
X6223000Y52451000D03*
G04 #@! TO.N,Jumper_selsction*
X13602010Y51846388D03*
X19754687Y41780990D03*
G04 #@! TO.N,+BATT*
X9144000Y1905000D03*
G04 #@! TD*
D33*
G04 #@! TO.N,Net-(B1-Pad2)*
X13024000Y6924000D02*
X12836000Y7112000D01*
X16832000Y6924000D02*
X13024000Y6924000D01*
X12836000Y5606000D02*
X12836000Y7112000D01*
X11430000Y4200000D02*
X12836000Y5606000D01*
X16477000Y15367000D02*
X14859000Y15367000D01*
X14859000Y15367000D02*
X14224000Y14732000D01*
D34*
G04 #@! TO.N,reset_in*
X15847094Y55598094D02*
X15748000Y55598094D01*
X17907000Y57658000D02*
X15847094Y55598094D01*
D35*
X14732000Y62983000D02*
X14732000Y60833000D01*
X17507001Y58057999D02*
X17907000Y57658000D01*
X14732000Y60833000D02*
X17507001Y58057999D01*
G04 #@! TO.N,RST*
X14732000Y68063000D02*
X14732000Y65033000D01*
X15532000Y65033000D02*
X14732000Y65033000D01*
X2667000Y52705000D02*
X2667000Y54229000D01*
X2667000Y54229000D02*
X4191000Y55753000D01*
X13382004Y65033000D02*
X13290812Y64941808D01*
X14732000Y65033000D02*
X13382004Y65033000D01*
X15532000Y65033000D02*
X16764000Y63801000D01*
X16764000Y63801000D02*
X16764000Y59817000D01*
X16764000Y59817000D02*
X18161000Y58420000D01*
X18161000Y58420000D02*
X21209000Y58420000D01*
X22288000Y59499000D02*
X22288000Y62738000D01*
X21209000Y58420000D02*
X22288000Y59499000D01*
D33*
G04 #@! TO.N,GND*
X16477000Y12827000D02*
X18288000Y12827000D01*
X18288000Y12827000D02*
X18796000Y13335000D01*
D35*
X17668000Y34486000D02*
X17653000Y34471000D01*
X17668000Y35686000D02*
X17668000Y34486000D01*
X17653000Y34471000D02*
X17653000Y32639000D01*
X17653000Y32639000D02*
X16891000Y31877000D01*
X16313686Y49587686D02*
X16950081Y48951291D01*
X16950081Y48951291D02*
X19615702Y48951291D01*
X10232568Y56800174D02*
X10232568Y56823432D01*
X10868963Y56163779D02*
X10232568Y56800174D01*
X10232568Y56823432D02*
X9525000Y57531000D01*
X9737592Y55032408D02*
X10795000Y53975000D01*
X10795000Y53975000D02*
X11303000Y53975000D01*
X11303000Y53975000D02*
X11938000Y54610000D01*
X11938000Y55094742D02*
X10868963Y56163779D01*
X11938000Y54610000D02*
X11938000Y55094742D01*
X11704468Y60484100D02*
X11704468Y60431532D01*
X11138784Y61049784D02*
X11704468Y60484100D01*
X22615000Y80636000D02*
X22615000Y76835000D01*
X22098000Y81153000D02*
X22615000Y80636000D01*
X17653000Y81153000D02*
X22098000Y81153000D01*
X17526000Y79455000D02*
X17526000Y81026000D01*
X17526000Y81026000D02*
X17653000Y81153000D01*
X7239000Y5526000D02*
X4249000Y5526000D01*
X7239000Y14286000D02*
X4249000Y14286000D01*
X22352000Y31242000D02*
X20701000Y31242000D01*
X20701000Y31242000D02*
X19939000Y32004000D01*
D34*
G04 #@! TO.N,Net-(C3-Pad1)*
X16384395Y48385605D02*
X15748000Y49022000D01*
X17085920Y47684080D02*
X16384395Y48385605D01*
X18863920Y47684080D02*
X17085920Y47684080D01*
X19341216Y47206784D02*
X18863920Y47684080D01*
D35*
G04 #@! TO.N,Net-(C5-Pad2)*
X6732397Y55774862D02*
X7239000Y55268259D01*
X6732397Y61596397D02*
X6732397Y55774862D01*
X8040544Y62904544D02*
X6732397Y61596397D01*
X8606222Y53901037D02*
X7239000Y55268259D01*
X7239000Y55268259D02*
X7112000Y55395259D01*
X8040544Y63894024D02*
X8040544Y62904544D01*
X5931784Y66002784D02*
X8040544Y63894024D01*
G04 #@! TO.N,Net-(C6-Pad2)*
X4151456Y59041976D02*
X4151456Y59015456D01*
X1561216Y61632216D02*
X4151456Y59041976D01*
X7404141Y53971747D02*
X8040536Y53335352D01*
X4151456Y57396234D02*
X7404141Y54143549D01*
X7404141Y54143549D02*
X7404141Y53971747D01*
X4151456Y59015456D02*
X4151456Y57396234D01*
D36*
G04 #@! TO.N,+3V3*
X18556000Y76835000D02*
X18476000Y76755000D01*
X20565000Y76835000D02*
X18556000Y76835000D01*
X14224000Y70113000D02*
X12201000Y72136000D01*
X14732000Y70113000D02*
X14224000Y70113000D01*
X7188000Y77668000D02*
X8763000Y76093000D01*
X5588000Y77668000D02*
X7188000Y77668000D01*
X8763000Y76093000D02*
X8763000Y75057000D01*
X8763000Y75057000D02*
X10160000Y73660000D01*
X10160000Y73660000D02*
X11811000Y73660000D01*
X12201000Y73270000D02*
X12201000Y72136000D01*
X11811000Y73660000D02*
X12201000Y73270000D01*
X20565000Y76835000D02*
X20565000Y78858000D01*
X20565000Y78858000D02*
X20574000Y78867000D01*
X21590000Y21971000D02*
X21844000Y22225000D01*
X11947000Y19407000D02*
X11668000Y19686000D01*
X11947000Y16891000D02*
X11947000Y19407000D01*
D34*
X9171907Y54466723D02*
X8477442Y55161188D01*
X16474179Y46033080D02*
X14732000Y47775259D01*
X17563216Y45555784D02*
X17085920Y46033080D01*
X17085920Y46033080D02*
X16474179Y46033080D01*
X14732000Y47775259D02*
X14616629Y47890630D01*
X8477442Y56134000D02*
X8497372Y56134000D01*
X9132372Y56769000D02*
X8890000Y57011372D01*
X10303278Y55598094D02*
X9132372Y56769000D01*
X8477442Y55161188D02*
X8477442Y56134000D01*
X8890000Y57011372D02*
X8878372Y57011372D01*
X8477442Y56610442D02*
X8477442Y56134000D01*
X8878372Y57011372D02*
X8477442Y56610442D01*
D36*
X21844000Y22325000D02*
X20928000Y23241000D01*
X21844000Y22225000D02*
X21844000Y22325000D01*
X12622000Y16891000D02*
X12876000Y17145000D01*
X11947000Y16891000D02*
X12622000Y16891000D01*
X12876000Y17145000D02*
X20320000Y17145000D01*
X21844000Y18669000D02*
X21844000Y22225000D01*
X20320000Y17145000D02*
X21844000Y18669000D01*
X17634001Y23767999D02*
X18161000Y23241000D01*
X17634001Y26143001D02*
X17634001Y23767999D01*
X18034000Y26543000D02*
X17634001Y26143001D01*
X20928000Y23241000D02*
X18161000Y23241000D01*
D34*
X15113000Y43105568D02*
X15113000Y42164000D01*
X17563216Y45555784D02*
X15113000Y43105568D01*
X21552000Y42681000D02*
X22352000Y42681000D01*
X16832081Y42681000D02*
X21552000Y42681000D01*
X16315081Y42164000D02*
X16832081Y42681000D01*
X15113000Y42164000D02*
X16315081Y42164000D01*
D36*
X23394000Y22225000D02*
X24003000Y22834000D01*
X21844000Y22225000D02*
X23394000Y22225000D01*
X24003000Y22834000D02*
X24003000Y42418000D01*
X23740000Y42681000D02*
X22352000Y42681000D01*
X24003000Y42418000D02*
X23740000Y42681000D01*
X9689216Y59346216D02*
X8001000Y57658000D01*
X9689216Y59600216D02*
X9689216Y59346216D01*
X8647628Y57011372D02*
X8001000Y57658000D01*
X8878372Y57011372D02*
X8647628Y57011372D01*
D35*
G04 #@! TO.N,Net-(J1-Pad2)*
X8119000Y74168000D02*
X10151000Y72136000D01*
X5588000Y74168000D02*
X8119000Y74168000D01*
X13355001Y68931999D02*
X10774372Y71512628D01*
X13785011Y62035400D02*
X12540802Y63279609D01*
X13355001Y66775999D02*
X13355001Y68931999D01*
X13785011Y60646600D02*
X13785011Y62035400D01*
X12000334Y58861923D02*
X13785011Y60646600D01*
X12000334Y57295150D02*
X12000334Y58861923D01*
X12540802Y63279609D02*
X12540802Y65961800D01*
X10774372Y71512628D02*
X10151000Y72136000D01*
X12540802Y65961800D02*
X13355001Y66775999D01*
D34*
G04 #@! TO.N,MISO*
X15668000Y39069000D02*
X15113000Y39624000D01*
X15668000Y35686000D02*
X15668000Y39069000D01*
X12000334Y46836035D02*
X12000334Y47324944D01*
X12000334Y47324944D02*
X12000334Y44895666D01*
X12000334Y44895666D02*
X12129666Y44895666D01*
X12129666Y44895666D02*
X12192000Y44958000D01*
G04 #@! TO.N,MOSI*
X13422999Y41314001D02*
X12573000Y42164000D01*
X13823001Y40913999D02*
X13422999Y41314001D01*
X13823001Y37141001D02*
X13823001Y40913999D01*
X13668000Y36986000D02*
X13823001Y37141001D01*
X13668000Y35686000D02*
X13668000Y36986000D01*
X11723001Y43013999D02*
X12573000Y42164000D01*
X10798254Y43938746D02*
X11723001Y43013999D01*
X10798254Y47254235D02*
X10798254Y43938746D01*
X11434649Y47890630D02*
X10798254Y47254235D01*
G04 #@! TO.N,SCK*
X11668000Y38719000D02*
X12573000Y39624000D01*
X11668000Y35686000D02*
X11668000Y38719000D01*
X14050944Y47324944D02*
X14050944Y45486502D01*
X14050944Y45486502D02*
X14179435Y45358011D01*
G04 #@! TO.N,LoRaSS*
X6858000Y39370000D02*
X7874000Y40386000D01*
X6858000Y38481000D02*
X6858000Y39370000D01*
X7874000Y46592722D02*
X8906278Y47625000D01*
X8636000Y47354722D02*
X8906278Y47625000D01*
X9668000Y35686000D02*
X9668000Y36986000D01*
X9668000Y36986000D02*
X8808000Y37846000D01*
X8808000Y37846000D02*
X7493000Y37846000D01*
X7874000Y40386000D02*
X7874000Y46592722D01*
X8906278Y47625000D02*
X10303278Y49022000D01*
X7493000Y37846000D02*
X6858000Y38481000D01*
G04 #@! TO.N,LoRaReset*
X7668000Y35686000D02*
X7668000Y35186000D01*
X7668000Y35186000D02*
X7620000Y35138000D01*
X7668000Y35186000D02*
X7747000Y35107000D01*
X7747000Y35107000D02*
X7747000Y33655000D01*
X7747000Y33655000D02*
X8890000Y32512000D01*
X8890000Y32512000D02*
X14351000Y32512000D01*
D35*
X18081451Y50082662D02*
X18243338Y50082662D01*
X17445056Y50719057D02*
X18081451Y50082662D01*
X18243338Y50082662D02*
X18669000Y49657000D01*
X18669000Y49657000D02*
X20955000Y49657000D01*
X20955000Y49657000D02*
X21336000Y49276000D01*
D33*
G04 #@! TO.N,LoRa_INT*
X13668000Y19686000D02*
X13668000Y27003000D01*
X18900397Y40604802D02*
X18900397Y41170487D01*
X13668000Y27003000D02*
X18900397Y32235397D01*
X18900397Y32235397D02*
X18900397Y40604802D01*
X14050944Y57295150D02*
X14050944Y59736056D01*
X14050944Y59736056D02*
X13993043Y59793957D01*
G04 #@! TO.N,Net-(TP1-Pad1)*
X15104999Y9787001D02*
X14605000Y10287000D01*
X16068000Y8824000D02*
X15104999Y9787001D01*
X16832000Y8824000D02*
X16068000Y8824000D01*
G04 #@! TO.N,Net-(Q1-Pad2)*
X22037000Y6924000D02*
X20252000Y6924000D01*
X22225000Y7112000D02*
X22037000Y6924000D01*
X16952000Y14097000D02*
X17502000Y14647000D01*
X16477000Y14097000D02*
X16952000Y14097000D01*
X17502000Y14647000D02*
X18631004Y14647000D01*
X22225000Y9271000D02*
X22225000Y7112000D01*
X18631004Y14647000D02*
X19571002Y13707002D01*
X19571002Y13707002D02*
X19571002Y11924998D01*
X19571002Y11924998D02*
X22225000Y9271000D01*
G04 #@! TO.N,Net-(Q1-Pad4)*
X20252000Y9399000D02*
X20252000Y8824000D01*
X18094000Y11557000D02*
X20252000Y9399000D01*
X16477000Y11557000D02*
X18094000Y11557000D01*
D35*
G04 #@! TO.N,Net-(Q1-Pad5)*
X21877000Y11557000D02*
X21877000Y12827000D01*
X21877000Y14097000D02*
X21877000Y12827000D01*
X21877000Y15367000D02*
X21877000Y14097000D01*
G04 #@! TO.N,RXI*
X16129000Y57110464D02*
X15182315Y56163779D01*
X16129000Y58293000D02*
X16129000Y57110464D01*
X6350000Y50419000D02*
X5461000Y50419000D01*
X5461000Y50419000D02*
X2667000Y47625000D01*
G04 #@! TO.N,TX0*
X13980234Y55001234D02*
X11430000Y52451000D01*
X14616629Y56729464D02*
X13980234Y56093069D01*
X13980234Y56093069D02*
X13980234Y55001234D01*
X4572000Y52070000D02*
X2667000Y50165000D01*
X6026325Y52070000D02*
X4572000Y52070000D01*
X6223000Y52451000D02*
X6026325Y52070000D01*
G04 #@! TO.N,Net-(J2-Pad1)*
X6989000Y9906000D02*
X9017000Y11934000D01*
X4249000Y9906000D02*
X6989000Y9906000D01*
X9017000Y11934000D02*
X9017000Y15367000D01*
X9017000Y15367000D02*
X7112000Y17272000D01*
X7112000Y17272000D02*
X4318000Y17272000D01*
X3668000Y17922000D02*
X3668000Y19686000D01*
X4318000Y17272000D02*
X3668000Y17922000D01*
D34*
G04 #@! TO.N,Net-(D1-Pad1)*
X6223000Y42935000D02*
X6223000Y45720000D01*
D33*
G04 #@! TO.N,Net-(R3-Pad1)*
X14487000Y7874000D02*
X12836000Y9525000D01*
X16832000Y7874000D02*
X14487000Y7874000D01*
G04 #@! TO.N,Net-(R4-Pad1)*
X18285372Y5068372D02*
X17662000Y4445000D01*
X18285372Y7157372D02*
X18285372Y5068372D01*
X19002000Y7874000D02*
X18285372Y7157372D01*
X20252000Y7874000D02*
X19002000Y7874000D01*
D34*
G04 #@! TO.N,Net-(JP1-Pad1)*
X22352000Y33292000D02*
X22352000Y35687000D01*
G04 #@! TO.N,Net-(JP1-Pad3)*
X22352000Y38287000D02*
X22352000Y40631000D01*
D35*
G04 #@! TO.N,Jumper_selsction*
X12545388Y50789766D02*
X13202011Y51446389D01*
X13202011Y51446389D02*
X13602010Y51846388D01*
X9808302Y50789766D02*
X12545388Y50789766D01*
X9171907Y50153371D02*
X9808302Y50789766D01*
X19754687Y38634313D02*
X19754687Y41215305D01*
X22352000Y36987000D02*
X21402000Y36987000D01*
X21402000Y36987000D02*
X19754687Y38634313D01*
X19754687Y41215305D02*
X19754687Y41780990D01*
D34*
G04 #@! TO.N,Net-(D1-Pad2)*
X7919906Y47770000D02*
X9737592Y49587686D01*
X6223000Y47770000D02*
X7919906Y47770000D01*
G04 #@! TO.N,Net-(C8-Pad1)*
X15088000Y74812000D02*
X14605000Y74812000D01*
X16576000Y76300000D02*
X15088000Y74812000D01*
X16576000Y76755000D02*
X16576000Y76300000D01*
D35*
G04 #@! TO.N,+BATT*
X15737001Y78124999D02*
X15101372Y78760628D01*
X18325999Y78124999D02*
X15737001Y78124999D01*
X18476000Y78275000D02*
X18325999Y78124999D01*
X18476000Y79455000D02*
X18476000Y78275000D01*
D33*
X10786000Y7112000D02*
X10786000Y9525000D01*
X10786000Y7112000D02*
X9271000Y5597000D01*
D36*
X9271000Y2597685D02*
X9271000Y5461000D01*
X9144000Y2470685D02*
X9271000Y2597685D01*
X9144000Y1905000D02*
X9144000Y2470685D01*
D33*
X9271000Y5597000D02*
X9271000Y5461000D01*
X9271000Y5461000D02*
X9271000Y2667000D01*
D36*
X12699999Y77469999D02*
X14223999Y77469999D01*
X11430000Y76200000D02*
X12699999Y77469999D01*
X15113000Y78359000D02*
X15113000Y79455000D01*
X14223999Y77469999D02*
X15113000Y78359000D01*
D34*
X16576000Y79455000D02*
X15113000Y79455000D01*
X15113000Y79455000D02*
X14549000Y79455000D01*
D36*
X16402000Y79629000D02*
X16576000Y79455000D01*
X12963000Y79629000D02*
X16402000Y79629000D01*
G04 #@! TD*
D37*
G04 #@! TO.N,GND*
G36*
X1015019Y60449622D02*
X1306169Y60255081D01*
X1649604Y60186768D01*
X1914522Y60239463D01*
X2762920Y59391066D01*
X2031946Y58660092D01*
X1891598Y58450048D01*
X1842315Y58202283D01*
X1891598Y57954518D01*
X2031946Y57744474D01*
X2880474Y56895946D01*
X3090518Y56755598D01*
X3338283Y56706315D01*
X3586048Y56755598D01*
X3685916Y56822328D01*
X3797826Y56710418D01*
X3604720Y56630431D01*
X3313569Y56339280D01*
X3156000Y55958874D01*
X3156000Y55757447D01*
X2198463Y54799909D01*
X2137096Y54758905D01*
X2096092Y54697538D01*
X2096091Y54697537D01*
X1974646Y54515782D01*
X1917602Y54229000D01*
X1932001Y54156611D01*
X1932001Y53999883D01*
X1596375Y53775625D01*
X1268161Y53284418D01*
X1152908Y52705000D01*
X1268161Y52125582D01*
X1596375Y51634375D01*
X1894761Y51435000D01*
X1596375Y51235625D01*
X1268161Y50744418D01*
X1152908Y50165000D01*
X1268161Y49585582D01*
X1596375Y49094375D01*
X1894761Y48895000D01*
X1596375Y48695625D01*
X1268161Y48204418D01*
X1152908Y47625000D01*
X1268161Y47045582D01*
X1596375Y46554375D01*
X1894761Y46355000D01*
X1596375Y46155625D01*
X1268161Y45664418D01*
X1152908Y45085000D01*
X1268161Y44505582D01*
X1596375Y44014375D01*
X1915478Y43801157D01*
X1785642Y43740183D01*
X1395355Y43311924D01*
X1225524Y42901890D01*
X1346845Y42672000D01*
X2540000Y42672000D01*
X2540000Y42692000D01*
X2794000Y42692000D01*
X2794000Y42672000D01*
X3987155Y42672000D01*
X4108476Y42901890D01*
X3938645Y43311924D01*
X3548358Y43740183D01*
X3418522Y43801157D01*
X3737625Y44014375D01*
X4065839Y44505582D01*
X4181092Y45085000D01*
X4065839Y45664418D01*
X3737625Y46155625D01*
X3439239Y46355000D01*
X3737625Y46554375D01*
X4065839Y47045582D01*
X4181092Y47625000D01*
X4102343Y48020897D01*
X5693368Y49611921D01*
X5763720Y49541569D01*
X6144126Y49384000D01*
X6555874Y49384000D01*
X6936280Y49541569D01*
X7227431Y49832720D01*
X7299915Y50007713D01*
X7317467Y49995985D01*
X7388273Y49890017D01*
X7777182Y49501108D01*
X7883150Y49430302D01*
X7953958Y49324331D01*
X8159019Y49119270D01*
X7594749Y48555000D01*
X7424241Y48555000D01*
X7307586Y48729586D01*
X7016436Y48924127D01*
X6673001Y48992440D01*
X5772999Y48992440D01*
X5429564Y48924127D01*
X5138414Y48729586D01*
X4943873Y48438436D01*
X4875560Y48095001D01*
X4875560Y47444999D01*
X4943873Y47101564D01*
X5138414Y46810414D01*
X5236313Y46745000D01*
X5138414Y46679586D01*
X4943873Y46388436D01*
X4875560Y46045001D01*
X4875560Y45394999D01*
X4943873Y45051564D01*
X5138414Y44760414D01*
X5429564Y44565873D01*
X5438001Y44564195D01*
X5438000Y44090805D01*
X5429564Y44089127D01*
X5138414Y43894586D01*
X4943873Y43603436D01*
X4875560Y43260001D01*
X4875560Y42609999D01*
X4943873Y42266564D01*
X5138414Y41975414D01*
X5139597Y41974623D01*
X4984673Y41819698D01*
X4888000Y41586309D01*
X4888000Y41170750D01*
X5046750Y41012000D01*
X6096000Y41012000D01*
X6096000Y41032000D01*
X6350000Y41032000D01*
X6350000Y41012000D01*
X6370000Y41012000D01*
X6370000Y40758000D01*
X6350000Y40758000D01*
X6350000Y40738000D01*
X6096000Y40738000D01*
X6096000Y40758000D01*
X5046750Y40758000D01*
X4888000Y40599250D01*
X4888000Y40183691D01*
X4984673Y39950302D01*
X5163301Y39771673D01*
X5396690Y39675000D01*
X5937250Y39675000D01*
X6095998Y39833748D01*
X6095998Y39675000D01*
X6118289Y39675000D01*
X6057622Y39370000D01*
X6073001Y39292684D01*
X6073000Y38558313D01*
X6057622Y38481000D01*
X6073000Y38403688D01*
X6073000Y38403685D01*
X6090404Y38316191D01*
X6118546Y38174709D01*
X6248174Y37980708D01*
X6292047Y37915047D01*
X6357592Y37871251D01*
X6883251Y37345592D01*
X6923824Y37284871D01*
X6920235Y37284157D01*
X6710191Y37143809D01*
X6668000Y37080666D01*
X6625809Y37143809D01*
X6415765Y37284157D01*
X6168000Y37333440D01*
X5168000Y37333440D01*
X4920235Y37284157D01*
X4710191Y37143809D01*
X4669345Y37082680D01*
X4527699Y37224327D01*
X4294310Y37321000D01*
X3953750Y37321000D01*
X3795000Y37162250D01*
X3795000Y35813000D01*
X3815000Y35813000D01*
X3815000Y35559000D01*
X3795000Y35559000D01*
X3795000Y34209750D01*
X3953750Y34051000D01*
X4294310Y34051000D01*
X4527699Y34147673D01*
X4669345Y34289320D01*
X4710191Y34228191D01*
X4920235Y34087843D01*
X5168000Y34038560D01*
X6168000Y34038560D01*
X6415765Y34087843D01*
X6625809Y34228191D01*
X6668000Y34291334D01*
X6710191Y34228191D01*
X6920235Y34087843D01*
X6962001Y34079535D01*
X6962001Y33732316D01*
X6946622Y33655000D01*
X7007546Y33348709D01*
X7137251Y33154592D01*
X7137254Y33154589D01*
X7181048Y33089047D01*
X7246590Y33045253D01*
X8280253Y32011589D01*
X8324047Y31946047D01*
X8389589Y31902253D01*
X8389591Y31902251D01*
X8583708Y31772546D01*
X8812684Y31727000D01*
X8812687Y31727000D01*
X8889999Y31711622D01*
X8967311Y31727000D01*
X13672289Y31727000D01*
X13764720Y31634569D01*
X14145126Y31477000D01*
X14556874Y31477000D01*
X14937280Y31634569D01*
X15228431Y31925720D01*
X15386000Y32306126D01*
X15386000Y32717874D01*
X15228431Y33098280D01*
X14937280Y33389431D01*
X14556874Y33547000D01*
X14145126Y33547000D01*
X13764720Y33389431D01*
X13672289Y33297000D01*
X9215158Y33297000D01*
X8532000Y33980157D01*
X8532000Y34165509D01*
X8625809Y34228191D01*
X8668000Y34291334D01*
X8710191Y34228191D01*
X8920235Y34087843D01*
X9168000Y34038560D01*
X10168000Y34038560D01*
X10415765Y34087843D01*
X10625809Y34228191D01*
X10668000Y34291334D01*
X10710191Y34228191D01*
X10920235Y34087843D01*
X11168000Y34038560D01*
X12168000Y34038560D01*
X12415765Y34087843D01*
X12625809Y34228191D01*
X12668000Y34291334D01*
X12710191Y34228191D01*
X12920235Y34087843D01*
X13168000Y34038560D01*
X14168000Y34038560D01*
X14415765Y34087843D01*
X14625809Y34228191D01*
X14668000Y34291334D01*
X14710191Y34228191D01*
X14920235Y34087843D01*
X15168000Y34038560D01*
X16168000Y34038560D01*
X16415765Y34087843D01*
X16625809Y34228191D01*
X16666655Y34289320D01*
X16808301Y34147673D01*
X17041690Y34051000D01*
X17382250Y34051000D01*
X17541000Y34209750D01*
X17541000Y35559000D01*
X17521000Y35559000D01*
X17521000Y35813000D01*
X17541000Y35813000D01*
X17541000Y37162250D01*
X17382250Y37321000D01*
X17041690Y37321000D01*
X16808301Y37224327D01*
X16666655Y37082680D01*
X16625809Y37143809D01*
X16453000Y37259277D01*
X16453000Y38364368D01*
X16561157Y38526235D01*
X16610440Y38774000D01*
X16610440Y40474000D01*
X16561157Y40721765D01*
X16420809Y40931809D01*
X16210765Y41072157D01*
X16165381Y41081184D01*
X16183625Y41093375D01*
X16371727Y41374889D01*
X16392393Y41379000D01*
X16392397Y41379000D01*
X16621373Y41424546D01*
X16881034Y41598047D01*
X16924830Y41663592D01*
X17157239Y41896000D01*
X18162199Y41896000D01*
X18022966Y41756767D01*
X17865397Y41376361D01*
X17865397Y40964613D01*
X18022966Y40584207D01*
X18140398Y40466775D01*
X18140398Y37321000D01*
X17953750Y37321000D01*
X17795000Y37162250D01*
X17795000Y35813000D01*
X17815000Y35813000D01*
X17815000Y35559000D01*
X17795000Y35559000D01*
X17795000Y34209750D01*
X17953750Y34051000D01*
X18140397Y34051000D01*
X18140397Y32550199D01*
X13183528Y27593329D01*
X13120072Y27550929D01*
X13077672Y27487473D01*
X13077671Y27487472D01*
X12952097Y27299537D01*
X12893112Y27003000D01*
X12908001Y26928148D01*
X12908000Y21275982D01*
X12710191Y21143809D01*
X12668000Y21080666D01*
X12625809Y21143809D01*
X12415765Y21284157D01*
X12168000Y21333440D01*
X11168000Y21333440D01*
X10920235Y21284157D01*
X10710191Y21143809D01*
X10668000Y21080666D01*
X10625809Y21143809D01*
X10415765Y21284157D01*
X10168000Y21333440D01*
X9168000Y21333440D01*
X8920235Y21284157D01*
X8710191Y21143809D01*
X8668000Y21080666D01*
X8625809Y21143809D01*
X8415765Y21284157D01*
X8168000Y21333440D01*
X7168000Y21333440D01*
X6920235Y21284157D01*
X6710191Y21143809D01*
X6669345Y21082680D01*
X6527699Y21224327D01*
X6294310Y21321000D01*
X5953750Y21321000D01*
X5795000Y21162250D01*
X5795000Y19813000D01*
X5815000Y19813000D01*
X5815000Y19559000D01*
X5795000Y19559000D01*
X5795000Y18209750D01*
X5953750Y18051000D01*
X6294310Y18051000D01*
X6527699Y18147673D01*
X6669345Y18289320D01*
X6710191Y18228191D01*
X6920235Y18087843D01*
X7168000Y18038560D01*
X8168000Y18038560D01*
X8415765Y18087843D01*
X8625809Y18228191D01*
X8668000Y18291334D01*
X8710191Y18228191D01*
X8920235Y18087843D01*
X8920721Y18087746D01*
X8783673Y17950699D01*
X8687000Y17717310D01*
X8687000Y17176750D01*
X8845750Y17018000D01*
X9770000Y17018000D01*
X9770000Y17038000D01*
X10024000Y17038000D01*
X10024000Y17018000D01*
X10044000Y17018000D01*
X10044000Y16764000D01*
X10024000Y16764000D01*
X10024000Y15714750D01*
X10182750Y15556000D01*
X10598309Y15556000D01*
X10831698Y15652673D01*
X10986623Y15807597D01*
X10987414Y15806414D01*
X11278564Y15611873D01*
X11621999Y15543560D01*
X12272001Y15543560D01*
X12615436Y15611873D01*
X12906586Y15806414D01*
X13101127Y16097564D01*
X13126208Y16223656D01*
X13224001Y16288999D01*
X13238033Y16310000D01*
X15679678Y16310000D01*
X15454235Y16265157D01*
X15247470Y16127000D01*
X14933848Y16127000D01*
X14859000Y16141888D01*
X14784152Y16127000D01*
X14784148Y16127000D01*
X14562463Y16082904D01*
X14311071Y15914929D01*
X14268671Y15851473D01*
X14184198Y15767000D01*
X14018126Y15767000D01*
X13637720Y15609431D01*
X13346569Y15318280D01*
X13189000Y14937874D01*
X13189000Y14526126D01*
X13346569Y14145720D01*
X13637720Y13854569D01*
X14018126Y13697000D01*
X14429874Y13697000D01*
X14810280Y13854569D01*
X15054560Y14098849D01*
X15054560Y13797000D01*
X15103843Y13549235D01*
X15156768Y13470028D01*
X15067000Y13253310D01*
X15067000Y13112750D01*
X15225750Y12954000D01*
X16350000Y12954000D01*
X16350000Y12974000D01*
X16604000Y12974000D01*
X16604000Y12954000D01*
X17728250Y12954000D01*
X17887000Y13112750D01*
X17887000Y13253310D01*
X17797232Y13470028D01*
X17850157Y13549235D01*
X17899440Y13797000D01*
X17899440Y13887000D01*
X18316203Y13887000D01*
X18811002Y13392200D01*
X18811003Y11999850D01*
X18796892Y11928909D01*
X18684331Y12041470D01*
X18641929Y12104929D01*
X18390537Y12272904D01*
X18168852Y12317000D01*
X18168847Y12317000D01*
X18094000Y12331888D01*
X18019153Y12317000D01*
X17852334Y12317000D01*
X17887000Y12400690D01*
X17887000Y12541250D01*
X17728250Y12700000D01*
X16604000Y12700000D01*
X16604000Y12680000D01*
X16350000Y12680000D01*
X16350000Y12700000D01*
X15225750Y12700000D01*
X15067000Y12541250D01*
X15067000Y12400690D01*
X15156768Y12183972D01*
X15103843Y12104765D01*
X15054560Y11857000D01*
X15054560Y11329302D01*
X14830766Y11422000D01*
X14379234Y11422000D01*
X13962074Y11249207D01*
X13642793Y10929926D01*
X13571989Y10758989D01*
X13504436Y10804127D01*
X13161001Y10872440D01*
X12727851Y10872440D01*
X13303547Y11448136D01*
X13640000Y12260404D01*
X13640000Y13139596D01*
X13303547Y13951864D01*
X12681864Y14573547D01*
X11869596Y14910000D01*
X10990404Y14910000D01*
X10178136Y14573547D01*
X9752000Y14147411D01*
X9752000Y15294616D01*
X9766398Y15367000D01*
X9752000Y15439384D01*
X9752000Y15439388D01*
X9709354Y15653783D01*
X9709225Y15653975D01*
X9770000Y15714750D01*
X9770000Y16764000D01*
X8845750Y16764000D01*
X8752598Y16670848D01*
X7682911Y17740535D01*
X7641905Y17801905D01*
X7398783Y17964354D01*
X7184388Y18007000D01*
X7184384Y18007000D01*
X7112000Y18021398D01*
X7039616Y18007000D01*
X4622447Y18007000D01*
X4491199Y18138247D01*
X4625809Y18228191D01*
X4666655Y18289320D01*
X4808301Y18147673D01*
X5041690Y18051000D01*
X5382250Y18051000D01*
X5541000Y18209750D01*
X5541000Y19559000D01*
X5521000Y19559000D01*
X5521000Y19813000D01*
X5541000Y19813000D01*
X5541000Y21162250D01*
X5382250Y21321000D01*
X5041690Y21321000D01*
X4808301Y21224327D01*
X4666655Y21082680D01*
X4625809Y21143809D01*
X4415765Y21284157D01*
X4168000Y21333440D01*
X3168000Y21333440D01*
X2920235Y21284157D01*
X2710191Y21143809D01*
X2569843Y20933765D01*
X2520560Y20686000D01*
X2520560Y18686000D01*
X2569843Y18438235D01*
X2710191Y18228191D01*
X2920235Y18087843D01*
X2933000Y18085304D01*
X2933000Y17994385D01*
X2918602Y17922000D01*
X2933000Y17849616D01*
X2933000Y17849613D01*
X2975646Y17635218D01*
X3138095Y17392095D01*
X3199465Y17351089D01*
X3747090Y16803463D01*
X3788095Y16742095D01*
X4031217Y16579646D01*
X4245612Y16537000D01*
X4245616Y16537000D01*
X4318000Y16522602D01*
X4390384Y16537000D01*
X6807554Y16537000D01*
X7972598Y15371955D01*
X7830436Y15419149D01*
X7424000Y15389763D01*
X7424000Y15622310D01*
X7327327Y15855699D01*
X7148698Y16034327D01*
X6915309Y16131000D01*
X4534750Y16131000D01*
X4376000Y15972250D01*
X4376000Y14413000D01*
X4396000Y14413000D01*
X4396000Y14159000D01*
X4376000Y14159000D01*
X4376000Y12599750D01*
X4534750Y12441000D01*
X6915309Y12441000D01*
X7148698Y12537673D01*
X7327327Y12716301D01*
X7424000Y12949690D01*
X7424000Y13193871D01*
X7547564Y13152851D01*
X7991968Y13184982D01*
X8253308Y13293232D01*
X8282000Y13466888D01*
X8282000Y12238447D01*
X7369197Y11325644D01*
X7246809Y11508809D01*
X7036765Y11649157D01*
X6789000Y11698440D01*
X1709000Y11698440D01*
X1461235Y11649157D01*
X1251191Y11508809D01*
X1110843Y11298765D01*
X1061560Y11051000D01*
X1061560Y8761000D01*
X1110843Y8513235D01*
X1251191Y8303191D01*
X1461235Y8162843D01*
X1709000Y8113560D01*
X6789000Y8113560D01*
X7036765Y8162843D01*
X7246809Y8303191D01*
X7387157Y8513235D01*
X7436440Y8761000D01*
X7436440Y9320994D01*
X7518905Y9376095D01*
X7559911Y9437465D01*
X9485538Y11363091D01*
X9546905Y11404095D01*
X9568370Y11436219D01*
X10178136Y10826453D01*
X10194899Y10819510D01*
X10117564Y10804127D01*
X9826414Y10609586D01*
X9631873Y10318436D01*
X9563560Y9975001D01*
X9563560Y9074999D01*
X9631873Y8731564D01*
X9826414Y8440414D01*
X10008870Y8318500D01*
X9826414Y8196586D01*
X9631873Y7905436D01*
X9563560Y7562001D01*
X9563560Y6964362D01*
X8786530Y6187331D01*
X8723071Y6144929D01*
X8683607Y6085867D01*
X8681768Y6090308D01*
X8468200Y6125595D01*
X8312656Y5970051D01*
X8252327Y6115699D01*
X8175710Y6192315D01*
X8288595Y6305200D01*
X8253308Y6518768D01*
X7830436Y6659149D01*
X7424000Y6629763D01*
X7424000Y6862310D01*
X7327327Y7095699D01*
X7148698Y7274327D01*
X6915309Y7371000D01*
X4534750Y7371000D01*
X4376000Y7212250D01*
X4376000Y5653000D01*
X4396000Y5653000D01*
X4396000Y5399000D01*
X4376000Y5399000D01*
X4376000Y3839750D01*
X4534750Y3681000D01*
X6915309Y3681000D01*
X7148698Y3777673D01*
X7327327Y3956301D01*
X7424000Y4189690D01*
X7424000Y4433871D01*
X7547564Y4392851D01*
X7991968Y4424982D01*
X8253308Y4533232D01*
X8288595Y4746797D01*
X8404912Y4630480D01*
X8436001Y4661569D01*
X8436000Y2914047D01*
X8357448Y2796486D01*
X8309000Y2552922D01*
X8309000Y2552918D01*
X8304231Y2528942D01*
X8266569Y2491280D01*
X8109000Y2110874D01*
X8109000Y1699126D01*
X8266569Y1318720D01*
X8557720Y1027569D01*
X8938126Y870000D01*
X9349874Y870000D01*
X9730280Y1027569D01*
X10021431Y1318720D01*
X10179000Y1699126D01*
X10179000Y2110874D01*
X10075316Y2361190D01*
X10106000Y2515448D01*
X10106000Y2515451D01*
X10122357Y2597684D01*
X10106000Y2679917D01*
X10106000Y2829923D01*
X10350904Y2585019D01*
X11051072Y2295000D01*
X11808928Y2295000D01*
X12509096Y2585019D01*
X13044981Y3120904D01*
X13335000Y3821072D01*
X13335000Y4159250D01*
X14402000Y4159250D01*
X14402000Y3618690D01*
X14498673Y3385301D01*
X14677302Y3206673D01*
X14910691Y3110000D01*
X15326250Y3110000D01*
X15485000Y3268750D01*
X15485000Y4318000D01*
X14560750Y4318000D01*
X14402000Y4159250D01*
X13335000Y4159250D01*
X13335000Y4578928D01*
X13202826Y4898024D01*
X13320473Y5015671D01*
X13383929Y5058071D01*
X13526410Y5271310D01*
X14402000Y5271310D01*
X14402000Y4730750D01*
X14560750Y4572000D01*
X15485000Y4572000D01*
X15485000Y5621250D01*
X15326250Y5780000D01*
X14910691Y5780000D01*
X14677302Y5683327D01*
X14498673Y5504699D01*
X14402000Y5271310D01*
X13526410Y5271310D01*
X13551904Y5309463D01*
X13596000Y5531148D01*
X13596000Y5531152D01*
X13610888Y5605999D01*
X13596000Y5680846D01*
X13596000Y5894054D01*
X13795586Y6027414D01*
X13886850Y6164000D01*
X15358950Y6164000D01*
X15374191Y6141191D01*
X15584235Y6000843D01*
X15832000Y5951560D01*
X17525373Y5951560D01*
X17525373Y5792440D01*
X17336999Y5792440D01*
X16993564Y5724127D01*
X16702414Y5529586D01*
X16701623Y5528403D01*
X16546698Y5683327D01*
X16313309Y5780000D01*
X15897750Y5780000D01*
X15739000Y5621250D01*
X15739000Y4572000D01*
X15759000Y4572000D01*
X15759000Y4318000D01*
X15739000Y4318000D01*
X15739000Y3268750D01*
X15897750Y3110000D01*
X16313309Y3110000D01*
X16546698Y3206673D01*
X16701623Y3361597D01*
X16702414Y3360414D01*
X16993564Y3165873D01*
X17336999Y3097560D01*
X17987001Y3097560D01*
X18330436Y3165873D01*
X18621586Y3360414D01*
X18816127Y3651564D01*
X18884440Y3994999D01*
X18884440Y4596978D01*
X19001276Y4771835D01*
X19045372Y4993520D01*
X19045372Y4993524D01*
X19060260Y5068371D01*
X19045372Y5143218D01*
X19045372Y5992660D01*
X19252000Y5951560D01*
X21252000Y5951560D01*
X21499765Y6000843D01*
X21709809Y6141191D01*
X21725050Y6164000D01*
X21962153Y6164000D01*
X22037000Y6149112D01*
X22111847Y6164000D01*
X22111852Y6164000D01*
X22333537Y6208096D01*
X22584929Y6376071D01*
X22627331Y6439530D01*
X22709470Y6521669D01*
X22772929Y6564071D01*
X22940904Y6815463D01*
X22985000Y7037148D01*
X22985000Y7037152D01*
X22999888Y7111999D01*
X22985000Y7186846D01*
X22985000Y9196153D01*
X22999888Y9271000D01*
X22985000Y9345847D01*
X22985000Y9345852D01*
X22940904Y9567537D01*
X22772929Y9818929D01*
X22709473Y9861329D01*
X21961242Y10609560D01*
X22652000Y10609560D01*
X22899765Y10658843D01*
X23109809Y10799191D01*
X23250157Y11009235D01*
X23299440Y11257000D01*
X23299440Y11857000D01*
X23250157Y12104765D01*
X23191868Y12192000D01*
X23250157Y12279235D01*
X23299440Y12527000D01*
X23299440Y13127000D01*
X23250157Y13374765D01*
X23191868Y13462000D01*
X23250157Y13549235D01*
X23299440Y13797000D01*
X23299440Y14397000D01*
X23250157Y14644765D01*
X23191868Y14732000D01*
X23250157Y14819235D01*
X23299440Y15067000D01*
X23299440Y15667000D01*
X23250157Y15914765D01*
X23109809Y16124809D01*
X22899765Y16265157D01*
X22652000Y16314440D01*
X21102000Y16314440D01*
X20854235Y16265157D01*
X20644191Y16124809D01*
X20503843Y15914765D01*
X20454560Y15667000D01*
X20454560Y15067000D01*
X20503843Y14819235D01*
X20562132Y14732000D01*
X20503843Y14644765D01*
X20454560Y14397000D01*
X20454560Y13797000D01*
X20503843Y13549235D01*
X20562132Y13462000D01*
X20503843Y13374765D01*
X20454560Y13127000D01*
X20454560Y12527000D01*
X20503843Y12279235D01*
X20562132Y12192000D01*
X20503843Y12104765D01*
X20497570Y12073231D01*
X20331002Y12239799D01*
X20331002Y13632155D01*
X20345890Y13707002D01*
X20331002Y13781849D01*
X20331002Y13781854D01*
X20286906Y14003539D01*
X20118931Y14254931D01*
X20055475Y14297331D01*
X19221335Y15131470D01*
X19178933Y15194929D01*
X18927541Y15362904D01*
X18705856Y15407000D01*
X18705851Y15407000D01*
X18631004Y15421888D01*
X18556157Y15407000D01*
X17899440Y15407000D01*
X17899440Y15667000D01*
X17850157Y15914765D01*
X17709809Y16124809D01*
X17499765Y16265157D01*
X17274322Y16310000D01*
X20237767Y16310000D01*
X20320000Y16293643D01*
X20402233Y16310000D01*
X20402237Y16310000D01*
X20645801Y16358448D01*
X20922001Y16542999D01*
X20968587Y16612720D01*
X22376286Y18020417D01*
X22446001Y18066999D01*
X22540738Y18208782D01*
X22630552Y18343199D01*
X22660331Y18492909D01*
X22679000Y18586763D01*
X22679000Y18586766D01*
X22695357Y18668999D01*
X22679000Y18751232D01*
X22679000Y20327560D01*
X22994000Y20327560D01*
X23241765Y20376843D01*
X23451809Y20517191D01*
X23592157Y20727235D01*
X23641440Y20975000D01*
X23641440Y21422861D01*
X23719801Y21438448D01*
X23996001Y21622999D01*
X24042587Y21692720D01*
X24157001Y21807133D01*
X24157001Y735000D01*
X735000Y735000D01*
X735000Y5240250D01*
X1074000Y5240250D01*
X1074000Y4189690D01*
X1170673Y3956301D01*
X1349302Y3777673D01*
X1582691Y3681000D01*
X3963250Y3681000D01*
X4122000Y3839750D01*
X4122000Y5399000D01*
X1232750Y5399000D01*
X1074000Y5240250D01*
X735000Y5240250D01*
X735000Y6862310D01*
X1074000Y6862310D01*
X1074000Y5811750D01*
X1232750Y5653000D01*
X4122000Y5653000D01*
X4122000Y7212250D01*
X3963250Y7371000D01*
X1582691Y7371000D01*
X1349302Y7274327D01*
X1170673Y7095699D01*
X1074000Y6862310D01*
X735000Y6862310D01*
X735000Y14000250D01*
X1074000Y14000250D01*
X1074000Y12949690D01*
X1170673Y12716301D01*
X1349302Y12537673D01*
X1582691Y12441000D01*
X3963250Y12441000D01*
X4122000Y12599750D01*
X4122000Y14159000D01*
X1232750Y14159000D01*
X1074000Y14000250D01*
X735000Y14000250D01*
X735000Y15622310D01*
X1074000Y15622310D01*
X1074000Y14571750D01*
X1232750Y14413000D01*
X4122000Y14413000D01*
X4122000Y15972250D01*
X3963250Y16131000D01*
X1582691Y16131000D01*
X1349302Y16034327D01*
X1170673Y15855699D01*
X1074000Y15622310D01*
X735000Y15622310D01*
X735000Y35400250D01*
X2533000Y35400250D01*
X2533000Y34559691D01*
X2629673Y34326302D01*
X2808301Y34147673D01*
X3041690Y34051000D01*
X3382250Y34051000D01*
X3541000Y34209750D01*
X3541000Y35559000D01*
X2691750Y35559000D01*
X2533000Y35400250D01*
X735000Y35400250D01*
X735000Y36812309D01*
X2533000Y36812309D01*
X2533000Y35971750D01*
X2691750Y35813000D01*
X3541000Y35813000D01*
X3541000Y37162250D01*
X3382250Y37321000D01*
X3041690Y37321000D01*
X2808301Y37224327D01*
X2629673Y37045698D01*
X2533000Y36812309D01*
X735000Y36812309D01*
X735000Y39719250D01*
X1182000Y39719250D01*
X1182000Y39028690D01*
X1278673Y38795301D01*
X1457302Y38616673D01*
X1690691Y38520000D01*
X2381250Y38520000D01*
X2540000Y38678750D01*
X2540000Y39878000D01*
X2794000Y39878000D01*
X2794000Y38678750D01*
X2952750Y38520000D01*
X3643309Y38520000D01*
X3876698Y38616673D01*
X4055327Y38795301D01*
X4152000Y39028690D01*
X4152000Y39719250D01*
X3993250Y39878000D01*
X2794000Y39878000D01*
X2540000Y39878000D01*
X1340750Y39878000D01*
X1182000Y39719250D01*
X735000Y39719250D01*
X735000Y40981310D01*
X1182000Y40981310D01*
X1182000Y40290750D01*
X1340750Y40132000D01*
X2540000Y40132000D01*
X2540000Y42418000D01*
X2794000Y42418000D01*
X2794000Y40132000D01*
X3993250Y40132000D01*
X4152000Y40290750D01*
X4152000Y40981310D01*
X4055327Y41214699D01*
X3876698Y41393327D01*
X3667122Y41480136D01*
X3938645Y41778076D01*
X4108476Y42188110D01*
X3987155Y42418000D01*
X2794000Y42418000D01*
X2540000Y42418000D01*
X1346845Y42418000D01*
X1225524Y42188110D01*
X1395355Y41778076D01*
X1666878Y41480136D01*
X1457302Y41393327D01*
X1278673Y41214699D01*
X1182000Y40981310D01*
X735000Y40981310D01*
X735000Y60729641D01*
X1015019Y60449622D01*
X1015019Y60449622D01*
G37*
X1015019Y60449622D02*
X1306169Y60255081D01*
X1649604Y60186768D01*
X1914522Y60239463D01*
X2762920Y59391066D01*
X2031946Y58660092D01*
X1891598Y58450048D01*
X1842315Y58202283D01*
X1891598Y57954518D01*
X2031946Y57744474D01*
X2880474Y56895946D01*
X3090518Y56755598D01*
X3338283Y56706315D01*
X3586048Y56755598D01*
X3685916Y56822328D01*
X3797826Y56710418D01*
X3604720Y56630431D01*
X3313569Y56339280D01*
X3156000Y55958874D01*
X3156000Y55757447D01*
X2198463Y54799909D01*
X2137096Y54758905D01*
X2096092Y54697538D01*
X2096091Y54697537D01*
X1974646Y54515782D01*
X1917602Y54229000D01*
X1932001Y54156611D01*
X1932001Y53999883D01*
X1596375Y53775625D01*
X1268161Y53284418D01*
X1152908Y52705000D01*
X1268161Y52125582D01*
X1596375Y51634375D01*
X1894761Y51435000D01*
X1596375Y51235625D01*
X1268161Y50744418D01*
X1152908Y50165000D01*
X1268161Y49585582D01*
X1596375Y49094375D01*
X1894761Y48895000D01*
X1596375Y48695625D01*
X1268161Y48204418D01*
X1152908Y47625000D01*
X1268161Y47045582D01*
X1596375Y46554375D01*
X1894761Y46355000D01*
X1596375Y46155625D01*
X1268161Y45664418D01*
X1152908Y45085000D01*
X1268161Y44505582D01*
X1596375Y44014375D01*
X1915478Y43801157D01*
X1785642Y43740183D01*
X1395355Y43311924D01*
X1225524Y42901890D01*
X1346845Y42672000D01*
X2540000Y42672000D01*
X2540000Y42692000D01*
X2794000Y42692000D01*
X2794000Y42672000D01*
X3987155Y42672000D01*
X4108476Y42901890D01*
X3938645Y43311924D01*
X3548358Y43740183D01*
X3418522Y43801157D01*
X3737625Y44014375D01*
X4065839Y44505582D01*
X4181092Y45085000D01*
X4065839Y45664418D01*
X3737625Y46155625D01*
X3439239Y46355000D01*
X3737625Y46554375D01*
X4065839Y47045582D01*
X4181092Y47625000D01*
X4102343Y48020897D01*
X5693368Y49611921D01*
X5763720Y49541569D01*
X6144126Y49384000D01*
X6555874Y49384000D01*
X6936280Y49541569D01*
X7227431Y49832720D01*
X7299915Y50007713D01*
X7317467Y49995985D01*
X7388273Y49890017D01*
X7777182Y49501108D01*
X7883150Y49430302D01*
X7953958Y49324331D01*
X8159019Y49119270D01*
X7594749Y48555000D01*
X7424241Y48555000D01*
X7307586Y48729586D01*
X7016436Y48924127D01*
X6673001Y48992440D01*
X5772999Y48992440D01*
X5429564Y48924127D01*
X5138414Y48729586D01*
X4943873Y48438436D01*
X4875560Y48095001D01*
X4875560Y47444999D01*
X4943873Y47101564D01*
X5138414Y46810414D01*
X5236313Y46745000D01*
X5138414Y46679586D01*
X4943873Y46388436D01*
X4875560Y46045001D01*
X4875560Y45394999D01*
X4943873Y45051564D01*
X5138414Y44760414D01*
X5429564Y44565873D01*
X5438001Y44564195D01*
X5438000Y44090805D01*
X5429564Y44089127D01*
X5138414Y43894586D01*
X4943873Y43603436D01*
X4875560Y43260001D01*
X4875560Y42609999D01*
X4943873Y42266564D01*
X5138414Y41975414D01*
X5139597Y41974623D01*
X4984673Y41819698D01*
X4888000Y41586309D01*
X4888000Y41170750D01*
X5046750Y41012000D01*
X6096000Y41012000D01*
X6096000Y41032000D01*
X6350000Y41032000D01*
X6350000Y41012000D01*
X6370000Y41012000D01*
X6370000Y40758000D01*
X6350000Y40758000D01*
X6350000Y40738000D01*
X6096000Y40738000D01*
X6096000Y40758000D01*
X5046750Y40758000D01*
X4888000Y40599250D01*
X4888000Y40183691D01*
X4984673Y39950302D01*
X5163301Y39771673D01*
X5396690Y39675000D01*
X5937250Y39675000D01*
X6095998Y39833748D01*
X6095998Y39675000D01*
X6118289Y39675000D01*
X6057622Y39370000D01*
X6073001Y39292684D01*
X6073000Y38558313D01*
X6057622Y38481000D01*
X6073000Y38403688D01*
X6073000Y38403685D01*
X6090404Y38316191D01*
X6118546Y38174709D01*
X6248174Y37980708D01*
X6292047Y37915047D01*
X6357592Y37871251D01*
X6883251Y37345592D01*
X6923824Y37284871D01*
X6920235Y37284157D01*
X6710191Y37143809D01*
X6668000Y37080666D01*
X6625809Y37143809D01*
X6415765Y37284157D01*
X6168000Y37333440D01*
X5168000Y37333440D01*
X4920235Y37284157D01*
X4710191Y37143809D01*
X4669345Y37082680D01*
X4527699Y37224327D01*
X4294310Y37321000D01*
X3953750Y37321000D01*
X3795000Y37162250D01*
X3795000Y35813000D01*
X3815000Y35813000D01*
X3815000Y35559000D01*
X3795000Y35559000D01*
X3795000Y34209750D01*
X3953750Y34051000D01*
X4294310Y34051000D01*
X4527699Y34147673D01*
X4669345Y34289320D01*
X4710191Y34228191D01*
X4920235Y34087843D01*
X5168000Y34038560D01*
X6168000Y34038560D01*
X6415765Y34087843D01*
X6625809Y34228191D01*
X6668000Y34291334D01*
X6710191Y34228191D01*
X6920235Y34087843D01*
X6962001Y34079535D01*
X6962001Y33732316D01*
X6946622Y33655000D01*
X7007546Y33348709D01*
X7137251Y33154592D01*
X7137254Y33154589D01*
X7181048Y33089047D01*
X7246590Y33045253D01*
X8280253Y32011589D01*
X8324047Y31946047D01*
X8389589Y31902253D01*
X8389591Y31902251D01*
X8583708Y31772546D01*
X8812684Y31727000D01*
X8812687Y31727000D01*
X8889999Y31711622D01*
X8967311Y31727000D01*
X13672289Y31727000D01*
X13764720Y31634569D01*
X14145126Y31477000D01*
X14556874Y31477000D01*
X14937280Y31634569D01*
X15228431Y31925720D01*
X15386000Y32306126D01*
X15386000Y32717874D01*
X15228431Y33098280D01*
X14937280Y33389431D01*
X14556874Y33547000D01*
X14145126Y33547000D01*
X13764720Y33389431D01*
X13672289Y33297000D01*
X9215158Y33297000D01*
X8532000Y33980157D01*
X8532000Y34165509D01*
X8625809Y34228191D01*
X8668000Y34291334D01*
X8710191Y34228191D01*
X8920235Y34087843D01*
X9168000Y34038560D01*
X10168000Y34038560D01*
X10415765Y34087843D01*
X10625809Y34228191D01*
X10668000Y34291334D01*
X10710191Y34228191D01*
X10920235Y34087843D01*
X11168000Y34038560D01*
X12168000Y34038560D01*
X12415765Y34087843D01*
X12625809Y34228191D01*
X12668000Y34291334D01*
X12710191Y34228191D01*
X12920235Y34087843D01*
X13168000Y34038560D01*
X14168000Y34038560D01*
X14415765Y34087843D01*
X14625809Y34228191D01*
X14668000Y34291334D01*
X14710191Y34228191D01*
X14920235Y34087843D01*
X15168000Y34038560D01*
X16168000Y34038560D01*
X16415765Y34087843D01*
X16625809Y34228191D01*
X16666655Y34289320D01*
X16808301Y34147673D01*
X17041690Y34051000D01*
X17382250Y34051000D01*
X17541000Y34209750D01*
X17541000Y35559000D01*
X17521000Y35559000D01*
X17521000Y35813000D01*
X17541000Y35813000D01*
X17541000Y37162250D01*
X17382250Y37321000D01*
X17041690Y37321000D01*
X16808301Y37224327D01*
X16666655Y37082680D01*
X16625809Y37143809D01*
X16453000Y37259277D01*
X16453000Y38364368D01*
X16561157Y38526235D01*
X16610440Y38774000D01*
X16610440Y40474000D01*
X16561157Y40721765D01*
X16420809Y40931809D01*
X16210765Y41072157D01*
X16165381Y41081184D01*
X16183625Y41093375D01*
X16371727Y41374889D01*
X16392393Y41379000D01*
X16392397Y41379000D01*
X16621373Y41424546D01*
X16881034Y41598047D01*
X16924830Y41663592D01*
X17157239Y41896000D01*
X18162199Y41896000D01*
X18022966Y41756767D01*
X17865397Y41376361D01*
X17865397Y40964613D01*
X18022966Y40584207D01*
X18140398Y40466775D01*
X18140398Y37321000D01*
X17953750Y37321000D01*
X17795000Y37162250D01*
X17795000Y35813000D01*
X17815000Y35813000D01*
X17815000Y35559000D01*
X17795000Y35559000D01*
X17795000Y34209750D01*
X17953750Y34051000D01*
X18140397Y34051000D01*
X18140397Y32550199D01*
X13183528Y27593329D01*
X13120072Y27550929D01*
X13077672Y27487473D01*
X13077671Y27487472D01*
X12952097Y27299537D01*
X12893112Y27003000D01*
X12908001Y26928148D01*
X12908000Y21275982D01*
X12710191Y21143809D01*
X12668000Y21080666D01*
X12625809Y21143809D01*
X12415765Y21284157D01*
X12168000Y21333440D01*
X11168000Y21333440D01*
X10920235Y21284157D01*
X10710191Y21143809D01*
X10668000Y21080666D01*
X10625809Y21143809D01*
X10415765Y21284157D01*
X10168000Y21333440D01*
X9168000Y21333440D01*
X8920235Y21284157D01*
X8710191Y21143809D01*
X8668000Y21080666D01*
X8625809Y21143809D01*
X8415765Y21284157D01*
X8168000Y21333440D01*
X7168000Y21333440D01*
X6920235Y21284157D01*
X6710191Y21143809D01*
X6669345Y21082680D01*
X6527699Y21224327D01*
X6294310Y21321000D01*
X5953750Y21321000D01*
X5795000Y21162250D01*
X5795000Y19813000D01*
X5815000Y19813000D01*
X5815000Y19559000D01*
X5795000Y19559000D01*
X5795000Y18209750D01*
X5953750Y18051000D01*
X6294310Y18051000D01*
X6527699Y18147673D01*
X6669345Y18289320D01*
X6710191Y18228191D01*
X6920235Y18087843D01*
X7168000Y18038560D01*
X8168000Y18038560D01*
X8415765Y18087843D01*
X8625809Y18228191D01*
X8668000Y18291334D01*
X8710191Y18228191D01*
X8920235Y18087843D01*
X8920721Y18087746D01*
X8783673Y17950699D01*
X8687000Y17717310D01*
X8687000Y17176750D01*
X8845750Y17018000D01*
X9770000Y17018000D01*
X9770000Y17038000D01*
X10024000Y17038000D01*
X10024000Y17018000D01*
X10044000Y17018000D01*
X10044000Y16764000D01*
X10024000Y16764000D01*
X10024000Y15714750D01*
X10182750Y15556000D01*
X10598309Y15556000D01*
X10831698Y15652673D01*
X10986623Y15807597D01*
X10987414Y15806414D01*
X11278564Y15611873D01*
X11621999Y15543560D01*
X12272001Y15543560D01*
X12615436Y15611873D01*
X12906586Y15806414D01*
X13101127Y16097564D01*
X13126208Y16223656D01*
X13224001Y16288999D01*
X13238033Y16310000D01*
X15679678Y16310000D01*
X15454235Y16265157D01*
X15247470Y16127000D01*
X14933848Y16127000D01*
X14859000Y16141888D01*
X14784152Y16127000D01*
X14784148Y16127000D01*
X14562463Y16082904D01*
X14311071Y15914929D01*
X14268671Y15851473D01*
X14184198Y15767000D01*
X14018126Y15767000D01*
X13637720Y15609431D01*
X13346569Y15318280D01*
X13189000Y14937874D01*
X13189000Y14526126D01*
X13346569Y14145720D01*
X13637720Y13854569D01*
X14018126Y13697000D01*
X14429874Y13697000D01*
X14810280Y13854569D01*
X15054560Y14098849D01*
X15054560Y13797000D01*
X15103843Y13549235D01*
X15156768Y13470028D01*
X15067000Y13253310D01*
X15067000Y13112750D01*
X15225750Y12954000D01*
X16350000Y12954000D01*
X16350000Y12974000D01*
X16604000Y12974000D01*
X16604000Y12954000D01*
X17728250Y12954000D01*
X17887000Y13112750D01*
X17887000Y13253310D01*
X17797232Y13470028D01*
X17850157Y13549235D01*
X17899440Y13797000D01*
X17899440Y13887000D01*
X18316203Y13887000D01*
X18811002Y13392200D01*
X18811003Y11999850D01*
X18796892Y11928909D01*
X18684331Y12041470D01*
X18641929Y12104929D01*
X18390537Y12272904D01*
X18168852Y12317000D01*
X18168847Y12317000D01*
X18094000Y12331888D01*
X18019153Y12317000D01*
X17852334Y12317000D01*
X17887000Y12400690D01*
X17887000Y12541250D01*
X17728250Y12700000D01*
X16604000Y12700000D01*
X16604000Y12680000D01*
X16350000Y12680000D01*
X16350000Y12700000D01*
X15225750Y12700000D01*
X15067000Y12541250D01*
X15067000Y12400690D01*
X15156768Y12183972D01*
X15103843Y12104765D01*
X15054560Y11857000D01*
X15054560Y11329302D01*
X14830766Y11422000D01*
X14379234Y11422000D01*
X13962074Y11249207D01*
X13642793Y10929926D01*
X13571989Y10758989D01*
X13504436Y10804127D01*
X13161001Y10872440D01*
X12727851Y10872440D01*
X13303547Y11448136D01*
X13640000Y12260404D01*
X13640000Y13139596D01*
X13303547Y13951864D01*
X12681864Y14573547D01*
X11869596Y14910000D01*
X10990404Y14910000D01*
X10178136Y14573547D01*
X9752000Y14147411D01*
X9752000Y15294616D01*
X9766398Y15367000D01*
X9752000Y15439384D01*
X9752000Y15439388D01*
X9709354Y15653783D01*
X9709225Y15653975D01*
X9770000Y15714750D01*
X9770000Y16764000D01*
X8845750Y16764000D01*
X8752598Y16670848D01*
X7682911Y17740535D01*
X7641905Y17801905D01*
X7398783Y17964354D01*
X7184388Y18007000D01*
X7184384Y18007000D01*
X7112000Y18021398D01*
X7039616Y18007000D01*
X4622447Y18007000D01*
X4491199Y18138247D01*
X4625809Y18228191D01*
X4666655Y18289320D01*
X4808301Y18147673D01*
X5041690Y18051000D01*
X5382250Y18051000D01*
X5541000Y18209750D01*
X5541000Y19559000D01*
X5521000Y19559000D01*
X5521000Y19813000D01*
X5541000Y19813000D01*
X5541000Y21162250D01*
X5382250Y21321000D01*
X5041690Y21321000D01*
X4808301Y21224327D01*
X4666655Y21082680D01*
X4625809Y21143809D01*
X4415765Y21284157D01*
X4168000Y21333440D01*
X3168000Y21333440D01*
X2920235Y21284157D01*
X2710191Y21143809D01*
X2569843Y20933765D01*
X2520560Y20686000D01*
X2520560Y18686000D01*
X2569843Y18438235D01*
X2710191Y18228191D01*
X2920235Y18087843D01*
X2933000Y18085304D01*
X2933000Y17994385D01*
X2918602Y17922000D01*
X2933000Y17849616D01*
X2933000Y17849613D01*
X2975646Y17635218D01*
X3138095Y17392095D01*
X3199465Y17351089D01*
X3747090Y16803463D01*
X3788095Y16742095D01*
X4031217Y16579646D01*
X4245612Y16537000D01*
X4245616Y16537000D01*
X4318000Y16522602D01*
X4390384Y16537000D01*
X6807554Y16537000D01*
X7972598Y15371955D01*
X7830436Y15419149D01*
X7424000Y15389763D01*
X7424000Y15622310D01*
X7327327Y15855699D01*
X7148698Y16034327D01*
X6915309Y16131000D01*
X4534750Y16131000D01*
X4376000Y15972250D01*
X4376000Y14413000D01*
X4396000Y14413000D01*
X4396000Y14159000D01*
X4376000Y14159000D01*
X4376000Y12599750D01*
X4534750Y12441000D01*
X6915309Y12441000D01*
X7148698Y12537673D01*
X7327327Y12716301D01*
X7424000Y12949690D01*
X7424000Y13193871D01*
X7547564Y13152851D01*
X7991968Y13184982D01*
X8253308Y13293232D01*
X8282000Y13466888D01*
X8282000Y12238447D01*
X7369197Y11325644D01*
X7246809Y11508809D01*
X7036765Y11649157D01*
X6789000Y11698440D01*
X1709000Y11698440D01*
X1461235Y11649157D01*
X1251191Y11508809D01*
X1110843Y11298765D01*
X1061560Y11051000D01*
X1061560Y8761000D01*
X1110843Y8513235D01*
X1251191Y8303191D01*
X1461235Y8162843D01*
X1709000Y8113560D01*
X6789000Y8113560D01*
X7036765Y8162843D01*
X7246809Y8303191D01*
X7387157Y8513235D01*
X7436440Y8761000D01*
X7436440Y9320994D01*
X7518905Y9376095D01*
X7559911Y9437465D01*
X9485538Y11363091D01*
X9546905Y11404095D01*
X9568370Y11436219D01*
X10178136Y10826453D01*
X10194899Y10819510D01*
X10117564Y10804127D01*
X9826414Y10609586D01*
X9631873Y10318436D01*
X9563560Y9975001D01*
X9563560Y9074999D01*
X9631873Y8731564D01*
X9826414Y8440414D01*
X10008870Y8318500D01*
X9826414Y8196586D01*
X9631873Y7905436D01*
X9563560Y7562001D01*
X9563560Y6964362D01*
X8786530Y6187331D01*
X8723071Y6144929D01*
X8683607Y6085867D01*
X8681768Y6090308D01*
X8468200Y6125595D01*
X8312656Y5970051D01*
X8252327Y6115699D01*
X8175710Y6192315D01*
X8288595Y6305200D01*
X8253308Y6518768D01*
X7830436Y6659149D01*
X7424000Y6629763D01*
X7424000Y6862310D01*
X7327327Y7095699D01*
X7148698Y7274327D01*
X6915309Y7371000D01*
X4534750Y7371000D01*
X4376000Y7212250D01*
X4376000Y5653000D01*
X4396000Y5653000D01*
X4396000Y5399000D01*
X4376000Y5399000D01*
X4376000Y3839750D01*
X4534750Y3681000D01*
X6915309Y3681000D01*
X7148698Y3777673D01*
X7327327Y3956301D01*
X7424000Y4189690D01*
X7424000Y4433871D01*
X7547564Y4392851D01*
X7991968Y4424982D01*
X8253308Y4533232D01*
X8288595Y4746797D01*
X8404912Y4630480D01*
X8436001Y4661569D01*
X8436000Y2914047D01*
X8357448Y2796486D01*
X8309000Y2552922D01*
X8309000Y2552918D01*
X8304231Y2528942D01*
X8266569Y2491280D01*
X8109000Y2110874D01*
X8109000Y1699126D01*
X8266569Y1318720D01*
X8557720Y1027569D01*
X8938126Y870000D01*
X9349874Y870000D01*
X9730280Y1027569D01*
X10021431Y1318720D01*
X10179000Y1699126D01*
X10179000Y2110874D01*
X10075316Y2361190D01*
X10106000Y2515448D01*
X10106000Y2515451D01*
X10122357Y2597684D01*
X10106000Y2679917D01*
X10106000Y2829923D01*
X10350904Y2585019D01*
X11051072Y2295000D01*
X11808928Y2295000D01*
X12509096Y2585019D01*
X13044981Y3120904D01*
X13335000Y3821072D01*
X13335000Y4159250D01*
X14402000Y4159250D01*
X14402000Y3618690D01*
X14498673Y3385301D01*
X14677302Y3206673D01*
X14910691Y3110000D01*
X15326250Y3110000D01*
X15485000Y3268750D01*
X15485000Y4318000D01*
X14560750Y4318000D01*
X14402000Y4159250D01*
X13335000Y4159250D01*
X13335000Y4578928D01*
X13202826Y4898024D01*
X13320473Y5015671D01*
X13383929Y5058071D01*
X13526410Y5271310D01*
X14402000Y5271310D01*
X14402000Y4730750D01*
X14560750Y4572000D01*
X15485000Y4572000D01*
X15485000Y5621250D01*
X15326250Y5780000D01*
X14910691Y5780000D01*
X14677302Y5683327D01*
X14498673Y5504699D01*
X14402000Y5271310D01*
X13526410Y5271310D01*
X13551904Y5309463D01*
X13596000Y5531148D01*
X13596000Y5531152D01*
X13610888Y5605999D01*
X13596000Y5680846D01*
X13596000Y5894054D01*
X13795586Y6027414D01*
X13886850Y6164000D01*
X15358950Y6164000D01*
X15374191Y6141191D01*
X15584235Y6000843D01*
X15832000Y5951560D01*
X17525373Y5951560D01*
X17525373Y5792440D01*
X17336999Y5792440D01*
X16993564Y5724127D01*
X16702414Y5529586D01*
X16701623Y5528403D01*
X16546698Y5683327D01*
X16313309Y5780000D01*
X15897750Y5780000D01*
X15739000Y5621250D01*
X15739000Y4572000D01*
X15759000Y4572000D01*
X15759000Y4318000D01*
X15739000Y4318000D01*
X15739000Y3268750D01*
X15897750Y3110000D01*
X16313309Y3110000D01*
X16546698Y3206673D01*
X16701623Y3361597D01*
X16702414Y3360414D01*
X16993564Y3165873D01*
X17336999Y3097560D01*
X17987001Y3097560D01*
X18330436Y3165873D01*
X18621586Y3360414D01*
X18816127Y3651564D01*
X18884440Y3994999D01*
X18884440Y4596978D01*
X19001276Y4771835D01*
X19045372Y4993520D01*
X19045372Y4993524D01*
X19060260Y5068371D01*
X19045372Y5143218D01*
X19045372Y5992660D01*
X19252000Y5951560D01*
X21252000Y5951560D01*
X21499765Y6000843D01*
X21709809Y6141191D01*
X21725050Y6164000D01*
X21962153Y6164000D01*
X22037000Y6149112D01*
X22111847Y6164000D01*
X22111852Y6164000D01*
X22333537Y6208096D01*
X22584929Y6376071D01*
X22627331Y6439530D01*
X22709470Y6521669D01*
X22772929Y6564071D01*
X22940904Y6815463D01*
X22985000Y7037148D01*
X22985000Y7037152D01*
X22999888Y7111999D01*
X22985000Y7186846D01*
X22985000Y9196153D01*
X22999888Y9271000D01*
X22985000Y9345847D01*
X22985000Y9345852D01*
X22940904Y9567537D01*
X22772929Y9818929D01*
X22709473Y9861329D01*
X21961242Y10609560D01*
X22652000Y10609560D01*
X22899765Y10658843D01*
X23109809Y10799191D01*
X23250157Y11009235D01*
X23299440Y11257000D01*
X23299440Y11857000D01*
X23250157Y12104765D01*
X23191868Y12192000D01*
X23250157Y12279235D01*
X23299440Y12527000D01*
X23299440Y13127000D01*
X23250157Y13374765D01*
X23191868Y13462000D01*
X23250157Y13549235D01*
X23299440Y13797000D01*
X23299440Y14397000D01*
X23250157Y14644765D01*
X23191868Y14732000D01*
X23250157Y14819235D01*
X23299440Y15067000D01*
X23299440Y15667000D01*
X23250157Y15914765D01*
X23109809Y16124809D01*
X22899765Y16265157D01*
X22652000Y16314440D01*
X21102000Y16314440D01*
X20854235Y16265157D01*
X20644191Y16124809D01*
X20503843Y15914765D01*
X20454560Y15667000D01*
X20454560Y15067000D01*
X20503843Y14819235D01*
X20562132Y14732000D01*
X20503843Y14644765D01*
X20454560Y14397000D01*
X20454560Y13797000D01*
X20503843Y13549235D01*
X20562132Y13462000D01*
X20503843Y13374765D01*
X20454560Y13127000D01*
X20454560Y12527000D01*
X20503843Y12279235D01*
X20562132Y12192000D01*
X20503843Y12104765D01*
X20497570Y12073231D01*
X20331002Y12239799D01*
X20331002Y13632155D01*
X20345890Y13707002D01*
X20331002Y13781849D01*
X20331002Y13781854D01*
X20286906Y14003539D01*
X20118931Y14254931D01*
X20055475Y14297331D01*
X19221335Y15131470D01*
X19178933Y15194929D01*
X18927541Y15362904D01*
X18705856Y15407000D01*
X18705851Y15407000D01*
X18631004Y15421888D01*
X18556157Y15407000D01*
X17899440Y15407000D01*
X17899440Y15667000D01*
X17850157Y15914765D01*
X17709809Y16124809D01*
X17499765Y16265157D01*
X17274322Y16310000D01*
X20237767Y16310000D01*
X20320000Y16293643D01*
X20402233Y16310000D01*
X20402237Y16310000D01*
X20645801Y16358448D01*
X20922001Y16542999D01*
X20968587Y16612720D01*
X22376286Y18020417D01*
X22446001Y18066999D01*
X22540738Y18208782D01*
X22630552Y18343199D01*
X22660331Y18492909D01*
X22679000Y18586763D01*
X22679000Y18586766D01*
X22695357Y18668999D01*
X22679000Y18751232D01*
X22679000Y20327560D01*
X22994000Y20327560D01*
X23241765Y20376843D01*
X23451809Y20517191D01*
X23592157Y20727235D01*
X23641440Y20975000D01*
X23641440Y21422861D01*
X23719801Y21438448D01*
X23996001Y21622999D01*
X24042587Y21692720D01*
X24157001Y21807133D01*
X24157001Y735000D01*
X735000Y735000D01*
X735000Y5240250D01*
X1074000Y5240250D01*
X1074000Y4189690D01*
X1170673Y3956301D01*
X1349302Y3777673D01*
X1582691Y3681000D01*
X3963250Y3681000D01*
X4122000Y3839750D01*
X4122000Y5399000D01*
X1232750Y5399000D01*
X1074000Y5240250D01*
X735000Y5240250D01*
X735000Y6862310D01*
X1074000Y6862310D01*
X1074000Y5811750D01*
X1232750Y5653000D01*
X4122000Y5653000D01*
X4122000Y7212250D01*
X3963250Y7371000D01*
X1582691Y7371000D01*
X1349302Y7274327D01*
X1170673Y7095699D01*
X1074000Y6862310D01*
X735000Y6862310D01*
X735000Y14000250D01*
X1074000Y14000250D01*
X1074000Y12949690D01*
X1170673Y12716301D01*
X1349302Y12537673D01*
X1582691Y12441000D01*
X3963250Y12441000D01*
X4122000Y12599750D01*
X4122000Y14159000D01*
X1232750Y14159000D01*
X1074000Y14000250D01*
X735000Y14000250D01*
X735000Y15622310D01*
X1074000Y15622310D01*
X1074000Y14571750D01*
X1232750Y14413000D01*
X4122000Y14413000D01*
X4122000Y15972250D01*
X3963250Y16131000D01*
X1582691Y16131000D01*
X1349302Y16034327D01*
X1170673Y15855699D01*
X1074000Y15622310D01*
X735000Y15622310D01*
X735000Y35400250D01*
X2533000Y35400250D01*
X2533000Y34559691D01*
X2629673Y34326302D01*
X2808301Y34147673D01*
X3041690Y34051000D01*
X3382250Y34051000D01*
X3541000Y34209750D01*
X3541000Y35559000D01*
X2691750Y35559000D01*
X2533000Y35400250D01*
X735000Y35400250D01*
X735000Y36812309D01*
X2533000Y36812309D01*
X2533000Y35971750D01*
X2691750Y35813000D01*
X3541000Y35813000D01*
X3541000Y37162250D01*
X3382250Y37321000D01*
X3041690Y37321000D01*
X2808301Y37224327D01*
X2629673Y37045698D01*
X2533000Y36812309D01*
X735000Y36812309D01*
X735000Y39719250D01*
X1182000Y39719250D01*
X1182000Y39028690D01*
X1278673Y38795301D01*
X1457302Y38616673D01*
X1690691Y38520000D01*
X2381250Y38520000D01*
X2540000Y38678750D01*
X2540000Y39878000D01*
X2794000Y39878000D01*
X2794000Y38678750D01*
X2952750Y38520000D01*
X3643309Y38520000D01*
X3876698Y38616673D01*
X4055327Y38795301D01*
X4152000Y39028690D01*
X4152000Y39719250D01*
X3993250Y39878000D01*
X2794000Y39878000D01*
X2540000Y39878000D01*
X1340750Y39878000D01*
X1182000Y39719250D01*
X735000Y39719250D01*
X735000Y40981310D01*
X1182000Y40981310D01*
X1182000Y40290750D01*
X1340750Y40132000D01*
X2540000Y40132000D01*
X2540000Y42418000D01*
X2794000Y42418000D01*
X2794000Y40132000D01*
X3993250Y40132000D01*
X4152000Y40290750D01*
X4152000Y40981310D01*
X4055327Y41214699D01*
X3876698Y41393327D01*
X3667122Y41480136D01*
X3938645Y41778076D01*
X4108476Y42188110D01*
X3987155Y42418000D01*
X2794000Y42418000D01*
X2540000Y42418000D01*
X1346845Y42418000D01*
X1225524Y42188110D01*
X1395355Y41778076D01*
X1666878Y41480136D01*
X1457302Y41393327D01*
X1278673Y41214699D01*
X1182000Y40981310D01*
X735000Y40981310D01*
X735000Y60729641D01*
X1015019Y60449622D01*
G36*
X20831090Y36518463D02*
X20872095Y36457095D01*
X20974060Y36388964D01*
X20979424Y36362000D01*
X20954560Y36237000D01*
X20954560Y35687000D01*
X20956968Y35674894D01*
X20956968Y35637991D01*
X20969408Y35511682D01*
X20988530Y35415549D01*
X21025372Y35294096D01*
X21062881Y35203540D01*
X21122713Y35091603D01*
X21177169Y35010104D01*
X21257686Y34911994D01*
X21326994Y34842686D01*
X21425104Y34762169D01*
X21506603Y34707713D01*
X21567001Y34675430D01*
X21567000Y34447805D01*
X21558564Y34446127D01*
X21267414Y34251586D01*
X21072873Y33960436D01*
X21004560Y33617001D01*
X21004560Y32966999D01*
X21072873Y32623564D01*
X21267414Y32332414D01*
X21268597Y32331623D01*
X21113673Y32176698D01*
X21017000Y31943309D01*
X21017000Y31527750D01*
X21175750Y31369000D01*
X22225000Y31369000D01*
X22225000Y31389000D01*
X22479000Y31389000D01*
X22479000Y31369000D01*
X22499000Y31369000D01*
X22499000Y31115000D01*
X22479000Y31115000D01*
X22479000Y30190750D01*
X22637750Y30032000D01*
X23168000Y30032000D01*
X23168000Y28390246D01*
X23120310Y28410000D01*
X22129750Y28410000D01*
X21971000Y28251250D01*
X21971000Y26652000D01*
X21991000Y26652000D01*
X21991000Y26398000D01*
X21971000Y26398000D01*
X21971000Y24798750D01*
X22129750Y24640000D01*
X23120310Y24640000D01*
X23168000Y24659754D01*
X23168000Y24087830D01*
X22994000Y24122440D01*
X20694000Y24122440D01*
X20460528Y24076000D01*
X18506867Y24076000D01*
X18469001Y24113866D01*
X18469001Y25602907D01*
X18620280Y25665569D01*
X18911431Y25956720D01*
X19028458Y26239250D01*
X20059000Y26239250D01*
X20059000Y25148691D01*
X20155673Y24915302D01*
X20334301Y24736673D01*
X20567690Y24640000D01*
X21558250Y24640000D01*
X21717000Y24798750D01*
X21717000Y26398000D01*
X20217750Y26398000D01*
X20059000Y26239250D01*
X19028458Y26239250D01*
X19069000Y26337126D01*
X19069000Y26748874D01*
X18911431Y27129280D01*
X18620280Y27420431D01*
X18239874Y27578000D01*
X17828126Y27578000D01*
X17447720Y27420431D01*
X17156569Y27129280D01*
X16999000Y26748874D01*
X16999000Y26695614D01*
X16847449Y26468801D01*
X16799001Y26225237D01*
X16799001Y26225234D01*
X16782644Y26143001D01*
X16799001Y26060768D01*
X16799002Y23850237D01*
X16782644Y23767999D01*
X16847449Y23442199D01*
X16847450Y23442198D01*
X17032001Y23165998D01*
X17101719Y23119414D01*
X17512413Y22708720D01*
X17558999Y22638999D01*
X17835199Y22454448D01*
X18078763Y22406000D01*
X18078766Y22406000D01*
X18160999Y22389643D01*
X18243232Y22406000D01*
X20046560Y22406000D01*
X20046560Y20975000D01*
X20095843Y20727235D01*
X20236191Y20517191D01*
X20446235Y20376843D01*
X20694000Y20327560D01*
X21009000Y20327560D01*
X21009000Y19014869D01*
X19974133Y17980000D01*
X12958232Y17980000D01*
X12875999Y17996357D01*
X12875615Y17996281D01*
X12782000Y18058832D01*
X12782000Y18180209D01*
X12920235Y18087843D01*
X13168000Y18038560D01*
X14168000Y18038560D01*
X14415765Y18087843D01*
X14625809Y18228191D01*
X14668000Y18291334D01*
X14710191Y18228191D01*
X14920235Y18087843D01*
X15168000Y18038560D01*
X16168000Y18038560D01*
X16415765Y18087843D01*
X16625809Y18228191D01*
X16668000Y18291334D01*
X16710191Y18228191D01*
X16920235Y18087843D01*
X17168000Y18038560D01*
X18168000Y18038560D01*
X18415765Y18087843D01*
X18625809Y18228191D01*
X18766157Y18438235D01*
X18815440Y18686000D01*
X18815440Y20686000D01*
X18766157Y20933765D01*
X18625809Y21143809D01*
X18415765Y21284157D01*
X18168000Y21333440D01*
X17168000Y21333440D01*
X16920235Y21284157D01*
X16710191Y21143809D01*
X16668000Y21080666D01*
X16625809Y21143809D01*
X16415765Y21284157D01*
X16168000Y21333440D01*
X15168000Y21333440D01*
X14920235Y21284157D01*
X14710191Y21143809D01*
X14668000Y21080666D01*
X14625809Y21143809D01*
X14428000Y21275982D01*
X14428000Y26688199D01*
X15641110Y27901309D01*
X20059000Y27901309D01*
X20059000Y26810750D01*
X20217750Y26652000D01*
X21717000Y26652000D01*
X21717000Y28251250D01*
X21558250Y28410000D01*
X20567690Y28410000D01*
X20334301Y28313327D01*
X20155673Y28134698D01*
X20059000Y27901309D01*
X15641110Y27901309D01*
X18696051Y30956250D01*
X21017000Y30956250D01*
X21017000Y30540691D01*
X21113673Y30307302D01*
X21292301Y30128673D01*
X21525690Y30032000D01*
X22066250Y30032000D01*
X22225000Y30190750D01*
X22225000Y31115000D01*
X21175750Y31115000D01*
X21017000Y30956250D01*
X18696051Y30956250D01*
X19384870Y31645068D01*
X19448326Y31687468D01*
X19591840Y31902251D01*
X19616301Y31938859D01*
X19655887Y32137873D01*
X19660397Y32160545D01*
X19660397Y32160549D01*
X19675285Y32235397D01*
X19660397Y32310245D01*
X19660397Y37689157D01*
X20831090Y36518463D01*
X20831090Y36518463D01*
G37*
X20831090Y36518463D02*
X20872095Y36457095D01*
X20974060Y36388964D01*
X20979424Y36362000D01*
X20954560Y36237000D01*
X20954560Y35687000D01*
X20956968Y35674894D01*
X20956968Y35637991D01*
X20969408Y35511682D01*
X20988530Y35415549D01*
X21025372Y35294096D01*
X21062881Y35203540D01*
X21122713Y35091603D01*
X21177169Y35010104D01*
X21257686Y34911994D01*
X21326994Y34842686D01*
X21425104Y34762169D01*
X21506603Y34707713D01*
X21567001Y34675430D01*
X21567000Y34447805D01*
X21558564Y34446127D01*
X21267414Y34251586D01*
X21072873Y33960436D01*
X21004560Y33617001D01*
X21004560Y32966999D01*
X21072873Y32623564D01*
X21267414Y32332414D01*
X21268597Y32331623D01*
X21113673Y32176698D01*
X21017000Y31943309D01*
X21017000Y31527750D01*
X21175750Y31369000D01*
X22225000Y31369000D01*
X22225000Y31389000D01*
X22479000Y31389000D01*
X22479000Y31369000D01*
X22499000Y31369000D01*
X22499000Y31115000D01*
X22479000Y31115000D01*
X22479000Y30190750D01*
X22637750Y30032000D01*
X23168000Y30032000D01*
X23168000Y28390246D01*
X23120310Y28410000D01*
X22129750Y28410000D01*
X21971000Y28251250D01*
X21971000Y26652000D01*
X21991000Y26652000D01*
X21991000Y26398000D01*
X21971000Y26398000D01*
X21971000Y24798750D01*
X22129750Y24640000D01*
X23120310Y24640000D01*
X23168000Y24659754D01*
X23168000Y24087830D01*
X22994000Y24122440D01*
X20694000Y24122440D01*
X20460528Y24076000D01*
X18506867Y24076000D01*
X18469001Y24113866D01*
X18469001Y25602907D01*
X18620280Y25665569D01*
X18911431Y25956720D01*
X19028458Y26239250D01*
X20059000Y26239250D01*
X20059000Y25148691D01*
X20155673Y24915302D01*
X20334301Y24736673D01*
X20567690Y24640000D01*
X21558250Y24640000D01*
X21717000Y24798750D01*
X21717000Y26398000D01*
X20217750Y26398000D01*
X20059000Y26239250D01*
X19028458Y26239250D01*
X19069000Y26337126D01*
X19069000Y26748874D01*
X18911431Y27129280D01*
X18620280Y27420431D01*
X18239874Y27578000D01*
X17828126Y27578000D01*
X17447720Y27420431D01*
X17156569Y27129280D01*
X16999000Y26748874D01*
X16999000Y26695614D01*
X16847449Y26468801D01*
X16799001Y26225237D01*
X16799001Y26225234D01*
X16782644Y26143001D01*
X16799001Y26060768D01*
X16799002Y23850237D01*
X16782644Y23767999D01*
X16847449Y23442199D01*
X16847450Y23442198D01*
X17032001Y23165998D01*
X17101719Y23119414D01*
X17512413Y22708720D01*
X17558999Y22638999D01*
X17835199Y22454448D01*
X18078763Y22406000D01*
X18078766Y22406000D01*
X18160999Y22389643D01*
X18243232Y22406000D01*
X20046560Y22406000D01*
X20046560Y20975000D01*
X20095843Y20727235D01*
X20236191Y20517191D01*
X20446235Y20376843D01*
X20694000Y20327560D01*
X21009000Y20327560D01*
X21009000Y19014869D01*
X19974133Y17980000D01*
X12958232Y17980000D01*
X12875999Y17996357D01*
X12875615Y17996281D01*
X12782000Y18058832D01*
X12782000Y18180209D01*
X12920235Y18087843D01*
X13168000Y18038560D01*
X14168000Y18038560D01*
X14415765Y18087843D01*
X14625809Y18228191D01*
X14668000Y18291334D01*
X14710191Y18228191D01*
X14920235Y18087843D01*
X15168000Y18038560D01*
X16168000Y18038560D01*
X16415765Y18087843D01*
X16625809Y18228191D01*
X16668000Y18291334D01*
X16710191Y18228191D01*
X16920235Y18087843D01*
X17168000Y18038560D01*
X18168000Y18038560D01*
X18415765Y18087843D01*
X18625809Y18228191D01*
X18766157Y18438235D01*
X18815440Y18686000D01*
X18815440Y20686000D01*
X18766157Y20933765D01*
X18625809Y21143809D01*
X18415765Y21284157D01*
X18168000Y21333440D01*
X17168000Y21333440D01*
X16920235Y21284157D01*
X16710191Y21143809D01*
X16668000Y21080666D01*
X16625809Y21143809D01*
X16415765Y21284157D01*
X16168000Y21333440D01*
X15168000Y21333440D01*
X14920235Y21284157D01*
X14710191Y21143809D01*
X14668000Y21080666D01*
X14625809Y21143809D01*
X14428000Y21275982D01*
X14428000Y26688199D01*
X15641110Y27901309D01*
X20059000Y27901309D01*
X20059000Y26810750D01*
X20217750Y26652000D01*
X21717000Y26652000D01*
X21717000Y28251250D01*
X21558250Y28410000D01*
X20567690Y28410000D01*
X20334301Y28313327D01*
X20155673Y28134698D01*
X20059000Y27901309D01*
X15641110Y27901309D01*
X18696051Y30956250D01*
X21017000Y30956250D01*
X21017000Y30540691D01*
X21113673Y30307302D01*
X21292301Y30128673D01*
X21525690Y30032000D01*
X22066250Y30032000D01*
X22225000Y30190750D01*
X22225000Y31115000D01*
X21175750Y31115000D01*
X21017000Y30956250D01*
X18696051Y30956250D01*
X19384870Y31645068D01*
X19448326Y31687468D01*
X19591840Y31902251D01*
X19616301Y31938859D01*
X19655887Y32137873D01*
X19660397Y32160545D01*
X19660397Y32160549D01*
X19675285Y32235397D01*
X19660397Y32310245D01*
X19660397Y37689157D01*
X20831090Y36518463D01*
G36*
X10002219Y47276070D02*
X9997876Y47254235D01*
X10013254Y47176923D01*
X10013255Y44016063D01*
X9997876Y43938746D01*
X10058800Y43632455D01*
X10160000Y43480999D01*
X10160000Y42291000D01*
X10180000Y42291000D01*
X10180000Y42037000D01*
X10160000Y42037000D01*
X10160000Y42017000D01*
X9906000Y42017000D01*
X9906000Y42037000D01*
X9886000Y42037000D01*
X9886000Y42291000D01*
X9906000Y42291000D01*
X9906000Y43484155D01*
X9676110Y43605476D01*
X9266076Y43435645D01*
X8837817Y43045358D01*
X8659000Y42664594D01*
X8659000Y46267565D01*
X9834862Y47443427D01*
X10002219Y47276070D01*
X10002219Y47276070D01*
G37*
X10002219Y47276070D02*
X9997876Y47254235D01*
X10013254Y47176923D01*
X10013255Y44016063D01*
X9997876Y43938746D01*
X10058800Y43632455D01*
X10160000Y43480999D01*
X10160000Y42291000D01*
X10180000Y42291000D01*
X10180000Y42037000D01*
X10160000Y42037000D01*
X10160000Y42017000D01*
X9906000Y42017000D01*
X9906000Y42037000D01*
X9886000Y42037000D01*
X9886000Y42291000D01*
X9906000Y42291000D01*
X9906000Y43484155D01*
X9676110Y43605476D01*
X9266076Y43435645D01*
X8837817Y43045358D01*
X8659000Y42664594D01*
X8659000Y46267565D01*
X9834862Y47443427D01*
X10002219Y47276070D01*
G36*
X24157000Y43406614D02*
X24065801Y43467552D01*
X23822237Y43516000D01*
X23822233Y43516000D01*
X23740000Y43532357D01*
X23657767Y43516000D01*
X23519832Y43516000D01*
X23436586Y43640586D01*
X23145436Y43835127D01*
X22802001Y43903440D01*
X21901999Y43903440D01*
X21558564Y43835127D01*
X21267414Y43640586D01*
X21150759Y43466000D01*
X20083766Y43466000D01*
X20274044Y43656278D01*
X20452673Y43834906D01*
X20549345Y44068295D01*
X20549345Y44231731D01*
X20576086Y44220655D01*
X20828705Y44220655D01*
X21062094Y44317327D01*
X21240722Y44495956D01*
X21444327Y44699561D01*
X21444327Y44924067D01*
X20790784Y45577611D01*
X20061321Y44848148D01*
X19934321Y44848148D01*
X19192389Y44106216D01*
X19206532Y44092074D01*
X19026926Y43912468D01*
X19012784Y43926611D01*
X18998642Y43912468D01*
X18819037Y44092073D01*
X18833179Y44106216D01*
X18819037Y44120358D01*
X18998642Y44299963D01*
X19012784Y44285821D01*
X19742247Y45015284D01*
X19869247Y45015284D01*
X20611179Y45757216D01*
X20970389Y45757216D01*
X21623933Y45103673D01*
X21848439Y45103673D01*
X22052044Y45307278D01*
X22230673Y45485906D01*
X22327345Y45719295D01*
X22327345Y45971914D01*
X22230672Y46205303D01*
X21936827Y46499148D01*
X21712321Y46499148D01*
X20970389Y45757216D01*
X20611179Y45757216D01*
X20597037Y45771358D01*
X20776642Y45950963D01*
X20790784Y45936821D01*
X21532716Y46678753D01*
X21532716Y46903259D01*
X21238871Y47197104D01*
X21005482Y47293777D01*
X20786387Y47293777D01*
X20786664Y47295172D01*
X20718351Y47638607D01*
X20523810Y47929757D01*
X20064189Y48389378D01*
X19773039Y48583919D01*
X19429604Y48652232D01*
X19086169Y48583919D01*
X18920479Y48473208D01*
X18863920Y48484458D01*
X18786608Y48469080D01*
X17411078Y48469080D01*
X17137253Y48742904D01*
X17131986Y48769385D01*
X17250602Y48745791D01*
X17397668Y48775044D01*
X17530440Y48775044D01*
X17612153Y48856757D01*
X17620370Y48876594D01*
X17708411Y48935422D01*
X18029772Y49256782D01*
X18098089Y49188465D01*
X18139095Y49127095D01*
X18382217Y48964646D01*
X18596612Y48922000D01*
X18596616Y48922000D01*
X18669000Y48907602D01*
X18741384Y48922000D01*
X20362356Y48922000D01*
X20458569Y48689720D01*
X20749720Y48398569D01*
X21130126Y48241000D01*
X21541874Y48241000D01*
X21922280Y48398569D01*
X22213431Y48689720D01*
X22371000Y49070126D01*
X22371000Y49481874D01*
X22213431Y49862280D01*
X21922280Y50153431D01*
X21541874Y50311000D01*
X21299184Y50311000D01*
X21241783Y50349354D01*
X21027388Y50392000D01*
X21027384Y50392000D01*
X20955000Y50406398D01*
X20882616Y50392000D01*
X19164989Y50392000D01*
X19228691Y50455702D01*
X19369039Y50665746D01*
X19418322Y50913511D01*
X19369039Y51161276D01*
X19228691Y51371320D01*
X18289964Y52310047D01*
X19228691Y53248774D01*
X19369039Y53458818D01*
X19418322Y53706583D01*
X19369039Y53954348D01*
X19228691Y54164392D01*
X18839782Y54553301D01*
X18733811Y54624109D01*
X18663005Y54730077D01*
X18274096Y55118986D01*
X18168128Y55189792D01*
X18097320Y55295763D01*
X17708411Y55684672D01*
X17602442Y55755479D01*
X17531635Y55861448D01*
X17376120Y56016963D01*
X17982158Y56623000D01*
X18112874Y56623000D01*
X18493280Y56780569D01*
X18784431Y57071720D01*
X18942000Y57452126D01*
X18942000Y57685000D01*
X21136616Y57685000D01*
X21209000Y57670602D01*
X21281384Y57685000D01*
X21281388Y57685000D01*
X21495783Y57727646D01*
X21738905Y57890095D01*
X21779911Y57951465D01*
X22756538Y58928091D01*
X22817905Y58969095D01*
X22980354Y59212217D01*
X23023000Y59426612D01*
X23023000Y59426615D01*
X23037398Y59498999D01*
X23023000Y59571383D01*
X23023000Y59597522D01*
X23235765Y59639843D01*
X23445809Y59780191D01*
X23586157Y59990235D01*
X23635440Y60238000D01*
X23635440Y65238000D01*
X23586157Y65485765D01*
X23445809Y65695809D01*
X23235765Y65836157D01*
X22988000Y65885440D01*
X21588000Y65885440D01*
X21340235Y65836157D01*
X21130191Y65695809D01*
X20989843Y65485765D01*
X20940560Y65238000D01*
X20940560Y60238000D01*
X20989843Y59990235D01*
X21130191Y59780191D01*
X21340235Y59639843D01*
X21381240Y59631687D01*
X20904554Y59155000D01*
X18465447Y59155000D01*
X18009848Y59610598D01*
X18161000Y59761750D01*
X18161000Y62611000D01*
X18415000Y62611000D01*
X18415000Y59761750D01*
X18573750Y59603000D01*
X19114310Y59603000D01*
X19347699Y59699673D01*
X19526327Y59878302D01*
X19623000Y60111691D01*
X19623000Y62452250D01*
X19464250Y62611000D01*
X18415000Y62611000D01*
X18161000Y62611000D01*
X18141000Y62611000D01*
X18141000Y62865000D01*
X18161000Y62865000D01*
X18161000Y65714250D01*
X18415000Y65714250D01*
X18415000Y62865000D01*
X19464250Y62865000D01*
X19623000Y63023750D01*
X19623000Y65364309D01*
X19526327Y65597698D01*
X19347699Y65776327D01*
X19114310Y65873000D01*
X18573750Y65873000D01*
X18415000Y65714250D01*
X18161000Y65714250D01*
X18002250Y65873000D01*
X17461690Y65873000D01*
X17228301Y65776327D01*
X17049673Y65597698D01*
X16953000Y65364309D01*
X16953000Y64651447D01*
X16102911Y65501535D01*
X16061905Y65562905D01*
X16035123Y65580800D01*
X16011127Y65701436D01*
X15816586Y65992586D01*
X15525436Y66187127D01*
X15467000Y66198751D01*
X15467000Y66897249D01*
X15525436Y66908873D01*
X15816586Y67103414D01*
X16011127Y67394564D01*
X16079440Y67737999D01*
X16079440Y68388001D01*
X16011127Y68731436D01*
X15816586Y69022586D01*
X15718687Y69088000D01*
X15816586Y69153414D01*
X16011127Y69444564D01*
X16079440Y69787999D01*
X16079440Y70438001D01*
X16011127Y70781436D01*
X15816586Y71072586D01*
X15525436Y71267127D01*
X15182001Y71335440D01*
X14281999Y71335440D01*
X14198948Y71318920D01*
X13965868Y71552000D01*
X14319250Y71552000D01*
X14478000Y71710750D01*
X14478000Y72635000D01*
X14732000Y72635000D01*
X14732000Y71710750D01*
X14890750Y71552000D01*
X15431310Y71552000D01*
X15664699Y71648673D01*
X15843327Y71827302D01*
X15940000Y72060691D01*
X15940000Y72452250D01*
X16953000Y72452250D01*
X16953000Y70111691D01*
X17049673Y69878302D01*
X17228301Y69699673D01*
X17461690Y69603000D01*
X18002250Y69603000D01*
X18161000Y69761750D01*
X18161000Y72611000D01*
X18415000Y72611000D01*
X18415000Y69761750D01*
X18573750Y69603000D01*
X19114310Y69603000D01*
X19347699Y69699673D01*
X19526327Y69878302D01*
X19623000Y70111691D01*
X19623000Y72452250D01*
X19464250Y72611000D01*
X18415000Y72611000D01*
X18161000Y72611000D01*
X17111750Y72611000D01*
X16953000Y72452250D01*
X15940000Y72452250D01*
X15940000Y72476250D01*
X15781250Y72635000D01*
X14732000Y72635000D01*
X14478000Y72635000D01*
X14458000Y72635000D01*
X14458000Y72889000D01*
X14478000Y72889000D01*
X14478000Y72909000D01*
X14732000Y72909000D01*
X14732000Y72889000D01*
X15781250Y72889000D01*
X15940000Y73047750D01*
X15940000Y73463309D01*
X15843327Y73696698D01*
X15688403Y73851623D01*
X15689586Y73852414D01*
X15884127Y74143564D01*
X15952440Y74486999D01*
X15952440Y74566283D01*
X16713718Y75327560D01*
X16901000Y75327560D01*
X16953000Y75337903D01*
X16953000Y73023750D01*
X17111750Y72865000D01*
X18161000Y72865000D01*
X18161000Y72885000D01*
X18415000Y72885000D01*
X18415000Y72865000D01*
X19464250Y72865000D01*
X19623000Y73023750D01*
X19623000Y75364309D01*
X19526327Y75597698D01*
X19398209Y75725817D01*
X19399157Y75727235D01*
X19448440Y75975000D01*
X19448440Y75985341D01*
X19605414Y75750414D01*
X19896564Y75555873D01*
X20239999Y75487560D01*
X20890001Y75487560D01*
X21006530Y75510739D01*
X20989843Y75485765D01*
X20940560Y75238000D01*
X20940560Y70238000D01*
X20989843Y69990235D01*
X21130191Y69780191D01*
X21340235Y69639843D01*
X21588000Y69590560D01*
X22988000Y69590560D01*
X23235765Y69639843D01*
X23445809Y69780191D01*
X23586157Y69990235D01*
X23635440Y70238000D01*
X23635440Y75238000D01*
X23586157Y75485765D01*
X23520211Y75584459D01*
X23549698Y75596673D01*
X23728327Y75775301D01*
X23825000Y76008690D01*
X23825000Y76549250D01*
X23666250Y76708000D01*
X22742000Y76708000D01*
X22742000Y76688000D01*
X22488000Y76688000D01*
X22488000Y76708000D01*
X22468000Y76708000D01*
X22468000Y76962000D01*
X22488000Y76962000D01*
X22488000Y78011250D01*
X22742000Y78011250D01*
X22742000Y76962000D01*
X23666250Y76962000D01*
X23825000Y77120750D01*
X23825000Y77661310D01*
X23728327Y77894699D01*
X23549698Y78073327D01*
X23316309Y78170000D01*
X22900750Y78170000D01*
X22742000Y78011250D01*
X22488000Y78011250D01*
X22329250Y78170000D01*
X21913691Y78170000D01*
X21680302Y78073327D01*
X21525377Y77918403D01*
X21524586Y77919586D01*
X21400000Y78002832D01*
X21400000Y78229289D01*
X21451431Y78280720D01*
X21609000Y78661126D01*
X21609000Y79072874D01*
X21451431Y79453280D01*
X21160280Y79744431D01*
X20779874Y79902000D01*
X20368126Y79902000D01*
X19987720Y79744431D01*
X19696569Y79453280D01*
X19539000Y79072874D01*
X19539000Y78661126D01*
X19696569Y78280720D01*
X19730001Y78247288D01*
X19730001Y78002832D01*
X19605414Y77919586D01*
X19438645Y77670000D01*
X19421587Y77670000D01*
X19399157Y77782765D01*
X19258809Y77992809D01*
X19179772Y78045620D01*
X19207016Y78182584D01*
X19258809Y78217191D01*
X19399157Y78427235D01*
X19448440Y78675000D01*
X19448440Y80235000D01*
X19399157Y80482765D01*
X19258809Y80692809D01*
X19048765Y80833157D01*
X18801000Y80882440D01*
X18151000Y80882440D01*
X18013369Y80855064D01*
X17977310Y80870000D01*
X17811750Y80870000D01*
X17653000Y80711250D01*
X17653000Y80632659D01*
X17552843Y80482765D01*
X17526000Y80347815D01*
X17499157Y80482765D01*
X17399000Y80632659D01*
X17399000Y80711250D01*
X17240250Y80870000D01*
X17074690Y80870000D01*
X17038631Y80855064D01*
X16901000Y80882440D01*
X16251000Y80882440D01*
X16003235Y80833157D01*
X15793191Y80692809D01*
X15652843Y80482765D01*
X15649110Y80464000D01*
X14089355Y80464000D01*
X13922586Y80713586D01*
X13631436Y80908127D01*
X13288001Y80976440D01*
X12637999Y80976440D01*
X12294564Y80908127D01*
X12003414Y80713586D01*
X12002623Y80712403D01*
X11847698Y80867327D01*
X11614309Y80964000D01*
X11198750Y80964000D01*
X11040000Y80805250D01*
X11040000Y79756000D01*
X11060000Y79756000D01*
X11060000Y79502000D01*
X11040000Y79502000D01*
X11040000Y78452750D01*
X11198750Y78294000D01*
X11614309Y78294000D01*
X11847698Y78390673D01*
X12002623Y78545597D01*
X12003414Y78544414D01*
X12294564Y78349873D01*
X12568962Y78295292D01*
X12374198Y78256551D01*
X12097998Y78072000D01*
X12052606Y78004065D01*
X11808928Y78105000D01*
X11051072Y78105000D01*
X10350904Y77814981D01*
X9815019Y77279096D01*
X9525000Y76578928D01*
X9525000Y76455546D01*
X9424275Y76606291D01*
X9411584Y76625285D01*
X9411583Y76625286D01*
X9365001Y76695001D01*
X9295286Y76741583D01*
X7836587Y78200280D01*
X7790001Y78270001D01*
X7513801Y78454552D01*
X7435440Y78470139D01*
X7435440Y78868000D01*
X7386157Y79115765D01*
X7245809Y79325809D01*
X7219707Y79343250D01*
X9703000Y79343250D01*
X9703000Y78802690D01*
X9799673Y78569301D01*
X9978302Y78390673D01*
X10211691Y78294000D01*
X10627250Y78294000D01*
X10786000Y78452750D01*
X10786000Y79502000D01*
X9861750Y79502000D01*
X9703000Y79343250D01*
X7219707Y79343250D01*
X7035765Y79466157D01*
X6788000Y79515440D01*
X4388000Y79515440D01*
X4140235Y79466157D01*
X3930191Y79325809D01*
X3789843Y79115765D01*
X3740560Y78868000D01*
X3740560Y76468000D01*
X3789843Y76220235D01*
X3930191Y76010191D01*
X4140235Y75869843D01*
X4388000Y75820560D01*
X4782547Y75820560D01*
X4548556Y75723638D01*
X4032362Y75207444D01*
X3753000Y74533004D01*
X3753000Y73802996D01*
X4032362Y73128556D01*
X4548556Y72612362D01*
X5005105Y72423253D01*
X4593565Y72252788D01*
X4470430Y71965175D01*
X5588000Y70847605D01*
X6705570Y71965175D01*
X6582435Y72252788D01*
X6153716Y72416138D01*
X6627444Y72612362D01*
X7143638Y73128556D01*
X7269743Y73433000D01*
X7814554Y73433000D01*
X8928560Y72318993D01*
X8928560Y71685999D01*
X8996873Y71342564D01*
X9191414Y71051414D01*
X9482564Y70856873D01*
X9825999Y70788560D01*
X10458994Y70788560D01*
X11337554Y69910000D01*
X10990404Y69910000D01*
X10178136Y69573547D01*
X9556453Y68951864D01*
X9220000Y68139596D01*
X9220000Y67260404D01*
X9556453Y66448136D01*
X10178136Y65826453D01*
X10990404Y65490000D01*
X11805803Y65490000D01*
X11805802Y63351994D01*
X11791404Y63279609D01*
X11805802Y63207225D01*
X11805802Y63207222D01*
X11848448Y62992827D01*
X12010897Y62749704D01*
X12072267Y62708698D01*
X13050012Y61730952D01*
X13050011Y60951047D01*
X11531797Y59432832D01*
X11470430Y59391828D01*
X11429426Y59330461D01*
X11429425Y59330460D01*
X11307980Y59148705D01*
X11250936Y58861923D01*
X11265335Y58789534D01*
X11265335Y58575936D01*
X11171294Y58513099D01*
X10782385Y58124190D01*
X10711577Y58018219D01*
X10605609Y57947413D01*
X10216700Y57558504D01*
X10157873Y57470463D01*
X10138034Y57462246D01*
X9959405Y57283618D01*
X10056321Y57380533D01*
X10056321Y57247756D01*
X10027069Y57100695D01*
X10050663Y56982080D01*
X10024182Y56987347D01*
X9645931Y57365598D01*
X9480373Y57613373D01*
X9274680Y57750813D01*
X9695055Y58171188D01*
X9777604Y58154768D01*
X10121039Y58223081D01*
X10412189Y58417622D01*
X10871810Y58877243D01*
X11066351Y59168393D01*
X11134664Y59511828D01*
X11134387Y59513223D01*
X11353482Y59513223D01*
X11586871Y59609896D01*
X11880716Y59903741D01*
X11880716Y60128247D01*
X11138784Y60870179D01*
X11124642Y60856036D01*
X10945037Y61035641D01*
X10959179Y61049784D01*
X11318389Y61049784D01*
X12060321Y60307852D01*
X12284827Y60307852D01*
X12578672Y60601697D01*
X12675345Y60835086D01*
X12675345Y61087705D01*
X12578673Y61321094D01*
X12400044Y61499722D01*
X12196439Y61703327D01*
X11971933Y61703327D01*
X11318389Y61049784D01*
X10959179Y61049784D01*
X10217247Y61791716D01*
X9992741Y61791716D01*
X9698896Y61497871D01*
X9602223Y61264482D01*
X9602223Y61045387D01*
X9600828Y61045664D01*
X9257393Y60977351D01*
X8966243Y60782810D01*
X8506622Y60323189D01*
X8312081Y60032039D01*
X8243768Y59688604D01*
X8312081Y59345169D01*
X8390276Y59228143D01*
X7855133Y58693000D01*
X7795126Y58693000D01*
X7467397Y58557250D01*
X7467397Y60643147D01*
X7475136Y60644686D01*
X7685180Y60785034D01*
X9095973Y62195827D01*
X10396852Y62195827D01*
X10396852Y61971321D01*
X11138784Y61229389D01*
X11792327Y61882933D01*
X11792327Y62107439D01*
X11588722Y62311044D01*
X11410094Y62489673D01*
X11176705Y62586345D01*
X10924086Y62586345D01*
X10690697Y62489672D01*
X10396852Y62195827D01*
X9095973Y62195827D01*
X10160054Y63259908D01*
X10300402Y63469952D01*
X10349685Y63717717D01*
X10300402Y63965482D01*
X10160054Y64175526D01*
X9311526Y65024054D01*
X9101482Y65164402D01*
X8853717Y65213685D01*
X8605952Y65164402D01*
X8395908Y65024054D01*
X8172934Y64801080D01*
X7324537Y65649478D01*
X7377232Y65914396D01*
X7308919Y66257831D01*
X7114378Y66548981D01*
X6477981Y67185378D01*
X6186831Y67379919D01*
X5843396Y67448232D01*
X5499961Y67379919D01*
X5208811Y67185378D01*
X4749190Y66725757D01*
X4554649Y66434607D01*
X4486336Y66091172D01*
X4486613Y66089777D01*
X4267518Y66089777D01*
X4034129Y65993104D01*
X3740284Y65699259D01*
X3740284Y65474753D01*
X4482216Y64732821D01*
X4496359Y64746963D01*
X4675964Y64567358D01*
X4661821Y64553216D01*
X5403753Y63811284D01*
X5628259Y63811284D01*
X5922104Y64105129D01*
X6018777Y64338518D01*
X6018777Y64557613D01*
X6020172Y64557336D01*
X6285090Y64610031D01*
X7133488Y63761634D01*
X5921034Y62549180D01*
X5780686Y62339136D01*
X5731403Y62091371D01*
X5780686Y61843606D01*
X5921034Y61633562D01*
X5989157Y61565439D01*
X5997397Y61524013D01*
X5997397Y60560007D01*
X5422438Y61134966D01*
X5212394Y61275314D01*
X4964629Y61324597D01*
X4716864Y61275314D01*
X4506820Y61134966D01*
X3802366Y60430512D01*
X2953969Y61278910D01*
X3006664Y61543828D01*
X3006387Y61545223D01*
X3225482Y61545223D01*
X3458871Y61641896D01*
X3752716Y61935741D01*
X3752716Y62160247D01*
X3010784Y62902179D01*
X2996642Y62888036D01*
X2817037Y63067641D01*
X2831179Y63081784D01*
X3190389Y63081784D01*
X3932321Y62339852D01*
X4156827Y62339852D01*
X4450672Y62633697D01*
X4547345Y62867086D01*
X4547345Y63016655D01*
X4696914Y63016655D01*
X4930303Y63113328D01*
X5224148Y63407173D01*
X5224148Y63631679D01*
X4482216Y64373611D01*
X3843933Y63735327D01*
X3190389Y63081784D01*
X2831179Y63081784D01*
X2089247Y63823716D01*
X1864741Y63823716D01*
X1570896Y63529871D01*
X1474223Y63296482D01*
X1474223Y63077387D01*
X1472828Y63077664D01*
X1129393Y63009351D01*
X838243Y62814810D01*
X735000Y62711567D01*
X735000Y64227827D01*
X2268852Y64227827D01*
X2268852Y64003321D01*
X3010784Y63261389D01*
X3649067Y63899673D01*
X4302611Y64553216D01*
X3560679Y65295148D01*
X3336173Y65295148D01*
X3042328Y65001303D01*
X2945655Y64767914D01*
X2945655Y64618345D01*
X2796086Y64618345D01*
X2562697Y64521672D01*
X2268852Y64227827D01*
X735000Y64227827D01*
X735000Y69370825D01*
X4470430Y69370825D01*
X4593565Y69083212D01*
X5275734Y68823293D01*
X6005443Y68844214D01*
X6582435Y69083212D01*
X6705570Y69370825D01*
X5588000Y70488395D01*
X4470430Y69370825D01*
X735000Y69370825D01*
X735000Y70980266D01*
X3743293Y70980266D01*
X3764214Y70250557D01*
X4003212Y69673565D01*
X4290825Y69550430D01*
X5408395Y70668000D01*
X5767605Y70668000D01*
X6885175Y69550430D01*
X7172788Y69673565D01*
X7432707Y70355734D01*
X7411786Y71085443D01*
X7172788Y71662435D01*
X6885175Y71785570D01*
X5767605Y70668000D01*
X5408395Y70668000D01*
X4290825Y71785570D01*
X4003212Y71662435D01*
X3743293Y70980266D01*
X735000Y70980266D01*
X735000Y80455310D01*
X9703000Y80455310D01*
X9703000Y79914750D01*
X9861750Y79756000D01*
X10786000Y79756000D01*
X10786000Y80805250D01*
X10627250Y80964000D01*
X10211691Y80964000D01*
X9978302Y80867327D01*
X9799673Y80688699D01*
X9703000Y80455310D01*
X735000Y80455310D01*
X735000Y81307000D01*
X24157000Y81307000D01*
X24157000Y43406614D01*
X24157000Y43406614D01*
G37*
X24157000Y43406614D02*
X24065801Y43467552D01*
X23822237Y43516000D01*
X23822233Y43516000D01*
X23740000Y43532357D01*
X23657767Y43516000D01*
X23519832Y43516000D01*
X23436586Y43640586D01*
X23145436Y43835127D01*
X22802001Y43903440D01*
X21901999Y43903440D01*
X21558564Y43835127D01*
X21267414Y43640586D01*
X21150759Y43466000D01*
X20083766Y43466000D01*
X20274044Y43656278D01*
X20452673Y43834906D01*
X20549345Y44068295D01*
X20549345Y44231731D01*
X20576086Y44220655D01*
X20828705Y44220655D01*
X21062094Y44317327D01*
X21240722Y44495956D01*
X21444327Y44699561D01*
X21444327Y44924067D01*
X20790784Y45577611D01*
X20061321Y44848148D01*
X19934321Y44848148D01*
X19192389Y44106216D01*
X19206532Y44092074D01*
X19026926Y43912468D01*
X19012784Y43926611D01*
X18998642Y43912468D01*
X18819037Y44092073D01*
X18833179Y44106216D01*
X18819037Y44120358D01*
X18998642Y44299963D01*
X19012784Y44285821D01*
X19742247Y45015284D01*
X19869247Y45015284D01*
X20611179Y45757216D01*
X20970389Y45757216D01*
X21623933Y45103673D01*
X21848439Y45103673D01*
X22052044Y45307278D01*
X22230673Y45485906D01*
X22327345Y45719295D01*
X22327345Y45971914D01*
X22230672Y46205303D01*
X21936827Y46499148D01*
X21712321Y46499148D01*
X20970389Y45757216D01*
X20611179Y45757216D01*
X20597037Y45771358D01*
X20776642Y45950963D01*
X20790784Y45936821D01*
X21532716Y46678753D01*
X21532716Y46903259D01*
X21238871Y47197104D01*
X21005482Y47293777D01*
X20786387Y47293777D01*
X20786664Y47295172D01*
X20718351Y47638607D01*
X20523810Y47929757D01*
X20064189Y48389378D01*
X19773039Y48583919D01*
X19429604Y48652232D01*
X19086169Y48583919D01*
X18920479Y48473208D01*
X18863920Y48484458D01*
X18786608Y48469080D01*
X17411078Y48469080D01*
X17137253Y48742904D01*
X17131986Y48769385D01*
X17250602Y48745791D01*
X17397668Y48775044D01*
X17530440Y48775044D01*
X17612153Y48856757D01*
X17620370Y48876594D01*
X17708411Y48935422D01*
X18029772Y49256782D01*
X18098089Y49188465D01*
X18139095Y49127095D01*
X18382217Y48964646D01*
X18596612Y48922000D01*
X18596616Y48922000D01*
X18669000Y48907602D01*
X18741384Y48922000D01*
X20362356Y48922000D01*
X20458569Y48689720D01*
X20749720Y48398569D01*
X21130126Y48241000D01*
X21541874Y48241000D01*
X21922280Y48398569D01*
X22213431Y48689720D01*
X22371000Y49070126D01*
X22371000Y49481874D01*
X22213431Y49862280D01*
X21922280Y50153431D01*
X21541874Y50311000D01*
X21299184Y50311000D01*
X21241783Y50349354D01*
X21027388Y50392000D01*
X21027384Y50392000D01*
X20955000Y50406398D01*
X20882616Y50392000D01*
X19164989Y50392000D01*
X19228691Y50455702D01*
X19369039Y50665746D01*
X19418322Y50913511D01*
X19369039Y51161276D01*
X19228691Y51371320D01*
X18289964Y52310047D01*
X19228691Y53248774D01*
X19369039Y53458818D01*
X19418322Y53706583D01*
X19369039Y53954348D01*
X19228691Y54164392D01*
X18839782Y54553301D01*
X18733811Y54624109D01*
X18663005Y54730077D01*
X18274096Y55118986D01*
X18168128Y55189792D01*
X18097320Y55295763D01*
X17708411Y55684672D01*
X17602442Y55755479D01*
X17531635Y55861448D01*
X17376120Y56016963D01*
X17982158Y56623000D01*
X18112874Y56623000D01*
X18493280Y56780569D01*
X18784431Y57071720D01*
X18942000Y57452126D01*
X18942000Y57685000D01*
X21136616Y57685000D01*
X21209000Y57670602D01*
X21281384Y57685000D01*
X21281388Y57685000D01*
X21495783Y57727646D01*
X21738905Y57890095D01*
X21779911Y57951465D01*
X22756538Y58928091D01*
X22817905Y58969095D01*
X22980354Y59212217D01*
X23023000Y59426612D01*
X23023000Y59426615D01*
X23037398Y59498999D01*
X23023000Y59571383D01*
X23023000Y59597522D01*
X23235765Y59639843D01*
X23445809Y59780191D01*
X23586157Y59990235D01*
X23635440Y60238000D01*
X23635440Y65238000D01*
X23586157Y65485765D01*
X23445809Y65695809D01*
X23235765Y65836157D01*
X22988000Y65885440D01*
X21588000Y65885440D01*
X21340235Y65836157D01*
X21130191Y65695809D01*
X20989843Y65485765D01*
X20940560Y65238000D01*
X20940560Y60238000D01*
X20989843Y59990235D01*
X21130191Y59780191D01*
X21340235Y59639843D01*
X21381240Y59631687D01*
X20904554Y59155000D01*
X18465447Y59155000D01*
X18009848Y59610598D01*
X18161000Y59761750D01*
X18161000Y62611000D01*
X18415000Y62611000D01*
X18415000Y59761750D01*
X18573750Y59603000D01*
X19114310Y59603000D01*
X19347699Y59699673D01*
X19526327Y59878302D01*
X19623000Y60111691D01*
X19623000Y62452250D01*
X19464250Y62611000D01*
X18415000Y62611000D01*
X18161000Y62611000D01*
X18141000Y62611000D01*
X18141000Y62865000D01*
X18161000Y62865000D01*
X18161000Y65714250D01*
X18415000Y65714250D01*
X18415000Y62865000D01*
X19464250Y62865000D01*
X19623000Y63023750D01*
X19623000Y65364309D01*
X19526327Y65597698D01*
X19347699Y65776327D01*
X19114310Y65873000D01*
X18573750Y65873000D01*
X18415000Y65714250D01*
X18161000Y65714250D01*
X18002250Y65873000D01*
X17461690Y65873000D01*
X17228301Y65776327D01*
X17049673Y65597698D01*
X16953000Y65364309D01*
X16953000Y64651447D01*
X16102911Y65501535D01*
X16061905Y65562905D01*
X16035123Y65580800D01*
X16011127Y65701436D01*
X15816586Y65992586D01*
X15525436Y66187127D01*
X15467000Y66198751D01*
X15467000Y66897249D01*
X15525436Y66908873D01*
X15816586Y67103414D01*
X16011127Y67394564D01*
X16079440Y67737999D01*
X16079440Y68388001D01*
X16011127Y68731436D01*
X15816586Y69022586D01*
X15718687Y69088000D01*
X15816586Y69153414D01*
X16011127Y69444564D01*
X16079440Y69787999D01*
X16079440Y70438001D01*
X16011127Y70781436D01*
X15816586Y71072586D01*
X15525436Y71267127D01*
X15182001Y71335440D01*
X14281999Y71335440D01*
X14198948Y71318920D01*
X13965868Y71552000D01*
X14319250Y71552000D01*
X14478000Y71710750D01*
X14478000Y72635000D01*
X14732000Y72635000D01*
X14732000Y71710750D01*
X14890750Y71552000D01*
X15431310Y71552000D01*
X15664699Y71648673D01*
X15843327Y71827302D01*
X15940000Y72060691D01*
X15940000Y72452250D01*
X16953000Y72452250D01*
X16953000Y70111691D01*
X17049673Y69878302D01*
X17228301Y69699673D01*
X17461690Y69603000D01*
X18002250Y69603000D01*
X18161000Y69761750D01*
X18161000Y72611000D01*
X18415000Y72611000D01*
X18415000Y69761750D01*
X18573750Y69603000D01*
X19114310Y69603000D01*
X19347699Y69699673D01*
X19526327Y69878302D01*
X19623000Y70111691D01*
X19623000Y72452250D01*
X19464250Y72611000D01*
X18415000Y72611000D01*
X18161000Y72611000D01*
X17111750Y72611000D01*
X16953000Y72452250D01*
X15940000Y72452250D01*
X15940000Y72476250D01*
X15781250Y72635000D01*
X14732000Y72635000D01*
X14478000Y72635000D01*
X14458000Y72635000D01*
X14458000Y72889000D01*
X14478000Y72889000D01*
X14478000Y72909000D01*
X14732000Y72909000D01*
X14732000Y72889000D01*
X15781250Y72889000D01*
X15940000Y73047750D01*
X15940000Y73463309D01*
X15843327Y73696698D01*
X15688403Y73851623D01*
X15689586Y73852414D01*
X15884127Y74143564D01*
X15952440Y74486999D01*
X15952440Y74566283D01*
X16713718Y75327560D01*
X16901000Y75327560D01*
X16953000Y75337903D01*
X16953000Y73023750D01*
X17111750Y72865000D01*
X18161000Y72865000D01*
X18161000Y72885000D01*
X18415000Y72885000D01*
X18415000Y72865000D01*
X19464250Y72865000D01*
X19623000Y73023750D01*
X19623000Y75364309D01*
X19526327Y75597698D01*
X19398209Y75725817D01*
X19399157Y75727235D01*
X19448440Y75975000D01*
X19448440Y75985341D01*
X19605414Y75750414D01*
X19896564Y75555873D01*
X20239999Y75487560D01*
X20890001Y75487560D01*
X21006530Y75510739D01*
X20989843Y75485765D01*
X20940560Y75238000D01*
X20940560Y70238000D01*
X20989843Y69990235D01*
X21130191Y69780191D01*
X21340235Y69639843D01*
X21588000Y69590560D01*
X22988000Y69590560D01*
X23235765Y69639843D01*
X23445809Y69780191D01*
X23586157Y69990235D01*
X23635440Y70238000D01*
X23635440Y75238000D01*
X23586157Y75485765D01*
X23520211Y75584459D01*
X23549698Y75596673D01*
X23728327Y75775301D01*
X23825000Y76008690D01*
X23825000Y76549250D01*
X23666250Y76708000D01*
X22742000Y76708000D01*
X22742000Y76688000D01*
X22488000Y76688000D01*
X22488000Y76708000D01*
X22468000Y76708000D01*
X22468000Y76962000D01*
X22488000Y76962000D01*
X22488000Y78011250D01*
X22742000Y78011250D01*
X22742000Y76962000D01*
X23666250Y76962000D01*
X23825000Y77120750D01*
X23825000Y77661310D01*
X23728327Y77894699D01*
X23549698Y78073327D01*
X23316309Y78170000D01*
X22900750Y78170000D01*
X22742000Y78011250D01*
X22488000Y78011250D01*
X22329250Y78170000D01*
X21913691Y78170000D01*
X21680302Y78073327D01*
X21525377Y77918403D01*
X21524586Y77919586D01*
X21400000Y78002832D01*
X21400000Y78229289D01*
X21451431Y78280720D01*
X21609000Y78661126D01*
X21609000Y79072874D01*
X21451431Y79453280D01*
X21160280Y79744431D01*
X20779874Y79902000D01*
X20368126Y79902000D01*
X19987720Y79744431D01*
X19696569Y79453280D01*
X19539000Y79072874D01*
X19539000Y78661126D01*
X19696569Y78280720D01*
X19730001Y78247288D01*
X19730001Y78002832D01*
X19605414Y77919586D01*
X19438645Y77670000D01*
X19421587Y77670000D01*
X19399157Y77782765D01*
X19258809Y77992809D01*
X19179772Y78045620D01*
X19207016Y78182584D01*
X19258809Y78217191D01*
X19399157Y78427235D01*
X19448440Y78675000D01*
X19448440Y80235000D01*
X19399157Y80482765D01*
X19258809Y80692809D01*
X19048765Y80833157D01*
X18801000Y80882440D01*
X18151000Y80882440D01*
X18013369Y80855064D01*
X17977310Y80870000D01*
X17811750Y80870000D01*
X17653000Y80711250D01*
X17653000Y80632659D01*
X17552843Y80482765D01*
X17526000Y80347815D01*
X17499157Y80482765D01*
X17399000Y80632659D01*
X17399000Y80711250D01*
X17240250Y80870000D01*
X17074690Y80870000D01*
X17038631Y80855064D01*
X16901000Y80882440D01*
X16251000Y80882440D01*
X16003235Y80833157D01*
X15793191Y80692809D01*
X15652843Y80482765D01*
X15649110Y80464000D01*
X14089355Y80464000D01*
X13922586Y80713586D01*
X13631436Y80908127D01*
X13288001Y80976440D01*
X12637999Y80976440D01*
X12294564Y80908127D01*
X12003414Y80713586D01*
X12002623Y80712403D01*
X11847698Y80867327D01*
X11614309Y80964000D01*
X11198750Y80964000D01*
X11040000Y80805250D01*
X11040000Y79756000D01*
X11060000Y79756000D01*
X11060000Y79502000D01*
X11040000Y79502000D01*
X11040000Y78452750D01*
X11198750Y78294000D01*
X11614309Y78294000D01*
X11847698Y78390673D01*
X12002623Y78545597D01*
X12003414Y78544414D01*
X12294564Y78349873D01*
X12568962Y78295292D01*
X12374198Y78256551D01*
X12097998Y78072000D01*
X12052606Y78004065D01*
X11808928Y78105000D01*
X11051072Y78105000D01*
X10350904Y77814981D01*
X9815019Y77279096D01*
X9525000Y76578928D01*
X9525000Y76455546D01*
X9424275Y76606291D01*
X9411584Y76625285D01*
X9411583Y76625286D01*
X9365001Y76695001D01*
X9295286Y76741583D01*
X7836587Y78200280D01*
X7790001Y78270001D01*
X7513801Y78454552D01*
X7435440Y78470139D01*
X7435440Y78868000D01*
X7386157Y79115765D01*
X7245809Y79325809D01*
X7219707Y79343250D01*
X9703000Y79343250D01*
X9703000Y78802690D01*
X9799673Y78569301D01*
X9978302Y78390673D01*
X10211691Y78294000D01*
X10627250Y78294000D01*
X10786000Y78452750D01*
X10786000Y79502000D01*
X9861750Y79502000D01*
X9703000Y79343250D01*
X7219707Y79343250D01*
X7035765Y79466157D01*
X6788000Y79515440D01*
X4388000Y79515440D01*
X4140235Y79466157D01*
X3930191Y79325809D01*
X3789843Y79115765D01*
X3740560Y78868000D01*
X3740560Y76468000D01*
X3789843Y76220235D01*
X3930191Y76010191D01*
X4140235Y75869843D01*
X4388000Y75820560D01*
X4782547Y75820560D01*
X4548556Y75723638D01*
X4032362Y75207444D01*
X3753000Y74533004D01*
X3753000Y73802996D01*
X4032362Y73128556D01*
X4548556Y72612362D01*
X5005105Y72423253D01*
X4593565Y72252788D01*
X4470430Y71965175D01*
X5588000Y70847605D01*
X6705570Y71965175D01*
X6582435Y72252788D01*
X6153716Y72416138D01*
X6627444Y72612362D01*
X7143638Y73128556D01*
X7269743Y73433000D01*
X7814554Y73433000D01*
X8928560Y72318993D01*
X8928560Y71685999D01*
X8996873Y71342564D01*
X9191414Y71051414D01*
X9482564Y70856873D01*
X9825999Y70788560D01*
X10458994Y70788560D01*
X11337554Y69910000D01*
X10990404Y69910000D01*
X10178136Y69573547D01*
X9556453Y68951864D01*
X9220000Y68139596D01*
X9220000Y67260404D01*
X9556453Y66448136D01*
X10178136Y65826453D01*
X10990404Y65490000D01*
X11805803Y65490000D01*
X11805802Y63351994D01*
X11791404Y63279609D01*
X11805802Y63207225D01*
X11805802Y63207222D01*
X11848448Y62992827D01*
X12010897Y62749704D01*
X12072267Y62708698D01*
X13050012Y61730952D01*
X13050011Y60951047D01*
X11531797Y59432832D01*
X11470430Y59391828D01*
X11429426Y59330461D01*
X11429425Y59330460D01*
X11307980Y59148705D01*
X11250936Y58861923D01*
X11265335Y58789534D01*
X11265335Y58575936D01*
X11171294Y58513099D01*
X10782385Y58124190D01*
X10711577Y58018219D01*
X10605609Y57947413D01*
X10216700Y57558504D01*
X10157873Y57470463D01*
X10138034Y57462246D01*
X9959405Y57283618D01*
X10056321Y57380533D01*
X10056321Y57247756D01*
X10027069Y57100695D01*
X10050663Y56982080D01*
X10024182Y56987347D01*
X9645931Y57365598D01*
X9480373Y57613373D01*
X9274680Y57750813D01*
X9695055Y58171188D01*
X9777604Y58154768D01*
X10121039Y58223081D01*
X10412189Y58417622D01*
X10871810Y58877243D01*
X11066351Y59168393D01*
X11134664Y59511828D01*
X11134387Y59513223D01*
X11353482Y59513223D01*
X11586871Y59609896D01*
X11880716Y59903741D01*
X11880716Y60128247D01*
X11138784Y60870179D01*
X11124642Y60856036D01*
X10945037Y61035641D01*
X10959179Y61049784D01*
X11318389Y61049784D01*
X12060321Y60307852D01*
X12284827Y60307852D01*
X12578672Y60601697D01*
X12675345Y60835086D01*
X12675345Y61087705D01*
X12578673Y61321094D01*
X12400044Y61499722D01*
X12196439Y61703327D01*
X11971933Y61703327D01*
X11318389Y61049784D01*
X10959179Y61049784D01*
X10217247Y61791716D01*
X9992741Y61791716D01*
X9698896Y61497871D01*
X9602223Y61264482D01*
X9602223Y61045387D01*
X9600828Y61045664D01*
X9257393Y60977351D01*
X8966243Y60782810D01*
X8506622Y60323189D01*
X8312081Y60032039D01*
X8243768Y59688604D01*
X8312081Y59345169D01*
X8390276Y59228143D01*
X7855133Y58693000D01*
X7795126Y58693000D01*
X7467397Y58557250D01*
X7467397Y60643147D01*
X7475136Y60644686D01*
X7685180Y60785034D01*
X9095973Y62195827D01*
X10396852Y62195827D01*
X10396852Y61971321D01*
X11138784Y61229389D01*
X11792327Y61882933D01*
X11792327Y62107439D01*
X11588722Y62311044D01*
X11410094Y62489673D01*
X11176705Y62586345D01*
X10924086Y62586345D01*
X10690697Y62489672D01*
X10396852Y62195827D01*
X9095973Y62195827D01*
X10160054Y63259908D01*
X10300402Y63469952D01*
X10349685Y63717717D01*
X10300402Y63965482D01*
X10160054Y64175526D01*
X9311526Y65024054D01*
X9101482Y65164402D01*
X8853717Y65213685D01*
X8605952Y65164402D01*
X8395908Y65024054D01*
X8172934Y64801080D01*
X7324537Y65649478D01*
X7377232Y65914396D01*
X7308919Y66257831D01*
X7114378Y66548981D01*
X6477981Y67185378D01*
X6186831Y67379919D01*
X5843396Y67448232D01*
X5499961Y67379919D01*
X5208811Y67185378D01*
X4749190Y66725757D01*
X4554649Y66434607D01*
X4486336Y66091172D01*
X4486613Y66089777D01*
X4267518Y66089777D01*
X4034129Y65993104D01*
X3740284Y65699259D01*
X3740284Y65474753D01*
X4482216Y64732821D01*
X4496359Y64746963D01*
X4675964Y64567358D01*
X4661821Y64553216D01*
X5403753Y63811284D01*
X5628259Y63811284D01*
X5922104Y64105129D01*
X6018777Y64338518D01*
X6018777Y64557613D01*
X6020172Y64557336D01*
X6285090Y64610031D01*
X7133488Y63761634D01*
X5921034Y62549180D01*
X5780686Y62339136D01*
X5731403Y62091371D01*
X5780686Y61843606D01*
X5921034Y61633562D01*
X5989157Y61565439D01*
X5997397Y61524013D01*
X5997397Y60560007D01*
X5422438Y61134966D01*
X5212394Y61275314D01*
X4964629Y61324597D01*
X4716864Y61275314D01*
X4506820Y61134966D01*
X3802366Y60430512D01*
X2953969Y61278910D01*
X3006664Y61543828D01*
X3006387Y61545223D01*
X3225482Y61545223D01*
X3458871Y61641896D01*
X3752716Y61935741D01*
X3752716Y62160247D01*
X3010784Y62902179D01*
X2996642Y62888036D01*
X2817037Y63067641D01*
X2831179Y63081784D01*
X3190389Y63081784D01*
X3932321Y62339852D01*
X4156827Y62339852D01*
X4450672Y62633697D01*
X4547345Y62867086D01*
X4547345Y63016655D01*
X4696914Y63016655D01*
X4930303Y63113328D01*
X5224148Y63407173D01*
X5224148Y63631679D01*
X4482216Y64373611D01*
X3843933Y63735327D01*
X3190389Y63081784D01*
X2831179Y63081784D01*
X2089247Y63823716D01*
X1864741Y63823716D01*
X1570896Y63529871D01*
X1474223Y63296482D01*
X1474223Y63077387D01*
X1472828Y63077664D01*
X1129393Y63009351D01*
X838243Y62814810D01*
X735000Y62711567D01*
X735000Y64227827D01*
X2268852Y64227827D01*
X2268852Y64003321D01*
X3010784Y63261389D01*
X3649067Y63899673D01*
X4302611Y64553216D01*
X3560679Y65295148D01*
X3336173Y65295148D01*
X3042328Y65001303D01*
X2945655Y64767914D01*
X2945655Y64618345D01*
X2796086Y64618345D01*
X2562697Y64521672D01*
X2268852Y64227827D01*
X735000Y64227827D01*
X735000Y69370825D01*
X4470430Y69370825D01*
X4593565Y69083212D01*
X5275734Y68823293D01*
X6005443Y68844214D01*
X6582435Y69083212D01*
X6705570Y69370825D01*
X5588000Y70488395D01*
X4470430Y69370825D01*
X735000Y69370825D01*
X735000Y70980266D01*
X3743293Y70980266D01*
X3764214Y70250557D01*
X4003212Y69673565D01*
X4290825Y69550430D01*
X5408395Y70668000D01*
X5767605Y70668000D01*
X6885175Y69550430D01*
X7172788Y69673565D01*
X7432707Y70355734D01*
X7411786Y71085443D01*
X7172788Y71662435D01*
X6885175Y71785570D01*
X5767605Y70668000D01*
X5408395Y70668000D01*
X4290825Y71785570D01*
X4003212Y71662435D01*
X3743293Y70980266D01*
X735000Y70980266D01*
X735000Y80455310D01*
X9703000Y80455310D01*
X9703000Y79914750D01*
X9861750Y79756000D01*
X10786000Y79756000D01*
X10786000Y80805250D01*
X10627250Y80964000D01*
X10211691Y80964000D01*
X9978302Y80867327D01*
X9799673Y80688699D01*
X9703000Y80455310D01*
X735000Y80455310D01*
X735000Y81307000D01*
X24157000Y81307000D01*
X24157000Y43406614D01*
G36*
X13221904Y56077201D02*
X13235845Y56067886D01*
X13245234Y56020684D01*
X13245235Y55305682D01*
X11425554Y53486000D01*
X11224126Y53486000D01*
X10843720Y53328431D01*
X10552569Y53037280D01*
X10395000Y52656874D01*
X10395000Y52245126D01*
X10552569Y51864720D01*
X10843720Y51573569D01*
X10961541Y51524766D01*
X9880685Y51524766D01*
X9833487Y51534154D01*
X9824171Y51548097D01*
X9435262Y51937006D01*
X9329291Y52007814D01*
X9258485Y52113782D01*
X9062220Y52310047D01*
X9258485Y52506312D01*
X9329291Y52612280D01*
X9435262Y52683088D01*
X9824171Y53071997D01*
X9894979Y53177968D01*
X10000947Y53248774D01*
X10389856Y53637683D01*
X10448684Y53725724D01*
X10468521Y53733941D01*
X10550234Y53815654D01*
X10550234Y53948426D01*
X10579487Y54095492D01*
X10555893Y54214108D01*
X10674509Y54190514D01*
X10821570Y54219766D01*
X10954346Y54219766D01*
X11036059Y54301479D01*
X11044276Y54321317D01*
X11132318Y54380145D01*
X11521227Y54769054D01*
X11580055Y54857095D01*
X11599892Y54865312D01*
X11681605Y54947025D01*
X11681605Y55079797D01*
X11710858Y55226863D01*
X11687264Y55345478D01*
X11805880Y55321884D01*
X11952946Y55351137D01*
X12085717Y55351137D01*
X12167430Y55432850D01*
X12175647Y55452686D01*
X12263689Y55511515D01*
X12652598Y55900424D01*
X12723406Y56006395D01*
X12829374Y56077201D01*
X13025639Y56273466D01*
X13221904Y56077201D01*
X13221904Y56077201D01*
G37*
X13221904Y56077201D02*
X13235845Y56067886D01*
X13245234Y56020684D01*
X13245235Y55305682D01*
X11425554Y53486000D01*
X11224126Y53486000D01*
X10843720Y53328431D01*
X10552569Y53037280D01*
X10395000Y52656874D01*
X10395000Y52245126D01*
X10552569Y51864720D01*
X10843720Y51573569D01*
X10961541Y51524766D01*
X9880685Y51524766D01*
X9833487Y51534154D01*
X9824171Y51548097D01*
X9435262Y51937006D01*
X9329291Y52007814D01*
X9258485Y52113782D01*
X9062220Y52310047D01*
X9258485Y52506312D01*
X9329291Y52612280D01*
X9435262Y52683088D01*
X9824171Y53071997D01*
X9894979Y53177968D01*
X10000947Y53248774D01*
X10389856Y53637683D01*
X10448684Y53725724D01*
X10468521Y53733941D01*
X10550234Y53815654D01*
X10550234Y53948426D01*
X10579487Y54095492D01*
X10555893Y54214108D01*
X10674509Y54190514D01*
X10821570Y54219766D01*
X10954346Y54219766D01*
X11036059Y54301479D01*
X11044276Y54321317D01*
X11132318Y54380145D01*
X11521227Y54769054D01*
X11580055Y54857095D01*
X11599892Y54865312D01*
X11681605Y54947025D01*
X11681605Y55079797D01*
X11710858Y55226863D01*
X11687264Y55345478D01*
X11805880Y55321884D01*
X11952946Y55351137D01*
X12085717Y55351137D01*
X12167430Y55432850D01*
X12175647Y55452686D01*
X12263689Y55511515D01*
X12652598Y55900424D01*
X12723406Y56006395D01*
X12829374Y56077201D01*
X13025639Y56273466D01*
X13221904Y56077201D01*
G04 #@! TD*
M02*
