G04 #@! TF.GenerationSoftware,KiCad,Pcbnew,(5.0.0)*
G04 #@! TF.CreationDate,2018-08-10T19:45:38+02:00*
G04 #@! TF.ProjectId,main,6D61696E2E6B696361645F7063620000,rev?*
G04 #@! TF.SameCoordinates,PX7b89fa0PY82ce540*
G04 #@! TF.FileFunction,Soldermask,Top*
G04 #@! TF.FilePolarity,Negative*
%FSLAX46Y46*%
G04 Gerber Fmt 4.6, Leading zero omitted, Abs format (unit mm)*
G04 Created by KiCad (PCBNEW (5.0.0)) date 08/10/18 19:45:38*
%MOMM*%
%LPD*%
G01*
G04 APERTURE LIST*
%ADD10R,1.050000X1.960000*%
%ADD11C,0.100000*%
%ADD12C,1.550000*%
%ADD13R,5.480000X2.690000*%
%ADD14R,5.480000X2.820000*%
%ADD15R,2.100000X2.100000*%
%ADD16O,2.100000X2.100000*%
%ADD17C,1.600000*%
%ADD18R,2.700000X2.900000*%
%ADD19C,0.500000*%
%ADD20R,1.900000X1.400000*%
%ADD21C,2.940000*%
%ADD22C,3.550000*%
%ADD23R,1.800000X5.400000*%
%ADD24C,0.950000*%
%ADD25R,1.950000X1.000000*%
%ADD26R,2.400000X1.050000*%
%ADD27R,1.400000X2.400000*%
%ADD28R,2.800000X2.800000*%
%ADD29C,2.800000*%
%ADD30C,1.400000*%
G04 APERTURE END LIST*
D10*
G04 #@! TO.C,U4*
X18476000Y79455000D03*
X17526000Y79455000D03*
X16576000Y79455000D03*
X16576000Y76755000D03*
X18476000Y76755000D03*
G04 #@! TD*
D11*
G04 #@! TO.C,C1*
G36*
X15328071Y65806377D02*
X15360781Y65801525D01*
X15392857Y65793491D01*
X15423991Y65782351D01*
X15453884Y65768213D01*
X15482247Y65751213D01*
X15508807Y65731515D01*
X15533308Y65709308D01*
X15555515Y65684807D01*
X15575213Y65658247D01*
X15592213Y65629884D01*
X15606351Y65599991D01*
X15617491Y65568857D01*
X15625525Y65536781D01*
X15630377Y65504071D01*
X15632000Y65471044D01*
X15632000Y64594956D01*
X15630377Y64561929D01*
X15625525Y64529219D01*
X15617491Y64497143D01*
X15606351Y64466009D01*
X15592213Y64436116D01*
X15575213Y64407753D01*
X15555515Y64381193D01*
X15533308Y64356692D01*
X15508807Y64334485D01*
X15482247Y64314787D01*
X15453884Y64297787D01*
X15423991Y64283649D01*
X15392857Y64272509D01*
X15360781Y64264475D01*
X15328071Y64259623D01*
X15295044Y64258000D01*
X14168956Y64258000D01*
X14135929Y64259623D01*
X14103219Y64264475D01*
X14071143Y64272509D01*
X14040009Y64283649D01*
X14010116Y64297787D01*
X13981753Y64314787D01*
X13955193Y64334485D01*
X13930692Y64356692D01*
X13908485Y64381193D01*
X13888787Y64407753D01*
X13871787Y64436116D01*
X13857649Y64466009D01*
X13846509Y64497143D01*
X13838475Y64529219D01*
X13833623Y64561929D01*
X13832000Y64594956D01*
X13832000Y65471044D01*
X13833623Y65504071D01*
X13838475Y65536781D01*
X13846509Y65568857D01*
X13857649Y65599991D01*
X13871787Y65629884D01*
X13888787Y65658247D01*
X13908485Y65684807D01*
X13930692Y65709308D01*
X13955193Y65731515D01*
X13981753Y65751213D01*
X14010116Y65768213D01*
X14040009Y65782351D01*
X14071143Y65793491D01*
X14103219Y65801525D01*
X14135929Y65806377D01*
X14168956Y65808000D01*
X15295044Y65808000D01*
X15328071Y65806377D01*
X15328071Y65806377D01*
G37*
D12*
X14732000Y65033000D03*
D11*
G36*
X15328071Y63756377D02*
X15360781Y63751525D01*
X15392857Y63743491D01*
X15423991Y63732351D01*
X15453884Y63718213D01*
X15482247Y63701213D01*
X15508807Y63681515D01*
X15533308Y63659308D01*
X15555515Y63634807D01*
X15575213Y63608247D01*
X15592213Y63579884D01*
X15606351Y63549991D01*
X15617491Y63518857D01*
X15625525Y63486781D01*
X15630377Y63454071D01*
X15632000Y63421044D01*
X15632000Y62544956D01*
X15630377Y62511929D01*
X15625525Y62479219D01*
X15617491Y62447143D01*
X15606351Y62416009D01*
X15592213Y62386116D01*
X15575213Y62357753D01*
X15555515Y62331193D01*
X15533308Y62306692D01*
X15508807Y62284485D01*
X15482247Y62264787D01*
X15453884Y62247787D01*
X15423991Y62233649D01*
X15392857Y62222509D01*
X15360781Y62214475D01*
X15328071Y62209623D01*
X15295044Y62208000D01*
X14168956Y62208000D01*
X14135929Y62209623D01*
X14103219Y62214475D01*
X14071143Y62222509D01*
X14040009Y62233649D01*
X14010116Y62247787D01*
X13981753Y62264787D01*
X13955193Y62284485D01*
X13930692Y62306692D01*
X13908485Y62331193D01*
X13888787Y62357753D01*
X13871787Y62386116D01*
X13857649Y62416009D01*
X13846509Y62447143D01*
X13838475Y62479219D01*
X13833623Y62511929D01*
X13832000Y62544956D01*
X13832000Y63421044D01*
X13833623Y63454071D01*
X13838475Y63486781D01*
X13846509Y63518857D01*
X13857649Y63549991D01*
X13871787Y63579884D01*
X13888787Y63608247D01*
X13908485Y63634807D01*
X13930692Y63659308D01*
X13955193Y63681515D01*
X13981753Y63701213D01*
X14010116Y63718213D01*
X14040009Y63732351D01*
X14071143Y63743491D01*
X14103219Y63751525D01*
X14135929Y63756377D01*
X14168956Y63758000D01*
X15295044Y63758000D01*
X15328071Y63756377D01*
X15328071Y63756377D01*
G37*
D12*
X14732000Y62983000D03*
G04 #@! TD*
D11*
G04 #@! TO.C,C2*
G36*
X11083423Y62092993D02*
X11116133Y62088141D01*
X11148209Y62080107D01*
X11179343Y62068967D01*
X11209236Y62054829D01*
X11237599Y62037829D01*
X11264159Y62018131D01*
X11288660Y61995924D01*
X12084924Y61199660D01*
X12107131Y61175159D01*
X12126829Y61148599D01*
X12143829Y61120236D01*
X12157967Y61090343D01*
X12169107Y61059209D01*
X12177141Y61027133D01*
X12181993Y60994423D01*
X12183616Y60961396D01*
X12181993Y60928369D01*
X12177141Y60895659D01*
X12169107Y60863583D01*
X12157967Y60832449D01*
X12143829Y60802556D01*
X12126829Y60774193D01*
X12107131Y60747633D01*
X12084924Y60723132D01*
X11465436Y60103644D01*
X11440935Y60081437D01*
X11414375Y60061739D01*
X11386012Y60044739D01*
X11356119Y60030601D01*
X11324985Y60019461D01*
X11292909Y60011427D01*
X11260199Y60006575D01*
X11227172Y60004952D01*
X11194145Y60006575D01*
X11161435Y60011427D01*
X11129359Y60019461D01*
X11098225Y60030601D01*
X11068332Y60044739D01*
X11039969Y60061739D01*
X11013409Y60081437D01*
X10988908Y60103644D01*
X10192644Y60899908D01*
X10170437Y60924409D01*
X10150739Y60950969D01*
X10133739Y60979332D01*
X10119601Y61009225D01*
X10108461Y61040359D01*
X10100427Y61072435D01*
X10095575Y61105145D01*
X10093952Y61138172D01*
X10095575Y61171199D01*
X10100427Y61203909D01*
X10108461Y61235985D01*
X10119601Y61267119D01*
X10133739Y61297012D01*
X10150739Y61325375D01*
X10170437Y61351935D01*
X10192644Y61376436D01*
X10812132Y61995924D01*
X10836633Y62018131D01*
X10863193Y62037829D01*
X10891556Y62054829D01*
X10921449Y62068967D01*
X10952583Y62080107D01*
X10984659Y62088141D01*
X11017369Y62092993D01*
X11050396Y62094616D01*
X11083423Y62092993D01*
X11083423Y62092993D01*
G37*
D12*
X11138784Y61049784D03*
D11*
G36*
X9633855Y60643425D02*
X9666565Y60638573D01*
X9698641Y60630539D01*
X9729775Y60619399D01*
X9759668Y60605261D01*
X9788031Y60588261D01*
X9814591Y60568563D01*
X9839092Y60546356D01*
X10635356Y59750092D01*
X10657563Y59725591D01*
X10677261Y59699031D01*
X10694261Y59670668D01*
X10708399Y59640775D01*
X10719539Y59609641D01*
X10727573Y59577565D01*
X10732425Y59544855D01*
X10734048Y59511828D01*
X10732425Y59478801D01*
X10727573Y59446091D01*
X10719539Y59414015D01*
X10708399Y59382881D01*
X10694261Y59352988D01*
X10677261Y59324625D01*
X10657563Y59298065D01*
X10635356Y59273564D01*
X10015868Y58654076D01*
X9991367Y58631869D01*
X9964807Y58612171D01*
X9936444Y58595171D01*
X9906551Y58581033D01*
X9875417Y58569893D01*
X9843341Y58561859D01*
X9810631Y58557007D01*
X9777604Y58555384D01*
X9744577Y58557007D01*
X9711867Y58561859D01*
X9679791Y58569893D01*
X9648657Y58581033D01*
X9618764Y58595171D01*
X9590401Y58612171D01*
X9563841Y58631869D01*
X9539340Y58654076D01*
X8743076Y59450340D01*
X8720869Y59474841D01*
X8701171Y59501401D01*
X8684171Y59529764D01*
X8670033Y59559657D01*
X8658893Y59590791D01*
X8650859Y59622867D01*
X8646007Y59655577D01*
X8644384Y59688604D01*
X8646007Y59721631D01*
X8650859Y59754341D01*
X8658893Y59786417D01*
X8670033Y59817551D01*
X8684171Y59847444D01*
X8701171Y59875807D01*
X8720869Y59902367D01*
X8743076Y59926868D01*
X9362564Y60546356D01*
X9387065Y60568563D01*
X9413625Y60588261D01*
X9441988Y60605261D01*
X9471881Y60619399D01*
X9503015Y60630539D01*
X9535091Y60638573D01*
X9567801Y60643425D01*
X9600828Y60645048D01*
X9633855Y60643425D01*
X9633855Y60643425D01*
G37*
D12*
X9689216Y59600216D03*
G04 #@! TD*
D11*
G04 #@! TO.C,C3*
G36*
X19462631Y48249993D02*
X19495341Y48245141D01*
X19527417Y48237107D01*
X19558551Y48225967D01*
X19588444Y48211829D01*
X19616807Y48194829D01*
X19643367Y48175131D01*
X19667868Y48152924D01*
X20287356Y47533436D01*
X20309563Y47508935D01*
X20329261Y47482375D01*
X20346261Y47454012D01*
X20360399Y47424119D01*
X20371539Y47392985D01*
X20379573Y47360909D01*
X20384425Y47328199D01*
X20386048Y47295172D01*
X20384425Y47262145D01*
X20379573Y47229435D01*
X20371539Y47197359D01*
X20360399Y47166225D01*
X20346261Y47136332D01*
X20329261Y47107969D01*
X20309563Y47081409D01*
X20287356Y47056908D01*
X19491092Y46260644D01*
X19466591Y46238437D01*
X19440031Y46218739D01*
X19411668Y46201739D01*
X19381775Y46187601D01*
X19350641Y46176461D01*
X19318565Y46168427D01*
X19285855Y46163575D01*
X19252828Y46161952D01*
X19219801Y46163575D01*
X19187091Y46168427D01*
X19155015Y46176461D01*
X19123881Y46187601D01*
X19093988Y46201739D01*
X19065625Y46218739D01*
X19039065Y46238437D01*
X19014564Y46260644D01*
X18395076Y46880132D01*
X18372869Y46904633D01*
X18353171Y46931193D01*
X18336171Y46959556D01*
X18322033Y46989449D01*
X18310893Y47020583D01*
X18302859Y47052659D01*
X18298007Y47085369D01*
X18296384Y47118396D01*
X18298007Y47151423D01*
X18302859Y47184133D01*
X18310893Y47216209D01*
X18322033Y47247343D01*
X18336171Y47277236D01*
X18353171Y47305599D01*
X18372869Y47332159D01*
X18395076Y47356660D01*
X19191340Y48152924D01*
X19215841Y48175131D01*
X19242401Y48194829D01*
X19270764Y48211829D01*
X19300657Y48225967D01*
X19331791Y48237107D01*
X19363867Y48245141D01*
X19396577Y48249993D01*
X19429604Y48251616D01*
X19462631Y48249993D01*
X19462631Y48249993D01*
G37*
D12*
X19341216Y47206784D03*
D11*
G36*
X20912199Y46800425D02*
X20944909Y46795573D01*
X20976985Y46787539D01*
X21008119Y46776399D01*
X21038012Y46762261D01*
X21066375Y46745261D01*
X21092935Y46725563D01*
X21117436Y46703356D01*
X21736924Y46083868D01*
X21759131Y46059367D01*
X21778829Y46032807D01*
X21795829Y46004444D01*
X21809967Y45974551D01*
X21821107Y45943417D01*
X21829141Y45911341D01*
X21833993Y45878631D01*
X21835616Y45845604D01*
X21833993Y45812577D01*
X21829141Y45779867D01*
X21821107Y45747791D01*
X21809967Y45716657D01*
X21795829Y45686764D01*
X21778829Y45658401D01*
X21759131Y45631841D01*
X21736924Y45607340D01*
X20940660Y44811076D01*
X20916159Y44788869D01*
X20889599Y44769171D01*
X20861236Y44752171D01*
X20831343Y44738033D01*
X20800209Y44726893D01*
X20768133Y44718859D01*
X20735423Y44714007D01*
X20702396Y44712384D01*
X20669369Y44714007D01*
X20636659Y44718859D01*
X20604583Y44726893D01*
X20573449Y44738033D01*
X20543556Y44752171D01*
X20515193Y44769171D01*
X20488633Y44788869D01*
X20464132Y44811076D01*
X19844644Y45430564D01*
X19822437Y45455065D01*
X19802739Y45481625D01*
X19785739Y45509988D01*
X19771601Y45539881D01*
X19760461Y45571015D01*
X19752427Y45603091D01*
X19747575Y45635801D01*
X19745952Y45668828D01*
X19747575Y45701855D01*
X19752427Y45734565D01*
X19760461Y45766641D01*
X19771601Y45797775D01*
X19785739Y45827668D01*
X19802739Y45856031D01*
X19822437Y45882591D01*
X19844644Y45907092D01*
X20640908Y46703356D01*
X20665409Y46725563D01*
X20691969Y46745261D01*
X20720332Y46762261D01*
X20750225Y46776399D01*
X20781359Y46787539D01*
X20813435Y46795573D01*
X20846145Y46800425D01*
X20879172Y46802048D01*
X20912199Y46800425D01*
X20912199Y46800425D01*
G37*
D12*
X20790784Y45757216D03*
G04 #@! TD*
D11*
G04 #@! TO.C,C4*
G36*
X19134199Y45149425D02*
X19166909Y45144573D01*
X19198985Y45136539D01*
X19230119Y45125399D01*
X19260012Y45111261D01*
X19288375Y45094261D01*
X19314935Y45074563D01*
X19339436Y45052356D01*
X19958924Y44432868D01*
X19981131Y44408367D01*
X20000829Y44381807D01*
X20017829Y44353444D01*
X20031967Y44323551D01*
X20043107Y44292417D01*
X20051141Y44260341D01*
X20055993Y44227631D01*
X20057616Y44194604D01*
X20055993Y44161577D01*
X20051141Y44128867D01*
X20043107Y44096791D01*
X20031967Y44065657D01*
X20017829Y44035764D01*
X20000829Y44007401D01*
X19981131Y43980841D01*
X19958924Y43956340D01*
X19162660Y43160076D01*
X19138159Y43137869D01*
X19111599Y43118171D01*
X19083236Y43101171D01*
X19053343Y43087033D01*
X19022209Y43075893D01*
X18990133Y43067859D01*
X18957423Y43063007D01*
X18924396Y43061384D01*
X18891369Y43063007D01*
X18858659Y43067859D01*
X18826583Y43075893D01*
X18795449Y43087033D01*
X18765556Y43101171D01*
X18737193Y43118171D01*
X18710633Y43137869D01*
X18686132Y43160076D01*
X18066644Y43779564D01*
X18044437Y43804065D01*
X18024739Y43830625D01*
X18007739Y43858988D01*
X17993601Y43888881D01*
X17982461Y43920015D01*
X17974427Y43952091D01*
X17969575Y43984801D01*
X17967952Y44017828D01*
X17969575Y44050855D01*
X17974427Y44083565D01*
X17982461Y44115641D01*
X17993601Y44146775D01*
X18007739Y44176668D01*
X18024739Y44205031D01*
X18044437Y44231591D01*
X18066644Y44256092D01*
X18862908Y45052356D01*
X18887409Y45074563D01*
X18913969Y45094261D01*
X18942332Y45111261D01*
X18972225Y45125399D01*
X19003359Y45136539D01*
X19035435Y45144573D01*
X19068145Y45149425D01*
X19101172Y45151048D01*
X19134199Y45149425D01*
X19134199Y45149425D01*
G37*
D12*
X19012784Y44106216D03*
D11*
G36*
X17684631Y46598993D02*
X17717341Y46594141D01*
X17749417Y46586107D01*
X17780551Y46574967D01*
X17810444Y46560829D01*
X17838807Y46543829D01*
X17865367Y46524131D01*
X17889868Y46501924D01*
X18509356Y45882436D01*
X18531563Y45857935D01*
X18551261Y45831375D01*
X18568261Y45803012D01*
X18582399Y45773119D01*
X18593539Y45741985D01*
X18601573Y45709909D01*
X18606425Y45677199D01*
X18608048Y45644172D01*
X18606425Y45611145D01*
X18601573Y45578435D01*
X18593539Y45546359D01*
X18582399Y45515225D01*
X18568261Y45485332D01*
X18551261Y45456969D01*
X18531563Y45430409D01*
X18509356Y45405908D01*
X17713092Y44609644D01*
X17688591Y44587437D01*
X17662031Y44567739D01*
X17633668Y44550739D01*
X17603775Y44536601D01*
X17572641Y44525461D01*
X17540565Y44517427D01*
X17507855Y44512575D01*
X17474828Y44510952D01*
X17441801Y44512575D01*
X17409091Y44517427D01*
X17377015Y44525461D01*
X17345881Y44536601D01*
X17315988Y44550739D01*
X17287625Y44567739D01*
X17261065Y44587437D01*
X17236564Y44609644D01*
X16617076Y45229132D01*
X16594869Y45253633D01*
X16575171Y45280193D01*
X16558171Y45308556D01*
X16544033Y45338449D01*
X16532893Y45369583D01*
X16524859Y45401659D01*
X16520007Y45434369D01*
X16518384Y45467396D01*
X16520007Y45500423D01*
X16524859Y45533133D01*
X16532893Y45565209D01*
X16544033Y45596343D01*
X16558171Y45626236D01*
X16575171Y45654599D01*
X16594869Y45681159D01*
X16617076Y45705660D01*
X17413340Y46501924D01*
X17437841Y46524131D01*
X17464401Y46543829D01*
X17492764Y46560829D01*
X17522657Y46574967D01*
X17553791Y46586107D01*
X17585867Y46594141D01*
X17618577Y46598993D01*
X17651604Y46600616D01*
X17684631Y46598993D01*
X17684631Y46598993D01*
G37*
D12*
X17563216Y45555784D03*
G04 #@! TD*
D11*
G04 #@! TO.C,C5*
G36*
X4426855Y65596425D02*
X4459565Y65591573D01*
X4491641Y65583539D01*
X4522775Y65572399D01*
X4552668Y65558261D01*
X4581031Y65541261D01*
X4607591Y65521563D01*
X4632092Y65499356D01*
X5428356Y64703092D01*
X5450563Y64678591D01*
X5470261Y64652031D01*
X5487261Y64623668D01*
X5501399Y64593775D01*
X5512539Y64562641D01*
X5520573Y64530565D01*
X5525425Y64497855D01*
X5527048Y64464828D01*
X5525425Y64431801D01*
X5520573Y64399091D01*
X5512539Y64367015D01*
X5501399Y64335881D01*
X5487261Y64305988D01*
X5470261Y64277625D01*
X5450563Y64251065D01*
X5428356Y64226564D01*
X4808868Y63607076D01*
X4784367Y63584869D01*
X4757807Y63565171D01*
X4729444Y63548171D01*
X4699551Y63534033D01*
X4668417Y63522893D01*
X4636341Y63514859D01*
X4603631Y63510007D01*
X4570604Y63508384D01*
X4537577Y63510007D01*
X4504867Y63514859D01*
X4472791Y63522893D01*
X4441657Y63534033D01*
X4411764Y63548171D01*
X4383401Y63565171D01*
X4356841Y63584869D01*
X4332340Y63607076D01*
X3536076Y64403340D01*
X3513869Y64427841D01*
X3494171Y64454401D01*
X3477171Y64482764D01*
X3463033Y64512657D01*
X3451893Y64543791D01*
X3443859Y64575867D01*
X3439007Y64608577D01*
X3437384Y64641604D01*
X3439007Y64674631D01*
X3443859Y64707341D01*
X3451893Y64739417D01*
X3463033Y64770551D01*
X3477171Y64800444D01*
X3494171Y64828807D01*
X3513869Y64855367D01*
X3536076Y64879868D01*
X4155564Y65499356D01*
X4180065Y65521563D01*
X4206625Y65541261D01*
X4234988Y65558261D01*
X4264881Y65572399D01*
X4296015Y65583539D01*
X4328091Y65591573D01*
X4360801Y65596425D01*
X4393828Y65598048D01*
X4426855Y65596425D01*
X4426855Y65596425D01*
G37*
D12*
X4482216Y64553216D03*
D11*
G36*
X5876423Y67045993D02*
X5909133Y67041141D01*
X5941209Y67033107D01*
X5972343Y67021967D01*
X6002236Y67007829D01*
X6030599Y66990829D01*
X6057159Y66971131D01*
X6081660Y66948924D01*
X6877924Y66152660D01*
X6900131Y66128159D01*
X6919829Y66101599D01*
X6936829Y66073236D01*
X6950967Y66043343D01*
X6962107Y66012209D01*
X6970141Y65980133D01*
X6974993Y65947423D01*
X6976616Y65914396D01*
X6974993Y65881369D01*
X6970141Y65848659D01*
X6962107Y65816583D01*
X6950967Y65785449D01*
X6936829Y65755556D01*
X6919829Y65727193D01*
X6900131Y65700633D01*
X6877924Y65676132D01*
X6258436Y65056644D01*
X6233935Y65034437D01*
X6207375Y65014739D01*
X6179012Y64997739D01*
X6149119Y64983601D01*
X6117985Y64972461D01*
X6085909Y64964427D01*
X6053199Y64959575D01*
X6020172Y64957952D01*
X5987145Y64959575D01*
X5954435Y64964427D01*
X5922359Y64972461D01*
X5891225Y64983601D01*
X5861332Y64997739D01*
X5832969Y65014739D01*
X5806409Y65034437D01*
X5781908Y65056644D01*
X4985644Y65852908D01*
X4963437Y65877409D01*
X4943739Y65903969D01*
X4926739Y65932332D01*
X4912601Y65962225D01*
X4901461Y65993359D01*
X4893427Y66025435D01*
X4888575Y66058145D01*
X4886952Y66091172D01*
X4888575Y66124199D01*
X4893427Y66156909D01*
X4901461Y66188985D01*
X4912601Y66220119D01*
X4926739Y66250012D01*
X4943739Y66278375D01*
X4963437Y66304935D01*
X4985644Y66329436D01*
X5605132Y66948924D01*
X5629633Y66971131D01*
X5656193Y66990829D01*
X5684556Y67007829D01*
X5714449Y67021967D01*
X5745583Y67033107D01*
X5777659Y67041141D01*
X5810369Y67045993D01*
X5843396Y67047616D01*
X5876423Y67045993D01*
X5876423Y67045993D01*
G37*
D12*
X5931784Y66002784D03*
G04 #@! TD*
D11*
G04 #@! TO.C,C6*
G36*
X1505855Y62675425D02*
X1538565Y62670573D01*
X1570641Y62662539D01*
X1601775Y62651399D01*
X1631668Y62637261D01*
X1660031Y62620261D01*
X1686591Y62600563D01*
X1711092Y62578356D01*
X2507356Y61782092D01*
X2529563Y61757591D01*
X2549261Y61731031D01*
X2566261Y61702668D01*
X2580399Y61672775D01*
X2591539Y61641641D01*
X2599573Y61609565D01*
X2604425Y61576855D01*
X2606048Y61543828D01*
X2604425Y61510801D01*
X2599573Y61478091D01*
X2591539Y61446015D01*
X2580399Y61414881D01*
X2566261Y61384988D01*
X2549261Y61356625D01*
X2529563Y61330065D01*
X2507356Y61305564D01*
X1887868Y60686076D01*
X1863367Y60663869D01*
X1836807Y60644171D01*
X1808444Y60627171D01*
X1778551Y60613033D01*
X1747417Y60601893D01*
X1715341Y60593859D01*
X1682631Y60589007D01*
X1649604Y60587384D01*
X1616577Y60589007D01*
X1583867Y60593859D01*
X1551791Y60601893D01*
X1520657Y60613033D01*
X1490764Y60627171D01*
X1462401Y60644171D01*
X1435841Y60663869D01*
X1411340Y60686076D01*
X615076Y61482340D01*
X592869Y61506841D01*
X573171Y61533401D01*
X556171Y61561764D01*
X542033Y61591657D01*
X530893Y61622791D01*
X522859Y61654867D01*
X518007Y61687577D01*
X516384Y61720604D01*
X518007Y61753631D01*
X522859Y61786341D01*
X530893Y61818417D01*
X542033Y61849551D01*
X556171Y61879444D01*
X573171Y61907807D01*
X592869Y61934367D01*
X615076Y61958868D01*
X1234564Y62578356D01*
X1259065Y62600563D01*
X1285625Y62620261D01*
X1313988Y62637261D01*
X1343881Y62651399D01*
X1375015Y62662539D01*
X1407091Y62670573D01*
X1439801Y62675425D01*
X1472828Y62677048D01*
X1505855Y62675425D01*
X1505855Y62675425D01*
G37*
D12*
X1561216Y61632216D03*
D11*
G36*
X2955423Y64124993D02*
X2988133Y64120141D01*
X3020209Y64112107D01*
X3051343Y64100967D01*
X3081236Y64086829D01*
X3109599Y64069829D01*
X3136159Y64050131D01*
X3160660Y64027924D01*
X3956924Y63231660D01*
X3979131Y63207159D01*
X3998829Y63180599D01*
X4015829Y63152236D01*
X4029967Y63122343D01*
X4041107Y63091209D01*
X4049141Y63059133D01*
X4053993Y63026423D01*
X4055616Y62993396D01*
X4053993Y62960369D01*
X4049141Y62927659D01*
X4041107Y62895583D01*
X4029967Y62864449D01*
X4015829Y62834556D01*
X3998829Y62806193D01*
X3979131Y62779633D01*
X3956924Y62755132D01*
X3337436Y62135644D01*
X3312935Y62113437D01*
X3286375Y62093739D01*
X3258012Y62076739D01*
X3228119Y62062601D01*
X3196985Y62051461D01*
X3164909Y62043427D01*
X3132199Y62038575D01*
X3099172Y62036952D01*
X3066145Y62038575D01*
X3033435Y62043427D01*
X3001359Y62051461D01*
X2970225Y62062601D01*
X2940332Y62076739D01*
X2911969Y62093739D01*
X2885409Y62113437D01*
X2860908Y62135644D01*
X2064644Y62931908D01*
X2042437Y62956409D01*
X2022739Y62982969D01*
X2005739Y63011332D01*
X1991601Y63041225D01*
X1980461Y63072359D01*
X1972427Y63104435D01*
X1967575Y63137145D01*
X1965952Y63170172D01*
X1967575Y63203199D01*
X1972427Y63235909D01*
X1980461Y63267985D01*
X1991601Y63299119D01*
X2005739Y63329012D01*
X2022739Y63357375D01*
X2042437Y63383935D01*
X2064644Y63408436D01*
X2684132Y64027924D01*
X2708633Y64050131D01*
X2735193Y64069829D01*
X2763556Y64086829D01*
X2793449Y64100967D01*
X2824583Y64112107D01*
X2856659Y64120141D01*
X2889369Y64124993D01*
X2922396Y64126616D01*
X2955423Y64124993D01*
X2955423Y64124993D01*
G37*
D12*
X3010784Y63081784D03*
G04 #@! TD*
D11*
G04 #@! TO.C,C8*
G36*
X15201071Y75585377D02*
X15233781Y75580525D01*
X15265857Y75572491D01*
X15296991Y75561351D01*
X15326884Y75547213D01*
X15355247Y75530213D01*
X15381807Y75510515D01*
X15406308Y75488308D01*
X15428515Y75463807D01*
X15448213Y75437247D01*
X15465213Y75408884D01*
X15479351Y75378991D01*
X15490491Y75347857D01*
X15498525Y75315781D01*
X15503377Y75283071D01*
X15505000Y75250044D01*
X15505000Y74373956D01*
X15503377Y74340929D01*
X15498525Y74308219D01*
X15490491Y74276143D01*
X15479351Y74245009D01*
X15465213Y74215116D01*
X15448213Y74186753D01*
X15428515Y74160193D01*
X15406308Y74135692D01*
X15381807Y74113485D01*
X15355247Y74093787D01*
X15326884Y74076787D01*
X15296991Y74062649D01*
X15265857Y74051509D01*
X15233781Y74043475D01*
X15201071Y74038623D01*
X15168044Y74037000D01*
X14041956Y74037000D01*
X14008929Y74038623D01*
X13976219Y74043475D01*
X13944143Y74051509D01*
X13913009Y74062649D01*
X13883116Y74076787D01*
X13854753Y74093787D01*
X13828193Y74113485D01*
X13803692Y74135692D01*
X13781485Y74160193D01*
X13761787Y74186753D01*
X13744787Y74215116D01*
X13730649Y74245009D01*
X13719509Y74276143D01*
X13711475Y74308219D01*
X13706623Y74340929D01*
X13705000Y74373956D01*
X13705000Y75250044D01*
X13706623Y75283071D01*
X13711475Y75315781D01*
X13719509Y75347857D01*
X13730649Y75378991D01*
X13744787Y75408884D01*
X13761787Y75437247D01*
X13781485Y75463807D01*
X13803692Y75488308D01*
X13828193Y75510515D01*
X13854753Y75530213D01*
X13883116Y75547213D01*
X13913009Y75561351D01*
X13944143Y75572491D01*
X13976219Y75580525D01*
X14008929Y75585377D01*
X14041956Y75587000D01*
X15168044Y75587000D01*
X15201071Y75585377D01*
X15201071Y75585377D01*
G37*
D12*
X14605000Y74812000D03*
D11*
G36*
X15201071Y73535377D02*
X15233781Y73530525D01*
X15265857Y73522491D01*
X15296991Y73511351D01*
X15326884Y73497213D01*
X15355247Y73480213D01*
X15381807Y73460515D01*
X15406308Y73438308D01*
X15428515Y73413807D01*
X15448213Y73387247D01*
X15465213Y73358884D01*
X15479351Y73328991D01*
X15490491Y73297857D01*
X15498525Y73265781D01*
X15503377Y73233071D01*
X15505000Y73200044D01*
X15505000Y72323956D01*
X15503377Y72290929D01*
X15498525Y72258219D01*
X15490491Y72226143D01*
X15479351Y72195009D01*
X15465213Y72165116D01*
X15448213Y72136753D01*
X15428515Y72110193D01*
X15406308Y72085692D01*
X15381807Y72063485D01*
X15355247Y72043787D01*
X15326884Y72026787D01*
X15296991Y72012649D01*
X15265857Y72001509D01*
X15233781Y71993475D01*
X15201071Y71988623D01*
X15168044Y71987000D01*
X14041956Y71987000D01*
X14008929Y71988623D01*
X13976219Y71993475D01*
X13944143Y72001509D01*
X13913009Y72012649D01*
X13883116Y72026787D01*
X13854753Y72043787D01*
X13828193Y72063485D01*
X13803692Y72085692D01*
X13781485Y72110193D01*
X13761787Y72136753D01*
X13744787Y72165116D01*
X13730649Y72195009D01*
X13719509Y72226143D01*
X13711475Y72258219D01*
X13706623Y72290929D01*
X13705000Y72323956D01*
X13705000Y73200044D01*
X13706623Y73233071D01*
X13711475Y73265781D01*
X13719509Y73297857D01*
X13730649Y73328991D01*
X13744787Y73358884D01*
X13761787Y73387247D01*
X13781485Y73413807D01*
X13803692Y73438308D01*
X13828193Y73460515D01*
X13854753Y73480213D01*
X13883116Y73497213D01*
X13913009Y73511351D01*
X13944143Y73522491D01*
X13976219Y73530525D01*
X14008929Y73535377D01*
X14041956Y73537000D01*
X15168044Y73537000D01*
X15201071Y73535377D01*
X15201071Y73535377D01*
G37*
D12*
X14605000Y72762000D03*
G04 #@! TD*
D11*
G04 #@! TO.C,C9*
G36*
X10368071Y17789377D02*
X10400781Y17784525D01*
X10432857Y17776491D01*
X10463991Y17765351D01*
X10493884Y17751213D01*
X10522247Y17734213D01*
X10548807Y17714515D01*
X10573308Y17692308D01*
X10595515Y17667807D01*
X10615213Y17641247D01*
X10632213Y17612884D01*
X10646351Y17582991D01*
X10657491Y17551857D01*
X10665525Y17519781D01*
X10670377Y17487071D01*
X10672000Y17454044D01*
X10672000Y16327956D01*
X10670377Y16294929D01*
X10665525Y16262219D01*
X10657491Y16230143D01*
X10646351Y16199009D01*
X10632213Y16169116D01*
X10615213Y16140753D01*
X10595515Y16114193D01*
X10573308Y16089692D01*
X10548807Y16067485D01*
X10522247Y16047787D01*
X10493884Y16030787D01*
X10463991Y16016649D01*
X10432857Y16005509D01*
X10400781Y15997475D01*
X10368071Y15992623D01*
X10335044Y15991000D01*
X9458956Y15991000D01*
X9425929Y15992623D01*
X9393219Y15997475D01*
X9361143Y16005509D01*
X9330009Y16016649D01*
X9300116Y16030787D01*
X9271753Y16047787D01*
X9245193Y16067485D01*
X9220692Y16089692D01*
X9198485Y16114193D01*
X9178787Y16140753D01*
X9161787Y16169116D01*
X9147649Y16199009D01*
X9136509Y16230143D01*
X9128475Y16262219D01*
X9123623Y16294929D01*
X9122000Y16327956D01*
X9122000Y17454044D01*
X9123623Y17487071D01*
X9128475Y17519781D01*
X9136509Y17551857D01*
X9147649Y17582991D01*
X9161787Y17612884D01*
X9178787Y17641247D01*
X9198485Y17667807D01*
X9220692Y17692308D01*
X9245193Y17714515D01*
X9271753Y17734213D01*
X9300116Y17751213D01*
X9330009Y17765351D01*
X9361143Y17776491D01*
X9393219Y17784525D01*
X9425929Y17789377D01*
X9458956Y17791000D01*
X10335044Y17791000D01*
X10368071Y17789377D01*
X10368071Y17789377D01*
G37*
D12*
X9897000Y16891000D03*
D11*
G36*
X12418071Y17789377D02*
X12450781Y17784525D01*
X12482857Y17776491D01*
X12513991Y17765351D01*
X12543884Y17751213D01*
X12572247Y17734213D01*
X12598807Y17714515D01*
X12623308Y17692308D01*
X12645515Y17667807D01*
X12665213Y17641247D01*
X12682213Y17612884D01*
X12696351Y17582991D01*
X12707491Y17551857D01*
X12715525Y17519781D01*
X12720377Y17487071D01*
X12722000Y17454044D01*
X12722000Y16327956D01*
X12720377Y16294929D01*
X12715525Y16262219D01*
X12707491Y16230143D01*
X12696351Y16199009D01*
X12682213Y16169116D01*
X12665213Y16140753D01*
X12645515Y16114193D01*
X12623308Y16089692D01*
X12598807Y16067485D01*
X12572247Y16047787D01*
X12543884Y16030787D01*
X12513991Y16016649D01*
X12482857Y16005509D01*
X12450781Y15997475D01*
X12418071Y15992623D01*
X12385044Y15991000D01*
X11508956Y15991000D01*
X11475929Y15992623D01*
X11443219Y15997475D01*
X11411143Y16005509D01*
X11380009Y16016649D01*
X11350116Y16030787D01*
X11321753Y16047787D01*
X11295193Y16067485D01*
X11270692Y16089692D01*
X11248485Y16114193D01*
X11228787Y16140753D01*
X11211787Y16169116D01*
X11197649Y16199009D01*
X11186509Y16230143D01*
X11178475Y16262219D01*
X11173623Y16294929D01*
X11172000Y16327956D01*
X11172000Y17454044D01*
X11173623Y17487071D01*
X11178475Y17519781D01*
X11186509Y17551857D01*
X11197649Y17582991D01*
X11211787Y17612884D01*
X11228787Y17641247D01*
X11248485Y17667807D01*
X11270692Y17692308D01*
X11295193Y17714515D01*
X11321753Y17734213D01*
X11350116Y17751213D01*
X11380009Y17765351D01*
X11411143Y17776491D01*
X11443219Y17784525D01*
X11475929Y17789377D01*
X11508956Y17791000D01*
X12385044Y17791000D01*
X12418071Y17789377D01*
X12418071Y17789377D01*
G37*
D12*
X11947000Y16891000D03*
G04 #@! TD*
D11*
G04 #@! TO.C,C10*
G36*
X11257071Y8010377D02*
X11289781Y8005525D01*
X11321857Y7997491D01*
X11352991Y7986351D01*
X11382884Y7972213D01*
X11411247Y7955213D01*
X11437807Y7935515D01*
X11462308Y7913308D01*
X11484515Y7888807D01*
X11504213Y7862247D01*
X11521213Y7833884D01*
X11535351Y7803991D01*
X11546491Y7772857D01*
X11554525Y7740781D01*
X11559377Y7708071D01*
X11561000Y7675044D01*
X11561000Y6548956D01*
X11559377Y6515929D01*
X11554525Y6483219D01*
X11546491Y6451143D01*
X11535351Y6420009D01*
X11521213Y6390116D01*
X11504213Y6361753D01*
X11484515Y6335193D01*
X11462308Y6310692D01*
X11437807Y6288485D01*
X11411247Y6268787D01*
X11382884Y6251787D01*
X11352991Y6237649D01*
X11321857Y6226509D01*
X11289781Y6218475D01*
X11257071Y6213623D01*
X11224044Y6212000D01*
X10347956Y6212000D01*
X10314929Y6213623D01*
X10282219Y6218475D01*
X10250143Y6226509D01*
X10219009Y6237649D01*
X10189116Y6251787D01*
X10160753Y6268787D01*
X10134193Y6288485D01*
X10109692Y6310692D01*
X10087485Y6335193D01*
X10067787Y6361753D01*
X10050787Y6390116D01*
X10036649Y6420009D01*
X10025509Y6451143D01*
X10017475Y6483219D01*
X10012623Y6515929D01*
X10011000Y6548956D01*
X10011000Y7675044D01*
X10012623Y7708071D01*
X10017475Y7740781D01*
X10025509Y7772857D01*
X10036649Y7803991D01*
X10050787Y7833884D01*
X10067787Y7862247D01*
X10087485Y7888807D01*
X10109692Y7913308D01*
X10134193Y7935515D01*
X10160753Y7955213D01*
X10189116Y7972213D01*
X10219009Y7986351D01*
X10250143Y7997491D01*
X10282219Y8005525D01*
X10314929Y8010377D01*
X10347956Y8012000D01*
X11224044Y8012000D01*
X11257071Y8010377D01*
X11257071Y8010377D01*
G37*
D12*
X10786000Y7112000D03*
D11*
G36*
X13307071Y8010377D02*
X13339781Y8005525D01*
X13371857Y7997491D01*
X13402991Y7986351D01*
X13432884Y7972213D01*
X13461247Y7955213D01*
X13487807Y7935515D01*
X13512308Y7913308D01*
X13534515Y7888807D01*
X13554213Y7862247D01*
X13571213Y7833884D01*
X13585351Y7803991D01*
X13596491Y7772857D01*
X13604525Y7740781D01*
X13609377Y7708071D01*
X13611000Y7675044D01*
X13611000Y6548956D01*
X13609377Y6515929D01*
X13604525Y6483219D01*
X13596491Y6451143D01*
X13585351Y6420009D01*
X13571213Y6390116D01*
X13554213Y6361753D01*
X13534515Y6335193D01*
X13512308Y6310692D01*
X13487807Y6288485D01*
X13461247Y6268787D01*
X13432884Y6251787D01*
X13402991Y6237649D01*
X13371857Y6226509D01*
X13339781Y6218475D01*
X13307071Y6213623D01*
X13274044Y6212000D01*
X12397956Y6212000D01*
X12364929Y6213623D01*
X12332219Y6218475D01*
X12300143Y6226509D01*
X12269009Y6237649D01*
X12239116Y6251787D01*
X12210753Y6268787D01*
X12184193Y6288485D01*
X12159692Y6310692D01*
X12137485Y6335193D01*
X12117787Y6361753D01*
X12100787Y6390116D01*
X12086649Y6420009D01*
X12075509Y6451143D01*
X12067475Y6483219D01*
X12062623Y6515929D01*
X12061000Y6548956D01*
X12061000Y7675044D01*
X12062623Y7708071D01*
X12067475Y7740781D01*
X12075509Y7772857D01*
X12086649Y7803991D01*
X12100787Y7833884D01*
X12117787Y7862247D01*
X12137485Y7888807D01*
X12159692Y7913308D01*
X12184193Y7935515D01*
X12210753Y7955213D01*
X12239116Y7972213D01*
X12269009Y7986351D01*
X12300143Y7997491D01*
X12332219Y8005525D01*
X12364929Y8010377D01*
X12397956Y8012000D01*
X13274044Y8012000D01*
X13307071Y8010377D01*
X13307071Y8010377D01*
G37*
D12*
X12836000Y7112000D03*
G04 #@! TD*
D11*
G04 #@! TO.C,C11*
G36*
X11384071Y80527377D02*
X11416781Y80522525D01*
X11448857Y80514491D01*
X11479991Y80503351D01*
X11509884Y80489213D01*
X11538247Y80472213D01*
X11564807Y80452515D01*
X11589308Y80430308D01*
X11611515Y80405807D01*
X11631213Y80379247D01*
X11648213Y80350884D01*
X11662351Y80320991D01*
X11673491Y80289857D01*
X11681525Y80257781D01*
X11686377Y80225071D01*
X11688000Y80192044D01*
X11688000Y79065956D01*
X11686377Y79032929D01*
X11681525Y79000219D01*
X11673491Y78968143D01*
X11662351Y78937009D01*
X11648213Y78907116D01*
X11631213Y78878753D01*
X11611515Y78852193D01*
X11589308Y78827692D01*
X11564807Y78805485D01*
X11538247Y78785787D01*
X11509884Y78768787D01*
X11479991Y78754649D01*
X11448857Y78743509D01*
X11416781Y78735475D01*
X11384071Y78730623D01*
X11351044Y78729000D01*
X10474956Y78729000D01*
X10441929Y78730623D01*
X10409219Y78735475D01*
X10377143Y78743509D01*
X10346009Y78754649D01*
X10316116Y78768787D01*
X10287753Y78785787D01*
X10261193Y78805485D01*
X10236692Y78827692D01*
X10214485Y78852193D01*
X10194787Y78878753D01*
X10177787Y78907116D01*
X10163649Y78937009D01*
X10152509Y78968143D01*
X10144475Y79000219D01*
X10139623Y79032929D01*
X10138000Y79065956D01*
X10138000Y80192044D01*
X10139623Y80225071D01*
X10144475Y80257781D01*
X10152509Y80289857D01*
X10163649Y80320991D01*
X10177787Y80350884D01*
X10194787Y80379247D01*
X10214485Y80405807D01*
X10236692Y80430308D01*
X10261193Y80452515D01*
X10287753Y80472213D01*
X10316116Y80489213D01*
X10346009Y80503351D01*
X10377143Y80514491D01*
X10409219Y80522525D01*
X10441929Y80527377D01*
X10474956Y80529000D01*
X11351044Y80529000D01*
X11384071Y80527377D01*
X11384071Y80527377D01*
G37*
D12*
X10913000Y79629000D03*
D11*
G36*
X13434071Y80527377D02*
X13466781Y80522525D01*
X13498857Y80514491D01*
X13529991Y80503351D01*
X13559884Y80489213D01*
X13588247Y80472213D01*
X13614807Y80452515D01*
X13639308Y80430308D01*
X13661515Y80405807D01*
X13681213Y80379247D01*
X13698213Y80350884D01*
X13712351Y80320991D01*
X13723491Y80289857D01*
X13731525Y80257781D01*
X13736377Y80225071D01*
X13738000Y80192044D01*
X13738000Y79065956D01*
X13736377Y79032929D01*
X13731525Y79000219D01*
X13723491Y78968143D01*
X13712351Y78937009D01*
X13698213Y78907116D01*
X13681213Y78878753D01*
X13661515Y78852193D01*
X13639308Y78827692D01*
X13614807Y78805485D01*
X13588247Y78785787D01*
X13559884Y78768787D01*
X13529991Y78754649D01*
X13498857Y78743509D01*
X13466781Y78735475D01*
X13434071Y78730623D01*
X13401044Y78729000D01*
X12524956Y78729000D01*
X12491929Y78730623D01*
X12459219Y78735475D01*
X12427143Y78743509D01*
X12396009Y78754649D01*
X12366116Y78768787D01*
X12337753Y78785787D01*
X12311193Y78805485D01*
X12286692Y78827692D01*
X12264485Y78852193D01*
X12244787Y78878753D01*
X12227787Y78907116D01*
X12213649Y78937009D01*
X12202509Y78968143D01*
X12194475Y79000219D01*
X12189623Y79032929D01*
X12188000Y79065956D01*
X12188000Y80192044D01*
X12189623Y80225071D01*
X12194475Y80257781D01*
X12202509Y80289857D01*
X12213649Y80320991D01*
X12227787Y80350884D01*
X12244787Y80379247D01*
X12264485Y80405807D01*
X12286692Y80430308D01*
X12311193Y80452515D01*
X12337753Y80472213D01*
X12366116Y80489213D01*
X12396009Y80503351D01*
X12427143Y80514491D01*
X12459219Y80522525D01*
X12491929Y80527377D01*
X12524956Y80529000D01*
X13401044Y80529000D01*
X13434071Y80527377D01*
X13434071Y80527377D01*
G37*
D12*
X12963000Y79629000D03*
G04 #@! TD*
D11*
G04 #@! TO.C,C12*
G36*
X21036071Y77733377D02*
X21068781Y77728525D01*
X21100857Y77720491D01*
X21131991Y77709351D01*
X21161884Y77695213D01*
X21190247Y77678213D01*
X21216807Y77658515D01*
X21241308Y77636308D01*
X21263515Y77611807D01*
X21283213Y77585247D01*
X21300213Y77556884D01*
X21314351Y77526991D01*
X21325491Y77495857D01*
X21333525Y77463781D01*
X21338377Y77431071D01*
X21340000Y77398044D01*
X21340000Y76271956D01*
X21338377Y76238929D01*
X21333525Y76206219D01*
X21325491Y76174143D01*
X21314351Y76143009D01*
X21300213Y76113116D01*
X21283213Y76084753D01*
X21263515Y76058193D01*
X21241308Y76033692D01*
X21216807Y76011485D01*
X21190247Y75991787D01*
X21161884Y75974787D01*
X21131991Y75960649D01*
X21100857Y75949509D01*
X21068781Y75941475D01*
X21036071Y75936623D01*
X21003044Y75935000D01*
X20126956Y75935000D01*
X20093929Y75936623D01*
X20061219Y75941475D01*
X20029143Y75949509D01*
X19998009Y75960649D01*
X19968116Y75974787D01*
X19939753Y75991787D01*
X19913193Y76011485D01*
X19888692Y76033692D01*
X19866485Y76058193D01*
X19846787Y76084753D01*
X19829787Y76113116D01*
X19815649Y76143009D01*
X19804509Y76174143D01*
X19796475Y76206219D01*
X19791623Y76238929D01*
X19790000Y76271956D01*
X19790000Y77398044D01*
X19791623Y77431071D01*
X19796475Y77463781D01*
X19804509Y77495857D01*
X19815649Y77526991D01*
X19829787Y77556884D01*
X19846787Y77585247D01*
X19866485Y77611807D01*
X19888692Y77636308D01*
X19913193Y77658515D01*
X19939753Y77678213D01*
X19968116Y77695213D01*
X19998009Y77709351D01*
X20029143Y77720491D01*
X20061219Y77728525D01*
X20093929Y77733377D01*
X20126956Y77735000D01*
X21003044Y77735000D01*
X21036071Y77733377D01*
X21036071Y77733377D01*
G37*
D12*
X20565000Y76835000D03*
D11*
G36*
X23086071Y77733377D02*
X23118781Y77728525D01*
X23150857Y77720491D01*
X23181991Y77709351D01*
X23211884Y77695213D01*
X23240247Y77678213D01*
X23266807Y77658515D01*
X23291308Y77636308D01*
X23313515Y77611807D01*
X23333213Y77585247D01*
X23350213Y77556884D01*
X23364351Y77526991D01*
X23375491Y77495857D01*
X23383525Y77463781D01*
X23388377Y77431071D01*
X23390000Y77398044D01*
X23390000Y76271956D01*
X23388377Y76238929D01*
X23383525Y76206219D01*
X23375491Y76174143D01*
X23364351Y76143009D01*
X23350213Y76113116D01*
X23333213Y76084753D01*
X23313515Y76058193D01*
X23291308Y76033692D01*
X23266807Y76011485D01*
X23240247Y75991787D01*
X23211884Y75974787D01*
X23181991Y75960649D01*
X23150857Y75949509D01*
X23118781Y75941475D01*
X23086071Y75936623D01*
X23053044Y75935000D01*
X22176956Y75935000D01*
X22143929Y75936623D01*
X22111219Y75941475D01*
X22079143Y75949509D01*
X22048009Y75960649D01*
X22018116Y75974787D01*
X21989753Y75991787D01*
X21963193Y76011485D01*
X21938692Y76033692D01*
X21916485Y76058193D01*
X21896787Y76084753D01*
X21879787Y76113116D01*
X21865649Y76143009D01*
X21854509Y76174143D01*
X21846475Y76206219D01*
X21841623Y76238929D01*
X21840000Y76271956D01*
X21840000Y77398044D01*
X21841623Y77431071D01*
X21846475Y77463781D01*
X21854509Y77495857D01*
X21865649Y77526991D01*
X21879787Y77556884D01*
X21896787Y77585247D01*
X21916485Y77611807D01*
X21938692Y77636308D01*
X21963193Y77658515D01*
X21989753Y77678213D01*
X22018116Y77695213D01*
X22048009Y77709351D01*
X22079143Y77720491D01*
X22111219Y77728525D01*
X22143929Y77733377D01*
X22176956Y77735000D01*
X23053044Y77735000D01*
X23086071Y77733377D01*
X23086071Y77733377D01*
G37*
D12*
X22615000Y76835000D03*
G04 #@! TD*
D13*
G04 #@! TO.C,J2*
X4249000Y9906000D03*
D14*
X4249000Y14286000D03*
X4249000Y5526000D03*
G04 #@! TD*
D15*
G04 #@! TO.C,J3*
X2667000Y40005000D03*
D16*
X2667000Y42545000D03*
X2667000Y45085000D03*
X2667000Y47625000D03*
X2667000Y50165000D03*
X2667000Y52705000D03*
G04 #@! TD*
D15*
G04 #@! TO.C,J4*
X15113000Y39624000D03*
D16*
X15113000Y42164000D03*
X12573000Y39624000D03*
X12573000Y42164000D03*
X10033000Y39624000D03*
X10033000Y42164000D03*
G04 #@! TD*
D17*
G04 #@! TO.C,Y1*
X4151456Y59015456D03*
D11*
G36*
X3338283Y57070912D02*
X2206912Y58202283D01*
X4964629Y60960000D01*
X6096000Y59828629D01*
X3338283Y57070912D01*
X3338283Y57070912D01*
G37*
D17*
X8040544Y62904544D03*
D11*
G36*
X7227371Y60960000D02*
X6096000Y62091371D01*
X8853717Y64849088D01*
X9985088Y63717717D01*
X7227371Y60960000D01*
X7227371Y60960000D01*
G37*
G04 #@! TD*
D18*
G04 #@! TO.C,C7*
X21844000Y22225000D03*
X21844000Y26525000D03*
G04 #@! TD*
D19*
G04 #@! TO.C,JP1*
X22352000Y35687000D03*
D11*
G36*
X21405843Y36276018D02*
X21417224Y36313537D01*
X21435706Y36348114D01*
X21460579Y36378421D01*
X21490886Y36403294D01*
X21525463Y36421776D01*
X21562982Y36433157D01*
X21602000Y36437000D01*
X23102000Y36437000D01*
X23141018Y36433157D01*
X23178537Y36421776D01*
X23213114Y36403294D01*
X23243421Y36378421D01*
X23268294Y36348114D01*
X23286776Y36313537D01*
X23298157Y36276018D01*
X23302000Y36237000D01*
X23302000Y35687000D01*
X23301398Y35680888D01*
X23301398Y35662466D01*
X23300435Y35642860D01*
X23295625Y35594029D01*
X23292746Y35574620D01*
X23283174Y35526495D01*
X23278404Y35507452D01*
X23264160Y35460497D01*
X23257549Y35442020D01*
X23238772Y35396687D01*
X23230377Y35378939D01*
X23207246Y35335666D01*
X23197160Y35318838D01*
X23169900Y35278039D01*
X23158205Y35262270D01*
X23127077Y35224341D01*
X23113897Y35209800D01*
X23079200Y35175103D01*
X23064659Y35161923D01*
X23026730Y35130795D01*
X23010961Y35119100D01*
X22970162Y35091840D01*
X22953334Y35081754D01*
X22910061Y35058623D01*
X22892313Y35050228D01*
X22846980Y35031451D01*
X22828503Y35024840D01*
X22781548Y35010596D01*
X22762505Y35005826D01*
X22714380Y34996254D01*
X22694971Y34993375D01*
X22646140Y34988565D01*
X22626534Y34987602D01*
X22608112Y34987602D01*
X22602000Y34987000D01*
X22102000Y34987000D01*
X22095888Y34987602D01*
X22077466Y34987602D01*
X22057860Y34988565D01*
X22009029Y34993375D01*
X21989620Y34996254D01*
X21941495Y35005826D01*
X21922452Y35010596D01*
X21875497Y35024840D01*
X21857020Y35031451D01*
X21811687Y35050228D01*
X21793939Y35058623D01*
X21750666Y35081754D01*
X21733838Y35091840D01*
X21693039Y35119100D01*
X21677270Y35130795D01*
X21639341Y35161923D01*
X21624800Y35175103D01*
X21590103Y35209800D01*
X21576923Y35224341D01*
X21545795Y35262270D01*
X21534100Y35278039D01*
X21506840Y35318838D01*
X21496754Y35335666D01*
X21473623Y35378939D01*
X21465228Y35396687D01*
X21446451Y35442020D01*
X21439840Y35460497D01*
X21425596Y35507452D01*
X21420826Y35526495D01*
X21411254Y35574620D01*
X21408375Y35594029D01*
X21403565Y35642860D01*
X21402602Y35662466D01*
X21402602Y35680888D01*
X21402000Y35687000D01*
X21402000Y36237000D01*
X21405843Y36276018D01*
X21405843Y36276018D01*
G37*
D19*
X22352000Y38287000D03*
D11*
G36*
X21402602Y38293112D02*
X21402602Y38311534D01*
X21403565Y38331140D01*
X21408375Y38379971D01*
X21411254Y38399380D01*
X21420826Y38447505D01*
X21425596Y38466548D01*
X21439840Y38513503D01*
X21446451Y38531980D01*
X21465228Y38577313D01*
X21473623Y38595061D01*
X21496754Y38638334D01*
X21506840Y38655162D01*
X21534100Y38695961D01*
X21545795Y38711730D01*
X21576923Y38749659D01*
X21590103Y38764200D01*
X21624800Y38798897D01*
X21639341Y38812077D01*
X21677270Y38843205D01*
X21693039Y38854900D01*
X21733838Y38882160D01*
X21750666Y38892246D01*
X21793939Y38915377D01*
X21811687Y38923772D01*
X21857020Y38942549D01*
X21875497Y38949160D01*
X21922452Y38963404D01*
X21941495Y38968174D01*
X21989620Y38977746D01*
X22009029Y38980625D01*
X22057860Y38985435D01*
X22077466Y38986398D01*
X22095888Y38986398D01*
X22102000Y38987000D01*
X22602000Y38987000D01*
X22608112Y38986398D01*
X22626534Y38986398D01*
X22646140Y38985435D01*
X22694971Y38980625D01*
X22714380Y38977746D01*
X22762505Y38968174D01*
X22781548Y38963404D01*
X22828503Y38949160D01*
X22846980Y38942549D01*
X22892313Y38923772D01*
X22910061Y38915377D01*
X22953334Y38892246D01*
X22970162Y38882160D01*
X23010961Y38854900D01*
X23026730Y38843205D01*
X23064659Y38812077D01*
X23079200Y38798897D01*
X23113897Y38764200D01*
X23127077Y38749659D01*
X23158205Y38711730D01*
X23169900Y38695961D01*
X23197160Y38655162D01*
X23207246Y38638334D01*
X23230377Y38595061D01*
X23238772Y38577313D01*
X23257549Y38531980D01*
X23264160Y38513503D01*
X23278404Y38466548D01*
X23283174Y38447505D01*
X23292746Y38399380D01*
X23295625Y38379971D01*
X23300435Y38331140D01*
X23301398Y38311534D01*
X23301398Y38293112D01*
X23302000Y38287000D01*
X23302000Y37737000D01*
X23298157Y37697982D01*
X23286776Y37660463D01*
X23268294Y37625886D01*
X23243421Y37595579D01*
X23213114Y37570706D01*
X23178537Y37552224D01*
X23141018Y37540843D01*
X23102000Y37537000D01*
X21602000Y37537000D01*
X21562982Y37540843D01*
X21525463Y37552224D01*
X21490886Y37570706D01*
X21460579Y37595579D01*
X21435706Y37625886D01*
X21417224Y37660463D01*
X21405843Y37697982D01*
X21402000Y37737000D01*
X21402000Y38287000D01*
X21402602Y38293112D01*
X21402602Y38293112D01*
G37*
D20*
X22352000Y36987000D03*
G04 #@! TD*
D11*
G04 #@! TO.C,D1*
G36*
X6819071Y46493377D02*
X6851781Y46488525D01*
X6883857Y46480491D01*
X6914991Y46469351D01*
X6944884Y46455213D01*
X6973247Y46438213D01*
X6999807Y46418515D01*
X7024308Y46396308D01*
X7046515Y46371807D01*
X7066213Y46345247D01*
X7083213Y46316884D01*
X7097351Y46286991D01*
X7108491Y46255857D01*
X7116525Y46223781D01*
X7121377Y46191071D01*
X7123000Y46158044D01*
X7123000Y45281956D01*
X7121377Y45248929D01*
X7116525Y45216219D01*
X7108491Y45184143D01*
X7097351Y45153009D01*
X7083213Y45123116D01*
X7066213Y45094753D01*
X7046515Y45068193D01*
X7024308Y45043692D01*
X6999807Y45021485D01*
X6973247Y45001787D01*
X6944884Y44984787D01*
X6914991Y44970649D01*
X6883857Y44959509D01*
X6851781Y44951475D01*
X6819071Y44946623D01*
X6786044Y44945000D01*
X5659956Y44945000D01*
X5626929Y44946623D01*
X5594219Y44951475D01*
X5562143Y44959509D01*
X5531009Y44970649D01*
X5501116Y44984787D01*
X5472753Y45001787D01*
X5446193Y45021485D01*
X5421692Y45043692D01*
X5399485Y45068193D01*
X5379787Y45094753D01*
X5362787Y45123116D01*
X5348649Y45153009D01*
X5337509Y45184143D01*
X5329475Y45216219D01*
X5324623Y45248929D01*
X5323000Y45281956D01*
X5323000Y46158044D01*
X5324623Y46191071D01*
X5329475Y46223781D01*
X5337509Y46255857D01*
X5348649Y46286991D01*
X5362787Y46316884D01*
X5379787Y46345247D01*
X5399485Y46371807D01*
X5421692Y46396308D01*
X5446193Y46418515D01*
X5472753Y46438213D01*
X5501116Y46455213D01*
X5531009Y46469351D01*
X5562143Y46480491D01*
X5594219Y46488525D01*
X5626929Y46493377D01*
X5659956Y46495000D01*
X6786044Y46495000D01*
X6819071Y46493377D01*
X6819071Y46493377D01*
G37*
D12*
X6223000Y45720000D03*
D11*
G36*
X6819071Y48543377D02*
X6851781Y48538525D01*
X6883857Y48530491D01*
X6914991Y48519351D01*
X6944884Y48505213D01*
X6973247Y48488213D01*
X6999807Y48468515D01*
X7024308Y48446308D01*
X7046515Y48421807D01*
X7066213Y48395247D01*
X7083213Y48366884D01*
X7097351Y48336991D01*
X7108491Y48305857D01*
X7116525Y48273781D01*
X7121377Y48241071D01*
X7123000Y48208044D01*
X7123000Y47331956D01*
X7121377Y47298929D01*
X7116525Y47266219D01*
X7108491Y47234143D01*
X7097351Y47203009D01*
X7083213Y47173116D01*
X7066213Y47144753D01*
X7046515Y47118193D01*
X7024308Y47093692D01*
X6999807Y47071485D01*
X6973247Y47051787D01*
X6944884Y47034787D01*
X6914991Y47020649D01*
X6883857Y47009509D01*
X6851781Y47001475D01*
X6819071Y46996623D01*
X6786044Y46995000D01*
X5659956Y46995000D01*
X5626929Y46996623D01*
X5594219Y47001475D01*
X5562143Y47009509D01*
X5531009Y47020649D01*
X5501116Y47034787D01*
X5472753Y47051787D01*
X5446193Y47071485D01*
X5421692Y47093692D01*
X5399485Y47118193D01*
X5379787Y47144753D01*
X5362787Y47173116D01*
X5348649Y47203009D01*
X5337509Y47234143D01*
X5329475Y47266219D01*
X5324623Y47298929D01*
X5323000Y47331956D01*
X5323000Y48208044D01*
X5324623Y48241071D01*
X5329475Y48273781D01*
X5337509Y48305857D01*
X5348649Y48336991D01*
X5362787Y48366884D01*
X5379787Y48395247D01*
X5399485Y48421807D01*
X5421692Y48446308D01*
X5446193Y48468515D01*
X5472753Y48488213D01*
X5501116Y48505213D01*
X5531009Y48519351D01*
X5562143Y48530491D01*
X5594219Y48538525D01*
X5626929Y48543377D01*
X5659956Y48545000D01*
X6786044Y48545000D01*
X6819071Y48543377D01*
X6819071Y48543377D01*
G37*
D12*
X6223000Y47770000D03*
G04 #@! TD*
D21*
G04 #@! TO.C,B1*
X11430000Y76200000D03*
X11430000Y4200000D03*
D22*
X11430000Y67700000D03*
X11430000Y12700000D03*
G04 #@! TD*
D23*
G04 #@! TO.C,SW1*
X22288000Y62738000D03*
X18288000Y62738000D03*
X18288000Y72738000D03*
X22288000Y72738000D03*
G04 #@! TD*
D24*
G04 #@! TO.C,U1*
X12000334Y57295150D03*
D11*
G36*
X10957351Y57666381D02*
X11629103Y58338133D01*
X13043317Y56923919D01*
X12371565Y56252167D01*
X10957351Y57666381D01*
X10957351Y57666381D01*
G37*
D24*
X11434649Y56729464D03*
D11*
G36*
X10391666Y57100695D02*
X11063418Y57772447D01*
X12477632Y56358233D01*
X11805880Y55686481D01*
X10391666Y57100695D01*
X10391666Y57100695D01*
G37*
D24*
X10868963Y56163779D03*
D11*
G36*
X9825980Y56535010D02*
X10497732Y57206762D01*
X11911946Y55792548D01*
X11240194Y55120796D01*
X9825980Y56535010D01*
X9825980Y56535010D01*
G37*
D24*
X10303278Y55598094D03*
D11*
G36*
X9260295Y55969325D02*
X9932047Y56641077D01*
X11346261Y55226863D01*
X10674509Y54555111D01*
X9260295Y55969325D01*
X9260295Y55969325D01*
G37*
D24*
X9737592Y55032408D03*
D11*
G36*
X8694609Y55403639D02*
X9366361Y56075391D01*
X10780575Y54661177D01*
X10108823Y53989425D01*
X8694609Y55403639D01*
X8694609Y55403639D01*
G37*
D24*
X9171907Y54466723D03*
D11*
G36*
X8128924Y54837954D02*
X8800676Y55509706D01*
X10214890Y54095492D01*
X9543138Y53423740D01*
X8128924Y54837954D01*
X8128924Y54837954D01*
G37*
D24*
X8606222Y53901037D03*
D11*
G36*
X7563239Y54272268D02*
X8234991Y54944020D01*
X9649205Y53529806D01*
X8977453Y52858054D01*
X7563239Y54272268D01*
X7563239Y54272268D01*
G37*
D24*
X8040536Y53335352D03*
D11*
G36*
X6997553Y53706583D02*
X7669305Y54378335D01*
X9083519Y52964121D01*
X8411767Y52292369D01*
X6997553Y53706583D01*
X6997553Y53706583D01*
G37*
D24*
X8040536Y51284742D03*
D11*
G36*
X7669305Y50241759D02*
X6997553Y50913511D01*
X8411767Y52327725D01*
X9083519Y51655973D01*
X7669305Y50241759D01*
X7669305Y50241759D01*
G37*
D24*
X8606222Y50719057D03*
D11*
G36*
X8234991Y49676074D02*
X7563239Y50347826D01*
X8977453Y51762040D01*
X9649205Y51090288D01*
X8234991Y49676074D01*
X8234991Y49676074D01*
G37*
D24*
X9171907Y50153371D03*
D11*
G36*
X8800676Y49110388D02*
X8128924Y49782140D01*
X9543138Y51196354D01*
X10214890Y50524602D01*
X8800676Y49110388D01*
X8800676Y49110388D01*
G37*
D24*
X9737592Y49587686D03*
D11*
G36*
X9366361Y48544703D02*
X8694609Y49216455D01*
X10108823Y50630669D01*
X10780575Y49958917D01*
X9366361Y48544703D01*
X9366361Y48544703D01*
G37*
D24*
X10303278Y49022000D03*
D11*
G36*
X9932047Y47979017D02*
X9260295Y48650769D01*
X10674509Y50064983D01*
X11346261Y49393231D01*
X9932047Y47979017D01*
X9932047Y47979017D01*
G37*
D24*
X10868963Y48456315D03*
D11*
G36*
X10497732Y47413332D02*
X9825980Y48085084D01*
X11240194Y49499298D01*
X11911946Y48827546D01*
X10497732Y47413332D01*
X10497732Y47413332D01*
G37*
D24*
X11434649Y47890630D03*
D11*
G36*
X11063418Y46847647D02*
X10391666Y47519399D01*
X11805880Y48933613D01*
X12477632Y48261861D01*
X11063418Y46847647D01*
X11063418Y46847647D01*
G37*
D24*
X12000334Y47324944D03*
D11*
G36*
X11629103Y46281961D02*
X10957351Y46953713D01*
X12371565Y48367927D01*
X13043317Y47696175D01*
X11629103Y46281961D01*
X11629103Y46281961D01*
G37*
D24*
X14050944Y47324944D03*
D11*
G36*
X13007961Y47696175D02*
X13679713Y48367927D01*
X15093927Y46953713D01*
X14422175Y46281961D01*
X13007961Y47696175D01*
X13007961Y47696175D01*
G37*
D24*
X14616629Y47890630D03*
D11*
G36*
X13573646Y48261861D02*
X14245398Y48933613D01*
X15659612Y47519399D01*
X14987860Y46847647D01*
X13573646Y48261861D01*
X13573646Y48261861D01*
G37*
D24*
X15182315Y48456315D03*
D11*
G36*
X14139332Y48827546D02*
X14811084Y49499298D01*
X16225298Y48085084D01*
X15553546Y47413332D01*
X14139332Y48827546D01*
X14139332Y48827546D01*
G37*
D24*
X15748000Y49022000D03*
D11*
G36*
X14705017Y49393231D02*
X15376769Y50064983D01*
X16790983Y48650769D01*
X16119231Y47979017D01*
X14705017Y49393231D01*
X14705017Y49393231D01*
G37*
D24*
X16313686Y49587686D03*
D11*
G36*
X15270703Y49958917D02*
X15942455Y50630669D01*
X17356669Y49216455D01*
X16684917Y48544703D01*
X15270703Y49958917D01*
X15270703Y49958917D01*
G37*
D24*
X16879371Y50153371D03*
D11*
G36*
X15836388Y50524602D02*
X16508140Y51196354D01*
X17922354Y49782140D01*
X17250602Y49110388D01*
X15836388Y50524602D01*
X15836388Y50524602D01*
G37*
D24*
X17445056Y50719057D03*
D11*
G36*
X16402073Y51090288D02*
X17073825Y51762040D01*
X18488039Y50347826D01*
X17816287Y49676074D01*
X16402073Y51090288D01*
X16402073Y51090288D01*
G37*
D24*
X18010742Y51284742D03*
D11*
G36*
X16967759Y51655973D02*
X17639511Y52327725D01*
X19053725Y50913511D01*
X18381973Y50241759D01*
X16967759Y51655973D01*
X16967759Y51655973D01*
G37*
D24*
X18010742Y53335352D03*
D11*
G36*
X17639511Y52292369D02*
X16967759Y52964121D01*
X18381973Y54378335D01*
X19053725Y53706583D01*
X17639511Y52292369D01*
X17639511Y52292369D01*
G37*
D24*
X17445056Y53901037D03*
D11*
G36*
X17073825Y52858054D02*
X16402073Y53529806D01*
X17816287Y54944020D01*
X18488039Y54272268D01*
X17073825Y52858054D01*
X17073825Y52858054D01*
G37*
D24*
X16879371Y54466723D03*
D11*
G36*
X16508140Y53423740D02*
X15836388Y54095492D01*
X17250602Y55509706D01*
X17922354Y54837954D01*
X16508140Y53423740D01*
X16508140Y53423740D01*
G37*
D24*
X16313686Y55032408D03*
D11*
G36*
X15942455Y53989425D02*
X15270703Y54661177D01*
X16684917Y56075391D01*
X17356669Y55403639D01*
X15942455Y53989425D01*
X15942455Y53989425D01*
G37*
D24*
X15748000Y55598094D03*
D11*
G36*
X15376769Y54555111D02*
X14705017Y55226863D01*
X16119231Y56641077D01*
X16790983Y55969325D01*
X15376769Y54555111D01*
X15376769Y54555111D01*
G37*
D24*
X15182315Y56163779D03*
D11*
G36*
X14811084Y55120796D02*
X14139332Y55792548D01*
X15553546Y57206762D01*
X16225298Y56535010D01*
X14811084Y55120796D01*
X14811084Y55120796D01*
G37*
D24*
X14616629Y56729464D03*
D11*
G36*
X14245398Y55686481D02*
X13573646Y56358233D01*
X14987860Y57772447D01*
X15659612Y57100695D01*
X14245398Y55686481D01*
X14245398Y55686481D01*
G37*
D24*
X14050944Y57295150D03*
D11*
G36*
X13679713Y56252167D02*
X13007961Y56923919D01*
X14422175Y58338133D01*
X15093927Y57666381D01*
X13679713Y56252167D01*
X13679713Y56252167D01*
G37*
G04 #@! TD*
D25*
G04 #@! TO.C,Q1*
X16477000Y15367000D03*
X16477000Y14097000D03*
X16477000Y12827000D03*
X16477000Y11557000D03*
X21877000Y11557000D03*
X21877000Y12827000D03*
X21877000Y14097000D03*
X21877000Y15367000D03*
G04 #@! TD*
D26*
G04 #@! TO.C,U3*
X20252000Y6924000D03*
X20252000Y7874000D03*
X20252000Y8824000D03*
X16832000Y8824000D03*
X16832000Y7874000D03*
X16832000Y6924000D03*
G04 #@! TD*
D27*
G04 #@! TO.C,U2*
X17668000Y35686000D03*
X15668000Y35686000D03*
X13668000Y35686000D03*
X11668000Y35686000D03*
X9668000Y35686000D03*
X7668000Y35686000D03*
X5668000Y35686000D03*
X3668000Y35686000D03*
X3668000Y19686000D03*
X5668000Y19686000D03*
X7668000Y19686000D03*
X9668000Y19686000D03*
X11668000Y19686000D03*
X13668000Y19686000D03*
X15668000Y19686000D03*
X17668000Y19686000D03*
G04 #@! TD*
D11*
G04 #@! TO.C,R7*
G36*
X22948071Y43454377D02*
X22980781Y43449525D01*
X23012857Y43441491D01*
X23043991Y43430351D01*
X23073884Y43416213D01*
X23102247Y43399213D01*
X23128807Y43379515D01*
X23153308Y43357308D01*
X23175515Y43332807D01*
X23195213Y43306247D01*
X23212213Y43277884D01*
X23226351Y43247991D01*
X23237491Y43216857D01*
X23245525Y43184781D01*
X23250377Y43152071D01*
X23252000Y43119044D01*
X23252000Y42242956D01*
X23250377Y42209929D01*
X23245525Y42177219D01*
X23237491Y42145143D01*
X23226351Y42114009D01*
X23212213Y42084116D01*
X23195213Y42055753D01*
X23175515Y42029193D01*
X23153308Y42004692D01*
X23128807Y41982485D01*
X23102247Y41962787D01*
X23073884Y41945787D01*
X23043991Y41931649D01*
X23012857Y41920509D01*
X22980781Y41912475D01*
X22948071Y41907623D01*
X22915044Y41906000D01*
X21788956Y41906000D01*
X21755929Y41907623D01*
X21723219Y41912475D01*
X21691143Y41920509D01*
X21660009Y41931649D01*
X21630116Y41945787D01*
X21601753Y41962787D01*
X21575193Y41982485D01*
X21550692Y42004692D01*
X21528485Y42029193D01*
X21508787Y42055753D01*
X21491787Y42084116D01*
X21477649Y42114009D01*
X21466509Y42145143D01*
X21458475Y42177219D01*
X21453623Y42209929D01*
X21452000Y42242956D01*
X21452000Y43119044D01*
X21453623Y43152071D01*
X21458475Y43184781D01*
X21466509Y43216857D01*
X21477649Y43247991D01*
X21491787Y43277884D01*
X21508787Y43306247D01*
X21528485Y43332807D01*
X21550692Y43357308D01*
X21575193Y43379515D01*
X21601753Y43399213D01*
X21630116Y43416213D01*
X21660009Y43430351D01*
X21691143Y43441491D01*
X21723219Y43449525D01*
X21755929Y43454377D01*
X21788956Y43456000D01*
X22915044Y43456000D01*
X22948071Y43454377D01*
X22948071Y43454377D01*
G37*
D12*
X22352000Y42681000D03*
D11*
G36*
X22948071Y41404377D02*
X22980781Y41399525D01*
X23012857Y41391491D01*
X23043991Y41380351D01*
X23073884Y41366213D01*
X23102247Y41349213D01*
X23128807Y41329515D01*
X23153308Y41307308D01*
X23175515Y41282807D01*
X23195213Y41256247D01*
X23212213Y41227884D01*
X23226351Y41197991D01*
X23237491Y41166857D01*
X23245525Y41134781D01*
X23250377Y41102071D01*
X23252000Y41069044D01*
X23252000Y40192956D01*
X23250377Y40159929D01*
X23245525Y40127219D01*
X23237491Y40095143D01*
X23226351Y40064009D01*
X23212213Y40034116D01*
X23195213Y40005753D01*
X23175515Y39979193D01*
X23153308Y39954692D01*
X23128807Y39932485D01*
X23102247Y39912787D01*
X23073884Y39895787D01*
X23043991Y39881649D01*
X23012857Y39870509D01*
X22980781Y39862475D01*
X22948071Y39857623D01*
X22915044Y39856000D01*
X21788956Y39856000D01*
X21755929Y39857623D01*
X21723219Y39862475D01*
X21691143Y39870509D01*
X21660009Y39881649D01*
X21630116Y39895787D01*
X21601753Y39912787D01*
X21575193Y39932485D01*
X21550692Y39954692D01*
X21528485Y39979193D01*
X21508787Y40005753D01*
X21491787Y40034116D01*
X21477649Y40064009D01*
X21466509Y40095143D01*
X21458475Y40127219D01*
X21453623Y40159929D01*
X21452000Y40192956D01*
X21452000Y41069044D01*
X21453623Y41102071D01*
X21458475Y41134781D01*
X21466509Y41166857D01*
X21477649Y41197991D01*
X21491787Y41227884D01*
X21508787Y41256247D01*
X21528485Y41282807D01*
X21550692Y41307308D01*
X21575193Y41329515D01*
X21601753Y41349213D01*
X21630116Y41366213D01*
X21660009Y41380351D01*
X21691143Y41391491D01*
X21723219Y41399525D01*
X21755929Y41404377D01*
X21788956Y41406000D01*
X22915044Y41406000D01*
X22948071Y41404377D01*
X22948071Y41404377D01*
G37*
D12*
X22352000Y40631000D03*
G04 #@! TD*
D11*
G04 #@! TO.C,R5*
G36*
X22948071Y32015377D02*
X22980781Y32010525D01*
X23012857Y32002491D01*
X23043991Y31991351D01*
X23073884Y31977213D01*
X23102247Y31960213D01*
X23128807Y31940515D01*
X23153308Y31918308D01*
X23175515Y31893807D01*
X23195213Y31867247D01*
X23212213Y31838884D01*
X23226351Y31808991D01*
X23237491Y31777857D01*
X23245525Y31745781D01*
X23250377Y31713071D01*
X23252000Y31680044D01*
X23252000Y30803956D01*
X23250377Y30770929D01*
X23245525Y30738219D01*
X23237491Y30706143D01*
X23226351Y30675009D01*
X23212213Y30645116D01*
X23195213Y30616753D01*
X23175515Y30590193D01*
X23153308Y30565692D01*
X23128807Y30543485D01*
X23102247Y30523787D01*
X23073884Y30506787D01*
X23043991Y30492649D01*
X23012857Y30481509D01*
X22980781Y30473475D01*
X22948071Y30468623D01*
X22915044Y30467000D01*
X21788956Y30467000D01*
X21755929Y30468623D01*
X21723219Y30473475D01*
X21691143Y30481509D01*
X21660009Y30492649D01*
X21630116Y30506787D01*
X21601753Y30523787D01*
X21575193Y30543485D01*
X21550692Y30565692D01*
X21528485Y30590193D01*
X21508787Y30616753D01*
X21491787Y30645116D01*
X21477649Y30675009D01*
X21466509Y30706143D01*
X21458475Y30738219D01*
X21453623Y30770929D01*
X21452000Y30803956D01*
X21452000Y31680044D01*
X21453623Y31713071D01*
X21458475Y31745781D01*
X21466509Y31777857D01*
X21477649Y31808991D01*
X21491787Y31838884D01*
X21508787Y31867247D01*
X21528485Y31893807D01*
X21550692Y31918308D01*
X21575193Y31940515D01*
X21601753Y31960213D01*
X21630116Y31977213D01*
X21660009Y31991351D01*
X21691143Y32002491D01*
X21723219Y32010525D01*
X21755929Y32015377D01*
X21788956Y32017000D01*
X22915044Y32017000D01*
X22948071Y32015377D01*
X22948071Y32015377D01*
G37*
D12*
X22352000Y31242000D03*
D11*
G36*
X22948071Y34065377D02*
X22980781Y34060525D01*
X23012857Y34052491D01*
X23043991Y34041351D01*
X23073884Y34027213D01*
X23102247Y34010213D01*
X23128807Y33990515D01*
X23153308Y33968308D01*
X23175515Y33943807D01*
X23195213Y33917247D01*
X23212213Y33888884D01*
X23226351Y33858991D01*
X23237491Y33827857D01*
X23245525Y33795781D01*
X23250377Y33763071D01*
X23252000Y33730044D01*
X23252000Y32853956D01*
X23250377Y32820929D01*
X23245525Y32788219D01*
X23237491Y32756143D01*
X23226351Y32725009D01*
X23212213Y32695116D01*
X23195213Y32666753D01*
X23175515Y32640193D01*
X23153308Y32615692D01*
X23128807Y32593485D01*
X23102247Y32573787D01*
X23073884Y32556787D01*
X23043991Y32542649D01*
X23012857Y32531509D01*
X22980781Y32523475D01*
X22948071Y32518623D01*
X22915044Y32517000D01*
X21788956Y32517000D01*
X21755929Y32518623D01*
X21723219Y32523475D01*
X21691143Y32531509D01*
X21660009Y32542649D01*
X21630116Y32556787D01*
X21601753Y32573787D01*
X21575193Y32593485D01*
X21550692Y32615692D01*
X21528485Y32640193D01*
X21508787Y32666753D01*
X21491787Y32695116D01*
X21477649Y32725009D01*
X21466509Y32756143D01*
X21458475Y32788219D01*
X21453623Y32820929D01*
X21452000Y32853956D01*
X21452000Y33730044D01*
X21453623Y33763071D01*
X21458475Y33795781D01*
X21466509Y33827857D01*
X21477649Y33858991D01*
X21491787Y33888884D01*
X21508787Y33917247D01*
X21528485Y33943807D01*
X21550692Y33968308D01*
X21575193Y33990515D01*
X21601753Y34010213D01*
X21630116Y34027213D01*
X21660009Y34041351D01*
X21691143Y34052491D01*
X21723219Y34060525D01*
X21755929Y34065377D01*
X21788956Y34067000D01*
X22915044Y34067000D01*
X22948071Y34065377D01*
X22948071Y34065377D01*
G37*
D12*
X22352000Y33292000D03*
G04 #@! TD*
D11*
G04 #@! TO.C,R4*
G36*
X18133071Y5343377D02*
X18165781Y5338525D01*
X18197857Y5330491D01*
X18228991Y5319351D01*
X18258884Y5305213D01*
X18287247Y5288213D01*
X18313807Y5268515D01*
X18338308Y5246308D01*
X18360515Y5221807D01*
X18380213Y5195247D01*
X18397213Y5166884D01*
X18411351Y5136991D01*
X18422491Y5105857D01*
X18430525Y5073781D01*
X18435377Y5041071D01*
X18437000Y5008044D01*
X18437000Y3881956D01*
X18435377Y3848929D01*
X18430525Y3816219D01*
X18422491Y3784143D01*
X18411351Y3753009D01*
X18397213Y3723116D01*
X18380213Y3694753D01*
X18360515Y3668193D01*
X18338308Y3643692D01*
X18313807Y3621485D01*
X18287247Y3601787D01*
X18258884Y3584787D01*
X18228991Y3570649D01*
X18197857Y3559509D01*
X18165781Y3551475D01*
X18133071Y3546623D01*
X18100044Y3545000D01*
X17223956Y3545000D01*
X17190929Y3546623D01*
X17158219Y3551475D01*
X17126143Y3559509D01*
X17095009Y3570649D01*
X17065116Y3584787D01*
X17036753Y3601787D01*
X17010193Y3621485D01*
X16985692Y3643692D01*
X16963485Y3668193D01*
X16943787Y3694753D01*
X16926787Y3723116D01*
X16912649Y3753009D01*
X16901509Y3784143D01*
X16893475Y3816219D01*
X16888623Y3848929D01*
X16887000Y3881956D01*
X16887000Y5008044D01*
X16888623Y5041071D01*
X16893475Y5073781D01*
X16901509Y5105857D01*
X16912649Y5136991D01*
X16926787Y5166884D01*
X16943787Y5195247D01*
X16963485Y5221807D01*
X16985692Y5246308D01*
X17010193Y5268515D01*
X17036753Y5288213D01*
X17065116Y5305213D01*
X17095009Y5319351D01*
X17126143Y5330491D01*
X17158219Y5338525D01*
X17190929Y5343377D01*
X17223956Y5345000D01*
X18100044Y5345000D01*
X18133071Y5343377D01*
X18133071Y5343377D01*
G37*
D12*
X17662000Y4445000D03*
D11*
G36*
X16083071Y5343377D02*
X16115781Y5338525D01*
X16147857Y5330491D01*
X16178991Y5319351D01*
X16208884Y5305213D01*
X16237247Y5288213D01*
X16263807Y5268515D01*
X16288308Y5246308D01*
X16310515Y5221807D01*
X16330213Y5195247D01*
X16347213Y5166884D01*
X16361351Y5136991D01*
X16372491Y5105857D01*
X16380525Y5073781D01*
X16385377Y5041071D01*
X16387000Y5008044D01*
X16387000Y3881956D01*
X16385377Y3848929D01*
X16380525Y3816219D01*
X16372491Y3784143D01*
X16361351Y3753009D01*
X16347213Y3723116D01*
X16330213Y3694753D01*
X16310515Y3668193D01*
X16288308Y3643692D01*
X16263807Y3621485D01*
X16237247Y3601787D01*
X16208884Y3584787D01*
X16178991Y3570649D01*
X16147857Y3559509D01*
X16115781Y3551475D01*
X16083071Y3546623D01*
X16050044Y3545000D01*
X15173956Y3545000D01*
X15140929Y3546623D01*
X15108219Y3551475D01*
X15076143Y3559509D01*
X15045009Y3570649D01*
X15015116Y3584787D01*
X14986753Y3601787D01*
X14960193Y3621485D01*
X14935692Y3643692D01*
X14913485Y3668193D01*
X14893787Y3694753D01*
X14876787Y3723116D01*
X14862649Y3753009D01*
X14851509Y3784143D01*
X14843475Y3816219D01*
X14838623Y3848929D01*
X14837000Y3881956D01*
X14837000Y5008044D01*
X14838623Y5041071D01*
X14843475Y5073781D01*
X14851509Y5105857D01*
X14862649Y5136991D01*
X14876787Y5166884D01*
X14893787Y5195247D01*
X14913485Y5221807D01*
X14935692Y5246308D01*
X14960193Y5268515D01*
X14986753Y5288213D01*
X15015116Y5305213D01*
X15045009Y5319351D01*
X15076143Y5330491D01*
X15108219Y5338525D01*
X15140929Y5343377D01*
X15173956Y5345000D01*
X16050044Y5345000D01*
X16083071Y5343377D01*
X16083071Y5343377D01*
G37*
D12*
X15612000Y4445000D03*
G04 #@! TD*
D11*
G04 #@! TO.C,R3*
G36*
X11257071Y10423377D02*
X11289781Y10418525D01*
X11321857Y10410491D01*
X11352991Y10399351D01*
X11382884Y10385213D01*
X11411247Y10368213D01*
X11437807Y10348515D01*
X11462308Y10326308D01*
X11484515Y10301807D01*
X11504213Y10275247D01*
X11521213Y10246884D01*
X11535351Y10216991D01*
X11546491Y10185857D01*
X11554525Y10153781D01*
X11559377Y10121071D01*
X11561000Y10088044D01*
X11561000Y8961956D01*
X11559377Y8928929D01*
X11554525Y8896219D01*
X11546491Y8864143D01*
X11535351Y8833009D01*
X11521213Y8803116D01*
X11504213Y8774753D01*
X11484515Y8748193D01*
X11462308Y8723692D01*
X11437807Y8701485D01*
X11411247Y8681787D01*
X11382884Y8664787D01*
X11352991Y8650649D01*
X11321857Y8639509D01*
X11289781Y8631475D01*
X11257071Y8626623D01*
X11224044Y8625000D01*
X10347956Y8625000D01*
X10314929Y8626623D01*
X10282219Y8631475D01*
X10250143Y8639509D01*
X10219009Y8650649D01*
X10189116Y8664787D01*
X10160753Y8681787D01*
X10134193Y8701485D01*
X10109692Y8723692D01*
X10087485Y8748193D01*
X10067787Y8774753D01*
X10050787Y8803116D01*
X10036649Y8833009D01*
X10025509Y8864143D01*
X10017475Y8896219D01*
X10012623Y8928929D01*
X10011000Y8961956D01*
X10011000Y10088044D01*
X10012623Y10121071D01*
X10017475Y10153781D01*
X10025509Y10185857D01*
X10036649Y10216991D01*
X10050787Y10246884D01*
X10067787Y10275247D01*
X10087485Y10301807D01*
X10109692Y10326308D01*
X10134193Y10348515D01*
X10160753Y10368213D01*
X10189116Y10385213D01*
X10219009Y10399351D01*
X10250143Y10410491D01*
X10282219Y10418525D01*
X10314929Y10423377D01*
X10347956Y10425000D01*
X11224044Y10425000D01*
X11257071Y10423377D01*
X11257071Y10423377D01*
G37*
D12*
X10786000Y9525000D03*
D11*
G36*
X13307071Y10423377D02*
X13339781Y10418525D01*
X13371857Y10410491D01*
X13402991Y10399351D01*
X13432884Y10385213D01*
X13461247Y10368213D01*
X13487807Y10348515D01*
X13512308Y10326308D01*
X13534515Y10301807D01*
X13554213Y10275247D01*
X13571213Y10246884D01*
X13585351Y10216991D01*
X13596491Y10185857D01*
X13604525Y10153781D01*
X13609377Y10121071D01*
X13611000Y10088044D01*
X13611000Y8961956D01*
X13609377Y8928929D01*
X13604525Y8896219D01*
X13596491Y8864143D01*
X13585351Y8833009D01*
X13571213Y8803116D01*
X13554213Y8774753D01*
X13534515Y8748193D01*
X13512308Y8723692D01*
X13487807Y8701485D01*
X13461247Y8681787D01*
X13432884Y8664787D01*
X13402991Y8650649D01*
X13371857Y8639509D01*
X13339781Y8631475D01*
X13307071Y8626623D01*
X13274044Y8625000D01*
X12397956Y8625000D01*
X12364929Y8626623D01*
X12332219Y8631475D01*
X12300143Y8639509D01*
X12269009Y8650649D01*
X12239116Y8664787D01*
X12210753Y8681787D01*
X12184193Y8701485D01*
X12159692Y8723692D01*
X12137485Y8748193D01*
X12117787Y8774753D01*
X12100787Y8803116D01*
X12086649Y8833009D01*
X12075509Y8864143D01*
X12067475Y8896219D01*
X12062623Y8928929D01*
X12061000Y8961956D01*
X12061000Y10088044D01*
X12062623Y10121071D01*
X12067475Y10153781D01*
X12075509Y10185857D01*
X12086649Y10216991D01*
X12100787Y10246884D01*
X12117787Y10275247D01*
X12137485Y10301807D01*
X12159692Y10326308D01*
X12184193Y10348515D01*
X12210753Y10368213D01*
X12239116Y10385213D01*
X12269009Y10399351D01*
X12300143Y10410491D01*
X12332219Y10418525D01*
X12364929Y10423377D01*
X12397956Y10425000D01*
X13274044Y10425000D01*
X13307071Y10423377D01*
X13307071Y10423377D01*
G37*
D12*
X12836000Y9525000D03*
G04 #@! TD*
D11*
G04 #@! TO.C,R2*
G36*
X12672071Y73034377D02*
X12704781Y73029525D01*
X12736857Y73021491D01*
X12767991Y73010351D01*
X12797884Y72996213D01*
X12826247Y72979213D01*
X12852807Y72959515D01*
X12877308Y72937308D01*
X12899515Y72912807D01*
X12919213Y72886247D01*
X12936213Y72857884D01*
X12950351Y72827991D01*
X12961491Y72796857D01*
X12969525Y72764781D01*
X12974377Y72732071D01*
X12976000Y72699044D01*
X12976000Y71572956D01*
X12974377Y71539929D01*
X12969525Y71507219D01*
X12961491Y71475143D01*
X12950351Y71444009D01*
X12936213Y71414116D01*
X12919213Y71385753D01*
X12899515Y71359193D01*
X12877308Y71334692D01*
X12852807Y71312485D01*
X12826247Y71292787D01*
X12797884Y71275787D01*
X12767991Y71261649D01*
X12736857Y71250509D01*
X12704781Y71242475D01*
X12672071Y71237623D01*
X12639044Y71236000D01*
X11762956Y71236000D01*
X11729929Y71237623D01*
X11697219Y71242475D01*
X11665143Y71250509D01*
X11634009Y71261649D01*
X11604116Y71275787D01*
X11575753Y71292787D01*
X11549193Y71312485D01*
X11524692Y71334692D01*
X11502485Y71359193D01*
X11482787Y71385753D01*
X11465787Y71414116D01*
X11451649Y71444009D01*
X11440509Y71475143D01*
X11432475Y71507219D01*
X11427623Y71539929D01*
X11426000Y71572956D01*
X11426000Y72699044D01*
X11427623Y72732071D01*
X11432475Y72764781D01*
X11440509Y72796857D01*
X11451649Y72827991D01*
X11465787Y72857884D01*
X11482787Y72886247D01*
X11502485Y72912807D01*
X11524692Y72937308D01*
X11549193Y72959515D01*
X11575753Y72979213D01*
X11604116Y72996213D01*
X11634009Y73010351D01*
X11665143Y73021491D01*
X11697219Y73029525D01*
X11729929Y73034377D01*
X11762956Y73036000D01*
X12639044Y73036000D01*
X12672071Y73034377D01*
X12672071Y73034377D01*
G37*
D12*
X12201000Y72136000D03*
D11*
G36*
X10622071Y73034377D02*
X10654781Y73029525D01*
X10686857Y73021491D01*
X10717991Y73010351D01*
X10747884Y72996213D01*
X10776247Y72979213D01*
X10802807Y72959515D01*
X10827308Y72937308D01*
X10849515Y72912807D01*
X10869213Y72886247D01*
X10886213Y72857884D01*
X10900351Y72827991D01*
X10911491Y72796857D01*
X10919525Y72764781D01*
X10924377Y72732071D01*
X10926000Y72699044D01*
X10926000Y71572956D01*
X10924377Y71539929D01*
X10919525Y71507219D01*
X10911491Y71475143D01*
X10900351Y71444009D01*
X10886213Y71414116D01*
X10869213Y71385753D01*
X10849515Y71359193D01*
X10827308Y71334692D01*
X10802807Y71312485D01*
X10776247Y71292787D01*
X10747884Y71275787D01*
X10717991Y71261649D01*
X10686857Y71250509D01*
X10654781Y71242475D01*
X10622071Y71237623D01*
X10589044Y71236000D01*
X9712956Y71236000D01*
X9679929Y71237623D01*
X9647219Y71242475D01*
X9615143Y71250509D01*
X9584009Y71261649D01*
X9554116Y71275787D01*
X9525753Y71292787D01*
X9499193Y71312485D01*
X9474692Y71334692D01*
X9452485Y71359193D01*
X9432787Y71385753D01*
X9415787Y71414116D01*
X9401649Y71444009D01*
X9390509Y71475143D01*
X9382475Y71507219D01*
X9377623Y71539929D01*
X9376000Y71572956D01*
X9376000Y72699044D01*
X9377623Y72732071D01*
X9382475Y72764781D01*
X9390509Y72796857D01*
X9401649Y72827991D01*
X9415787Y72857884D01*
X9432787Y72886247D01*
X9452485Y72912807D01*
X9474692Y72937308D01*
X9499193Y72959515D01*
X9525753Y72979213D01*
X9554116Y72996213D01*
X9584009Y73010351D01*
X9615143Y73021491D01*
X9647219Y73029525D01*
X9679929Y73034377D01*
X9712956Y73036000D01*
X10589044Y73036000D01*
X10622071Y73034377D01*
X10622071Y73034377D01*
G37*
D12*
X10151000Y72136000D03*
G04 #@! TD*
D11*
G04 #@! TO.C,R1*
G36*
X15328071Y68836377D02*
X15360781Y68831525D01*
X15392857Y68823491D01*
X15423991Y68812351D01*
X15453884Y68798213D01*
X15482247Y68781213D01*
X15508807Y68761515D01*
X15533308Y68739308D01*
X15555515Y68714807D01*
X15575213Y68688247D01*
X15592213Y68659884D01*
X15606351Y68629991D01*
X15617491Y68598857D01*
X15625525Y68566781D01*
X15630377Y68534071D01*
X15632000Y68501044D01*
X15632000Y67624956D01*
X15630377Y67591929D01*
X15625525Y67559219D01*
X15617491Y67527143D01*
X15606351Y67496009D01*
X15592213Y67466116D01*
X15575213Y67437753D01*
X15555515Y67411193D01*
X15533308Y67386692D01*
X15508807Y67364485D01*
X15482247Y67344787D01*
X15453884Y67327787D01*
X15423991Y67313649D01*
X15392857Y67302509D01*
X15360781Y67294475D01*
X15328071Y67289623D01*
X15295044Y67288000D01*
X14168956Y67288000D01*
X14135929Y67289623D01*
X14103219Y67294475D01*
X14071143Y67302509D01*
X14040009Y67313649D01*
X14010116Y67327787D01*
X13981753Y67344787D01*
X13955193Y67364485D01*
X13930692Y67386692D01*
X13908485Y67411193D01*
X13888787Y67437753D01*
X13871787Y67466116D01*
X13857649Y67496009D01*
X13846509Y67527143D01*
X13838475Y67559219D01*
X13833623Y67591929D01*
X13832000Y67624956D01*
X13832000Y68501044D01*
X13833623Y68534071D01*
X13838475Y68566781D01*
X13846509Y68598857D01*
X13857649Y68629991D01*
X13871787Y68659884D01*
X13888787Y68688247D01*
X13908485Y68714807D01*
X13930692Y68739308D01*
X13955193Y68761515D01*
X13981753Y68781213D01*
X14010116Y68798213D01*
X14040009Y68812351D01*
X14071143Y68823491D01*
X14103219Y68831525D01*
X14135929Y68836377D01*
X14168956Y68838000D01*
X15295044Y68838000D01*
X15328071Y68836377D01*
X15328071Y68836377D01*
G37*
D12*
X14732000Y68063000D03*
D11*
G36*
X15328071Y70886377D02*
X15360781Y70881525D01*
X15392857Y70873491D01*
X15423991Y70862351D01*
X15453884Y70848213D01*
X15482247Y70831213D01*
X15508807Y70811515D01*
X15533308Y70789308D01*
X15555515Y70764807D01*
X15575213Y70738247D01*
X15592213Y70709884D01*
X15606351Y70679991D01*
X15617491Y70648857D01*
X15625525Y70616781D01*
X15630377Y70584071D01*
X15632000Y70551044D01*
X15632000Y69674956D01*
X15630377Y69641929D01*
X15625525Y69609219D01*
X15617491Y69577143D01*
X15606351Y69546009D01*
X15592213Y69516116D01*
X15575213Y69487753D01*
X15555515Y69461193D01*
X15533308Y69436692D01*
X15508807Y69414485D01*
X15482247Y69394787D01*
X15453884Y69377787D01*
X15423991Y69363649D01*
X15392857Y69352509D01*
X15360781Y69344475D01*
X15328071Y69339623D01*
X15295044Y69338000D01*
X14168956Y69338000D01*
X14135929Y69339623D01*
X14103219Y69344475D01*
X14071143Y69352509D01*
X14040009Y69363649D01*
X14010116Y69377787D01*
X13981753Y69394787D01*
X13955193Y69414485D01*
X13930692Y69436692D01*
X13908485Y69461193D01*
X13888787Y69487753D01*
X13871787Y69516116D01*
X13857649Y69546009D01*
X13846509Y69577143D01*
X13838475Y69609219D01*
X13833623Y69641929D01*
X13832000Y69674956D01*
X13832000Y70551044D01*
X13833623Y70584071D01*
X13838475Y70616781D01*
X13846509Y70648857D01*
X13857649Y70679991D01*
X13871787Y70709884D01*
X13888787Y70738247D01*
X13908485Y70764807D01*
X13930692Y70789308D01*
X13955193Y70811515D01*
X13981753Y70831213D01*
X14010116Y70848213D01*
X14040009Y70862351D01*
X14071143Y70873491D01*
X14103219Y70881525D01*
X14135929Y70886377D01*
X14168956Y70888000D01*
X15295044Y70888000D01*
X15328071Y70886377D01*
X15328071Y70886377D01*
G37*
D12*
X14732000Y70113000D03*
G04 #@! TD*
D11*
G04 #@! TO.C,R6*
G36*
X6819071Y41658377D02*
X6851781Y41653525D01*
X6883857Y41645491D01*
X6914991Y41634351D01*
X6944884Y41620213D01*
X6973247Y41603213D01*
X6999807Y41583515D01*
X7024308Y41561308D01*
X7046515Y41536807D01*
X7066213Y41510247D01*
X7083213Y41481884D01*
X7097351Y41451991D01*
X7108491Y41420857D01*
X7116525Y41388781D01*
X7121377Y41356071D01*
X7123000Y41323044D01*
X7123000Y40446956D01*
X7121377Y40413929D01*
X7116525Y40381219D01*
X7108491Y40349143D01*
X7097351Y40318009D01*
X7083213Y40288116D01*
X7066213Y40259753D01*
X7046515Y40233193D01*
X7024308Y40208692D01*
X6999807Y40186485D01*
X6973247Y40166787D01*
X6944884Y40149787D01*
X6914991Y40135649D01*
X6883857Y40124509D01*
X6851781Y40116475D01*
X6819071Y40111623D01*
X6786044Y40110000D01*
X5659956Y40110000D01*
X5626929Y40111623D01*
X5594219Y40116475D01*
X5562143Y40124509D01*
X5531009Y40135649D01*
X5501116Y40149787D01*
X5472753Y40166787D01*
X5446193Y40186485D01*
X5421692Y40208692D01*
X5399485Y40233193D01*
X5379787Y40259753D01*
X5362787Y40288116D01*
X5348649Y40318009D01*
X5337509Y40349143D01*
X5329475Y40381219D01*
X5324623Y40413929D01*
X5323000Y40446956D01*
X5323000Y41323044D01*
X5324623Y41356071D01*
X5329475Y41388781D01*
X5337509Y41420857D01*
X5348649Y41451991D01*
X5362787Y41481884D01*
X5379787Y41510247D01*
X5399485Y41536807D01*
X5421692Y41561308D01*
X5446193Y41583515D01*
X5472753Y41603213D01*
X5501116Y41620213D01*
X5531009Y41634351D01*
X5562143Y41645491D01*
X5594219Y41653525D01*
X5626929Y41658377D01*
X5659956Y41660000D01*
X6786044Y41660000D01*
X6819071Y41658377D01*
X6819071Y41658377D01*
G37*
D12*
X6223000Y40885000D03*
D11*
G36*
X6819071Y43708377D02*
X6851781Y43703525D01*
X6883857Y43695491D01*
X6914991Y43684351D01*
X6944884Y43670213D01*
X6973247Y43653213D01*
X6999807Y43633515D01*
X7024308Y43611308D01*
X7046515Y43586807D01*
X7066213Y43560247D01*
X7083213Y43531884D01*
X7097351Y43501991D01*
X7108491Y43470857D01*
X7116525Y43438781D01*
X7121377Y43406071D01*
X7123000Y43373044D01*
X7123000Y42496956D01*
X7121377Y42463929D01*
X7116525Y42431219D01*
X7108491Y42399143D01*
X7097351Y42368009D01*
X7083213Y42338116D01*
X7066213Y42309753D01*
X7046515Y42283193D01*
X7024308Y42258692D01*
X6999807Y42236485D01*
X6973247Y42216787D01*
X6944884Y42199787D01*
X6914991Y42185649D01*
X6883857Y42174509D01*
X6851781Y42166475D01*
X6819071Y42161623D01*
X6786044Y42160000D01*
X5659956Y42160000D01*
X5626929Y42161623D01*
X5594219Y42166475D01*
X5562143Y42174509D01*
X5531009Y42185649D01*
X5501116Y42199787D01*
X5472753Y42216787D01*
X5446193Y42236485D01*
X5421692Y42258692D01*
X5399485Y42283193D01*
X5379787Y42309753D01*
X5362787Y42338116D01*
X5348649Y42368009D01*
X5337509Y42399143D01*
X5329475Y42431219D01*
X5324623Y42463929D01*
X5323000Y42496956D01*
X5323000Y43373044D01*
X5324623Y43406071D01*
X5329475Y43438781D01*
X5337509Y43470857D01*
X5348649Y43501991D01*
X5362787Y43531884D01*
X5379787Y43560247D01*
X5399485Y43586807D01*
X5421692Y43611308D01*
X5446193Y43633515D01*
X5472753Y43653213D01*
X5501116Y43670213D01*
X5531009Y43684351D01*
X5562143Y43695491D01*
X5594219Y43703525D01*
X5626929Y43708377D01*
X5659956Y43710000D01*
X6786044Y43710000D01*
X6819071Y43708377D01*
X6819071Y43708377D01*
G37*
D12*
X6223000Y42935000D03*
G04 #@! TD*
D28*
G04 #@! TO.C,J1*
X5588000Y77668000D03*
D29*
X5588000Y74168000D03*
X5588000Y70668000D03*
G04 #@! TD*
D30*
G04 #@! TO.C,TP1*
X14605000Y10287000D03*
G04 #@! TD*
M02*
