M48
;DRILL file {KiCad (5.0.0)} date 08/10/18 19:45:54
;FORMAT={-:-/ absolute / metric / decimal}
FMAT,2
METRIC,TZ
T1C0.460
T2C0.500
T3C1.000
T4C1.200
T5C1.540
T6C3.150
%
G90
G05
M71
T1
X7.689Y14.286
X7.689Y5.526
T2
X4.191Y55.753
X6.223Y52.451
X6.35Y50.419
X8.001Y57.658
X9.144Y1.905
X11.43Y52.451
X12.192Y44.958
X13.291Y64.942
X13.602Y51.846
X13.993Y59.794
X14.179Y45.358
X14.224Y14.732
X14.351Y32.512
X16.129Y58.293
X16.891Y32.004
X17.907Y57.658
X18.034Y26.543
X18.796Y13.335
X18.9Y41.17
X19.755Y41.781
X19.939Y32.004
X20.574Y78.867
X21.336Y49.276
T3
X10.033Y42.164
X10.033Y39.624
X12.573Y42.164
X12.573Y39.624
X15.113Y42.164
X15.113Y39.624
X2.667Y52.705
X2.667Y50.165
X2.667Y47.625
X2.667Y45.085
X2.667Y42.545
X2.667Y40.005
T4
X5.588Y77.668
X5.588Y74.168
X5.588Y70.668
T5
X11.43Y76.2
X11.43Y4.2
T6
X11.43Y67.7
X11.43Y12.7
T0
M30
