M48
;DRILL file {KiCad (5.0.0)} date 09/22/18 23:16:16
;FORMAT={-:-/ absolute / metric / decimal}
FMAT,2
METRIC,TZ
T1C0.762
T2C1.000
T3C1.016
T4C3.200
%
G90
G05
M71
T1
X36.959Y12.661
X36.959Y10.121
X36.959Y7.581
X36.959Y5.041
T2
X6.375Y51.054
X16.129Y50.952
T3
X8.242Y41.872
X8.242Y39.332
X8.242Y36.792
X8.242Y34.252
X8.242Y31.712
X8.242Y29.172
X8.242Y26.632
X8.242Y24.092
X8.242Y21.552
X8.242Y19.012
X8.242Y16.472
X8.242Y13.932
X8.242Y11.392
X8.242Y8.852
X8.242Y6.312
X31.102Y41.872
X31.102Y39.332
X31.102Y36.792
X31.102Y34.252
X31.102Y31.712
X31.102Y29.172
X31.102Y26.632
X31.102Y24.092
X31.102Y21.552
X31.102Y19.012
X31.102Y16.472
X31.102Y13.932
X31.102Y11.392
X31.102Y8.852
X31.102Y6.312
T4
X8.992Y2.062
X9.042Y45.692
X30.242Y45.692
X30.242Y2.062
T0
M30
