M48
;DRILL file {KiCad (5.0.0)} date 08/05/18 21:48:24
;FORMAT={-:-/ absolute / metric / decimal}
FMAT,2
METRIC,TZ
T1C0.762
T2C3.100
%
G90
G05
M71
T1
X1.656Y46.014
X1.656Y43.474
X1.656Y40.934
X1.656Y38.394
X1.656Y35.854
X1.656Y33.314
X1.656Y30.774
X1.656Y28.234
X1.656Y25.694
X1.656Y23.154
X1.656Y20.614
X1.656Y18.074
X1.656Y15.534
X1.656Y12.994
X1.656Y10.454
X24.376Y46.014
X24.376Y43.474
X24.376Y40.934
X24.376Y38.394
X24.376Y35.854
X24.376Y33.314
X24.376Y30.774
X24.376Y28.234
X24.376Y25.694
X24.376Y23.154
X24.376Y20.614
X24.376Y18.074
X24.376Y15.534
X24.376Y12.994
X24.376Y10.454
T2
X2.876Y54.774
X2.876Y2.774
X23.876Y54.774
X23.876Y2.774
T0
M30
