M48
;DRILL file {KiCad (5.0.0)} date 08/05/18 16:26:25
;FORMAT={-:-/ absolute / metric / decimal}
FMAT,2
METRIC,TZ
T1C0.762
T2C0.800
T3C3.200
%
G90
G05
M71
T1
X2.107Y41.581
X2.107Y39.041
X2.107Y36.501
X2.107Y33.961
X2.107Y31.421
X2.107Y28.881
X2.107Y26.341
X2.107Y23.801
X2.107Y21.261
X2.107Y18.721
X2.107Y16.181
X2.107Y13.641
X2.107Y11.101
X2.107Y8.561
X2.107Y6.021
X30.047Y41.581
X30.047Y39.041
X30.047Y36.501
X30.047Y33.961
X30.047Y31.421
X30.047Y28.881
X30.047Y26.341
X30.047Y23.801
X30.047Y21.261
X30.047Y18.721
X30.047Y16.181
X30.047Y13.641
X30.047Y11.101
X30.047Y8.561
X30.047Y6.021
T2
X15.748Y18.288
X22.352Y12.192
X26.67Y18.796
X26.67Y16.256
T3
X28.804Y45.415
X3.404Y45.364
X28.753Y2.235
X3.404Y2.235
T0
M30
