G04 #@! TF.GenerationSoftware,KiCad,Pcbnew,(5.0.0)*
G04 #@! TF.CreationDate,2018-08-05T21:43:37+02:00*
G04 #@! TF.ProjectId,main,6D61696E2E6B696361645F7063620000,rev?*
G04 #@! TF.SameCoordinates,PX6f105f8PY65bcec0*
G04 #@! TF.FileFunction,Copper,L1,Top,Signal*
G04 #@! TF.FilePolarity,Positive*
%FSLAX46Y46*%
G04 Gerber Fmt 4.6, Leading zero omitted, Abs format (unit mm)*
G04 Created by KiCad (PCBNEW (5.0.0)) date 08/05/18 21:43:37*
%MOMM*%
%LPD*%
G01*
G04 APERTURE LIST*
G04 #@! TA.AperFunction,WasherPad*
%ADD10C,3.200000*%
G04 #@! TD*
G04 #@! TA.AperFunction,ComponentPad*
%ADD11C,1.524000*%
G04 #@! TD*
G04 #@! TA.AperFunction,SMDPad,CuDef*
%ADD12R,2.500000X4.000000*%
G04 #@! TD*
G04 #@! TA.AperFunction,Conductor*
%ADD13C,0.100000*%
G04 #@! TD*
G04 #@! TA.AperFunction,SMDPad,CuDef*
%ADD14C,1.150000*%
G04 #@! TD*
G04 #@! TA.AperFunction,SMDPad,CuDef*
%ADD15R,2.000000X1.000000*%
G04 #@! TD*
G04 #@! TA.AperFunction,SMDPad,CuDef*
%ADD16R,1.700000X0.800000*%
G04 #@! TD*
G04 #@! TA.AperFunction,Conductor*
%ADD17C,0.500000*%
G04 #@! TD*
G04 #@! TA.AperFunction,Conductor*
%ADD18C,0.254000*%
G04 #@! TD*
G04 APERTURE END LIST*
D10*
G04 #@! TO.P,U1,*
G04 #@! TO.N,*
X2875920Y54774320D03*
X23875920Y54774320D03*
X2875920Y2774320D03*
X23875920Y2774320D03*
D11*
G04 #@! TO.P,U1,30*
G04 #@! TO.N,Net-(U1-Pad30)*
X24375920Y10454320D03*
G04 #@! TO.P,U1,29*
G04 #@! TO.N,INT*
X24375920Y12994320D03*
G04 #@! TO.P,U1,28*
G04 #@! TO.N,RESET*
X24375920Y15534320D03*
G04 #@! TO.P,U1,27*
G04 #@! TO.N,Net-(U1-Pad27)*
X24375920Y18074320D03*
G04 #@! TO.P,U1,26*
G04 #@! TO.N,Net-(R1-Pad1)*
X24375920Y20614320D03*
G04 #@! TO.P,U1,25*
G04 #@! TO.N,VCC*
X24375920Y23154320D03*
G04 #@! TO.P,U1,24*
G04 #@! TO.N,GND*
X24375920Y25694320D03*
G04 #@! TO.P,U1,23*
G04 #@! TO.N,SCK*
X24375920Y28234320D03*
G04 #@! TO.P,U1,22*
G04 #@! TO.N,MISO*
X24375920Y30774320D03*
G04 #@! TO.P,U1,21*
G04 #@! TO.N,MOSI*
X24375920Y33314320D03*
G04 #@! TO.P,U1,20*
G04 #@! TO.N,CS*
X24375920Y35854320D03*
G04 #@! TO.P,U1,19*
G04 #@! TO.N,Net-(U1-Pad19)*
X24375920Y38394320D03*
G04 #@! TO.P,U1,18*
G04 #@! TO.N,Net-(U1-Pad18)*
X24375920Y40934320D03*
G04 #@! TO.P,U1,17*
G04 #@! TO.N,GND*
X24375920Y43474320D03*
G04 #@! TO.P,U1,16*
G04 #@! TO.N,VCC*
X24375920Y46014320D03*
G04 #@! TO.P,U1,15*
G04 #@! TO.N,Net-(U1-Pad15)*
X1655920Y46014320D03*
G04 #@! TO.P,U1,14*
G04 #@! TO.N,GND*
X1655920Y43474320D03*
G04 #@! TO.P,U1,13*
G04 #@! TO.N,Net-(S1-Pad2)*
X1655920Y40934320D03*
G04 #@! TO.P,U1,12*
G04 #@! TO.N,Net-(U1-Pad12)*
X1655920Y38394320D03*
G04 #@! TO.P,U1,11*
G04 #@! TO.N,VCC*
X1655920Y35854320D03*
G04 #@! TO.P,U1,10*
G04 #@! TO.N,GND*
X1655920Y33314320D03*
G04 #@! TO.P,U1,9*
G04 #@! TO.N,Net-(U1-Pad9)*
X1655920Y30774320D03*
G04 #@! TO.P,U1,8*
G04 #@! TO.N,Net-(U1-Pad8)*
X1655920Y28234320D03*
G04 #@! TO.P,U1,7*
G04 #@! TO.N,Net-(U1-Pad7)*
X1655920Y25694320D03*
G04 #@! TO.P,U1,6*
G04 #@! TO.N,Net-(U1-Pad6)*
X1655920Y23154320D03*
G04 #@! TO.P,U1,5*
G04 #@! TO.N,Net-(U1-Pad5)*
X1655920Y20614320D03*
G04 #@! TO.P,U1,4*
G04 #@! TO.N,Net-(U1-Pad4)*
X1655920Y18074320D03*
G04 #@! TO.P,U1,3*
G04 #@! TO.N,Net-(U1-Pad3)*
X1655920Y15534320D03*
G04 #@! TO.P,U1,2*
G04 #@! TO.N,Net-(U1-Pad2)*
X1655920Y12994320D03*
G04 #@! TO.P,U1,1*
G04 #@! TO.N,Net-(U1-Pad1)*
X1655920Y10454320D03*
G04 #@! TD*
D12*
G04 #@! TO.P,C3,1*
G04 #@! TO.N,VCC*
X15240000Y48258000D03*
G04 #@! TO.P,C3,2*
G04 #@! TO.N,GND*
X15240000Y54358000D03*
G04 #@! TD*
D13*
G04 #@! TO.N,GND*
G04 #@! TO.C,C2*
G36*
X8983505Y48207796D02*
X9007773Y48204196D01*
X9031572Y48198235D01*
X9054671Y48189970D01*
X9076850Y48179480D01*
X9097893Y48166868D01*
X9117599Y48152253D01*
X9135777Y48135777D01*
X9152253Y48117599D01*
X9166868Y48097893D01*
X9179480Y48076850D01*
X9189970Y48054671D01*
X9198235Y48031572D01*
X9204196Y48007773D01*
X9207796Y47983505D01*
X9209000Y47959001D01*
X9209000Y47308999D01*
X9207796Y47284495D01*
X9204196Y47260227D01*
X9198235Y47236428D01*
X9189970Y47213329D01*
X9179480Y47191150D01*
X9166868Y47170107D01*
X9152253Y47150401D01*
X9135777Y47132223D01*
X9117599Y47115747D01*
X9097893Y47101132D01*
X9076850Y47088520D01*
X9054671Y47078030D01*
X9031572Y47069765D01*
X9007773Y47063804D01*
X8983505Y47060204D01*
X8959001Y47059000D01*
X8058999Y47059000D01*
X8034495Y47060204D01*
X8010227Y47063804D01*
X7986428Y47069765D01*
X7963329Y47078030D01*
X7941150Y47088520D01*
X7920107Y47101132D01*
X7900401Y47115747D01*
X7882223Y47132223D01*
X7865747Y47150401D01*
X7851132Y47170107D01*
X7838520Y47191150D01*
X7828030Y47213329D01*
X7819765Y47236428D01*
X7813804Y47260227D01*
X7810204Y47284495D01*
X7809000Y47308999D01*
X7809000Y47959001D01*
X7810204Y47983505D01*
X7813804Y48007773D01*
X7819765Y48031572D01*
X7828030Y48054671D01*
X7838520Y48076850D01*
X7851132Y48097893D01*
X7865747Y48117599D01*
X7882223Y48135777D01*
X7900401Y48152253D01*
X7920107Y48166868D01*
X7941150Y48179480D01*
X7963329Y48189970D01*
X7986428Y48198235D01*
X8010227Y48204196D01*
X8034495Y48207796D01*
X8058999Y48209000D01*
X8959001Y48209000D01*
X8983505Y48207796D01*
X8983505Y48207796D01*
G37*
D14*
G04 #@! TD*
G04 #@! TO.P,C2,2*
G04 #@! TO.N,GND*
X8509000Y47634000D03*
D13*
G04 #@! TO.N,VCC*
G04 #@! TO.C,C2*
G36*
X8983505Y46157796D02*
X9007773Y46154196D01*
X9031572Y46148235D01*
X9054671Y46139970D01*
X9076850Y46129480D01*
X9097893Y46116868D01*
X9117599Y46102253D01*
X9135777Y46085777D01*
X9152253Y46067599D01*
X9166868Y46047893D01*
X9179480Y46026850D01*
X9189970Y46004671D01*
X9198235Y45981572D01*
X9204196Y45957773D01*
X9207796Y45933505D01*
X9209000Y45909001D01*
X9209000Y45258999D01*
X9207796Y45234495D01*
X9204196Y45210227D01*
X9198235Y45186428D01*
X9189970Y45163329D01*
X9179480Y45141150D01*
X9166868Y45120107D01*
X9152253Y45100401D01*
X9135777Y45082223D01*
X9117599Y45065747D01*
X9097893Y45051132D01*
X9076850Y45038520D01*
X9054671Y45028030D01*
X9031572Y45019765D01*
X9007773Y45013804D01*
X8983505Y45010204D01*
X8959001Y45009000D01*
X8058999Y45009000D01*
X8034495Y45010204D01*
X8010227Y45013804D01*
X7986428Y45019765D01*
X7963329Y45028030D01*
X7941150Y45038520D01*
X7920107Y45051132D01*
X7900401Y45065747D01*
X7882223Y45082223D01*
X7865747Y45100401D01*
X7851132Y45120107D01*
X7838520Y45141150D01*
X7828030Y45163329D01*
X7819765Y45186428D01*
X7813804Y45210227D01*
X7810204Y45234495D01*
X7809000Y45258999D01*
X7809000Y45909001D01*
X7810204Y45933505D01*
X7813804Y45957773D01*
X7819765Y45981572D01*
X7828030Y46004671D01*
X7838520Y46026850D01*
X7851132Y46047893D01*
X7865747Y46067599D01*
X7882223Y46085777D01*
X7900401Y46102253D01*
X7920107Y46116868D01*
X7941150Y46129480D01*
X7963329Y46139970D01*
X7986428Y46148235D01*
X8010227Y46154196D01*
X8034495Y46157796D01*
X8058999Y46159000D01*
X8959001Y46159000D01*
X8983505Y46157796D01*
X8983505Y46157796D01*
G37*
D14*
G04 #@! TD*
G04 #@! TO.P,C2,1*
G04 #@! TO.N,VCC*
X8509000Y45584000D03*
D13*
G04 #@! TO.N,VCC*
G04 #@! TO.C,C1*
G36*
X-194414615Y54534716D02*
X-194390347Y54531116D01*
X-194366548Y54525155D01*
X-194343449Y54516890D01*
X-194321270Y54506400D01*
X-194300227Y54493788D01*
X-194280521Y54479173D01*
X-194262343Y54462697D01*
X-194245867Y54444519D01*
X-194231252Y54424813D01*
X-194218640Y54403770D01*
X-194208150Y54381591D01*
X-194199885Y54358492D01*
X-194193924Y54334693D01*
X-194190324Y54310425D01*
X-194189120Y54285921D01*
X-194189120Y53635919D01*
X-194190324Y53611415D01*
X-194193924Y53587147D01*
X-194199885Y53563348D01*
X-194208150Y53540249D01*
X-194218640Y53518070D01*
X-194231252Y53497027D01*
X-194245867Y53477321D01*
X-194262343Y53459143D01*
X-194280521Y53442667D01*
X-194300227Y53428052D01*
X-194321270Y53415440D01*
X-194343449Y53404950D01*
X-194366548Y53396685D01*
X-194390347Y53390724D01*
X-194414615Y53387124D01*
X-194439119Y53385920D01*
X-195339121Y53385920D01*
X-195363625Y53387124D01*
X-195387893Y53390724D01*
X-195411692Y53396685D01*
X-195434791Y53404950D01*
X-195456970Y53415440D01*
X-195478013Y53428052D01*
X-195497719Y53442667D01*
X-195515897Y53459143D01*
X-195532373Y53477321D01*
X-195546988Y53497027D01*
X-195559600Y53518070D01*
X-195570090Y53540249D01*
X-195578355Y53563348D01*
X-195584316Y53587147D01*
X-195587916Y53611415D01*
X-195589120Y53635919D01*
X-195589120Y54285921D01*
X-195587916Y54310425D01*
X-195584316Y54334693D01*
X-195578355Y54358492D01*
X-195570090Y54381591D01*
X-195559600Y54403770D01*
X-195546988Y54424813D01*
X-195532373Y54444519D01*
X-195515897Y54462697D01*
X-195497719Y54479173D01*
X-195478013Y54493788D01*
X-195456970Y54506400D01*
X-195434791Y54516890D01*
X-195411692Y54525155D01*
X-195387893Y54531116D01*
X-195363625Y54534716D01*
X-195339121Y54535920D01*
X-194439119Y54535920D01*
X-194414615Y54534716D01*
X-194414615Y54534716D01*
G37*
D14*
G04 #@! TD*
G04 #@! TO.P,C1,1*
G04 #@! TO.N,VCC*
X-194889120Y53960920D03*
D13*
G04 #@! TO.N,GND*
G04 #@! TO.C,C1*
G36*
X-194414615Y56584716D02*
X-194390347Y56581116D01*
X-194366548Y56575155D01*
X-194343449Y56566890D01*
X-194321270Y56556400D01*
X-194300227Y56543788D01*
X-194280521Y56529173D01*
X-194262343Y56512697D01*
X-194245867Y56494519D01*
X-194231252Y56474813D01*
X-194218640Y56453770D01*
X-194208150Y56431591D01*
X-194199885Y56408492D01*
X-194193924Y56384693D01*
X-194190324Y56360425D01*
X-194189120Y56335921D01*
X-194189120Y55685919D01*
X-194190324Y55661415D01*
X-194193924Y55637147D01*
X-194199885Y55613348D01*
X-194208150Y55590249D01*
X-194218640Y55568070D01*
X-194231252Y55547027D01*
X-194245867Y55527321D01*
X-194262343Y55509143D01*
X-194280521Y55492667D01*
X-194300227Y55478052D01*
X-194321270Y55465440D01*
X-194343449Y55454950D01*
X-194366548Y55446685D01*
X-194390347Y55440724D01*
X-194414615Y55437124D01*
X-194439119Y55435920D01*
X-195339121Y55435920D01*
X-195363625Y55437124D01*
X-195387893Y55440724D01*
X-195411692Y55446685D01*
X-195434791Y55454950D01*
X-195456970Y55465440D01*
X-195478013Y55478052D01*
X-195497719Y55492667D01*
X-195515897Y55509143D01*
X-195532373Y55527321D01*
X-195546988Y55547027D01*
X-195559600Y55568070D01*
X-195570090Y55590249D01*
X-195578355Y55613348D01*
X-195584316Y55637147D01*
X-195587916Y55661415D01*
X-195589120Y55685919D01*
X-195589120Y56335921D01*
X-195587916Y56360425D01*
X-195584316Y56384693D01*
X-195578355Y56408492D01*
X-195570090Y56431591D01*
X-195559600Y56453770D01*
X-195546988Y56474813D01*
X-195532373Y56494519D01*
X-195515897Y56512697D01*
X-195497719Y56529173D01*
X-195478013Y56543788D01*
X-195456970Y56556400D01*
X-195434791Y56566890D01*
X-195411692Y56575155D01*
X-195387893Y56581116D01*
X-195363625Y56584716D01*
X-195339121Y56585920D01*
X-194439119Y56585920D01*
X-194414615Y56584716D01*
X-194414615Y56584716D01*
G37*
D14*
G04 #@! TD*
G04 #@! TO.P,C1,2*
G04 #@! TO.N,GND*
X-194889120Y56010920D03*
D13*
G04 #@! TO.N,GND*
G04 #@! TO.C,D1*
G36*
X12803044Y8147040D02*
X12827312Y8143440D01*
X12851111Y8137479D01*
X12874210Y8129214D01*
X12896389Y8118724D01*
X12917432Y8106112D01*
X12937138Y8091497D01*
X12955316Y8075021D01*
X12971792Y8056843D01*
X12986407Y8037137D01*
X12999019Y8016094D01*
X13009509Y7993915D01*
X13017774Y7970816D01*
X13023735Y7947017D01*
X13027335Y7922749D01*
X13028539Y7898245D01*
X13028539Y6998243D01*
X13027335Y6973739D01*
X13023735Y6949471D01*
X13017774Y6925672D01*
X13009509Y6902573D01*
X12999019Y6880394D01*
X12986407Y6859351D01*
X12971792Y6839645D01*
X12955316Y6821467D01*
X12937138Y6804991D01*
X12917432Y6790376D01*
X12896389Y6777764D01*
X12874210Y6767274D01*
X12851111Y6759009D01*
X12827312Y6753048D01*
X12803044Y6749448D01*
X12778540Y6748244D01*
X12128538Y6748244D01*
X12104034Y6749448D01*
X12079766Y6753048D01*
X12055967Y6759009D01*
X12032868Y6767274D01*
X12010689Y6777764D01*
X11989646Y6790376D01*
X11969940Y6804991D01*
X11951762Y6821467D01*
X11935286Y6839645D01*
X11920671Y6859351D01*
X11908059Y6880394D01*
X11897569Y6902573D01*
X11889304Y6925672D01*
X11883343Y6949471D01*
X11879743Y6973739D01*
X11878539Y6998243D01*
X11878539Y7898245D01*
X11879743Y7922749D01*
X11883343Y7947017D01*
X11889304Y7970816D01*
X11897569Y7993915D01*
X11908059Y8016094D01*
X11920671Y8037137D01*
X11935286Y8056843D01*
X11951762Y8075021D01*
X11969940Y8091497D01*
X11989646Y8106112D01*
X12010689Y8118724D01*
X12032868Y8129214D01*
X12055967Y8137479D01*
X12079766Y8143440D01*
X12104034Y8147040D01*
X12128538Y8148244D01*
X12778540Y8148244D01*
X12803044Y8147040D01*
X12803044Y8147040D01*
G37*
D14*
G04 #@! TD*
G04 #@! TO.P,D1,1*
G04 #@! TO.N,GND*
X12453539Y7448244D03*
D13*
G04 #@! TO.N,Net-(D1-Pad2)*
G04 #@! TO.C,D1*
G36*
X14853044Y8147040D02*
X14877312Y8143440D01*
X14901111Y8137479D01*
X14924210Y8129214D01*
X14946389Y8118724D01*
X14967432Y8106112D01*
X14987138Y8091497D01*
X15005316Y8075021D01*
X15021792Y8056843D01*
X15036407Y8037137D01*
X15049019Y8016094D01*
X15059509Y7993915D01*
X15067774Y7970816D01*
X15073735Y7947017D01*
X15077335Y7922749D01*
X15078539Y7898245D01*
X15078539Y6998243D01*
X15077335Y6973739D01*
X15073735Y6949471D01*
X15067774Y6925672D01*
X15059509Y6902573D01*
X15049019Y6880394D01*
X15036407Y6859351D01*
X15021792Y6839645D01*
X15005316Y6821467D01*
X14987138Y6804991D01*
X14967432Y6790376D01*
X14946389Y6777764D01*
X14924210Y6767274D01*
X14901111Y6759009D01*
X14877312Y6753048D01*
X14853044Y6749448D01*
X14828540Y6748244D01*
X14178538Y6748244D01*
X14154034Y6749448D01*
X14129766Y6753048D01*
X14105967Y6759009D01*
X14082868Y6767274D01*
X14060689Y6777764D01*
X14039646Y6790376D01*
X14019940Y6804991D01*
X14001762Y6821467D01*
X13985286Y6839645D01*
X13970671Y6859351D01*
X13958059Y6880394D01*
X13947569Y6902573D01*
X13939304Y6925672D01*
X13933343Y6949471D01*
X13929743Y6973739D01*
X13928539Y6998243D01*
X13928539Y7898245D01*
X13929743Y7922749D01*
X13933343Y7947017D01*
X13939304Y7970816D01*
X13947569Y7993915D01*
X13958059Y8016094D01*
X13970671Y8037137D01*
X13985286Y8056843D01*
X14001762Y8075021D01*
X14019940Y8091497D01*
X14039646Y8106112D01*
X14060689Y8118724D01*
X14082868Y8129214D01*
X14105967Y8137479D01*
X14129766Y8143440D01*
X14154034Y8147040D01*
X14178538Y8148244D01*
X14828540Y8148244D01*
X14853044Y8147040D01*
X14853044Y8147040D01*
G37*
D14*
G04 #@! TD*
G04 #@! TO.P,D1,2*
G04 #@! TO.N,Net-(D1-Pad2)*
X14503539Y7448244D03*
D15*
G04 #@! TO.P,U2,1*
G04 #@! TO.N,GND*
X21224240Y28763960D03*
G04 #@! TO.P,U2,2*
G04 #@! TO.N,MISO*
X21224240Y30763960D03*
G04 #@! TO.P,U2,3*
G04 #@! TO.N,MOSI*
X21224240Y32763960D03*
G04 #@! TO.P,U2,4*
G04 #@! TO.N,SCK*
X21224240Y34763960D03*
G04 #@! TO.P,U2,5*
G04 #@! TO.N,CS*
X21224240Y36763960D03*
G04 #@! TO.P,U2,6*
G04 #@! TO.N,RESET*
X21224240Y38763960D03*
G04 #@! TO.P,U2,7*
G04 #@! TO.N,Net-(U2-Pad7)*
X21224240Y40763960D03*
G04 #@! TO.P,U2,8*
G04 #@! TO.N,GND*
X21224240Y42763960D03*
G04 #@! TO.P,U2,9*
G04 #@! TO.N,Net-(U2-Pad9)*
X5224240Y42763960D03*
G04 #@! TO.P,U2,10*
G04 #@! TO.N,GND*
X5224240Y40763960D03*
G04 #@! TO.P,U2,11*
G04 #@! TO.N,Net-(U2-Pad11)*
X5224240Y38763960D03*
G04 #@! TO.P,U2,12*
G04 #@! TO.N,Net-(U2-Pad12)*
X5224240Y36763960D03*
G04 #@! TO.P,U2,13*
G04 #@! TO.N,VCC*
X5224240Y34763960D03*
G04 #@! TO.P,U2,14*
G04 #@! TO.N,INT*
X5224240Y32763960D03*
G04 #@! TO.P,U2,15*
G04 #@! TO.N,Net-(U2-Pad15)*
X5224240Y30763960D03*
G04 #@! TO.P,U2,16*
G04 #@! TO.N,Net-(U2-Pad16)*
X5224240Y28763960D03*
G04 #@! TD*
D13*
G04 #@! TO.N,Net-(R1-Pad1)*
G04 #@! TO.C,R1*
G36*
X19416044Y8147040D02*
X19440312Y8143440D01*
X19464111Y8137479D01*
X19487210Y8129214D01*
X19509389Y8118724D01*
X19530432Y8106112D01*
X19550138Y8091497D01*
X19568316Y8075021D01*
X19584792Y8056843D01*
X19599407Y8037137D01*
X19612019Y8016094D01*
X19622509Y7993915D01*
X19630774Y7970816D01*
X19636735Y7947017D01*
X19640335Y7922749D01*
X19641539Y7898245D01*
X19641539Y6998243D01*
X19640335Y6973739D01*
X19636735Y6949471D01*
X19630774Y6925672D01*
X19622509Y6902573D01*
X19612019Y6880394D01*
X19599407Y6859351D01*
X19584792Y6839645D01*
X19568316Y6821467D01*
X19550138Y6804991D01*
X19530432Y6790376D01*
X19509389Y6777764D01*
X19487210Y6767274D01*
X19464111Y6759009D01*
X19440312Y6753048D01*
X19416044Y6749448D01*
X19391540Y6748244D01*
X18741538Y6748244D01*
X18717034Y6749448D01*
X18692766Y6753048D01*
X18668967Y6759009D01*
X18645868Y6767274D01*
X18623689Y6777764D01*
X18602646Y6790376D01*
X18582940Y6804991D01*
X18564762Y6821467D01*
X18548286Y6839645D01*
X18533671Y6859351D01*
X18521059Y6880394D01*
X18510569Y6902573D01*
X18502304Y6925672D01*
X18496343Y6949471D01*
X18492743Y6973739D01*
X18491539Y6998243D01*
X18491539Y7898245D01*
X18492743Y7922749D01*
X18496343Y7947017D01*
X18502304Y7970816D01*
X18510569Y7993915D01*
X18521059Y8016094D01*
X18533671Y8037137D01*
X18548286Y8056843D01*
X18564762Y8075021D01*
X18582940Y8091497D01*
X18602646Y8106112D01*
X18623689Y8118724D01*
X18645868Y8129214D01*
X18668967Y8137479D01*
X18692766Y8143440D01*
X18717034Y8147040D01*
X18741538Y8148244D01*
X19391540Y8148244D01*
X19416044Y8147040D01*
X19416044Y8147040D01*
G37*
D14*
G04 #@! TD*
G04 #@! TO.P,R1,1*
G04 #@! TO.N,Net-(R1-Pad1)*
X19066539Y7448244D03*
D13*
G04 #@! TO.N,Net-(D1-Pad2)*
G04 #@! TO.C,R1*
G36*
X17366044Y8147040D02*
X17390312Y8143440D01*
X17414111Y8137479D01*
X17437210Y8129214D01*
X17459389Y8118724D01*
X17480432Y8106112D01*
X17500138Y8091497D01*
X17518316Y8075021D01*
X17534792Y8056843D01*
X17549407Y8037137D01*
X17562019Y8016094D01*
X17572509Y7993915D01*
X17580774Y7970816D01*
X17586735Y7947017D01*
X17590335Y7922749D01*
X17591539Y7898245D01*
X17591539Y6998243D01*
X17590335Y6973739D01*
X17586735Y6949471D01*
X17580774Y6925672D01*
X17572509Y6902573D01*
X17562019Y6880394D01*
X17549407Y6859351D01*
X17534792Y6839645D01*
X17518316Y6821467D01*
X17500138Y6804991D01*
X17480432Y6790376D01*
X17459389Y6777764D01*
X17437210Y6767274D01*
X17414111Y6759009D01*
X17390312Y6753048D01*
X17366044Y6749448D01*
X17341540Y6748244D01*
X16691538Y6748244D01*
X16667034Y6749448D01*
X16642766Y6753048D01*
X16618967Y6759009D01*
X16595868Y6767274D01*
X16573689Y6777764D01*
X16552646Y6790376D01*
X16532940Y6804991D01*
X16514762Y6821467D01*
X16498286Y6839645D01*
X16483671Y6859351D01*
X16471059Y6880394D01*
X16460569Y6902573D01*
X16452304Y6925672D01*
X16446343Y6949471D01*
X16442743Y6973739D01*
X16441539Y6998243D01*
X16441539Y7898245D01*
X16442743Y7922749D01*
X16446343Y7947017D01*
X16452304Y7970816D01*
X16460569Y7993915D01*
X16471059Y8016094D01*
X16483671Y8037137D01*
X16498286Y8056843D01*
X16514762Y8075021D01*
X16532940Y8091497D01*
X16552646Y8106112D01*
X16573689Y8118724D01*
X16595868Y8129214D01*
X16618967Y8137479D01*
X16642766Y8143440D01*
X16667034Y8147040D01*
X16691538Y8148244D01*
X17341540Y8148244D01*
X17366044Y8147040D01*
X17366044Y8147040D01*
G37*
D14*
G04 #@! TD*
G04 #@! TO.P,R1,2*
G04 #@! TO.N,Net-(D1-Pad2)*
X17016539Y7448244D03*
D16*
G04 #@! TO.P,S1,1*
G04 #@! TO.N,GND*
X4826000Y51357000D03*
G04 #@! TO.P,S1,2*
G04 #@! TO.N,Net-(S1-Pad2)*
X4826000Y47957000D03*
G04 #@! TD*
D17*
G04 #@! TO.N,Net-(S1-Pad2)*
X2961320Y40934320D02*
X1655920Y40934320D01*
X3175000Y41148000D02*
X2961320Y40934320D01*
X3175000Y45406000D02*
X3175000Y41148000D01*
X4826000Y47057000D02*
X3175000Y45406000D01*
X4826000Y47957000D02*
X4826000Y47057000D01*
G04 #@! TO.N,Net-(R1-Pad1)*
X25453550Y20614320D02*
X25493870Y20574000D01*
X24375920Y20614320D02*
X25453550Y20614320D01*
X25493870Y20574000D02*
X25654000Y20574000D01*
X25654000Y20574000D02*
X26289000Y19939000D01*
X26289000Y19939000D02*
X26289000Y9017000D01*
X26289000Y9017000D02*
X24638000Y7366000D01*
X24638000Y7366000D02*
X19431000Y7366000D01*
G04 #@! TO.N,Net-(D1-Pad2)*
X17016539Y7448244D02*
X14503539Y7448244D01*
G04 #@! TO.N,MISO*
X24365560Y30763960D02*
X24375920Y30774320D01*
X21224240Y30763960D02*
X24365560Y30763960D01*
G04 #@! TO.N,MOSI*
X22747930Y32763960D02*
X21224240Y32763960D01*
X24375920Y33314320D02*
X23298290Y33314320D01*
X23298290Y33314320D02*
X22747930Y32763960D01*
G04 #@! TO.N,SCK*
X19724240Y34763960D02*
X18161000Y33200720D01*
X21224240Y34763960D02*
X19724240Y34763960D01*
X18161000Y33200720D02*
X18161000Y26924000D01*
X18161000Y26924000D02*
X19304000Y25781000D01*
X21922600Y25781000D02*
X24375920Y28234320D01*
X19304000Y25781000D02*
X21922600Y25781000D01*
G04 #@! TO.N,CS*
X22724240Y36763960D02*
X23368000Y36120200D01*
X21224240Y36763960D02*
X22724240Y36763960D01*
X24110040Y36120200D02*
X24375920Y35854320D01*
X23368000Y36120200D02*
X24110040Y36120200D01*
G04 #@! TO.N,RESET*
X19724240Y38763960D02*
X16891000Y35930720D01*
X21224240Y38763960D02*
X19724240Y38763960D01*
X16891000Y35930720D02*
X16891000Y19939000D01*
X16891000Y19939000D02*
X21336000Y15494000D01*
X21376320Y15534320D02*
X24375920Y15534320D01*
X21336000Y15494000D02*
X21376320Y15534320D01*
G04 #@! TO.N,VCC*
X3724240Y34763960D02*
X2794000Y35694200D01*
X5224240Y34763960D02*
X3724240Y34763960D01*
X2733550Y35854320D02*
X1655920Y35854320D01*
X2794000Y35793870D02*
X2733550Y35854320D01*
X2794000Y35694200D02*
X2794000Y35793870D01*
X6724240Y34763960D02*
X9398000Y37437720D01*
X5224240Y34763960D02*
X6724240Y34763960D01*
X9398000Y37437720D02*
X9398000Y43180000D01*
X9398000Y43180000D02*
X12232320Y46014320D01*
X9398000Y44020000D02*
X9398000Y43180000D01*
X8509000Y44909000D02*
X9398000Y44020000D01*
X8509000Y45584000D02*
X8509000Y44909000D01*
X15240000Y46268320D02*
X14986000Y46014320D01*
X15240000Y48258000D02*
X15240000Y46268320D01*
X12232320Y46014320D02*
X14986000Y46014320D01*
X14986000Y46014320D02*
X24375920Y46014320D01*
G04 #@! TO.N,INT*
X6724240Y32763960D02*
X15113000Y24375200D01*
X5224240Y32763960D02*
X6724240Y32763960D01*
X15113000Y24375200D02*
X15113000Y19050000D01*
X21168680Y12994320D02*
X24375920Y12994320D01*
X15113000Y19050000D02*
X21168680Y12994320D01*
G04 #@! TD*
D18*
G04 #@! TO.N,GND*
G36*
X26878302Y20609621D02*
X26853156Y20626423D01*
X26341425Y21138154D01*
X26292049Y21212049D01*
X25999310Y21407652D01*
X25799815Y21447334D01*
X25798860Y21447972D01*
X25540715Y21499320D01*
X25540711Y21499320D01*
X25453550Y21516657D01*
X25449955Y21515942D01*
X25167257Y21798640D01*
X24960407Y21884320D01*
X25167257Y21970000D01*
X25560240Y22362983D01*
X25772920Y22876439D01*
X25772920Y23432201D01*
X25560240Y23945657D01*
X25167257Y24338640D01*
X24976273Y24417748D01*
X25107063Y24471923D01*
X25176528Y24714107D01*
X24375920Y25514715D01*
X23575312Y24714107D01*
X23644777Y24471923D01*
X23785313Y24421785D01*
X23584583Y24338640D01*
X23191600Y23945657D01*
X22978920Y23432201D01*
X22978920Y22876439D01*
X23191600Y22362983D01*
X23584583Y21970000D01*
X23791433Y21884320D01*
X23584583Y21798640D01*
X23191600Y21405657D01*
X22978920Y20892201D01*
X22978920Y20336439D01*
X23191600Y19822983D01*
X23584583Y19430000D01*
X23791433Y19344320D01*
X23584583Y19258640D01*
X23191600Y18865657D01*
X22978920Y18352201D01*
X22978920Y17796439D01*
X23191600Y17282983D01*
X23584583Y16890000D01*
X23791433Y16804320D01*
X23584583Y16718640D01*
X23285263Y16419320D01*
X21662259Y16419320D01*
X17776000Y20305578D01*
X17776000Y26057422D01*
X18616577Y25216844D01*
X18665951Y25142951D01*
X18739844Y25093577D01*
X18739845Y25093576D01*
X18850880Y25019385D01*
X18958690Y24947348D01*
X19216835Y24896000D01*
X19216839Y24896000D01*
X19303999Y24878663D01*
X19391159Y24896000D01*
X21835439Y24896000D01*
X21922600Y24878663D01*
X22009761Y24896000D01*
X22009765Y24896000D01*
X22267910Y24947348D01*
X22560649Y25142951D01*
X22610025Y25216847D01*
X22982430Y25589252D01*
X22994558Y25346952D01*
X23153523Y24963177D01*
X23395707Y24893712D01*
X24196315Y25694320D01*
X24555525Y25694320D01*
X25356133Y24893712D01*
X25598317Y24963177D01*
X25785064Y25486622D01*
X25757282Y26041688D01*
X25598317Y26425463D01*
X25356133Y26494928D01*
X24555525Y25694320D01*
X24196315Y25694320D01*
X24182173Y25708462D01*
X24361778Y25888067D01*
X24375920Y25873925D01*
X25176528Y26674533D01*
X25107063Y26916717D01*
X24966527Y26966855D01*
X25167257Y27050000D01*
X25560240Y27442983D01*
X25772920Y27956439D01*
X25772920Y28512201D01*
X25560240Y29025657D01*
X25167257Y29418640D01*
X24960407Y29504320D01*
X25167257Y29590000D01*
X25560240Y29982983D01*
X25772920Y30496439D01*
X25772920Y31052201D01*
X25560240Y31565657D01*
X25167257Y31958640D01*
X24960407Y32044320D01*
X25167257Y32130000D01*
X25560240Y32522983D01*
X25772920Y33036439D01*
X25772920Y33592201D01*
X25560240Y34105657D01*
X25167257Y34498640D01*
X24960407Y34584320D01*
X25167257Y34670000D01*
X25560240Y35062983D01*
X25772920Y35576439D01*
X25772920Y36132201D01*
X25560240Y36645657D01*
X25167257Y37038640D01*
X24960407Y37124320D01*
X25167257Y37210000D01*
X25560240Y37602983D01*
X25772920Y38116439D01*
X25772920Y38672201D01*
X25560240Y39185657D01*
X25167257Y39578640D01*
X24960407Y39664320D01*
X25167257Y39750000D01*
X25560240Y40142983D01*
X25772920Y40656439D01*
X25772920Y41212201D01*
X25560240Y41725657D01*
X25167257Y42118640D01*
X24976273Y42197748D01*
X25107063Y42251923D01*
X25176528Y42494107D01*
X24375920Y43294715D01*
X23575312Y42494107D01*
X23644777Y42251923D01*
X23785313Y42201785D01*
X23584583Y42118640D01*
X23191600Y41725657D01*
X22978920Y41212201D01*
X22978920Y40656439D01*
X23191600Y40142983D01*
X23584583Y39750000D01*
X23791433Y39664320D01*
X23584583Y39578640D01*
X23191600Y39185657D01*
X22978920Y38672201D01*
X22978920Y38116439D01*
X23191600Y37602983D01*
X23584583Y37210000D01*
X23791433Y37124320D01*
X23667000Y37072778D01*
X23411665Y37328114D01*
X23362289Y37402009D01*
X23069550Y37597612D01*
X22811405Y37648960D01*
X22811401Y37648960D01*
X22724240Y37666297D01*
X22719716Y37665397D01*
X22682049Y37721769D01*
X22618906Y37763960D01*
X22682049Y37806151D01*
X22822397Y38016195D01*
X22871680Y38263960D01*
X22871680Y39263960D01*
X22822397Y39511725D01*
X22682049Y39721769D01*
X22618906Y39763960D01*
X22682049Y39806151D01*
X22822397Y40016195D01*
X22871680Y40263960D01*
X22871680Y41263960D01*
X22822397Y41511725D01*
X22682049Y41721769D01*
X22620920Y41762615D01*
X22762567Y41904261D01*
X22859240Y42137650D01*
X22859240Y42478210D01*
X22700490Y42636960D01*
X21351240Y42636960D01*
X21351240Y42616960D01*
X21097240Y42616960D01*
X21097240Y42636960D01*
X19747990Y42636960D01*
X19589240Y42478210D01*
X19589240Y42137650D01*
X19685913Y41904261D01*
X19827560Y41762615D01*
X19766431Y41721769D01*
X19626083Y41511725D01*
X19576800Y41263960D01*
X19576800Y40263960D01*
X19626083Y40016195D01*
X19766431Y39806151D01*
X19829574Y39763960D01*
X19766431Y39721769D01*
X19728764Y39665397D01*
X19724239Y39666297D01*
X19637079Y39648960D01*
X19637075Y39648960D01*
X19378930Y39597612D01*
X19378928Y39597611D01*
X19378929Y39597611D01*
X19160085Y39451384D01*
X19160084Y39451383D01*
X19086191Y39402009D01*
X19036817Y39328116D01*
X16326847Y36618145D01*
X16252951Y36568769D01*
X16057348Y36276029D01*
X16006000Y36017884D01*
X16006000Y36017881D01*
X15988663Y35930720D01*
X16006000Y35843559D01*
X16006001Y24422138D01*
X15998000Y24462361D01*
X15998000Y24462365D01*
X15946652Y24720510D01*
X15751049Y25013249D01*
X15677156Y25062622D01*
X7411664Y33328114D01*
X7362289Y33402009D01*
X7069550Y33597612D01*
X6811405Y33648960D01*
X6811401Y33648960D01*
X6724240Y33666297D01*
X6719716Y33665397D01*
X6682049Y33721769D01*
X6618906Y33763960D01*
X6682049Y33806151D01*
X6719716Y33862523D01*
X6724240Y33861623D01*
X6811401Y33878960D01*
X6811405Y33878960D01*
X7069550Y33930308D01*
X7362289Y34125911D01*
X7411665Y34199807D01*
X9962156Y36750297D01*
X10036049Y36799671D01*
X10231652Y37092410D01*
X10283000Y37350555D01*
X10283000Y37350559D01*
X10300337Y37437720D01*
X10283000Y37524881D01*
X10283000Y42813422D01*
X10859848Y43390270D01*
X19589240Y43390270D01*
X19589240Y43049710D01*
X19747990Y42890960D01*
X21097240Y42890960D01*
X21097240Y43740210D01*
X21351240Y43740210D01*
X21351240Y42890960D01*
X22700490Y42890960D01*
X22859240Y43049710D01*
X22859240Y43390270D01*
X22762567Y43623659D01*
X22704208Y43682018D01*
X22966776Y43682018D01*
X22994558Y43126952D01*
X23153523Y42743177D01*
X23395707Y42673712D01*
X24196315Y43474320D01*
X24555525Y43474320D01*
X25356133Y42673712D01*
X25598317Y42743177D01*
X25785064Y43266622D01*
X25757282Y43821688D01*
X25598317Y44205463D01*
X25356133Y44274928D01*
X24555525Y43474320D01*
X24196315Y43474320D01*
X23395707Y44274928D01*
X23153523Y44205463D01*
X22966776Y43682018D01*
X22704208Y43682018D01*
X22583938Y43802287D01*
X22350549Y43898960D01*
X21509990Y43898960D01*
X21351240Y43740210D01*
X21097240Y43740210D01*
X20938490Y43898960D01*
X20097931Y43898960D01*
X19864542Y43802287D01*
X19685913Y43623659D01*
X19589240Y43390270D01*
X10859848Y43390270D01*
X12598899Y45129320D01*
X14898839Y45129320D01*
X14986000Y45111983D01*
X15073161Y45129320D01*
X23285263Y45129320D01*
X23584583Y44830000D01*
X23775567Y44750892D01*
X23644777Y44696717D01*
X23575312Y44454533D01*
X24375920Y43653925D01*
X25176528Y44454533D01*
X25107063Y44696717D01*
X24966527Y44746855D01*
X25167257Y44830000D01*
X25560240Y45222983D01*
X25772920Y45736439D01*
X25772920Y46292201D01*
X25560240Y46805657D01*
X25167257Y47198640D01*
X24653801Y47411320D01*
X24098039Y47411320D01*
X23584583Y47198640D01*
X23285263Y46899320D01*
X17137440Y46899320D01*
X17137440Y50258000D01*
X17088157Y50505765D01*
X16947809Y50715809D01*
X16737765Y50856157D01*
X16490000Y50905440D01*
X13990000Y50905440D01*
X13742235Y50856157D01*
X13532191Y50715809D01*
X13391843Y50505765D01*
X13342560Y50258000D01*
X13342560Y46899320D01*
X12319481Y46899320D01*
X12232320Y46916657D01*
X12145159Y46899320D01*
X12145155Y46899320D01*
X11887010Y46847972D01*
X11668165Y46701744D01*
X11668164Y46701743D01*
X11594271Y46652369D01*
X11544897Y46578476D01*
X9818000Y44851579D01*
X9774463Y44895115D01*
X9788127Y44915564D01*
X9856440Y45258999D01*
X9856440Y45909001D01*
X9788127Y46252436D01*
X9593586Y46543586D01*
X9592403Y46544377D01*
X9747327Y46699302D01*
X9844000Y46932691D01*
X9844000Y47348250D01*
X9685250Y47507000D01*
X8636000Y47507000D01*
X8636000Y47487000D01*
X8382000Y47487000D01*
X8382000Y47507000D01*
X7332750Y47507000D01*
X7174000Y47348250D01*
X7174000Y46932691D01*
X7270673Y46699302D01*
X7425597Y46544377D01*
X7424414Y46543586D01*
X7229873Y46252436D01*
X7161560Y45909001D01*
X7161560Y45258999D01*
X7229873Y44915564D01*
X7424414Y44624414D01*
X7715564Y44429873D01*
X7772304Y44418587D01*
X7821576Y44344846D01*
X7821578Y44344844D01*
X7870952Y44270951D01*
X7944845Y44221577D01*
X8513000Y43653421D01*
X8513000Y43267161D01*
X8495663Y43180000D01*
X8513000Y43092839D01*
X8513000Y43092835D01*
X8513001Y43092830D01*
X8513000Y37804299D01*
X6846606Y36137905D01*
X6871680Y36263960D01*
X6871680Y37263960D01*
X6822397Y37511725D01*
X6682049Y37721769D01*
X6618906Y37763960D01*
X6682049Y37806151D01*
X6822397Y38016195D01*
X6871680Y38263960D01*
X6871680Y39263960D01*
X6822397Y39511725D01*
X6682049Y39721769D01*
X6620920Y39762615D01*
X6762567Y39904261D01*
X6859240Y40137650D01*
X6859240Y40478210D01*
X6700490Y40636960D01*
X5351240Y40636960D01*
X5351240Y40616960D01*
X5097240Y40616960D01*
X5097240Y40636960D01*
X5077240Y40636960D01*
X5077240Y40890960D01*
X5097240Y40890960D01*
X5097240Y40910960D01*
X5351240Y40910960D01*
X5351240Y40890960D01*
X6700490Y40890960D01*
X6859240Y41049710D01*
X6859240Y41390270D01*
X6762567Y41623659D01*
X6620920Y41765305D01*
X6682049Y41806151D01*
X6822397Y42016195D01*
X6871680Y42263960D01*
X6871680Y43263960D01*
X6822397Y43511725D01*
X6682049Y43721769D01*
X6472005Y43862117D01*
X6224240Y43911400D01*
X4224240Y43911400D01*
X4060000Y43878731D01*
X4060000Y45039422D01*
X5390156Y46369577D01*
X5464049Y46418951D01*
X5570640Y46578474D01*
X5659652Y46711690D01*
X5686760Y46847972D01*
X5699959Y46914326D01*
X5923765Y46958843D01*
X6133809Y47099191D01*
X6274157Y47309235D01*
X6323440Y47557000D01*
X6323440Y48335309D01*
X7174000Y48335309D01*
X7174000Y47919750D01*
X7332750Y47761000D01*
X8382000Y47761000D01*
X8382000Y48685250D01*
X8636000Y48685250D01*
X8636000Y47761000D01*
X9685250Y47761000D01*
X9844000Y47919750D01*
X9844000Y48335309D01*
X9747327Y48568698D01*
X9568699Y48747327D01*
X9335310Y48844000D01*
X8794750Y48844000D01*
X8636000Y48685250D01*
X8382000Y48685250D01*
X8223250Y48844000D01*
X7682690Y48844000D01*
X7449301Y48747327D01*
X7270673Y48568698D01*
X7174000Y48335309D01*
X6323440Y48335309D01*
X6323440Y48357000D01*
X6274157Y48604765D01*
X6133809Y48814809D01*
X5923765Y48955157D01*
X5676000Y49004440D01*
X3976000Y49004440D01*
X3728235Y48955157D01*
X3518191Y48814809D01*
X3377843Y48604765D01*
X3328560Y48357000D01*
X3328560Y47557000D01*
X3377843Y47309235D01*
X3518191Y47099191D01*
X3577190Y47059769D01*
X2981660Y46464238D01*
X2840240Y46805657D01*
X2447257Y47198640D01*
X1933801Y47411320D01*
X1378039Y47411320D01*
X864583Y47198640D01*
X471600Y46805657D01*
X258920Y46292201D01*
X258920Y45736439D01*
X471600Y45222983D01*
X864583Y44830000D01*
X1055567Y44750892D01*
X924777Y44696717D01*
X855312Y44454533D01*
X1655920Y43653925D01*
X1670063Y43668067D01*
X1849668Y43488462D01*
X1835525Y43474320D01*
X1849668Y43460177D01*
X1670063Y43280572D01*
X1655920Y43294715D01*
X855312Y42494107D01*
X924777Y42251923D01*
X1065313Y42201785D01*
X864583Y42118640D01*
X471600Y41725657D01*
X258920Y41212201D01*
X258920Y40656439D01*
X471600Y40142983D01*
X864583Y39750000D01*
X1071433Y39664320D01*
X864583Y39578640D01*
X471600Y39185657D01*
X258920Y38672201D01*
X258920Y38116439D01*
X471600Y37602983D01*
X864583Y37210000D01*
X1071433Y37124320D01*
X864583Y37038640D01*
X471600Y36645657D01*
X258920Y36132201D01*
X258920Y35576439D01*
X471600Y35062983D01*
X864583Y34670000D01*
X1055567Y34590892D01*
X924777Y34536717D01*
X855312Y34294533D01*
X1655920Y33493925D01*
X2456528Y34294533D01*
X2387063Y34536717D01*
X2246527Y34586855D01*
X2447257Y34670000D01*
X2506939Y34729682D01*
X3036816Y34199805D01*
X3086191Y34125911D01*
X3160084Y34076537D01*
X3160085Y34076536D01*
X3378930Y33930308D01*
X3637075Y33878960D01*
X3637078Y33878960D01*
X3724239Y33861623D01*
X3728764Y33862523D01*
X3766431Y33806151D01*
X3829574Y33763960D01*
X3766431Y33721769D01*
X3626083Y33511725D01*
X3576800Y33263960D01*
X3576800Y32263960D01*
X3626083Y32016195D01*
X3766431Y31806151D01*
X3829574Y31763960D01*
X3766431Y31721769D01*
X3626083Y31511725D01*
X3576800Y31263960D01*
X3576800Y30263960D01*
X3626083Y30016195D01*
X3766431Y29806151D01*
X3829574Y29763960D01*
X3766431Y29721769D01*
X3626083Y29511725D01*
X3576800Y29263960D01*
X3576800Y28263960D01*
X3626083Y28016195D01*
X3766431Y27806151D01*
X3976475Y27665803D01*
X4224240Y27616520D01*
X6224240Y27616520D01*
X6472005Y27665803D01*
X6682049Y27806151D01*
X6822397Y28016195D01*
X6871680Y28263960D01*
X6871680Y29263960D01*
X6822397Y29511725D01*
X6682049Y29721769D01*
X6618906Y29763960D01*
X6682049Y29806151D01*
X6822397Y30016195D01*
X6871680Y30263960D01*
X6871680Y31263960D01*
X6846606Y31390016D01*
X14228000Y24008621D01*
X14228001Y19137165D01*
X14210663Y19050000D01*
X14279348Y18704691D01*
X14425576Y18485846D01*
X14425578Y18485844D01*
X14474952Y18411951D01*
X14548845Y18362577D01*
X20481257Y12430164D01*
X20530631Y12356271D01*
X20604524Y12306897D01*
X20604525Y12306896D01*
X20760041Y12202983D01*
X20823370Y12160668D01*
X21081515Y12109320D01*
X21081519Y12109320D01*
X21168680Y12091983D01*
X21255841Y12109320D01*
X23285263Y12109320D01*
X23584583Y11810000D01*
X23791433Y11724320D01*
X23584583Y11638640D01*
X23191600Y11245657D01*
X22978920Y10732201D01*
X22978920Y10176439D01*
X23191600Y9662983D01*
X23584583Y9270000D01*
X24098039Y9057320D01*
X24653801Y9057320D01*
X25167257Y9270000D01*
X25404001Y9506744D01*
X25404001Y9383580D01*
X24271422Y8251000D01*
X20214439Y8251000D01*
X20026125Y8532830D01*
X19734975Y8727371D01*
X19391540Y8795684D01*
X18741538Y8795684D01*
X18398103Y8727371D01*
X18106953Y8532830D01*
X18041539Y8434931D01*
X17976125Y8532830D01*
X17684975Y8727371D01*
X17341540Y8795684D01*
X16691538Y8795684D01*
X16348103Y8727371D01*
X16056953Y8532830D01*
X15923593Y8333244D01*
X15596485Y8333244D01*
X15463125Y8532830D01*
X15171975Y8727371D01*
X14828540Y8795684D01*
X14178538Y8795684D01*
X13835103Y8727371D01*
X13543953Y8532830D01*
X13543162Y8531647D01*
X13388237Y8686571D01*
X13154848Y8783244D01*
X12739289Y8783244D01*
X12580539Y8624494D01*
X12580539Y7575244D01*
X12600539Y7575244D01*
X12600539Y7321244D01*
X12580539Y7321244D01*
X12580539Y6271994D01*
X12739289Y6113244D01*
X13154848Y6113244D01*
X13388237Y6209917D01*
X13543162Y6364841D01*
X13543953Y6363658D01*
X13835103Y6169117D01*
X14178538Y6100804D01*
X14828540Y6100804D01*
X15171975Y6169117D01*
X15463125Y6363658D01*
X15596485Y6563244D01*
X15923593Y6563244D01*
X16056953Y6363658D01*
X16348103Y6169117D01*
X16691538Y6100804D01*
X17341540Y6100804D01*
X17684975Y6169117D01*
X17976125Y6363658D01*
X18041539Y6461557D01*
X18106953Y6363658D01*
X18398103Y6169117D01*
X18741538Y6100804D01*
X19391540Y6100804D01*
X19734975Y6169117D01*
X20026125Y6363658D01*
X20104531Y6481000D01*
X24550839Y6481000D01*
X24638000Y6463663D01*
X24725161Y6481000D01*
X24725165Y6481000D01*
X24983310Y6532348D01*
X25276049Y6727951D01*
X25325425Y6801847D01*
X26853156Y8329577D01*
X26905453Y8364521D01*
X26923718Y127000D01*
X126719Y127000D01*
X119864Y3218889D01*
X640920Y3218889D01*
X640920Y2329751D01*
X981179Y1508294D01*
X1609894Y879579D01*
X2431351Y539320D01*
X3320489Y539320D01*
X4141946Y879579D01*
X4770661Y1508294D01*
X5110920Y2329751D01*
X5110920Y3218889D01*
X21640920Y3218889D01*
X21640920Y2329751D01*
X21981179Y1508294D01*
X22609894Y879579D01*
X23431351Y539320D01*
X24320489Y539320D01*
X25141946Y879579D01*
X25770661Y1508294D01*
X26110920Y2329751D01*
X26110920Y3218889D01*
X25770661Y4040346D01*
X25141946Y4669061D01*
X24320489Y5009320D01*
X23431351Y5009320D01*
X22609894Y4669061D01*
X21981179Y4040346D01*
X21640920Y3218889D01*
X5110920Y3218889D01*
X4770661Y4040346D01*
X4141946Y4669061D01*
X3320489Y5009320D01*
X2431351Y5009320D01*
X1609894Y4669061D01*
X981179Y4040346D01*
X640920Y3218889D01*
X119864Y3218889D01*
X111120Y7162494D01*
X11243539Y7162494D01*
X11243539Y6621934D01*
X11340212Y6388545D01*
X11518841Y6209917D01*
X11752230Y6113244D01*
X12167789Y6113244D01*
X12326539Y6271994D01*
X12326539Y7321244D01*
X11402289Y7321244D01*
X11243539Y7162494D01*
X111120Y7162494D01*
X108655Y8274554D01*
X11243539Y8274554D01*
X11243539Y7733994D01*
X11402289Y7575244D01*
X12326539Y7575244D01*
X12326539Y8624494D01*
X12167789Y8783244D01*
X11752230Y8783244D01*
X11518841Y8686571D01*
X11340212Y8507943D01*
X11243539Y8274554D01*
X108655Y8274554D01*
X58150Y31052201D01*
X258920Y31052201D01*
X258920Y30496439D01*
X471600Y29982983D01*
X864583Y29590000D01*
X1071433Y29504320D01*
X864583Y29418640D01*
X471600Y29025657D01*
X258920Y28512201D01*
X258920Y27956439D01*
X471600Y27442983D01*
X864583Y27050000D01*
X1071433Y26964320D01*
X864583Y26878640D01*
X471600Y26485657D01*
X258920Y25972201D01*
X258920Y25416439D01*
X471600Y24902983D01*
X864583Y24510000D01*
X1071433Y24424320D01*
X864583Y24338640D01*
X471600Y23945657D01*
X258920Y23432201D01*
X258920Y22876439D01*
X471600Y22362983D01*
X864583Y21970000D01*
X1071433Y21884320D01*
X864583Y21798640D01*
X471600Y21405657D01*
X258920Y20892201D01*
X258920Y20336439D01*
X471600Y19822983D01*
X864583Y19430000D01*
X1071433Y19344320D01*
X864583Y19258640D01*
X471600Y18865657D01*
X258920Y18352201D01*
X258920Y17796439D01*
X471600Y17282983D01*
X864583Y16890000D01*
X1071433Y16804320D01*
X864583Y16718640D01*
X471600Y16325657D01*
X258920Y15812201D01*
X258920Y15256439D01*
X471600Y14742983D01*
X864583Y14350000D01*
X1071433Y14264320D01*
X864583Y14178640D01*
X471600Y13785657D01*
X258920Y13272201D01*
X258920Y12716439D01*
X471600Y12202983D01*
X864583Y11810000D01*
X1071433Y11724320D01*
X864583Y11638640D01*
X471600Y11245657D01*
X258920Y10732201D01*
X258920Y10176439D01*
X471600Y9662983D01*
X864583Y9270000D01*
X1378039Y9057320D01*
X1933801Y9057320D01*
X2447257Y9270000D01*
X2840240Y9662983D01*
X3052920Y10176439D01*
X3052920Y10732201D01*
X2840240Y11245657D01*
X2447257Y11638640D01*
X2240407Y11724320D01*
X2447257Y11810000D01*
X2840240Y12202983D01*
X3052920Y12716439D01*
X3052920Y13272201D01*
X2840240Y13785657D01*
X2447257Y14178640D01*
X2240407Y14264320D01*
X2447257Y14350000D01*
X2840240Y14742983D01*
X3052920Y15256439D01*
X3052920Y15812201D01*
X2840240Y16325657D01*
X2447257Y16718640D01*
X2240407Y16804320D01*
X2447257Y16890000D01*
X2840240Y17282983D01*
X3052920Y17796439D01*
X3052920Y18352201D01*
X2840240Y18865657D01*
X2447257Y19258640D01*
X2240407Y19344320D01*
X2447257Y19430000D01*
X2840240Y19822983D01*
X3052920Y20336439D01*
X3052920Y20892201D01*
X2840240Y21405657D01*
X2447257Y21798640D01*
X2240407Y21884320D01*
X2447257Y21970000D01*
X2840240Y22362983D01*
X3052920Y22876439D01*
X3052920Y23432201D01*
X2840240Y23945657D01*
X2447257Y24338640D01*
X2240407Y24424320D01*
X2447257Y24510000D01*
X2840240Y24902983D01*
X3052920Y25416439D01*
X3052920Y25972201D01*
X2840240Y26485657D01*
X2447257Y26878640D01*
X2240407Y26964320D01*
X2447257Y27050000D01*
X2840240Y27442983D01*
X3052920Y27956439D01*
X3052920Y28512201D01*
X2840240Y29025657D01*
X2447257Y29418640D01*
X2240407Y29504320D01*
X2447257Y29590000D01*
X2840240Y29982983D01*
X3052920Y30496439D01*
X3052920Y31052201D01*
X2840240Y31565657D01*
X2447257Y31958640D01*
X2256273Y32037748D01*
X2387063Y32091923D01*
X2456528Y32334107D01*
X1655920Y33134715D01*
X855312Y32334107D01*
X924777Y32091923D01*
X1065313Y32041785D01*
X864583Y31958640D01*
X471600Y31565657D01*
X258920Y31052201D01*
X58150Y31052201D01*
X52673Y33522018D01*
X246776Y33522018D01*
X274558Y32966952D01*
X433523Y32583177D01*
X675707Y32513712D01*
X1476315Y33314320D01*
X1835525Y33314320D01*
X2636133Y32513712D01*
X2878317Y32583177D01*
X3065064Y33106622D01*
X3037282Y33661688D01*
X2878317Y34045463D01*
X2636133Y34114928D01*
X1835525Y33314320D01*
X1476315Y33314320D01*
X675707Y34114928D01*
X433523Y34045463D01*
X246776Y33522018D01*
X52673Y33522018D01*
X30145Y43682018D01*
X246776Y43682018D01*
X274558Y43126952D01*
X433523Y42743177D01*
X675707Y42673712D01*
X1476315Y43474320D01*
X675707Y44274928D01*
X433523Y44205463D01*
X246776Y43682018D01*
X30145Y43682018D01*
X13761Y51071250D01*
X3341000Y51071250D01*
X3341000Y50830691D01*
X3437673Y50597302D01*
X3616301Y50418673D01*
X3849690Y50322000D01*
X4540250Y50322000D01*
X4699000Y50480750D01*
X4699000Y51230000D01*
X4953000Y51230000D01*
X4953000Y50480750D01*
X5111750Y50322000D01*
X5802310Y50322000D01*
X6035699Y50418673D01*
X6214327Y50597302D01*
X6311000Y50830691D01*
X6311000Y51071250D01*
X6152250Y51230000D01*
X4953000Y51230000D01*
X4699000Y51230000D01*
X3499750Y51230000D01*
X3341000Y51071250D01*
X13761Y51071250D01*
X11961Y51883309D01*
X3341000Y51883309D01*
X3341000Y51642750D01*
X3499750Y51484000D01*
X4699000Y51484000D01*
X4699000Y52233250D01*
X4953000Y52233250D01*
X4953000Y51484000D01*
X6152250Y51484000D01*
X6311000Y51642750D01*
X6311000Y51883309D01*
X6214327Y52116698D01*
X6035699Y52295327D01*
X5802310Y52392000D01*
X5111750Y52392000D01*
X4953000Y52233250D01*
X4699000Y52233250D01*
X4540250Y52392000D01*
X3849690Y52392000D01*
X3616301Y52295327D01*
X3437673Y52116698D01*
X3341000Y51883309D01*
X11961Y51883309D01*
X4564Y55218889D01*
X640920Y55218889D01*
X640920Y54329751D01*
X981179Y53508294D01*
X1609894Y52879579D01*
X2431351Y52539320D01*
X3320489Y52539320D01*
X4141946Y52879579D01*
X4770661Y53508294D01*
X5004259Y54072250D01*
X13355000Y54072250D01*
X13355000Y52231691D01*
X13451673Y51998302D01*
X13630301Y51819673D01*
X13863690Y51723000D01*
X14954250Y51723000D01*
X15113000Y51881750D01*
X15113000Y54231000D01*
X15367000Y54231000D01*
X15367000Y51881750D01*
X15525750Y51723000D01*
X16616310Y51723000D01*
X16849699Y51819673D01*
X17028327Y51998302D01*
X17125000Y52231691D01*
X17125000Y54072250D01*
X16966250Y54231000D01*
X15367000Y54231000D01*
X15113000Y54231000D01*
X13513750Y54231000D01*
X13355000Y54072250D01*
X5004259Y54072250D01*
X5110920Y54329751D01*
X5110920Y55218889D01*
X4770661Y56040346D01*
X4326698Y56484309D01*
X13355000Y56484309D01*
X13355000Y54643750D01*
X13513750Y54485000D01*
X15113000Y54485000D01*
X15113000Y56834250D01*
X15367000Y56834250D01*
X15367000Y54485000D01*
X16966250Y54485000D01*
X17125000Y54643750D01*
X17125000Y55218889D01*
X21640920Y55218889D01*
X21640920Y54329751D01*
X21981179Y53508294D01*
X22609894Y52879579D01*
X23431351Y52539320D01*
X24320489Y52539320D01*
X25141946Y52879579D01*
X25770661Y53508294D01*
X26110920Y54329751D01*
X26110920Y55218889D01*
X25770661Y56040346D01*
X25141946Y56669061D01*
X24320489Y57009320D01*
X23431351Y57009320D01*
X22609894Y56669061D01*
X21981179Y56040346D01*
X21640920Y55218889D01*
X17125000Y55218889D01*
X17125000Y56484309D01*
X17028327Y56717698D01*
X16849699Y56896327D01*
X16616310Y56993000D01*
X15525750Y56993000D01*
X15367000Y56834250D01*
X15113000Y56834250D01*
X14954250Y56993000D01*
X13863690Y56993000D01*
X13630301Y56896327D01*
X13451673Y56717698D01*
X13355000Y56484309D01*
X4326698Y56484309D01*
X4141946Y56669061D01*
X3320489Y57009320D01*
X2431351Y57009320D01*
X1609894Y56669061D01*
X981179Y56040346D01*
X640920Y55218889D01*
X4564Y55218889D01*
X282Y57150000D01*
X26797281Y57150000D01*
X26878302Y20609621D01*
X26878302Y20609621D01*
G37*
X26878302Y20609621D02*
X26853156Y20626423D01*
X26341425Y21138154D01*
X26292049Y21212049D01*
X25999310Y21407652D01*
X25799815Y21447334D01*
X25798860Y21447972D01*
X25540715Y21499320D01*
X25540711Y21499320D01*
X25453550Y21516657D01*
X25449955Y21515942D01*
X25167257Y21798640D01*
X24960407Y21884320D01*
X25167257Y21970000D01*
X25560240Y22362983D01*
X25772920Y22876439D01*
X25772920Y23432201D01*
X25560240Y23945657D01*
X25167257Y24338640D01*
X24976273Y24417748D01*
X25107063Y24471923D01*
X25176528Y24714107D01*
X24375920Y25514715D01*
X23575312Y24714107D01*
X23644777Y24471923D01*
X23785313Y24421785D01*
X23584583Y24338640D01*
X23191600Y23945657D01*
X22978920Y23432201D01*
X22978920Y22876439D01*
X23191600Y22362983D01*
X23584583Y21970000D01*
X23791433Y21884320D01*
X23584583Y21798640D01*
X23191600Y21405657D01*
X22978920Y20892201D01*
X22978920Y20336439D01*
X23191600Y19822983D01*
X23584583Y19430000D01*
X23791433Y19344320D01*
X23584583Y19258640D01*
X23191600Y18865657D01*
X22978920Y18352201D01*
X22978920Y17796439D01*
X23191600Y17282983D01*
X23584583Y16890000D01*
X23791433Y16804320D01*
X23584583Y16718640D01*
X23285263Y16419320D01*
X21662259Y16419320D01*
X17776000Y20305578D01*
X17776000Y26057422D01*
X18616577Y25216844D01*
X18665951Y25142951D01*
X18739844Y25093577D01*
X18739845Y25093576D01*
X18850880Y25019385D01*
X18958690Y24947348D01*
X19216835Y24896000D01*
X19216839Y24896000D01*
X19303999Y24878663D01*
X19391159Y24896000D01*
X21835439Y24896000D01*
X21922600Y24878663D01*
X22009761Y24896000D01*
X22009765Y24896000D01*
X22267910Y24947348D01*
X22560649Y25142951D01*
X22610025Y25216847D01*
X22982430Y25589252D01*
X22994558Y25346952D01*
X23153523Y24963177D01*
X23395707Y24893712D01*
X24196315Y25694320D01*
X24555525Y25694320D01*
X25356133Y24893712D01*
X25598317Y24963177D01*
X25785064Y25486622D01*
X25757282Y26041688D01*
X25598317Y26425463D01*
X25356133Y26494928D01*
X24555525Y25694320D01*
X24196315Y25694320D01*
X24182173Y25708462D01*
X24361778Y25888067D01*
X24375920Y25873925D01*
X25176528Y26674533D01*
X25107063Y26916717D01*
X24966527Y26966855D01*
X25167257Y27050000D01*
X25560240Y27442983D01*
X25772920Y27956439D01*
X25772920Y28512201D01*
X25560240Y29025657D01*
X25167257Y29418640D01*
X24960407Y29504320D01*
X25167257Y29590000D01*
X25560240Y29982983D01*
X25772920Y30496439D01*
X25772920Y31052201D01*
X25560240Y31565657D01*
X25167257Y31958640D01*
X24960407Y32044320D01*
X25167257Y32130000D01*
X25560240Y32522983D01*
X25772920Y33036439D01*
X25772920Y33592201D01*
X25560240Y34105657D01*
X25167257Y34498640D01*
X24960407Y34584320D01*
X25167257Y34670000D01*
X25560240Y35062983D01*
X25772920Y35576439D01*
X25772920Y36132201D01*
X25560240Y36645657D01*
X25167257Y37038640D01*
X24960407Y37124320D01*
X25167257Y37210000D01*
X25560240Y37602983D01*
X25772920Y38116439D01*
X25772920Y38672201D01*
X25560240Y39185657D01*
X25167257Y39578640D01*
X24960407Y39664320D01*
X25167257Y39750000D01*
X25560240Y40142983D01*
X25772920Y40656439D01*
X25772920Y41212201D01*
X25560240Y41725657D01*
X25167257Y42118640D01*
X24976273Y42197748D01*
X25107063Y42251923D01*
X25176528Y42494107D01*
X24375920Y43294715D01*
X23575312Y42494107D01*
X23644777Y42251923D01*
X23785313Y42201785D01*
X23584583Y42118640D01*
X23191600Y41725657D01*
X22978920Y41212201D01*
X22978920Y40656439D01*
X23191600Y40142983D01*
X23584583Y39750000D01*
X23791433Y39664320D01*
X23584583Y39578640D01*
X23191600Y39185657D01*
X22978920Y38672201D01*
X22978920Y38116439D01*
X23191600Y37602983D01*
X23584583Y37210000D01*
X23791433Y37124320D01*
X23667000Y37072778D01*
X23411665Y37328114D01*
X23362289Y37402009D01*
X23069550Y37597612D01*
X22811405Y37648960D01*
X22811401Y37648960D01*
X22724240Y37666297D01*
X22719716Y37665397D01*
X22682049Y37721769D01*
X22618906Y37763960D01*
X22682049Y37806151D01*
X22822397Y38016195D01*
X22871680Y38263960D01*
X22871680Y39263960D01*
X22822397Y39511725D01*
X22682049Y39721769D01*
X22618906Y39763960D01*
X22682049Y39806151D01*
X22822397Y40016195D01*
X22871680Y40263960D01*
X22871680Y41263960D01*
X22822397Y41511725D01*
X22682049Y41721769D01*
X22620920Y41762615D01*
X22762567Y41904261D01*
X22859240Y42137650D01*
X22859240Y42478210D01*
X22700490Y42636960D01*
X21351240Y42636960D01*
X21351240Y42616960D01*
X21097240Y42616960D01*
X21097240Y42636960D01*
X19747990Y42636960D01*
X19589240Y42478210D01*
X19589240Y42137650D01*
X19685913Y41904261D01*
X19827560Y41762615D01*
X19766431Y41721769D01*
X19626083Y41511725D01*
X19576800Y41263960D01*
X19576800Y40263960D01*
X19626083Y40016195D01*
X19766431Y39806151D01*
X19829574Y39763960D01*
X19766431Y39721769D01*
X19728764Y39665397D01*
X19724239Y39666297D01*
X19637079Y39648960D01*
X19637075Y39648960D01*
X19378930Y39597612D01*
X19378928Y39597611D01*
X19378929Y39597611D01*
X19160085Y39451384D01*
X19160084Y39451383D01*
X19086191Y39402009D01*
X19036817Y39328116D01*
X16326847Y36618145D01*
X16252951Y36568769D01*
X16057348Y36276029D01*
X16006000Y36017884D01*
X16006000Y36017881D01*
X15988663Y35930720D01*
X16006000Y35843559D01*
X16006001Y24422138D01*
X15998000Y24462361D01*
X15998000Y24462365D01*
X15946652Y24720510D01*
X15751049Y25013249D01*
X15677156Y25062622D01*
X7411664Y33328114D01*
X7362289Y33402009D01*
X7069550Y33597612D01*
X6811405Y33648960D01*
X6811401Y33648960D01*
X6724240Y33666297D01*
X6719716Y33665397D01*
X6682049Y33721769D01*
X6618906Y33763960D01*
X6682049Y33806151D01*
X6719716Y33862523D01*
X6724240Y33861623D01*
X6811401Y33878960D01*
X6811405Y33878960D01*
X7069550Y33930308D01*
X7362289Y34125911D01*
X7411665Y34199807D01*
X9962156Y36750297D01*
X10036049Y36799671D01*
X10231652Y37092410D01*
X10283000Y37350555D01*
X10283000Y37350559D01*
X10300337Y37437720D01*
X10283000Y37524881D01*
X10283000Y42813422D01*
X10859848Y43390270D01*
X19589240Y43390270D01*
X19589240Y43049710D01*
X19747990Y42890960D01*
X21097240Y42890960D01*
X21097240Y43740210D01*
X21351240Y43740210D01*
X21351240Y42890960D01*
X22700490Y42890960D01*
X22859240Y43049710D01*
X22859240Y43390270D01*
X22762567Y43623659D01*
X22704208Y43682018D01*
X22966776Y43682018D01*
X22994558Y43126952D01*
X23153523Y42743177D01*
X23395707Y42673712D01*
X24196315Y43474320D01*
X24555525Y43474320D01*
X25356133Y42673712D01*
X25598317Y42743177D01*
X25785064Y43266622D01*
X25757282Y43821688D01*
X25598317Y44205463D01*
X25356133Y44274928D01*
X24555525Y43474320D01*
X24196315Y43474320D01*
X23395707Y44274928D01*
X23153523Y44205463D01*
X22966776Y43682018D01*
X22704208Y43682018D01*
X22583938Y43802287D01*
X22350549Y43898960D01*
X21509990Y43898960D01*
X21351240Y43740210D01*
X21097240Y43740210D01*
X20938490Y43898960D01*
X20097931Y43898960D01*
X19864542Y43802287D01*
X19685913Y43623659D01*
X19589240Y43390270D01*
X10859848Y43390270D01*
X12598899Y45129320D01*
X14898839Y45129320D01*
X14986000Y45111983D01*
X15073161Y45129320D01*
X23285263Y45129320D01*
X23584583Y44830000D01*
X23775567Y44750892D01*
X23644777Y44696717D01*
X23575312Y44454533D01*
X24375920Y43653925D01*
X25176528Y44454533D01*
X25107063Y44696717D01*
X24966527Y44746855D01*
X25167257Y44830000D01*
X25560240Y45222983D01*
X25772920Y45736439D01*
X25772920Y46292201D01*
X25560240Y46805657D01*
X25167257Y47198640D01*
X24653801Y47411320D01*
X24098039Y47411320D01*
X23584583Y47198640D01*
X23285263Y46899320D01*
X17137440Y46899320D01*
X17137440Y50258000D01*
X17088157Y50505765D01*
X16947809Y50715809D01*
X16737765Y50856157D01*
X16490000Y50905440D01*
X13990000Y50905440D01*
X13742235Y50856157D01*
X13532191Y50715809D01*
X13391843Y50505765D01*
X13342560Y50258000D01*
X13342560Y46899320D01*
X12319481Y46899320D01*
X12232320Y46916657D01*
X12145159Y46899320D01*
X12145155Y46899320D01*
X11887010Y46847972D01*
X11668165Y46701744D01*
X11668164Y46701743D01*
X11594271Y46652369D01*
X11544897Y46578476D01*
X9818000Y44851579D01*
X9774463Y44895115D01*
X9788127Y44915564D01*
X9856440Y45258999D01*
X9856440Y45909001D01*
X9788127Y46252436D01*
X9593586Y46543586D01*
X9592403Y46544377D01*
X9747327Y46699302D01*
X9844000Y46932691D01*
X9844000Y47348250D01*
X9685250Y47507000D01*
X8636000Y47507000D01*
X8636000Y47487000D01*
X8382000Y47487000D01*
X8382000Y47507000D01*
X7332750Y47507000D01*
X7174000Y47348250D01*
X7174000Y46932691D01*
X7270673Y46699302D01*
X7425597Y46544377D01*
X7424414Y46543586D01*
X7229873Y46252436D01*
X7161560Y45909001D01*
X7161560Y45258999D01*
X7229873Y44915564D01*
X7424414Y44624414D01*
X7715564Y44429873D01*
X7772304Y44418587D01*
X7821576Y44344846D01*
X7821578Y44344844D01*
X7870952Y44270951D01*
X7944845Y44221577D01*
X8513000Y43653421D01*
X8513000Y43267161D01*
X8495663Y43180000D01*
X8513000Y43092839D01*
X8513000Y43092835D01*
X8513001Y43092830D01*
X8513000Y37804299D01*
X6846606Y36137905D01*
X6871680Y36263960D01*
X6871680Y37263960D01*
X6822397Y37511725D01*
X6682049Y37721769D01*
X6618906Y37763960D01*
X6682049Y37806151D01*
X6822397Y38016195D01*
X6871680Y38263960D01*
X6871680Y39263960D01*
X6822397Y39511725D01*
X6682049Y39721769D01*
X6620920Y39762615D01*
X6762567Y39904261D01*
X6859240Y40137650D01*
X6859240Y40478210D01*
X6700490Y40636960D01*
X5351240Y40636960D01*
X5351240Y40616960D01*
X5097240Y40616960D01*
X5097240Y40636960D01*
X5077240Y40636960D01*
X5077240Y40890960D01*
X5097240Y40890960D01*
X5097240Y40910960D01*
X5351240Y40910960D01*
X5351240Y40890960D01*
X6700490Y40890960D01*
X6859240Y41049710D01*
X6859240Y41390270D01*
X6762567Y41623659D01*
X6620920Y41765305D01*
X6682049Y41806151D01*
X6822397Y42016195D01*
X6871680Y42263960D01*
X6871680Y43263960D01*
X6822397Y43511725D01*
X6682049Y43721769D01*
X6472005Y43862117D01*
X6224240Y43911400D01*
X4224240Y43911400D01*
X4060000Y43878731D01*
X4060000Y45039422D01*
X5390156Y46369577D01*
X5464049Y46418951D01*
X5570640Y46578474D01*
X5659652Y46711690D01*
X5686760Y46847972D01*
X5699959Y46914326D01*
X5923765Y46958843D01*
X6133809Y47099191D01*
X6274157Y47309235D01*
X6323440Y47557000D01*
X6323440Y48335309D01*
X7174000Y48335309D01*
X7174000Y47919750D01*
X7332750Y47761000D01*
X8382000Y47761000D01*
X8382000Y48685250D01*
X8636000Y48685250D01*
X8636000Y47761000D01*
X9685250Y47761000D01*
X9844000Y47919750D01*
X9844000Y48335309D01*
X9747327Y48568698D01*
X9568699Y48747327D01*
X9335310Y48844000D01*
X8794750Y48844000D01*
X8636000Y48685250D01*
X8382000Y48685250D01*
X8223250Y48844000D01*
X7682690Y48844000D01*
X7449301Y48747327D01*
X7270673Y48568698D01*
X7174000Y48335309D01*
X6323440Y48335309D01*
X6323440Y48357000D01*
X6274157Y48604765D01*
X6133809Y48814809D01*
X5923765Y48955157D01*
X5676000Y49004440D01*
X3976000Y49004440D01*
X3728235Y48955157D01*
X3518191Y48814809D01*
X3377843Y48604765D01*
X3328560Y48357000D01*
X3328560Y47557000D01*
X3377843Y47309235D01*
X3518191Y47099191D01*
X3577190Y47059769D01*
X2981660Y46464238D01*
X2840240Y46805657D01*
X2447257Y47198640D01*
X1933801Y47411320D01*
X1378039Y47411320D01*
X864583Y47198640D01*
X471600Y46805657D01*
X258920Y46292201D01*
X258920Y45736439D01*
X471600Y45222983D01*
X864583Y44830000D01*
X1055567Y44750892D01*
X924777Y44696717D01*
X855312Y44454533D01*
X1655920Y43653925D01*
X1670063Y43668067D01*
X1849668Y43488462D01*
X1835525Y43474320D01*
X1849668Y43460177D01*
X1670063Y43280572D01*
X1655920Y43294715D01*
X855312Y42494107D01*
X924777Y42251923D01*
X1065313Y42201785D01*
X864583Y42118640D01*
X471600Y41725657D01*
X258920Y41212201D01*
X258920Y40656439D01*
X471600Y40142983D01*
X864583Y39750000D01*
X1071433Y39664320D01*
X864583Y39578640D01*
X471600Y39185657D01*
X258920Y38672201D01*
X258920Y38116439D01*
X471600Y37602983D01*
X864583Y37210000D01*
X1071433Y37124320D01*
X864583Y37038640D01*
X471600Y36645657D01*
X258920Y36132201D01*
X258920Y35576439D01*
X471600Y35062983D01*
X864583Y34670000D01*
X1055567Y34590892D01*
X924777Y34536717D01*
X855312Y34294533D01*
X1655920Y33493925D01*
X2456528Y34294533D01*
X2387063Y34536717D01*
X2246527Y34586855D01*
X2447257Y34670000D01*
X2506939Y34729682D01*
X3036816Y34199805D01*
X3086191Y34125911D01*
X3160084Y34076537D01*
X3160085Y34076536D01*
X3378930Y33930308D01*
X3637075Y33878960D01*
X3637078Y33878960D01*
X3724239Y33861623D01*
X3728764Y33862523D01*
X3766431Y33806151D01*
X3829574Y33763960D01*
X3766431Y33721769D01*
X3626083Y33511725D01*
X3576800Y33263960D01*
X3576800Y32263960D01*
X3626083Y32016195D01*
X3766431Y31806151D01*
X3829574Y31763960D01*
X3766431Y31721769D01*
X3626083Y31511725D01*
X3576800Y31263960D01*
X3576800Y30263960D01*
X3626083Y30016195D01*
X3766431Y29806151D01*
X3829574Y29763960D01*
X3766431Y29721769D01*
X3626083Y29511725D01*
X3576800Y29263960D01*
X3576800Y28263960D01*
X3626083Y28016195D01*
X3766431Y27806151D01*
X3976475Y27665803D01*
X4224240Y27616520D01*
X6224240Y27616520D01*
X6472005Y27665803D01*
X6682049Y27806151D01*
X6822397Y28016195D01*
X6871680Y28263960D01*
X6871680Y29263960D01*
X6822397Y29511725D01*
X6682049Y29721769D01*
X6618906Y29763960D01*
X6682049Y29806151D01*
X6822397Y30016195D01*
X6871680Y30263960D01*
X6871680Y31263960D01*
X6846606Y31390016D01*
X14228000Y24008621D01*
X14228001Y19137165D01*
X14210663Y19050000D01*
X14279348Y18704691D01*
X14425576Y18485846D01*
X14425578Y18485844D01*
X14474952Y18411951D01*
X14548845Y18362577D01*
X20481257Y12430164D01*
X20530631Y12356271D01*
X20604524Y12306897D01*
X20604525Y12306896D01*
X20760041Y12202983D01*
X20823370Y12160668D01*
X21081515Y12109320D01*
X21081519Y12109320D01*
X21168680Y12091983D01*
X21255841Y12109320D01*
X23285263Y12109320D01*
X23584583Y11810000D01*
X23791433Y11724320D01*
X23584583Y11638640D01*
X23191600Y11245657D01*
X22978920Y10732201D01*
X22978920Y10176439D01*
X23191600Y9662983D01*
X23584583Y9270000D01*
X24098039Y9057320D01*
X24653801Y9057320D01*
X25167257Y9270000D01*
X25404001Y9506744D01*
X25404001Y9383580D01*
X24271422Y8251000D01*
X20214439Y8251000D01*
X20026125Y8532830D01*
X19734975Y8727371D01*
X19391540Y8795684D01*
X18741538Y8795684D01*
X18398103Y8727371D01*
X18106953Y8532830D01*
X18041539Y8434931D01*
X17976125Y8532830D01*
X17684975Y8727371D01*
X17341540Y8795684D01*
X16691538Y8795684D01*
X16348103Y8727371D01*
X16056953Y8532830D01*
X15923593Y8333244D01*
X15596485Y8333244D01*
X15463125Y8532830D01*
X15171975Y8727371D01*
X14828540Y8795684D01*
X14178538Y8795684D01*
X13835103Y8727371D01*
X13543953Y8532830D01*
X13543162Y8531647D01*
X13388237Y8686571D01*
X13154848Y8783244D01*
X12739289Y8783244D01*
X12580539Y8624494D01*
X12580539Y7575244D01*
X12600539Y7575244D01*
X12600539Y7321244D01*
X12580539Y7321244D01*
X12580539Y6271994D01*
X12739289Y6113244D01*
X13154848Y6113244D01*
X13388237Y6209917D01*
X13543162Y6364841D01*
X13543953Y6363658D01*
X13835103Y6169117D01*
X14178538Y6100804D01*
X14828540Y6100804D01*
X15171975Y6169117D01*
X15463125Y6363658D01*
X15596485Y6563244D01*
X15923593Y6563244D01*
X16056953Y6363658D01*
X16348103Y6169117D01*
X16691538Y6100804D01*
X17341540Y6100804D01*
X17684975Y6169117D01*
X17976125Y6363658D01*
X18041539Y6461557D01*
X18106953Y6363658D01*
X18398103Y6169117D01*
X18741538Y6100804D01*
X19391540Y6100804D01*
X19734975Y6169117D01*
X20026125Y6363658D01*
X20104531Y6481000D01*
X24550839Y6481000D01*
X24638000Y6463663D01*
X24725161Y6481000D01*
X24725165Y6481000D01*
X24983310Y6532348D01*
X25276049Y6727951D01*
X25325425Y6801847D01*
X26853156Y8329577D01*
X26905453Y8364521D01*
X26923718Y127000D01*
X126719Y127000D01*
X119864Y3218889D01*
X640920Y3218889D01*
X640920Y2329751D01*
X981179Y1508294D01*
X1609894Y879579D01*
X2431351Y539320D01*
X3320489Y539320D01*
X4141946Y879579D01*
X4770661Y1508294D01*
X5110920Y2329751D01*
X5110920Y3218889D01*
X21640920Y3218889D01*
X21640920Y2329751D01*
X21981179Y1508294D01*
X22609894Y879579D01*
X23431351Y539320D01*
X24320489Y539320D01*
X25141946Y879579D01*
X25770661Y1508294D01*
X26110920Y2329751D01*
X26110920Y3218889D01*
X25770661Y4040346D01*
X25141946Y4669061D01*
X24320489Y5009320D01*
X23431351Y5009320D01*
X22609894Y4669061D01*
X21981179Y4040346D01*
X21640920Y3218889D01*
X5110920Y3218889D01*
X4770661Y4040346D01*
X4141946Y4669061D01*
X3320489Y5009320D01*
X2431351Y5009320D01*
X1609894Y4669061D01*
X981179Y4040346D01*
X640920Y3218889D01*
X119864Y3218889D01*
X111120Y7162494D01*
X11243539Y7162494D01*
X11243539Y6621934D01*
X11340212Y6388545D01*
X11518841Y6209917D01*
X11752230Y6113244D01*
X12167789Y6113244D01*
X12326539Y6271994D01*
X12326539Y7321244D01*
X11402289Y7321244D01*
X11243539Y7162494D01*
X111120Y7162494D01*
X108655Y8274554D01*
X11243539Y8274554D01*
X11243539Y7733994D01*
X11402289Y7575244D01*
X12326539Y7575244D01*
X12326539Y8624494D01*
X12167789Y8783244D01*
X11752230Y8783244D01*
X11518841Y8686571D01*
X11340212Y8507943D01*
X11243539Y8274554D01*
X108655Y8274554D01*
X58150Y31052201D01*
X258920Y31052201D01*
X258920Y30496439D01*
X471600Y29982983D01*
X864583Y29590000D01*
X1071433Y29504320D01*
X864583Y29418640D01*
X471600Y29025657D01*
X258920Y28512201D01*
X258920Y27956439D01*
X471600Y27442983D01*
X864583Y27050000D01*
X1071433Y26964320D01*
X864583Y26878640D01*
X471600Y26485657D01*
X258920Y25972201D01*
X258920Y25416439D01*
X471600Y24902983D01*
X864583Y24510000D01*
X1071433Y24424320D01*
X864583Y24338640D01*
X471600Y23945657D01*
X258920Y23432201D01*
X258920Y22876439D01*
X471600Y22362983D01*
X864583Y21970000D01*
X1071433Y21884320D01*
X864583Y21798640D01*
X471600Y21405657D01*
X258920Y20892201D01*
X258920Y20336439D01*
X471600Y19822983D01*
X864583Y19430000D01*
X1071433Y19344320D01*
X864583Y19258640D01*
X471600Y18865657D01*
X258920Y18352201D01*
X258920Y17796439D01*
X471600Y17282983D01*
X864583Y16890000D01*
X1071433Y16804320D01*
X864583Y16718640D01*
X471600Y16325657D01*
X258920Y15812201D01*
X258920Y15256439D01*
X471600Y14742983D01*
X864583Y14350000D01*
X1071433Y14264320D01*
X864583Y14178640D01*
X471600Y13785657D01*
X258920Y13272201D01*
X258920Y12716439D01*
X471600Y12202983D01*
X864583Y11810000D01*
X1071433Y11724320D01*
X864583Y11638640D01*
X471600Y11245657D01*
X258920Y10732201D01*
X258920Y10176439D01*
X471600Y9662983D01*
X864583Y9270000D01*
X1378039Y9057320D01*
X1933801Y9057320D01*
X2447257Y9270000D01*
X2840240Y9662983D01*
X3052920Y10176439D01*
X3052920Y10732201D01*
X2840240Y11245657D01*
X2447257Y11638640D01*
X2240407Y11724320D01*
X2447257Y11810000D01*
X2840240Y12202983D01*
X3052920Y12716439D01*
X3052920Y13272201D01*
X2840240Y13785657D01*
X2447257Y14178640D01*
X2240407Y14264320D01*
X2447257Y14350000D01*
X2840240Y14742983D01*
X3052920Y15256439D01*
X3052920Y15812201D01*
X2840240Y16325657D01*
X2447257Y16718640D01*
X2240407Y16804320D01*
X2447257Y16890000D01*
X2840240Y17282983D01*
X3052920Y17796439D01*
X3052920Y18352201D01*
X2840240Y18865657D01*
X2447257Y19258640D01*
X2240407Y19344320D01*
X2447257Y19430000D01*
X2840240Y19822983D01*
X3052920Y20336439D01*
X3052920Y20892201D01*
X2840240Y21405657D01*
X2447257Y21798640D01*
X2240407Y21884320D01*
X2447257Y21970000D01*
X2840240Y22362983D01*
X3052920Y22876439D01*
X3052920Y23432201D01*
X2840240Y23945657D01*
X2447257Y24338640D01*
X2240407Y24424320D01*
X2447257Y24510000D01*
X2840240Y24902983D01*
X3052920Y25416439D01*
X3052920Y25972201D01*
X2840240Y26485657D01*
X2447257Y26878640D01*
X2240407Y26964320D01*
X2447257Y27050000D01*
X2840240Y27442983D01*
X3052920Y27956439D01*
X3052920Y28512201D01*
X2840240Y29025657D01*
X2447257Y29418640D01*
X2240407Y29504320D01*
X2447257Y29590000D01*
X2840240Y29982983D01*
X3052920Y30496439D01*
X3052920Y31052201D01*
X2840240Y31565657D01*
X2447257Y31958640D01*
X2256273Y32037748D01*
X2387063Y32091923D01*
X2456528Y32334107D01*
X1655920Y33134715D01*
X855312Y32334107D01*
X924777Y32091923D01*
X1065313Y32041785D01*
X864583Y31958640D01*
X471600Y31565657D01*
X258920Y31052201D01*
X58150Y31052201D01*
X52673Y33522018D01*
X246776Y33522018D01*
X274558Y32966952D01*
X433523Y32583177D01*
X675707Y32513712D01*
X1476315Y33314320D01*
X1835525Y33314320D01*
X2636133Y32513712D01*
X2878317Y32583177D01*
X3065064Y33106622D01*
X3037282Y33661688D01*
X2878317Y34045463D01*
X2636133Y34114928D01*
X1835525Y33314320D01*
X1476315Y33314320D01*
X675707Y34114928D01*
X433523Y34045463D01*
X246776Y33522018D01*
X52673Y33522018D01*
X30145Y43682018D01*
X246776Y43682018D01*
X274558Y43126952D01*
X433523Y42743177D01*
X675707Y42673712D01*
X1476315Y43474320D01*
X675707Y44274928D01*
X433523Y44205463D01*
X246776Y43682018D01*
X30145Y43682018D01*
X13761Y51071250D01*
X3341000Y51071250D01*
X3341000Y50830691D01*
X3437673Y50597302D01*
X3616301Y50418673D01*
X3849690Y50322000D01*
X4540250Y50322000D01*
X4699000Y50480750D01*
X4699000Y51230000D01*
X4953000Y51230000D01*
X4953000Y50480750D01*
X5111750Y50322000D01*
X5802310Y50322000D01*
X6035699Y50418673D01*
X6214327Y50597302D01*
X6311000Y50830691D01*
X6311000Y51071250D01*
X6152250Y51230000D01*
X4953000Y51230000D01*
X4699000Y51230000D01*
X3499750Y51230000D01*
X3341000Y51071250D01*
X13761Y51071250D01*
X11961Y51883309D01*
X3341000Y51883309D01*
X3341000Y51642750D01*
X3499750Y51484000D01*
X4699000Y51484000D01*
X4699000Y52233250D01*
X4953000Y52233250D01*
X4953000Y51484000D01*
X6152250Y51484000D01*
X6311000Y51642750D01*
X6311000Y51883309D01*
X6214327Y52116698D01*
X6035699Y52295327D01*
X5802310Y52392000D01*
X5111750Y52392000D01*
X4953000Y52233250D01*
X4699000Y52233250D01*
X4540250Y52392000D01*
X3849690Y52392000D01*
X3616301Y52295327D01*
X3437673Y52116698D01*
X3341000Y51883309D01*
X11961Y51883309D01*
X4564Y55218889D01*
X640920Y55218889D01*
X640920Y54329751D01*
X981179Y53508294D01*
X1609894Y52879579D01*
X2431351Y52539320D01*
X3320489Y52539320D01*
X4141946Y52879579D01*
X4770661Y53508294D01*
X5004259Y54072250D01*
X13355000Y54072250D01*
X13355000Y52231691D01*
X13451673Y51998302D01*
X13630301Y51819673D01*
X13863690Y51723000D01*
X14954250Y51723000D01*
X15113000Y51881750D01*
X15113000Y54231000D01*
X15367000Y54231000D01*
X15367000Y51881750D01*
X15525750Y51723000D01*
X16616310Y51723000D01*
X16849699Y51819673D01*
X17028327Y51998302D01*
X17125000Y52231691D01*
X17125000Y54072250D01*
X16966250Y54231000D01*
X15367000Y54231000D01*
X15113000Y54231000D01*
X13513750Y54231000D01*
X13355000Y54072250D01*
X5004259Y54072250D01*
X5110920Y54329751D01*
X5110920Y55218889D01*
X4770661Y56040346D01*
X4326698Y56484309D01*
X13355000Y56484309D01*
X13355000Y54643750D01*
X13513750Y54485000D01*
X15113000Y54485000D01*
X15113000Y56834250D01*
X15367000Y56834250D01*
X15367000Y54485000D01*
X16966250Y54485000D01*
X17125000Y54643750D01*
X17125000Y55218889D01*
X21640920Y55218889D01*
X21640920Y54329751D01*
X21981179Y53508294D01*
X22609894Y52879579D01*
X23431351Y52539320D01*
X24320489Y52539320D01*
X25141946Y52879579D01*
X25770661Y53508294D01*
X26110920Y54329751D01*
X26110920Y55218889D01*
X25770661Y56040346D01*
X25141946Y56669061D01*
X24320489Y57009320D01*
X23431351Y57009320D01*
X22609894Y56669061D01*
X21981179Y56040346D01*
X21640920Y55218889D01*
X17125000Y55218889D01*
X17125000Y56484309D01*
X17028327Y56717698D01*
X16849699Y56896327D01*
X16616310Y56993000D01*
X15525750Y56993000D01*
X15367000Y56834250D01*
X15113000Y56834250D01*
X14954250Y56993000D01*
X13863690Y56993000D01*
X13630301Y56896327D01*
X13451673Y56717698D01*
X13355000Y56484309D01*
X4326698Y56484309D01*
X4141946Y56669061D01*
X3320489Y57009320D01*
X2431351Y57009320D01*
X1609894Y56669061D01*
X981179Y56040346D01*
X640920Y55218889D01*
X4564Y55218889D01*
X282Y57150000D01*
X26797281Y57150000D01*
X26878302Y20609621D01*
G36*
X19576800Y33263960D02*
X19576800Y32263960D01*
X19626083Y32016195D01*
X19766431Y31806151D01*
X19829574Y31763960D01*
X19766431Y31721769D01*
X19626083Y31511725D01*
X19576800Y31263960D01*
X19576800Y30263960D01*
X19626083Y30016195D01*
X19766431Y29806151D01*
X19827560Y29765305D01*
X19685913Y29623659D01*
X19589240Y29390270D01*
X19589240Y29049710D01*
X19747990Y28890960D01*
X21097240Y28890960D01*
X21097240Y28910960D01*
X21351240Y28910960D01*
X21351240Y28890960D01*
X22700490Y28890960D01*
X22859240Y29049710D01*
X22859240Y29390270D01*
X22762567Y29623659D01*
X22620920Y29765305D01*
X22682049Y29806151D01*
X22730699Y29878960D01*
X23295623Y29878960D01*
X23584583Y29590000D01*
X23791433Y29504320D01*
X23584583Y29418640D01*
X23191600Y29025657D01*
X22978920Y28512201D01*
X22978920Y28088899D01*
X21556022Y26666000D01*
X19670579Y26666000D01*
X19046000Y27290578D01*
X19046000Y28478210D01*
X19589240Y28478210D01*
X19589240Y28137650D01*
X19685913Y27904261D01*
X19864542Y27725633D01*
X20097931Y27628960D01*
X20938490Y27628960D01*
X21097240Y27787710D01*
X21097240Y28636960D01*
X21351240Y28636960D01*
X21351240Y27787710D01*
X21509990Y27628960D01*
X22350549Y27628960D01*
X22583938Y27725633D01*
X22762567Y27904261D01*
X22859240Y28137650D01*
X22859240Y28478210D01*
X22700490Y28636960D01*
X21351240Y28636960D01*
X21097240Y28636960D01*
X19747990Y28636960D01*
X19589240Y28478210D01*
X19046000Y28478210D01*
X19046000Y32834142D01*
X19601874Y33390015D01*
X19576800Y33263960D01*
X19576800Y33263960D01*
G37*
X19576800Y33263960D02*
X19576800Y32263960D01*
X19626083Y32016195D01*
X19766431Y31806151D01*
X19829574Y31763960D01*
X19766431Y31721769D01*
X19626083Y31511725D01*
X19576800Y31263960D01*
X19576800Y30263960D01*
X19626083Y30016195D01*
X19766431Y29806151D01*
X19827560Y29765305D01*
X19685913Y29623659D01*
X19589240Y29390270D01*
X19589240Y29049710D01*
X19747990Y28890960D01*
X21097240Y28890960D01*
X21097240Y28910960D01*
X21351240Y28910960D01*
X21351240Y28890960D01*
X22700490Y28890960D01*
X22859240Y29049710D01*
X22859240Y29390270D01*
X22762567Y29623659D01*
X22620920Y29765305D01*
X22682049Y29806151D01*
X22730699Y29878960D01*
X23295623Y29878960D01*
X23584583Y29590000D01*
X23791433Y29504320D01*
X23584583Y29418640D01*
X23191600Y29025657D01*
X22978920Y28512201D01*
X22978920Y28088899D01*
X21556022Y26666000D01*
X19670579Y26666000D01*
X19046000Y27290578D01*
X19046000Y28478210D01*
X19589240Y28478210D01*
X19589240Y28137650D01*
X19685913Y27904261D01*
X19864542Y27725633D01*
X20097931Y27628960D01*
X20938490Y27628960D01*
X21097240Y27787710D01*
X21097240Y28636960D01*
X21351240Y28636960D01*
X21351240Y27787710D01*
X21509990Y27628960D01*
X22350549Y27628960D01*
X22583938Y27725633D01*
X22762567Y27904261D01*
X22859240Y28137650D01*
X22859240Y28478210D01*
X22700490Y28636960D01*
X21351240Y28636960D01*
X21097240Y28636960D01*
X19747990Y28636960D01*
X19589240Y28478210D01*
X19046000Y28478210D01*
X19046000Y32834142D01*
X19601874Y33390015D01*
X19576800Y33263960D01*
G04 #@! TD*
M02*
