M48
;DRILL file {KiCad (5.0.0)} date 08/01/18 23:41:22
;FORMAT={-:-/ absolute / metric / decimal}
FMAT,2
METRIC,TZ
T1C0.762
T2C0.800
T3C1.000
T4C1.200
T5C1.540
T6C3.150
%
G90
G05
M71
T1
X22.098Y42.672
X27.178Y42.672
T2
X5.08Y13.208
X5.842Y69.342
X6.604Y34.544
X11.684Y66.04
X8.324Y26.478
X8.324Y17.718
T3
X26.162Y75.946
X26.162Y73.406
X26.162Y70.866
X26.162Y68.326
X26.162Y65.786
X26.162Y63.246
T4
X5.08Y79.502
X5.08Y76.002
X5.08Y72.502
T5
X12.902Y77.903
X12.902Y5.903
T6
X12.902Y69.403
X12.902Y14.403
T0
M30
